<svg width="100" height="100" viewBox="0 0 100 100" fill="none" xmlns="http://www.w3.org/2000/svg">
<g clip-path="url(#clip0_45_2958)">
<g filter="url(#filter0_d_45_2958)">
<path d="M80 8H20C14.4772 8 10 12.4772 10 18V78C10 83.5229 14.4772 88 20 88H80C85.5229 88 90 83.5229 90 78V18C90 12.4772 85.5229 8 80 8Z" fill="#4F4F4F"/>
<path d="M72.8572 27.7147C75.693 27.7147 78 30.0218 78 32.8575V62.5718C78 65.4076 75.693 67.7146 72.8572 67.7146H27.1428C24.3071 67.7146 22 65.4076 22 62.5718V32.8575C22 30.0218 24.3071 27.7147 27.1428 27.7147H72.8572ZM72.8571 26.5718H27.1428C23.6713 26.5718 20.8571 29.386 20.8571 32.8575V62.5718C20.8571 66.0433 23.6713 68.8575 27.1428 68.8575H72.8571C76.3286 68.8575 79.1429 66.0433 79.1429 62.5718V32.8575C79.1429 29.386 76.3286 26.5718 72.8571 26.5718Z" fill="#BCC1C5"/>
<path d="M20.8572 62.5718C20.8572 66.0434 23.6713 68.8574 27.1428 68.8574H72.8572C76.3287 68.8574 79.1428 66.0434 79.1428 62.5718H20.8572Z" fill="#BCC1C5"/>
<path d="M50.0001 68.8575V74.2861" stroke="#BCC1C5" stroke-width="1.1429"/>
<path d="M35.1429 74.5718H64.8572" stroke="#BCC1C5" stroke-width="1.1429"/>
<path d="M38.0001 40.1089V55.2889" stroke="#4285F4" stroke-width="4" stroke-linecap="round"/>
<path d="M46.0001 45.807V49.602" stroke="#EA4335" stroke-width="4" stroke-linecap="round"/>
<path d="M54.0001 42.008V53.393" stroke="#FFF9B8" stroke-width="4" stroke-linecap="round"/>
<path d="M62.0001 43.908V51.498" stroke="#34A853" stroke-width="4" stroke-linecap="round"/>
</g>
</g>
<defs>
<filter id="filter0_d_45_2958" x="0" y="0" width="100" height="100" filterUnits="userSpaceOnUse" color-interpolation-filters="sRGB">
<feFlood flood-opacity="0" result="BackgroundImageFix"/>
<feColorMatrix in="SourceAlpha" type="matrix" values="0 0 0 0 0 0 0 0 0 0 0 0 0 0 0 0 0 0 127 0" result="hardAlpha"/>
<feOffset dy="2"/>
<feGaussianBlur stdDeviation="5"/>
<feColorMatrix type="matrix" values="0 0 0 0 0 0 0 0 0 0 0 0 0 0 0 0 0 0 0.5 0"/>
<feBlend mode="normal" in2="BackgroundImageFix" result="effect1_dropShadow_45_2958"/>
<feBlend mode="normal" in="SourceGraphic" in2="effect1_dropShadow_45_2958" result="shape"/>
</filter>
<clipPath id="clip0_45_2958">
<rect width="100" height="100" fill="white"/>
</clipPath>
</defs>
</svg>
