<svg width="100" height="100" viewBox="0 0 100 100" fill="none" xmlns="http://www.w3.org/2000/svg">
<g clip-path="url(#clip0_45_2879)">
<g filter="url(#filter0_d_45_2879)">
<path d="M80 8H20C14.4772 8 10 12.4772 10 18V78C10 83.5229 14.4772 88 20 88H80C85.5229 88 90 83.5229 90 78V18C90 12.4772 85.5229 8 80 8Z" fill="#4F4F4F"/>
<path fill-rule="evenodd" clip-rule="evenodd" d="M22 29H35C35.5523 29 36 29.4477 36 30C36 30.5523 35.5523 31 35 31H22C21.4477 31 21 30.5523 21 30C21 29.4477 21.4477 29 22 29Z" fill="#BCC1C5" stroke="#BCC1C5"/>
<path fill-rule="evenodd" clip-rule="evenodd" d="M22 36H35C35.5523 36 36 36.4477 36 37C36 37.5523 35.5523 38 35 38H22C21.4477 38 21 37.5523 21 37C21 36.4477 21.4477 36 22 36Z" fill="#BCC1C5" stroke="#BCC1C5"/>
<path fill-rule="evenodd" clip-rule="evenodd" d="M65 29H78C78.5523 29 79 29.4477 79 30C79 30.5523 78.5523 31 78 31H65C64.4477 31 64 30.5523 64 30C64 29.4477 64.4477 29 65 29Z" fill="#BCC1C5" stroke="#BCC1C5"/>
<path fill-rule="evenodd" clip-rule="evenodd" d="M65 36H78C78.5523 36 79 36.4477 79 37C79 37.5523 78.5523 38 78 38H65C64.4477 38 64 37.5523 64 37C64 36.4477 64.4477 36 65 36Z" fill="#BCC1C5" stroke="#BCC1C5"/>
<path fill-rule="evenodd" clip-rule="evenodd" d="M41 25H59V41.0115L50 50.112L41 41.0115V25Z" stroke="#BCC1C5" stroke-width="2"/>
<path d="M45 31C46.1046 31 47 30.1046 47 29C47 27.8954 46.1046 27 45 27C43.8954 27 43 27.8954 43 29C43 30.1046 43.8954 31 45 31Z" fill="#BCC1C5"/>
</g>
</g>
<defs>
<filter id="filter0_d_45_2879" x="0" y="0" width="100" height="100" filterUnits="userSpaceOnUse" color-interpolation-filters="sRGB">
<feFlood flood-opacity="0" result="BackgroundImageFix"/>
<feColorMatrix in="SourceAlpha" type="matrix" values="0 0 0 0 0 0 0 0 0 0 0 0 0 0 0 0 0 0 127 0" result="hardAlpha"/>
<feOffset dy="2"/>
<feGaussianBlur stdDeviation="5"/>
<feColorMatrix type="matrix" values="0 0 0 0 0 0 0 0 0 0 0 0 0 0 0 0 0 0 0.5 0"/>
<feBlend mode="normal" in2="BackgroundImageFix" result="effect1_dropShadow_45_2879"/>
<feBlend mode="normal" in="SourceGraphic" in2="effect1_dropShadow_45_2879" result="shape"/>
</filter>
<clipPath id="clip0_45_2879">
<rect width="100" height="100" fill="white"/>
</clipPath>
</defs>
</svg>
