<svg width="100" height="100" viewBox="0 0 100 100" fill="none" xmlns="http://www.w3.org/2000/svg">
<g clip-path="url(#clip0_45_3427)">
<g filter="url(#filter0_d_45_3427)">
<path d="M80 8H20C14.4772 8 10 12.4772 10 18V78C10 83.5229 14.4772 88 20 88H80C85.5229 88 90 83.5229 90 78V18C90 12.4772 85.5229 8 80 8Z" fill="#4F4F4F"/>
<path d="M73.983 39.725C74.002 39.329 73.989 38.94 73.977 38.55C73.97 38.299 73.959 38.049 73.94 37.801C73.919 37.538 73.888 37.279 73.854 37.02C73.82 36.768 73.785 36.516 73.739 36.268C73.694 36.027 73.64 35.789 73.584 35.552C73.523 35.293 73.46 35.036 73.386 34.783C73.323 34.569 73.251 34.359 73.179 34.149C73.088 33.881 72.995 33.616 72.889 33.356C72.814 33.172 72.731 32.995 72.65 32.815C72.524 32.539 72.397 32.266 72.256 32C72.176 31.848 72.087 31.702 72.002 31.552C71.841 31.273 71.678 30.995 71.5 30.726C71.417 30.602 71.328 30.483 71.241 30.362C71.044 30.082 70.844 29.806 70.629 29.542C70.546 29.442 70.458 29.346 70.373 29.247C70.141 28.977 69.904 28.708 69.652 28.454C69.571 28.372 69.483 28.296 69.4 28.215C69.134 27.959 68.865 27.707 68.582 27.471C68.497 27.401 68.406 27.337 68.32 27.268C68.028 27.036 67.733 26.808 67.424 26.598C67.329 26.534 67.229 26.477 67.132 26.414C66.823 26.213 66.51 26.016 66.185 25.838C66.074 25.778 65.957 25.727 65.843 25.668C65.525 25.504 65.204 25.342 64.873 25.2C64.733 25.141 64.587 25.094 64.445 25.038C64.131 24.915 63.816 24.791 63.492 24.69C63.307 24.631 63.115 24.59 62.926 24.539C62.636 24.46 62.348 24.375 62.05 24.314C61.784 24.258 61.509 24.227 61.238 24.186C61.009 24.152 60.784 24.105 60.551 24.08C60.041 24.029 59.524 24 59 24V42C59 44.22 57.792 46.153 56 47.191C55.981 47.202 55.963 47.214 55.944 47.225C55.977 47.479 56 47.737 56 48C56 51.314 53.314 54 50 54H50.809H58.576C66.653 54 73.603 47.793 73.983 39.725Z" fill="#4285F4"/>
<path d="M50 50C51.104 50 52 49.104 52 48C52 46.896 51.104 46 50 46C48.896 46 48 46.896 48 48C48 49.104 48.896 50 50 50Z" fill="#4285F4"/>
<path d="M59 23H41C32.164 23 25 30.163 25 39V57C25 65.837 32.164 73 41 73H59C67.836 73 75 65.837 75 57V39C75 30.163 67.836 23 59 23ZM26.017 56.275C25.999 56.671 26.011 57.061 26.023 57.45C26.019 57.299 26 57.152 26 57V39H44C46.22 39 48.153 40.208 49.191 42H41.424C33.347 42 26.397 48.207 26.017 56.275ZM50 43C52.757 43 55 45.243 55 48C55 50.757 52.757 53 50 53C47.243 53 45 50.757 45 48C45 45.243 47.243 43 50 43ZM59 72H41V54C41 51.78 42.208 49.848 44 48.81V56.576C44 64.653 50.207 71.604 58.275 71.982C58.671 72.002 59.061 71.988 59.45 71.978C59.299 71.981 59.152 72 59 72ZM74 57H56C53.78 57 51.847 55.792 50.809 54H50C53.313 54 56 51.313 56 48C56 47.736 55.977 47.479 55.944 47.225C55.963 47.214 55.981 47.201 56 47.19V39.424C56 31.347 49.793 24.396 41.725 24.018C41.329 23.998 40.939 24.012 40.55 24.022C40.701 24.019 40.848 24 41 24H59C59.524 24 60.041 24.028 60.551 24.08C60.784 24.104 61.009 24.151 61.238 24.186C61.509 24.227 61.784 24.258 62.05 24.313C62.348 24.375 62.636 24.46 62.926 24.539C63.115 24.59 63.307 24.631 63.492 24.689C63.816 24.791 64.131 24.915 64.445 25.038C64.587 25.094 64.733 25.141 64.873 25.199C65.204 25.342 65.524 25.504 65.843 25.668C65.957 25.727 66.074 25.777 66.185 25.838C66.51 26.016 66.823 26.213 67.132 26.414C67.229 26.477 67.329 26.533 67.424 26.598C67.732 26.808 68.028 27.035 68.32 27.268C68.406 27.337 68.497 27.4 68.582 27.471C68.865 27.707 69.134 27.959 69.4 28.215C69.483 28.296 69.571 28.372 69.652 28.454C69.904 28.708 70.141 28.977 70.373 29.247C70.458 29.346 70.546 29.441 70.628 29.542C70.844 29.806 71.044 30.082 71.241 30.361C71.328 30.482 71.417 30.602 71.5 30.726C71.678 30.994 71.841 31.272 72.002 31.552C72.087 31.701 72.176 31.848 72.256 32C72.397 32.266 72.524 32.539 72.649 32.814C72.73 32.994 72.814 33.172 72.889 33.355C72.995 33.615 73.088 33.881 73.179 34.148C73.251 34.358 73.323 34.568 73.386 34.782C73.46 35.035 73.523 35.293 73.584 35.552C73.64 35.789 73.694 36.026 73.739 36.268C73.785 36.516 73.82 36.768 73.854 37.02C73.888 37.278 73.918 37.538 73.939 37.801C73.959 38.049 73.97 38.299 73.977 38.55C73.981 38.701 74 38.848 74 39V57Z" fill="#BCC1C5"/>
</g>
</g>
<defs>
<filter id="filter0_d_45_3427" x="0" y="0" width="100" height="100" filterUnits="userSpaceOnUse" color-interpolation-filters="sRGB">
<feFlood flood-opacity="0" result="BackgroundImageFix"/>
<feColorMatrix in="SourceAlpha" type="matrix" values="0 0 0 0 0 0 0 0 0 0 0 0 0 0 0 0 0 0 127 0" result="hardAlpha"/>
<feOffset dy="2"/>
<feGaussianBlur stdDeviation="5"/>
<feColorMatrix type="matrix" values="0 0 0 0 0 0 0 0 0 0 0 0 0 0 0 0 0 0 0.5 0"/>
<feBlend mode="normal" in2="BackgroundImageFix" result="effect1_dropShadow_45_3427"/>
<feBlend mode="normal" in="SourceGraphic" in2="effect1_dropShadow_45_3427" result="shape"/>
</filter>
<clipPath id="clip0_45_3427">
<rect width="100" height="100" fill="white"/>
</clipPath>
</defs>
</svg>
