<svg width="100" height="100" viewBox="0 0 100 100" fill="none" xmlns="http://www.w3.org/2000/svg">
<g clip-path="url(#clip0_45_4540)" filter="url(#filter0_d_45_4540)">
<g filter="url(#filter1_d_45_4540)">
<path d="M80 8H20C14.4772 8 10 12.4772 10 18V78C10 83.5229 14.4772 88 20 88H80C85.5229 88 90 83.5229 90 78V18C90 12.4772 85.5229 8 80 8Z" fill="#4F4F4F"/>
<path d="M42.222 63.222L46 67L42.222 63.222Z" fill="#BCC1C5"/>
<path d="M47 68L50 71L47 68Z" fill="#BCC1C5"/>
<path d="M51.945 69.056L52.999 68L51.945 69.056Z" fill="#BCC1C5"/>
<path d="M57.778 63.222L54 67L57.778 63.222C58.402 62.599 58.94 61.894 59.4 61.136C61.952 67.084 66.884 71.78 73 74V72.93C67.047 70.657 62.308 65.922 60.012 59.981C60.199 59.571 60.37 59.15 60.505 58.714C59.969 60.437 59.022 61.978 57.778 63.222Z" fill="#BCC1C5"/>
<path d="M46 50H47H53H54H61V43C61 39.963 59.769 37.213 57.778 35.222C55.898 33.342 53.337 32.153 50.5 32.025V26.93C50.339 26.971 50.174 27 50 27C49.826 27 49.661 26.971 49.5 26.93V32.025C46.663 32.153 44.102 33.342 42.222 35.222C40.231 37.213 39 39.963 39 43V50H46ZM40 43C40 40.329 41.041 37.817 42.929 35.929C44.818 34.04 47.329 33 50 33C52.671 33 55.183 34.04 57.071 35.929C58.96 37.817 60 40.329 60 43V45.437C59.451 44.235 58.701 43.145 57.778 42.222C55.788 40.231 53.038 39 50 39C46.962 39 44.212 40.231 42.222 42.222C41.299 43.145 40.549 44.235 40 45.437V43Z" fill="#BCC1C5"/>
<path d="M41 71C37.687 71 35 73.687 35 77H65C65 73.687 62.314 71 59 71H50H41Z" fill="#BCC1C5"/>
<path d="M50.5 26.93C51.361 26.706 52 25.931 52 25V21C52 19.896 51.104 19 50 19C48.896 19 48 19.896 48 21V25C48 25.931 48.639 26.706 49.5 26.93C49.661 26.971 49.826 27 50 27C50.174 27 50.339 26.971 50.5 26.93Z" fill="#34A853"/>
<path d="M54 50V67L57.778 63.222C59.022 61.978 59.97 60.438 60.505 58.715C60.613 58.37 60.703 58.019 60.777 57.66C60.923 56.944 61 56.203 61 55.443V50H54Z" fill="#34A853"/>
<path d="M53 50H47V68L50 71L51.945 69.056L53 68V50Z" fill="#34A853"/>
<path d="M46 50H39V55.443V56.443C39 58.481 40.231 61.231 42.222 63.222L46 67V50Z" fill="#34A853"/>
</g>
</g>
<defs>
<filter id="filter0_d_45_4540" x="-4" y="0" width="108" height="108" filterUnits="userSpaceOnUse" color-interpolation-filters="sRGB">
<feFlood flood-opacity="0" result="BackgroundImageFix"/>
<feColorMatrix in="SourceAlpha" type="matrix" values="0 0 0 0 0 0 0 0 0 0 0 0 0 0 0 0 0 0 127 0" result="hardAlpha"/>
<feOffset dy="4"/>
<feGaussianBlur stdDeviation="2"/>
<feComposite in2="hardAlpha" operator="out"/>
<feColorMatrix type="matrix" values="0 0 0 0 0 0 0 0 0 0 0 0 0 0 0 0 0 0 0.25 0"/>
<feBlend mode="normal" in2="BackgroundImageFix" result="effect1_dropShadow_45_4540"/>
<feBlend mode="normal" in="SourceGraphic" in2="effect1_dropShadow_45_4540" result="shape"/>
</filter>
<filter id="filter1_d_45_4540" x="0" y="0" width="100" height="100" filterUnits="userSpaceOnUse" color-interpolation-filters="sRGB">
<feFlood flood-opacity="0" result="BackgroundImageFix"/>
<feColorMatrix in="SourceAlpha" type="matrix" values="0 0 0 0 0 0 0 0 0 0 0 0 0 0 0 0 0 0 127 0" result="hardAlpha"/>
<feOffset dy="2"/>
<feGaussianBlur stdDeviation="5"/>
<feColorMatrix type="matrix" values="0 0 0 0 0 0 0 0 0 0 0 0 0 0 0 0 0 0 0.5 0"/>
<feBlend mode="normal" in2="BackgroundImageFix" result="effect1_dropShadow_45_4540"/>
<feBlend mode="normal" in="SourceGraphic" in2="effect1_dropShadow_45_4540" result="shape"/>
</filter>
<clipPath id="clip0_45_4540">
<rect width="100" height="100" fill="white"/>
</clipPath>
</defs>
</svg>
