<svg width="100" height="100" viewBox="0 0 100 100" fill="none" xmlns="http://www.w3.org/2000/svg">
<g clip-path="url(#clip0_45_4498)" filter="url(#filter0_d_45_4498)">
<g filter="url(#filter1_d_45_4498)">
<path d="M80 8H20C14.4772 8 10 12.4772 10 18V78C10 83.5229 14.4772 88 20 88H80C85.5229 88 90 83.5229 90 78V18C90 12.4772 85.5229 8 80 8Z" fill="#4F4F4F"/>
<path d="M65 19H35C31.687 19 29 21.687 29 25V71C29 74.313 31.687 77 35 77H65C68.313 77 71 74.313 71 71V25C71 21.687 68.313 19 65 19ZM70 71C70 73.757 67.757 76 65 76H35C32.243 76 30 73.757 30 71V25C30 22.243 32.243 20 35 20H65C67.757 20 70 22.243 70 25V71Z" fill="#BCC1C5"/>
<path d="M50 63C52.206 63 54 61.205 54 59C54 56.795 52.206 55 50 55C47.794 55 46 56.795 46 59C46 61.205 47.794 63 50 63Z" fill="#4285F4"/>
<path d="M38 48V67C38 68.657 39.343 70 41 70H59C60.657 70 62 68.657 62 67V48H38ZM50 54C52.761 54 55 56.238 55 59C55 61.762 52.761 64 50 64C47.239 64 45 61.762 45 59C45 56.238 47.239 54 50 54Z" fill="#4285F4"/>
<path d="M38 48H62V30H38V48ZM49.5 34H50.5V44H49.5V34Z" fill="#BCC1C5"/>
<path d="M59 26H41C39.343 26 38 27.344 38 29H62C62 27.343 60.657 26 59 26Z" fill="#BCC1C5"/>
</g>
</g>
<defs>
<filter id="filter0_d_45_4498" x="-4" y="0" width="108" height="108" filterUnits="userSpaceOnUse" color-interpolation-filters="sRGB">
<feFlood flood-opacity="0" result="BackgroundImageFix"/>
<feColorMatrix in="SourceAlpha" type="matrix" values="0 0 0 0 0 0 0 0 0 0 0 0 0 0 0 0 0 0 127 0" result="hardAlpha"/>
<feOffset dy="4"/>
<feGaussianBlur stdDeviation="2"/>
<feComposite in2="hardAlpha" operator="out"/>
<feColorMatrix type="matrix" values="0 0 0 0 0 0 0 0 0 0 0 0 0 0 0 0 0 0 0.25 0"/>
<feBlend mode="normal" in2="BackgroundImageFix" result="effect1_dropShadow_45_4498"/>
<feBlend mode="normal" in="SourceGraphic" in2="effect1_dropShadow_45_4498" result="shape"/>
</filter>
<filter id="filter1_d_45_4498" x="0" y="0" width="100" height="100" filterUnits="userSpaceOnUse" color-interpolation-filters="sRGB">
<feFlood flood-opacity="0" result="BackgroundImageFix"/>
<feColorMatrix in="SourceAlpha" type="matrix" values="0 0 0 0 0 0 0 0 0 0 0 0 0 0 0 0 0 0 127 0" result="hardAlpha"/>
<feOffset dy="2"/>
<feGaussianBlur stdDeviation="5"/>
<feColorMatrix type="matrix" values="0 0 0 0 0 0 0 0 0 0 0 0 0 0 0 0 0 0 0.5 0"/>
<feBlend mode="normal" in2="BackgroundImageFix" result="effect1_dropShadow_45_4498"/>
<feBlend mode="normal" in="SourceGraphic" in2="effect1_dropShadow_45_4498" result="shape"/>
</filter>
<clipPath id="clip0_45_4498">
<rect width="100" height="100" fill="white"/>
</clipPath>
</defs>
</svg>
