<svg width="100" height="100" viewBox="0 0 100 100" fill="none" xmlns="http://www.w3.org/2000/svg">
<g clip-path="url(#clip0_52_147)">
<g filter="url(#filter0_d_52_147)">
<path d="M80 8H20C14.4772 8 10 12.4772 10 18V78C10 83.5229 14.4772 88 20 88H80C85.5229 88 90 83.5229 90 78V18C90 12.4772 85.5229 8 80 8Z" fill="#EA4335"/>
</g>
<path d="M69 23H31C27.6863 23 25 25.6863 25 29V67C25 70.3137 27.6863 73 31 73H69C72.3137 73 75 70.3137 75 67V29C75 25.6863 72.3137 23 69 23Z" fill="#BCC1C5"/>
<path d="M62 34C59.78 34 58 35.78 58 38V51.52C56.72 52.66 56 54.3 56 56C56 59.32 58.68 62 62 62C65.32 62 68 59.32 68 56C68 54.3 67.28 52.66 66 51.54V38C66 35.78 64.22 34 62 34ZM62 36C63.1 36 64 36.9 64 38V40H60V38C60 36.9 60.9 36 62 36Z" fill="#EA4335"/>
<path d="M41.5 62C36.2592 62 32 57.5033 32 51.9701C32 45.2836 41.5 34 41.5 34C41.5 34 51 45.2836 51 51.9701C51 57.5033 46.7408 62 41.5 62Z" fill="#EA4335"/>
<path d="M41.5 55C38.4658 55 36 52.4304 36 49.2687C36 45.4478 41.5 39 41.5 39C41.5 39 47 45.4478 47 49.2687C47 52.4304 44.5342 55 41.5 55Z" fill="#D6FDFA"/>
<circle cx="62" cy="38" r="2" fill="#FFC7C7"/>
<rect x="60" y="38" width="4" height="2" fill="#FFC7C7"/>
</g>
<defs>
<filter id="filter0_d_52_147" x="0" y="0" width="100" height="100" filterUnits="userSpaceOnUse" color-interpolation-filters="sRGB">
<feFlood flood-opacity="0" result="BackgroundImageFix"/>
<feColorMatrix in="SourceAlpha" type="matrix" values="0 0 0 0 0 0 0 0 0 0 0 0 0 0 0 0 0 0 127 0" result="hardAlpha"/>
<feOffset dy="2"/>
<feGaussianBlur stdDeviation="5"/>
<feColorMatrix type="matrix" values="0 0 0 0 0 0 0 0 0 0 0 0 0 0 0 0 0 0 0.5 0"/>
<feBlend mode="normal" in2="BackgroundImageFix" result="effect1_dropShadow_52_147"/>
<feBlend mode="normal" in="SourceGraphic" in2="effect1_dropShadow_52_147" result="shape"/>
</filter>
<clipPath id="clip0_52_147">
<rect width="100" height="100" fill="white"/>
</clipPath>
</defs>
</svg>
