<svg width="100" height="100" viewBox="0 0 100 100" fill="none" xmlns="http://www.w3.org/2000/svg">
<g clip-path="url(#clip0_45_4765)" filter="url(#filter0_d_45_4765)">
<g filter="url(#filter1_d_45_4765)">
<path d="M80 8H20C14.4772 8 10 12.4772 10 18V78C10 83.5229 14.4772 88 20 88H80C85.5229 88 90 83.5229 90 78V18C90 12.4772 85.5229 8 80 8Z" fill="#FBBC03"/>
</g>
<path d="M24.5192 33.2887L50 18.5774L75.4808 33.2887V62.7113L50 77.4226L24.5192 62.7113V33.2887Z" stroke="#BCC1C5"/>
<path d="M54.25 25.0311L67.7667 32.8349C70.3966 34.3533 72.0167 37.1594 72.0167 40.1962V55.8038C72.0167 58.8406 70.3966 61.6467 67.7667 63.1651L54.25 70.9689C51.6201 72.4873 48.3799 72.4873 45.75 70.9689L32.2333 63.1651C29.6034 61.6467 27.9833 58.8406 27.9833 55.8038V40.1962C27.9833 37.1594 29.6034 34.3533 32.2333 32.8349L45.75 25.0311C48.3799 23.5127 51.6201 23.5127 54.25 25.0311Z" stroke="#BCC1C5"/>
<path d="M45.7381 60.7619C45.7381 63.3917 47.8702 65.5238 50.5 65.5238C53.1298 65.5238 55.2619 63.3917 55.2619 60.7619H45.7381Z" fill="#BCC1C6"/>
<path d="M42.7619 43.5L50.5 60.7619L58.2381 43.5H42.7619Z" fill="#FFF9B8"/>
<path d="M50.5 31C43.5964 31 38 36.5964 38 43.5L45.7381 60.7619H49.9048L42.1667 43.5C42.1667 38.8976 45.8976 35.1667 50.5 35.1667C55.1024 35.1667 58.8333 38.8976 58.8333 43.5L51.0952 60.7619H55.2619L63 43.5C63 36.5964 57.4036 31 50.5 31Z" fill="#FFF9B8"/>
</g>
<defs>
<filter id="filter0_d_45_4765" x="-4" y="0" width="108" height="108" filterUnits="userSpaceOnUse" color-interpolation-filters="sRGB">
<feFlood flood-opacity="0" result="BackgroundImageFix"/>
<feColorMatrix in="SourceAlpha" type="matrix" values="0 0 0 0 0 0 0 0 0 0 0 0 0 0 0 0 0 0 127 0" result="hardAlpha"/>
<feOffset dy="4"/>
<feGaussianBlur stdDeviation="2"/>
<feComposite in2="hardAlpha" operator="out"/>
<feColorMatrix type="matrix" values="0 0 0 0 0 0 0 0 0 0 0 0 0 0 0 0 0 0 0.25 0"/>
<feBlend mode="normal" in2="BackgroundImageFix" result="effect1_dropShadow_45_4765"/>
<feBlend mode="normal" in="SourceGraphic" in2="effect1_dropShadow_45_4765" result="shape"/>
</filter>
<filter id="filter1_d_45_4765" x="0" y="-2" width="100" height="100" filterUnits="userSpaceOnUse" color-interpolation-filters="sRGB">
<feFlood flood-opacity="0" result="BackgroundImageFix"/>
<feColorMatrix in="SourceAlpha" type="matrix" values="0 0 0 0 0 0 0 0 0 0 0 0 0 0 0 0 0 0 127 0" result="hardAlpha"/>
<feOffset/>
<feGaussianBlur stdDeviation="5"/>
<feComposite in2="hardAlpha" operator="out"/>
<feColorMatrix type="matrix" values="0 0 0 0 0 0 0 0 0 0 0 0 0 0 0 0 0 0 0.4 0"/>
<feBlend mode="normal" in2="BackgroundImageFix" result="effect1_dropShadow_45_4765"/>
<feBlend mode="normal" in="SourceGraphic" in2="effect1_dropShadow_45_4765" result="shape"/>
</filter>
<clipPath id="clip0_45_4765">
<rect width="100" height="100" fill="white"/>
</clipPath>
</defs>
</svg>
