<svg width="100" height="100" viewBox="0 0 100 100" fill="none" xmlns="http://www.w3.org/2000/svg">
<g clip-path="url(#clip0_45_3673)">
<g filter="url(#filter0_d_45_3673)">
<path d="M80 8H20C14.4772 8 10 12.4772 10 18V78C10 83.5229 14.4772 88 20 88H80C85.5229 88 90 83.5229 90 78V18C90 12.4772 85.5229 8 80 8Z" fill="#4F4F4F"/>
<path d="M50 19C38.402 19 29 28.402 29 40L42 69C42 73.418 45.582 77 50 77C54.418 77 58 73.418 58 69L71 40C71 28.402 61.598 19 50 19ZM51.448 68L64 40H69.904L57.352 68H51.448ZM63 40L50.448 68H49.552L37 40H63ZM50 20C60.69 20 69.425 28.438 69.951 39H63.949C63.435 31.737 57.395 26 50 26C42.605 26 36.565 31.737 36.05 39H30.049C30.575 28.438 39.31 20 50 20ZM30.096 40H36L48.552 68H42.647L30.096 40ZM50 76C46.14 76 43 72.86 43 69H49H50H51H57C57 72.86 53.86 76 50 76Z" fill="#BCC1C5"/>
</g>
</g>
<defs>
<filter id="filter0_d_45_3673" x="0" y="0" width="100" height="100" filterUnits="userSpaceOnUse" color-interpolation-filters="sRGB">
<feFlood flood-opacity="0" result="BackgroundImageFix"/>
<feColorMatrix in="SourceAlpha" type="matrix" values="0 0 0 0 0 0 0 0 0 0 0 0 0 0 0 0 0 0 127 0" result="hardAlpha"/>
<feOffset dy="2"/>
<feGaussianBlur stdDeviation="5"/>
<feColorMatrix type="matrix" values="0 0 0 0 0 0 0 0 0 0 0 0 0 0 0 0 0 0 0.5 0"/>
<feBlend mode="normal" in2="BackgroundImageFix" result="effect1_dropShadow_45_3673"/>
<feBlend mode="normal" in="SourceGraphic" in2="effect1_dropShadow_45_3673" result="shape"/>
</filter>
<clipPath id="clip0_45_3673">
<rect width="100" height="100" fill="white"/>
</clipPath>
</defs>
</svg>
