<svg width="100" height="100" viewBox="0 0 100 100" fill="none" xmlns="http://www.w3.org/2000/svg">
<g clip-path="url(#clip0_45_4460)" filter="url(#filter0_d_45_4460)">
<g filter="url(#filter1_d_45_4460)">
<path d="M80 8H20C14.4772 8 10 12.4772 10 18V78C10 83.5229 14.4772 88 20 88H80C85.5229 88 90 83.5229 90 78V18C90 12.4772 85.5229 8 80 8Z" fill="#4F4F4F"/>
<path d="M75.375 39.145C76.822 39.145 78 40.322 78 41.77V50.338C78 51.785 76.822 52.963 75.375 52.963H24.625C23.178 52.963 22 51.785 22 50.338V41.77C22 40.322 23.178 39.145 24.625 39.145H75.375ZM75.375 38.145H24.625C22.623 38.145 21 39.768 21 41.77V50.338C21 52.34 22.623 53.963 24.625 53.963H75.375C77.377 53.963 79 52.34 79 50.338V41.77C79 39.768 77.377 38.145 75.375 38.145Z" fill="#BCC1C5"/>
<path d="M34.597 58.355H24.629V57.355H34.597V58.355Z" fill="#BCC1C5"/>
<path d="M75.377 58.355H65.409V57.355H75.377V58.355Z" fill="#BCC1C5"/>
<path d="M31.546 43.588H25.786V42.588H31.546V43.588Z" fill="#BCC1C5"/>
<path d="M40.115 43.588H34.355V42.588H40.115V43.588Z" fill="#BCC1C5"/>
<path d="M74.079 43.417C74.079 44.521 73.184 45.417 72.079 45.417C70.975 45.417 70.079 44.521 70.079 43.417C70.079 42.313 70.975 41.417 72.079 41.417C73.184 41.417 74.079 42.313 74.079 43.417Z" fill="#34A853"/>
<path d="M27.591 53.633V51.656C27.591 49.655 29.214 48.031 31.216 48.031H52.966C54.968 48.031 56.591 49.655 56.591 51.656V53.633H27.591Z" fill="#BCC1C5"/>
<path d="M50.33 48.032V50.009C50.33 52.01 48.707 53.634 46.705 53.634H24.955C22.953 53.634 21.33 52.01 21.33 50.009V48.032H50.33Z" fill="#BCC1C5"/>
</g>
</g>
<defs>
<filter id="filter0_d_45_4460" x="-4" y="0" width="108" height="108" filterUnits="userSpaceOnUse" color-interpolation-filters="sRGB">
<feFlood flood-opacity="0" result="BackgroundImageFix"/>
<feColorMatrix in="SourceAlpha" type="matrix" values="0 0 0 0 0 0 0 0 0 0 0 0 0 0 0 0 0 0 127 0" result="hardAlpha"/>
<feOffset dy="4"/>
<feGaussianBlur stdDeviation="2"/>
<feComposite in2="hardAlpha" operator="out"/>
<feColorMatrix type="matrix" values="0 0 0 0 0 0 0 0 0 0 0 0 0 0 0 0 0 0 0.25 0"/>
<feBlend mode="normal" in2="BackgroundImageFix" result="effect1_dropShadow_45_4460"/>
<feBlend mode="normal" in="SourceGraphic" in2="effect1_dropShadow_45_4460" result="shape"/>
</filter>
<filter id="filter1_d_45_4460" x="0" y="0" width="100" height="100" filterUnits="userSpaceOnUse" color-interpolation-filters="sRGB">
<feFlood flood-opacity="0" result="BackgroundImageFix"/>
<feColorMatrix in="SourceAlpha" type="matrix" values="0 0 0 0 0 0 0 0 0 0 0 0 0 0 0 0 0 0 127 0" result="hardAlpha"/>
<feOffset dy="2"/>
<feGaussianBlur stdDeviation="5"/>
<feColorMatrix type="matrix" values="0 0 0 0 0 0 0 0 0 0 0 0 0 0 0 0 0 0 0.5 0"/>
<feBlend mode="normal" in2="BackgroundImageFix" result="effect1_dropShadow_45_4460"/>
<feBlend mode="normal" in="SourceGraphic" in2="effect1_dropShadow_45_4460" result="shape"/>
</filter>
<clipPath id="clip0_45_4460">
<rect width="100" height="100" fill="white"/>
</clipPath>
</defs>
</svg>
