<svg width="100" height="100" viewBox="0 0 100 100" fill="none" xmlns="http://www.w3.org/2000/svg">
<g clip-path="url(#clip0_45_3099)">
<g filter="url(#filter0_d_45_3099)">
<path d="M80 8H20C14.4772 8 10 12.4772 10 18V78C10 83.5229 14.4772 88 20 88H80C85.5229 88 90 83.5229 90 78V18C90 12.4772 85.5229 8 80 8Z" fill="#4F4F4F"/>
<path d="M18 16H82V80H18V16ZM18 80H82V16H18V80ZM73 27H27C23.686 27 21 29.686 21 33V63C21 66.313 23.686 69 27 69H49.494V74H35V75H49.494H50.494H65V74H50.494V69H73C76.313 69 79 66.313 79 63V33C79 29.686 76.313 27 73 27ZM50.5 63H49.5H41.5H40.5H32.5H31.5H22V53.5V52.5V44.5V43.5V35.5V34.5V33C22 30.243 24.243 28 27 28H73C75.757 28 78 30.243 78 33V63H50.5Z" fill="#BCC1C5"/>
<path d="M18 16H82V80H18V16ZM18 80H82V16H18V80ZM22 34.5V35.5C37.164 35.5 49.5 47.836 49.5 63H50.5C50.5 47.285 37.715 34.5 22 34.5Z" fill="#4285F4"/>
<path d="M18 16H82V80H18V16ZM18 80H82V16H18V80ZM22 43.5V44.5C32.201 44.5 40.5 52.799 40.5 63H41.5C41.5 52.248 32.752 43.5 22 43.5Z" fill="#4285F4"/>
<path d="M18 16H82V80H18V16ZM18 80H82V16H18V80ZM22 52.5V53.5C27.238 53.5 31.5 57.762 31.5 63H32.5C32.5 57.21 27.79 52.5 22 52.5Z" fill="#4285F4"/>
</g>
</g>
<defs>
<filter id="filter0_d_45_3099" x="0" y="0" width="100" height="100" filterUnits="userSpaceOnUse" color-interpolation-filters="sRGB">
<feFlood flood-opacity="0" result="BackgroundImageFix"/>
<feColorMatrix in="SourceAlpha" type="matrix" values="0 0 0 0 0 0 0 0 0 0 0 0 0 0 0 0 0 0 127 0" result="hardAlpha"/>
<feOffset dy="2"/>
<feGaussianBlur stdDeviation="5"/>
<feColorMatrix type="matrix" values="0 0 0 0 0 0 0 0 0 0 0 0 0 0 0 0 0 0 0.5 0"/>
<feBlend mode="normal" in2="BackgroundImageFix" result="effect1_dropShadow_45_3099"/>
<feBlend mode="normal" in="SourceGraphic" in2="effect1_dropShadow_45_3099" result="shape"/>
</filter>
<clipPath id="clip0_45_3099">
<rect width="100" height="100" fill="white"/>
</clipPath>
</defs>
</svg>
