<svg width="100" height="100" viewBox="0 0 100 100" fill="none" xmlns="http://www.w3.org/2000/svg">
<g clip-path="url(#clip0_45_3223)">
<g filter="url(#filter0_d_45_3223)">
<path d="M80 8H20C14.4772 8 10 12.4772 10 18V78C10 83.5229 14.4772 88 20 88H80C85.5229 88 90 83.5229 90 78V18C90 12.4772 85.5229 8 80 8Z" fill="#4F4F4F"/>
<path d="M73 27H27C23.6863 27 21 29.6863 21 33V63C21 66.3137 23.6863 69 27 69H49.4941V74H35V75H49.4941H50.4941H65V74H50.4941V69H73C76.3137 69 79 66.3137 79 63V33C79 29.6863 76.3137 27 73 27ZM50.5 63H49.5H41.5H40.5H32.5H31.5H22V53.5V52.5V44.5V43.5V35.5V34.5V33C22 30.2429 24.2431 28 27 28H73C75.7569 28 78 30.2429 78 33V63H50.5Z" fill="#BCC1C5"/>
<path d="M21 62.95C21 66.3189 23.6863 69.05 27 69.05H73C76.3137 69.05 79 66.3189 79 62.95H21ZM50.5 62.95H49.5H41.5H40.5H32.5H31.5H22H78H50.5Z" fill="#E50914"/>
<path fill-rule="evenodd" clip-rule="evenodd" d="M52.3399 30.0464L52.3275 37.0261L52.3151 44.0059L51.7351 42.3856C51.7349 42.385 51.7342 42.383 51.734 42.3824L50.9846 57.9211C51.7214 59.9814 52.1162 61.0813 52.1206 61.0857C52.1264 61.0914 52.5463 61.1165 53.0537 61.1414C54.5911 61.217 56.4962 61.3788 57.9414 61.5566C58.2761 61.5978 58.564 61.6189 58.5814 61.6035C58.5987 61.5881 58.6082 54.4815 58.6024 45.811L58.5918 30.0464H55.4659H52.3399Z" fill="#B1060F"/>
<path fill-rule="evenodd" clip-rule="evenodd" d="M41.0319 30.0256V45.8062C41.0319 54.4855 41.0405 61.5952 41.051 61.6056C41.0615 61.616 41.6043 61.5653 42.2573 61.4929C42.9103 61.4205 43.8128 61.3304 44.2628 61.2928C44.9529 61.2351 47.0136 61.1039 47.2522 61.1025C47.3216 61.102 47.3261 60.7475 47.3361 54.4185L47.3468 47.735L47.8454 49.1318C47.9224 49.3477 47.9466 49.4151 48.0216 49.6254L48.7709 34.0905C48.6121 33.6461 48.6953 33.8794 48.5134 33.3701C47.9013 31.6563 47.3818 30.2027 47.359 30.1399L47.3176 30.0256H44.1748H41.0319Z" fill="#B1060F"/>
<path fill-rule="evenodd" clip-rule="evenodd" d="M41.0319 30.0256V38.8837L47.334 55.4364C47.3347 55.0571 47.3355 54.8521 47.3361 54.4185L47.3468 47.735L47.8454 49.1318C50.6207 56.9077 52.1118 61.077 52.1206 61.0857C52.1264 61.0914 52.5463 61.1165 53.0537 61.1414C54.5911 61.217 56.4962 61.3788 57.9414 61.5566C58.2761 61.5978 58.564 61.6189 58.5814 61.6035C58.5933 61.5929 58.6011 58.1084 58.6031 53.1926L52.3305 35.3364L52.3275 37.0261L52.315 44.0059L51.7351 42.3856C51.1684 40.8024 50.79 39.7436 48.5134 33.3701C47.9013 31.6563 47.3818 30.2027 47.359 30.1399L47.3176 30.0256H44.1748H41.0319Z" fill="url(#paint0_radial_45_3223)"/>
<path fill-rule="evenodd" clip-rule="evenodd" d="M41.0321 30.0256L47.3468 47.743V47.735L47.8454 49.1318C50.6207 56.9077 52.1118 61.077 52.1206 61.0857C52.1264 61.0914 52.5463 61.1165 53.0537 61.1414C54.5911 61.217 56.4962 61.3788 57.9414 61.5566C58.2743 61.5976 58.5609 61.6186 58.5809 61.6037L52.3151 44.0026V44.0059L51.7351 42.3856C51.1684 40.8024 50.7901 39.7436 48.5134 33.3701C47.9013 31.6563 47.3818 30.2027 47.359 30.1399L47.3176 30.0256H44.1748H41.0321Z" fill="#E50914"/>
<path fill-rule="evenodd" clip-rule="evenodd" d="M52.3275 37.0261L52.3151 44.0059L51.7351 42.3856C51.7349 42.385 51.7342 42.383 51.734 42.3824L50.9846 57.9211C51.7214 59.9814 52.1162 61.0813 52.1206 61.0857C52.1264 61.0914 52.5463 61.1165 53.0537 61.1414C54.5911 61.217 56.4962 61.3788 57.9414 61.5566C58.2761 61.5978 58.564 61.6189 58.5814 61.6035C58.5987 61.5881 58.6082 54.4815 58.6024 45.811L58.5918 30.0464H55.4659H52.3399L52.3275 37.0261Z" fill="#B1060F"/>
<path fill-rule="evenodd" clip-rule="evenodd" d="M41.0319 30.0256V45.8062C41.0319 54.4855 41.0405 61.5952 41.051 61.6056C41.0615 61.616 41.6043 61.5653 42.2573 61.4929C42.9103 61.4205 43.8128 61.3304 44.2628 61.2928C44.9529 61.2351 47.0136 61.1039 47.2522 61.1025C47.3216 61.102 47.3261 60.7475 47.3361 54.4185L47.3468 47.735L47.8454 49.1318C47.9224 49.3477 47.9466 49.4151 48.0216 49.6254L48.7709 34.0905C48.6121 33.6461 48.6953 33.8794 48.5134 33.3701C47.9013 31.6563 47.3818 30.2027 47.359 30.1399L47.3176 30.0256H44.1748H41.0319Z" fill="#B1060F"/>
<path fill-rule="evenodd" clip-rule="evenodd" d="M41.0319 38.8837C42.2356 42.0451 43.1383 44.4162 43.7401 45.9969C44.5388 48.0946 45.7368 51.2411 47.334 55.4364C47.3347 55.0571 47.3355 54.8521 47.3361 54.4185L47.3468 47.735L47.8454 49.1318C50.6207 56.9077 52.1118 61.077 52.1206 61.0857C52.1264 61.0914 52.5463 61.1165 53.0537 61.1414C54.5911 61.217 56.4962 61.3788 57.9414 61.5566C58.2761 61.5978 58.564 61.6189 58.5814 61.6035C58.5933 61.5929 58.6011 58.1084 58.6031 53.1926L52.3305 35.3364L52.3275 37.0261L52.315 44.0059L51.7351 42.3856C51.1684 40.8024 50.79 39.7436 48.5134 33.3701C47.9013 31.6563 47.3818 30.2027 47.359 30.1399L47.3176 30.0256H44.1748H41.0319V38.8837Z" fill="url(#paint1_radial_45_3223)"/>
<path fill-rule="evenodd" clip-rule="evenodd" d="M41.0321 30.0256L47.3468 47.743V47.735L47.8454 49.1318C50.6207 56.9077 52.1118 61.077 52.1206 61.0857C52.1264 61.0914 52.5463 61.1165 53.0537 61.1414C54.5911 61.217 56.4962 61.3788 57.9414 61.5566C58.2743 61.5976 58.5609 61.6186 58.5809 61.6037L52.3151 44.0026V44.0059L51.7351 42.3856C51.1684 40.8024 50.7901 39.7436 48.5134 33.3701C47.9013 31.6563 47.3818 30.2027 47.359 30.1399L47.3176 30.0256H44.1748H41.0321Z" fill="#E50914"/>
</g>
</g>
<defs>
<filter id="filter0_d_45_3223" x="0" y="0" width="100" height="100" filterUnits="userSpaceOnUse" color-interpolation-filters="sRGB">
<feFlood flood-opacity="0" result="BackgroundImageFix"/>
<feColorMatrix in="SourceAlpha" type="matrix" values="0 0 0 0 0 0 0 0 0 0 0 0 0 0 0 0 0 0 127 0" result="hardAlpha"/>
<feOffset dy="2"/>
<feGaussianBlur stdDeviation="5"/>
<feColorMatrix type="matrix" values="0 0 0 0 0 0 0 0 0 0 0 0 0 0 0 0 0 0 0.5 0"/>
<feBlend mode="normal" in2="BackgroundImageFix" result="effect1_dropShadow_45_3223"/>
<feBlend mode="normal" in="SourceGraphic" in2="effect1_dropShadow_45_3223" result="shape"/>
</filter>
<radialGradient id="paint0_radial_45_3223" cx="0" cy="0" r="1" gradientUnits="userSpaceOnUse" gradientTransform="translate(54.0009 37.0106) rotate(-10.7988) scale(3.83125 4.13126)">
<stop/>
<stop offset="1" stop-opacity="0"/>
</radialGradient>
<radialGradient id="paint1_radial_45_3223" cx="0" cy="0" r="1" gradientUnits="userSpaceOnUse" gradientTransform="translate(54.0009 37.0106) rotate(-10.7988) scale(3.83125 4.13126)">
<stop/>
<stop offset="1" stop-opacity="0"/>
</radialGradient>
<clipPath id="clip0_45_3223">
<rect width="100" height="100" fill="white"/>
</clipPath>
</defs>
</svg>
