<svg width="100" height="100" viewBox="0 0 100 100" fill="none" xmlns="http://www.w3.org/2000/svg">
<g clip-path="url(#clip0_45_3197)">
<g filter="url(#filter0_d_45_3197)">
<path d="M80 8H20C14.4772 8 10 12.4772 10 18V78C10 83.5229 14.4772 88 20 88H80C85.5229 88 90 83.5229 90 78V18C90 12.4772 85.5229 8 80 8Z" fill="#4F4F4F"/>
<path d="M56.268 65.218C56.705 67.08 56.952 69.014 56.988 70.999H57.988C57.95 68.803 57.665 66.667 57.155 64.617C56.869 64.831 56.574 65.031 56.268 65.218Z" fill="#BCC1C5"/>
<path d="M42.126 45.959C38.459 44.139 34.347 43.088 30 43.013V44.013C34.058 44.086 37.905 45.036 41.355 46.691C41.601 46.436 41.859 46.192 42.126 45.959Z" fill="#BCC1C5"/>
<path d="M38 55C38 54.663 38.023 54.332 38.05 54.002C35.606 52.803 32.883 52.1 30 52.025V53.025C32.88 53.103 35.596 53.835 38.004 55.088C38.004 55.059 38 55.029 38 55Z" fill="#BCC1C5"/>
<path d="M47.345 66.696C47.717 68.075 47.935 69.513 47.975 71H48.975C48.939 69.585 48.749 68.211 48.426 66.884C48.06 66.837 47.699 66.776 47.345 66.696Z" fill="#BCC1C5"/>
<path d="M29.999 61.025V62.025C34.838 62.279 38.721 66.162 38.975 71.001H39.975C39.719 65.611 35.389 61.281 29.999 61.025Z" fill="#BCC1C5"/>
<path d="M50 23C45.582 23 42 26.582 42 31C42 35.418 45.582 39 50 39C54.418 39 58 35.418 58 31C58 26.582 54.418 23 50 23ZM50 35C47.791 35 46 33.209 46 31C46 28.791 47.791 27 50 27C52.209 27 54 28.791 54 31C54 33.209 52.209 35 50 35Z" fill="#BCC1C5"/>
<path d="M50 28C48.346 28 47 29.346 47 31C47 32.654 48.346 34 50 34C51.654 34 53 32.654 53 31C53 29.346 51.654 28 50 28Z" fill="#BCC1C5"/>
<path d="M65 19H35C31.686 19 29 21.687 29 25V71C29 74.313 31.686 77 35 77H65C68.313 77 71 74.313 71 71V25C71 21.687 68.313 19 65 19ZM57.987 71H56.987H48.974H47.974H39.974H38.974H30V62.025V61.025V53.025V52.025V44.013V43.013V25C30 22.243 32.243 20 35 20H65C67.757 20 70 22.243 70 25V71H57.987Z" fill="#BCC1C5"/>
<path d="M46 55C46 57.205 47.794 59 50 59C52.206 59 54 57.205 54 55C54 52.795 52.206 51 50 51C47.794 51 46 52.795 46 55Z" fill="#BCC1C5"/>
<path d="M41.355 46.69C39.498 48.622 38.284 51.171 38.05 54.002C38.023 54.332 38 54.663 38 55C38 55.029 38.004 55.059 38.004 55.088C38.046 60.762 42.025 65.492 47.345 66.695C47.699 66.775 48.06 66.837 48.425 66.885C48.942 66.953 49.465 67 50 67C52.3 67 54.442 66.342 56.268 65.219C56.573 65.031 56.868 64.831 57.155 64.617C60.09 62.43 62 58.942 62 55C62 48.373 56.627 43 50 43C46.983 43 44.234 44.121 42.126 45.959C41.859 46.192 41.601 46.435 41.355 46.69ZM50 50C52.761 50 55 52.238 55 55C55 57.762 52.761 60 50 60C47.239 60 45 57.762 45 55C45 52.238 47.239 50 50 50Z" fill="#BCC1C5"/>
</g>
</g>
<defs>
<filter id="filter0_d_45_3197" x="0" y="0" width="100" height="100" filterUnits="userSpaceOnUse" color-interpolation-filters="sRGB">
<feFlood flood-opacity="0" result="BackgroundImageFix"/>
<feColorMatrix in="SourceAlpha" type="matrix" values="0 0 0 0 0 0 0 0 0 0 0 0 0 0 0 0 0 0 127 0" result="hardAlpha"/>
<feOffset dy="2"/>
<feGaussianBlur stdDeviation="5"/>
<feColorMatrix type="matrix" values="0 0 0 0 0 0 0 0 0 0 0 0 0 0 0 0 0 0 0.5 0"/>
<feBlend mode="normal" in2="BackgroundImageFix" result="effect1_dropShadow_45_3197"/>
<feBlend mode="normal" in="SourceGraphic" in2="effect1_dropShadow_45_3197" result="shape"/>
</filter>
<clipPath id="clip0_45_3197">
<rect width="100" height="100" fill="white"/>
</clipPath>
</defs>
</svg>
