<svg width="100" height="100" viewBox="0 0 100 100" fill="none" xmlns="http://www.w3.org/2000/svg">
<g clip-path="url(#clip0_45_4690)" filter="url(#filter0_d_45_4690)">
<g filter="url(#filter1_d_45_4690)">
<path d="M80 8H20C14.4772 8 10 12.4772 10 18V78C10 83.5229 14.4772 88 20 88H80C85.5229 88 90 83.5229 90 78V18C90 12.4772 85.5229 8 80 8Z" fill="#4F4F4F"/>
</g>
<path d="M50.4131 26.5262C50.776 32.5565 50.95 32.3384 50.95 33.4435L52 76.5314C52 77.6365 51.331 78.5262 50.5 78.5262C49.669 78.5262 49 77.6365 49 76.5314L49.9375 33.4435C49.9375 32.3384 50.0502 33.059 50.4131 26.5262Z" fill="#BCC1C5"/>
<path d="M52.4971 45.6557C52.4971 45.6557 49.152 38.223 62.8841 33.3785C70.7145 30.6161 70.5547 26.3188 70.5547 26.3188C70.5547 26.3188 72.1527 45.6557 58.7291 47.4974C54.1018 47.0253 52.4971 48.5262 52.4971 48.5262C52.4971 48.5262 51.3051 50.742 51.5594 52.5324L49.8079 52.6138C49.8079 52.6138 52.7459 45.2073 54.1018 44.3393L52.4971 45.6557Z" fill="#BCC1C5"/>
<path d="M48.1167 58.8631C48.1167 58.8631 51.4619 51.4304 37.7297 46.5859C29.8994 43.8235 30.0591 39.5262 30.0591 39.5262C30.0591 39.5262 28.4611 58.8631 41.8847 60.7048C48.1167 57.5467 49 65.5262 50 64.0262L49.5 63.5262C49.5 63.5262 47.868 58.4147 46.512 57.5467L48.1167 58.8631Z" fill="#BCC1C5"/>
<path d="M52.8833 63.8631C52.8833 63.8631 49.5381 56.4304 63.2703 51.5859C71.1006 48.8235 70.9409 44.5262 70.9409 44.5262C70.9409 44.5262 72.5389 63.8631 59.1153 65.7048C52.8833 62.5467 52 70.5262 51 69.0262L51.5 68.5262C51.5 68.5262 53.132 63.4147 54.488 62.5467L52.8833 63.8631Z" fill="#BCC1C5"/>
<path d="M45.3272 45.5682C45.3272 45.5682 39.4542 48.006 35.6263 37.9987C33.4436 32.2924 30.0481 32.4088 30.0481 32.4088C30.0481 32.4088 45.3272 31.2443 46.7824 41.0267C47.3758 44.6999 45.5 44.5262 47 45.0262C48.5 45.5262 49.3461 46.4369 50.7608 46.2516L50.8251 47.528C50.8251 47.528 44.9729 45.3869 44.2871 44.3988L45.3272 45.5682Z" fill="#BCC1C5"/>
<path d="M51.6102 32.1394C51.6102 32.1394 49.1642 26.7046 59.2054 23.1622C64.9311 21.1422 64.8143 18 64.8143 18C64.8143 18 65.9827 32.1394 56.1672 33.4861C54.5 33.7149 53.5066 34.0534 52.1226 33.1409C50.7385 32.2284 50.7386 35.8586 50.9245 37.1678L50.5 34.0262C50.5 34.0262 51.7921 31.8116 52.7836 31.1769L51.6102 32.1394Z" fill="#BCC1C5"/>
<path d="M46.8377 31.6521C46.8377 31.6521 42.5825 33.4184 39.8089 26.1677C38.2274 22.0331 35.7672 22.1175 35.7672 22.1175C35.7672 22.1175 46.8377 21.2737 47.8921 28.3616C47.5 30.5262 47 30.5262 47.5 31.0262C48.8782 31.7703 49.7496 32.2815 50.7747 32.1473L50.8213 33.0721C50.8213 33.0721 46.581 31.5208 46.0841 30.8049L46.8377 31.6521Z" fill="#BCC1C5"/>
</g>
<defs>
<filter id="filter0_d_45_4690" x="-4" y="0" width="108" height="108" filterUnits="userSpaceOnUse" color-interpolation-filters="sRGB">
<feFlood flood-opacity="0" result="BackgroundImageFix"/>
<feColorMatrix in="SourceAlpha" type="matrix" values="0 0 0 0 0 0 0 0 0 0 0 0 0 0 0 0 0 0 127 0" result="hardAlpha"/>
<feOffset dy="4"/>
<feGaussianBlur stdDeviation="2"/>
<feComposite in2="hardAlpha" operator="out"/>
<feColorMatrix type="matrix" values="0 0 0 0 0 0 0 0 0 0 0 0 0 0 0 0 0 0 0.25 0"/>
<feBlend mode="normal" in2="BackgroundImageFix" result="effect1_dropShadow_45_4690"/>
<feBlend mode="normal" in="SourceGraphic" in2="effect1_dropShadow_45_4690" result="shape"/>
</filter>
<filter id="filter1_d_45_4690" x="0" y="-2" width="100" height="100" filterUnits="userSpaceOnUse" color-interpolation-filters="sRGB">
<feFlood flood-opacity="0" result="BackgroundImageFix"/>
<feColorMatrix in="SourceAlpha" type="matrix" values="0 0 0 0 0 0 0 0 0 0 0 0 0 0 0 0 0 0 127 0" result="hardAlpha"/>
<feOffset/>
<feGaussianBlur stdDeviation="5"/>
<feComposite in2="hardAlpha" operator="out"/>
<feColorMatrix type="matrix" values="0 0 0 0 0 0 0 0 0 0 0 0 0 0 0 0 0 0 0.4 0"/>
<feBlend mode="normal" in2="BackgroundImageFix" result="effect1_dropShadow_45_4690"/>
<feBlend mode="normal" in="SourceGraphic" in2="effect1_dropShadow_45_4690" result="shape"/>
</filter>
<clipPath id="clip0_45_4690">
<rect width="100" height="100" fill="white"/>
</clipPath>
</defs>
</svg>
