<svg width="100" height="100" viewBox="0 0 100 100" fill="none" xmlns="http://www.w3.org/2000/svg">
<g clip-path="url(#clip0_45_4298)" filter="url(#filter0_d_45_4298)">
<g filter="url(#filter1_d_45_4298)">
<path d="M80 8H20C14.4772 8 10 12.4772 10 18V78C10 83.5229 14.4772 88 20 88H80C85.5229 88 90 83.5229 90 78V18C90 12.4772 85.5229 8 80 8Z" fill="#4F4F4F"/>
<mask id="mask0_45_4298" style="mask-type:alpha" maskUnits="userSpaceOnUse" x="22" y="20" width="56" height="56">
<path d="M78 20H22V76H78V20Z" fill="white"/>
</mask>
<g mask="url(#mask0_45_4298)">
<path d="M49.813 25L59.626 34.813L49.813 44.626L40 34.813L49.813 25Z" fill="#F8F8F9"/>
<path d="M49.796 44.609L49.813 44.626L59.626 34.813L49.813 25L49.796 25.017V44.609Z" fill="#E9EAEC"/>
<path d="M49.813 52L59.626 61.813L49.813 71.626L40 61.813L49.813 52Z" fill="#F8F8F9"/>
<path d="M49.796 71.608L49.813 71.626L59.626 61.812L49.813 52L49.796 52.016V71.608Z" fill="#E9EAEC"/>
<path d="M63.812 38L73.625 47.813L63.812 57.626L53.999 47.813L63.812 38Z" fill="#F8F8F9"/>
<path d="M63.796 57.608L63.813 57.626L73.626 47.813L63.813 38L63.796 38.017V57.608Z" fill="#E9EAEC"/>
<path d="M35.813 38L45.626 47.813L35.813 57.626L26 47.813L35.813 38Z" fill="#F8F8F9"/>
<path d="M35.796 57.608L35.813 57.626L45.626 47.813L35.813 38L35.796 38.017V57.608Z" fill="#E9EAEC"/>
</g>
</g>
</g>
<defs>
<filter id="filter0_d_45_4298" x="-4" y="0" width="108" height="108" filterUnits="userSpaceOnUse" color-interpolation-filters="sRGB">
<feFlood flood-opacity="0" result="BackgroundImageFix"/>
<feColorMatrix in="SourceAlpha" type="matrix" values="0 0 0 0 0 0 0 0 0 0 0 0 0 0 0 0 0 0 127 0" result="hardAlpha"/>
<feOffset dy="4"/>
<feGaussianBlur stdDeviation="2"/>
<feComposite in2="hardAlpha" operator="out"/>
<feColorMatrix type="matrix" values="0 0 0 0 0 0 0 0 0 0 0 0 0 0 0 0 0 0 0.25 0"/>
<feBlend mode="normal" in2="BackgroundImageFix" result="effect1_dropShadow_45_4298"/>
<feBlend mode="normal" in="SourceGraphic" in2="effect1_dropShadow_45_4298" result="shape"/>
</filter>
<filter id="filter1_d_45_4298" x="0" y="0" width="100" height="100" filterUnits="userSpaceOnUse" color-interpolation-filters="sRGB">
<feFlood flood-opacity="0" result="BackgroundImageFix"/>
<feColorMatrix in="SourceAlpha" type="matrix" values="0 0 0 0 0 0 0 0 0 0 0 0 0 0 0 0 0 0 127 0" result="hardAlpha"/>
<feOffset dy="2"/>
<feGaussianBlur stdDeviation="5"/>
<feColorMatrix type="matrix" values="0 0 0 0 0 0 0 0 0 0 0 0 0 0 0 0 0 0 0.5 0"/>
<feBlend mode="normal" in2="BackgroundImageFix" result="effect1_dropShadow_45_4298"/>
<feBlend mode="normal" in="SourceGraphic" in2="effect1_dropShadow_45_4298" result="shape"/>
</filter>
<clipPath id="clip0_45_4298">
<rect width="100" height="100" fill="white"/>
</clipPath>
</defs>
</svg>
