<svg width="100" height="100" viewBox="0 0 100 100" fill="none" xmlns="http://www.w3.org/2000/svg">
<g clip-path="url(#clip0_45_3681)">
<g filter="url(#filter0_d_45_3681)">
<path d="M80 8H20C14.4772 8 10 12.4772 10 18V78C10 83.5229 14.4772 88 20 88H80C85.5229 88 90 83.5229 90 78V18C90 12.4772 85.5229 8 80 8Z" fill="#4F4F4F"/>
<path d="M75.27 40L66 60.22L59.45 45.92L62 40.21V40H75.27Z" fill="#BCC1C5"/>
<path d="M18 16H82V80H18V16ZM18 80H82V16H18V80ZM81 40L71.79 61C71.79 64.2 69.2 66.79 66 66.79C62.8 66.79 60.21 64.2 60.21 61L56.44 52.61L58.9 47.12L65.27 61H60.93C60.93 63.8 63.2 66.07 66 66.07C68.8 66.07 71.07 63.8 71.07 61H66.73L76.36 40H80.01C80.01 32 73.78 25.49 66.13 25.49C62.75 25.49 59.66 26.76 57.25 28.86C57.06 28.59 56.85 28.33 56.64 28.08C59.21 25.85 62.52 24.51 66.13 24.51C74.33 24.51 81 31.46 81 40Z" fill="#BCC1C5"/>
<path d="M18 16H82V80H18V16ZM18 80H82V16H18V80ZM40 19C28.402 19 19 28.402 19 40L32 69C32 73.418 35.582 77 40 77C44.418 77 48 73.418 48 69L61 40C61 28.402 51.598 19 40 19ZM54 40L41 69H47C47 72.86 43.86 76 40 76C36.14 76 33 72.86 33 69H39L26 40H20C20 28.972 28.972 20 40 20C51.028 20 60 28.972 60 40H54Z" fill="#BCC1C5"/>
<path d="M18 16H82V80H18V16ZM18 80H82V16H18V80ZM40 26C32.268 26 26 32.268 26 40H27H53H54C54 32.268 47.732 26 40 26Z" fill="#FABB04"/>
<path d="M18 16H82V80H18V16ZM18 80H82V16H18V80ZM53 40H27L40 69L53 40Z" fill="#BCC1C5"/>
<path d="M18 16H82V80H18V16ZM18 80H82V16H18V80ZM66.128 29.862C64.002 29.862 62.026 30.501 60.388 31.596C61.476 34.187 62.08 37.025 62.08 40H75.655H76.388C76.388 34.401 71.795 29.862 66.128 29.862Z" fill="#FABB04"/>
</g>
</g>
<defs>
<filter id="filter0_d_45_3681" x="0" y="0" width="100" height="100" filterUnits="userSpaceOnUse" color-interpolation-filters="sRGB">
<feFlood flood-opacity="0" result="BackgroundImageFix"/>
<feColorMatrix in="SourceAlpha" type="matrix" values="0 0 0 0 0 0 0 0 0 0 0 0 0 0 0 0 0 0 127 0" result="hardAlpha"/>
<feOffset dy="2"/>
<feGaussianBlur stdDeviation="5"/>
<feColorMatrix type="matrix" values="0 0 0 0 0 0 0 0 0 0 0 0 0 0 0 0 0 0 0.5 0"/>
<feBlend mode="normal" in2="BackgroundImageFix" result="effect1_dropShadow_45_3681"/>
<feBlend mode="normal" in="SourceGraphic" in2="effect1_dropShadow_45_3681" result="shape"/>
</filter>
<clipPath id="clip0_45_3681">
<rect width="100" height="100" fill="white"/>
</clipPath>
</defs>
</svg>
