<svg width="100" height="100" viewBox="0 0 100 100" fill="none" xmlns="http://www.w3.org/2000/svg">
<g clip-path="url(#clip0_45_4039)" filter="url(#filter0_d_45_4039)">
<g filter="url(#filter1_d_45_4039)">
<path d="M80 8H20C14.4772 8 10 12.4772 10 18V78C10 83.5229 14.4772 88 20 88H80C85.5229 88 90 83.5229 90 78V18C90 12.4772 85.5229 8 80 8Z" fill="#4F4F4F"/>
<path d="M71 40C71 28.402 61.598 19 50 19C38.402 19 29 28.402 29 40C29 48.913 34.563 56.511 42.398 59.559C43.828 62.092 45 65.062 45 68C45 74.883 38.283 74.999 38 75H37V76H39H49.5H50.5H61H63V75H62C61.717 74.999 55 74.883 55 68C55 65.062 56.172 62.092 57.602 59.559C65.438 56.511 71 48.913 71 40ZM50 22C51.104 22 52 22.896 52 24C52 25.104 51.104 26 50 26C48.896 26 48 25.104 48 24C48 22.896 48.896 22 50 22ZM50 29C56.075 29 61 33.925 61 40C61 46.075 56.075 51 50 51C43.925 51 39 46.075 39 40C39 33.925 43.925 29 50 29ZM43.798 60.067C45.605 60.625 47.521 60.928 49.5 60.975V68H46C46 65.244 45.043 62.496 43.798 60.067ZM54 68H50.5V60.975C52.479 60.928 54.395 60.625 56.202 60.067C54.957 62.496 54 65.244 54 68Z" fill="#BCC1C5"/>
<path d="M50 44C52.206 44 54 42.206 54 40C54 37.794 52.206 36 50 36C47.794 36 46 37.794 46 40C46 42.206 47.794 44 50 44Z" fill="#4285F4"/>
<path d="M50 51C56.075 51 61 46.075 61 40C61 33.925 56.075 29 50 29C43.925 29 39 33.925 39 40C39 46.075 43.925 51 50 51ZM50 35C52.761 35 55 37.238 55 40C55 42.762 52.761 45 50 45C47.239 45 45 42.762 45 40C45 37.238 47.239 35 50 35Z" fill="#4285F4"/>
</g>
</g>
<defs>
<filter id="filter0_d_45_4039" x="-4" y="0" width="108" height="108" filterUnits="userSpaceOnUse" color-interpolation-filters="sRGB">
<feFlood flood-opacity="0" result="BackgroundImageFix"/>
<feColorMatrix in="SourceAlpha" type="matrix" values="0 0 0 0 0 0 0 0 0 0 0 0 0 0 0 0 0 0 127 0" result="hardAlpha"/>
<feOffset dy="4"/>
<feGaussianBlur stdDeviation="2"/>
<feComposite in2="hardAlpha" operator="out"/>
<feColorMatrix type="matrix" values="0 0 0 0 0 0 0 0 0 0 0 0 0 0 0 0 0 0 0.25 0"/>
<feBlend mode="normal" in2="BackgroundImageFix" result="effect1_dropShadow_45_4039"/>
<feBlend mode="normal" in="SourceGraphic" in2="effect1_dropShadow_45_4039" result="shape"/>
</filter>
<filter id="filter1_d_45_4039" x="0" y="0" width="100" height="100" filterUnits="userSpaceOnUse" color-interpolation-filters="sRGB">
<feFlood flood-opacity="0" result="BackgroundImageFix"/>
<feColorMatrix in="SourceAlpha" type="matrix" values="0 0 0 0 0 0 0 0 0 0 0 0 0 0 0 0 0 0 127 0" result="hardAlpha"/>
<feOffset dy="2"/>
<feGaussianBlur stdDeviation="5"/>
<feColorMatrix type="matrix" values="0 0 0 0 0 0 0 0 0 0 0 0 0 0 0 0 0 0 0.5 0"/>
<feBlend mode="normal" in2="BackgroundImageFix" result="effect1_dropShadow_45_4039"/>
<feBlend mode="normal" in="SourceGraphic" in2="effect1_dropShadow_45_4039" result="shape"/>
</filter>
<clipPath id="clip0_45_4039">
<rect width="100" height="100" fill="white"/>
</clipPath>
</defs>
</svg>
