<svg width="100" height="100" viewBox="0 0 100 100" fill="none" xmlns="http://www.w3.org/2000/svg">
<g clip-path="url(#clip0_45_4520)" filter="url(#filter0_d_45_4520)">
<g filter="url(#filter1_d_45_4520)">
<path d="M80 8H20C14.4772 8 10 12.4772 10 18V78C10 83.5229 14.4772 88 20 88H80C85.5229 88 90 83.5229 90 78V18C90 12.4772 85.5229 8 80 8Z" fill="#4F4F4F"/>
<path d="M18 16H82V80H18V16ZM18 80H82V16H18V80ZM69 23H31C27.686 23 25 25.687 25 29V67C25 70.313 27.686 73 31 73H69C72.313 73 75 70.313 75 67V29C75 25.687 72.313 23 69 23ZM74 67C74 69.757 71.757 72 69 72H31C28.243 72 26 69.757 26 67V29C26 26.243 28.243 24 31 24H69C71.757 24 74 26.243 74 29V67Z" fill="#BCC1C5"/>
<path d="M18 16H82V80H18V16ZM18 80H82V16H18V80ZM62.182 43.496C62.702 44.9 63 46.414 63 48C63 52.253 60.949 56.017 57.792 58.389L62.587 64.781C67.686 60.95 71 54.87 71 48C71 45.329 70.482 42.784 69.573 40.433L62.182 43.496Z" fill="#FFC7C7"/>
<path d="M18 16H82V80H18V16ZM18 80H82V16H18V80ZM58.822 38.47L64.479 32.815C62.739 31.156 60.72 29.791 58.493 28.804L55.429 36.199C56.681 36.776 57.823 37.544 58.822 38.47Z" fill="#FFC7C7"/>
<path d="M18 16H82V80H18V16ZM18 80H82V16H18V80ZM61.801 42.571L69.197 39.508C68.209 37.28 66.845 35.26 65.186 33.521L59.529 39.178C60.455 40.178 61.224 41.319 61.801 42.571Z" fill="#FFC7C7"/>
<path d="M18 16H82V80H18V16ZM18 80H82V16H18V80ZM50 27V35C51.586 35 53.099 35.299 54.504 35.818L57.566 28.428C55.216 27.519 52.671 27 50 27Z" fill="#FFC7C7"/>
<path d="M18 15.999H82V79.999H18V15.999ZM18 79.999H82V15.999H18V79.999ZM29 47.999C29 54.869 32.313 60.95 37.414 64.781L42.208 58.389C39.051 56.017 37 52.252 37 47.999C37 40.819 42.82 34.999 50 34.999V26.999C38.402 26.999 29 36.401 29 47.999Z" fill="#BCC1C5"/>
<path d="M18 16H82V80H18V16ZM18 80H82V16H18V80ZM55.994 42.713C55.772 42.463 55.537 42.228 55.287 42.006C54.754 41.536 54.159 41.138 53.515 40.822C53.216 40.676 52.909 40.547 52.591 40.438C51.777 40.158 50.908 40 50 40C45.582 40 42 43.582 42 48C42 52.418 45.582 56 50 56C54.418 56 58 52.418 58 48C58 47.092 57.841 46.223 57.562 45.408C57.454 45.092 57.325 44.783 57.178 44.485C56.862 43.841 56.464 43.246 55.994 42.713ZM57 48C57 51.859 53.86 55 50 55C46.14 55 43 51.859 43 48C43 44.141 46.14 41 50 41C50.772 41 51.513 41.131 52.208 41.362C52.527 41.469 52.834 41.6 53.131 41.748C53.654 42.012 54.139 42.336 54.577 42.716L51.424 45.869L49.646 47.646L50 48L50.354 48.354L52.131 46.576L55.284 43.423C55.664 43.861 55.989 44.346 56.252 44.869C56.401 45.166 56.531 45.473 56.637 45.792C56.869 46.487 57 47.229 57 48Z" fill="#BCC1C5"/>
</g>
</g>
<defs>
<filter id="filter0_d_45_4520" x="-4" y="0" width="108" height="108" filterUnits="userSpaceOnUse" color-interpolation-filters="sRGB">
<feFlood flood-opacity="0" result="BackgroundImageFix"/>
<feColorMatrix in="SourceAlpha" type="matrix" values="0 0 0 0 0 0 0 0 0 0 0 0 0 0 0 0 0 0 127 0" result="hardAlpha"/>
<feOffset dy="4"/>
<feGaussianBlur stdDeviation="2"/>
<feComposite in2="hardAlpha" operator="out"/>
<feColorMatrix type="matrix" values="0 0 0 0 0 0 0 0 0 0 0 0 0 0 0 0 0 0 0.25 0"/>
<feBlend mode="normal" in2="BackgroundImageFix" result="effect1_dropShadow_45_4520"/>
<feBlend mode="normal" in="SourceGraphic" in2="effect1_dropShadow_45_4520" result="shape"/>
</filter>
<filter id="filter1_d_45_4520" x="0" y="0" width="100" height="100" filterUnits="userSpaceOnUse" color-interpolation-filters="sRGB">
<feFlood flood-opacity="0" result="BackgroundImageFix"/>
<feColorMatrix in="SourceAlpha" type="matrix" values="0 0 0 0 0 0 0 0 0 0 0 0 0 0 0 0 0 0 127 0" result="hardAlpha"/>
<feOffset dy="2"/>
<feGaussianBlur stdDeviation="5"/>
<feColorMatrix type="matrix" values="0 0 0 0 0 0 0 0 0 0 0 0 0 0 0 0 0 0 0.5 0"/>
<feBlend mode="normal" in2="BackgroundImageFix" result="effect1_dropShadow_45_4520"/>
<feBlend mode="normal" in="SourceGraphic" in2="effect1_dropShadow_45_4520" result="shape"/>
</filter>
<clipPath id="clip0_45_4520">
<rect width="100" height="100" fill="white"/>
</clipPath>
</defs>
</svg>
