<svg width="100" height="100" viewBox="0 0 100 100" fill="none" xmlns="http://www.w3.org/2000/svg">
<g clip-path="url(#clip0_45_4450)" filter="url(#filter0_d_45_4450)">
<g filter="url(#filter1_d_45_4450)">
<path d="M80 8H20C14.4772 8 10 12.4772 10 18V78C10 83.5229 14.4772 88 20 88H80C85.5229 88 90 83.5229 90 78V18C90 12.4772 85.5229 8 80 8Z" fill="#4F4F4F"/>
<path d="M70 48C70 50.669 69.45 53.295 68.432 55.725L50.707 38H29V48C29 53.747 31.355 59.243 35.517 63.207L50 77L64.483 63.207C68.645 59.243 71 53.747 71 48V38H70V48ZM67.979 56.686C67.083 58.542 65.905 60.256 64.473 61.766L50 47.293V38.707L67.979 56.686ZM50 48.707L63.784 62.491L59.387 66.68L50 57.293V48.707ZM50 58.707L58.662 67.369L50 75.619V58.707Z" fill="#BCC1C5"/>
<path d="M50 19C45.05 25.12 37.484 29 29 29V35V38H50.707H70H71V35V29C62.516 29 54.95 25.12 50 19Z" fill="#4285F4"/>
</g>
</g>
<defs>
<filter id="filter0_d_45_4450" x="-4" y="0" width="108" height="108" filterUnits="userSpaceOnUse" color-interpolation-filters="sRGB">
<feFlood flood-opacity="0" result="BackgroundImageFix"/>
<feColorMatrix in="SourceAlpha" type="matrix" values="0 0 0 0 0 0 0 0 0 0 0 0 0 0 0 0 0 0 127 0" result="hardAlpha"/>
<feOffset dy="4"/>
<feGaussianBlur stdDeviation="2"/>
<feComposite in2="hardAlpha" operator="out"/>
<feColorMatrix type="matrix" values="0 0 0 0 0 0 0 0 0 0 0 0 0 0 0 0 0 0 0.25 0"/>
<feBlend mode="normal" in2="BackgroundImageFix" result="effect1_dropShadow_45_4450"/>
<feBlend mode="normal" in="SourceGraphic" in2="effect1_dropShadow_45_4450" result="shape"/>
</filter>
<filter id="filter1_d_45_4450" x="0" y="0" width="100" height="100" filterUnits="userSpaceOnUse" color-interpolation-filters="sRGB">
<feFlood flood-opacity="0" result="BackgroundImageFix"/>
<feColorMatrix in="SourceAlpha" type="matrix" values="0 0 0 0 0 0 0 0 0 0 0 0 0 0 0 0 0 0 127 0" result="hardAlpha"/>
<feOffset dy="2"/>
<feGaussianBlur stdDeviation="5"/>
<feColorMatrix type="matrix" values="0 0 0 0 0 0 0 0 0 0 0 0 0 0 0 0 0 0 0.5 0"/>
<feBlend mode="normal" in2="BackgroundImageFix" result="effect1_dropShadow_45_4450"/>
<feBlend mode="normal" in="SourceGraphic" in2="effect1_dropShadow_45_4450" result="shape"/>
</filter>
<clipPath id="clip0_45_4450">
<rect width="100" height="100" fill="white"/>
</clipPath>
</defs>
</svg>
