<svg width="100" height="100" viewBox="0 0 100 100" fill="none" xmlns="http://www.w3.org/2000/svg">
<g clip-path="url(#clip0_45_4147)" filter="url(#filter0_d_45_4147)">
<g filter="url(#filter1_d_45_4147)">
<path d="M80 8H20C14.4772 8 10 12.4772 10 18V78C10 83.5229 14.4772 88 20 88H80C85.5229 88 90 83.5229 90 78V18C90 12.4772 85.5229 8 80 8Z" fill="#4F4F4F"/>
<path d="M18 16H82V80H18V16ZM18 80H82V16H18V80ZM50 19C38.402 19 29 28.402 29 40V56C29 67.598 38.402 77 50 77C61.598 77 71 67.598 71 56V40C71 28.402 61.598 19 50 19ZM70 56C70 67.027 61.028 76 50 76C38.972 76 30 67.027 30 56V40C30 28.973 38.972 20 50 20C61.028 20 70 28.973 70 40V56Z" fill="#BCC1C5"/>
<path d="M18 16H82V80H18V16ZM18 80H82V16H18V80ZM50 31C51.103 31 52 30.104 52 29C52 27.896 51.103 27 50 27C48.897 27 48 27.896 48 29C48 30.104 48.897 31 50 31Z" fill="#34A853"/>
<path d="M18 16H82V80H18V16ZM18 80H82V16H18V80ZM50 35C53.313 35 56 32.313 56 29C56 25.687 53.313 23 50 23C46.686 23 44 25.687 44 29C44 32.313 46.686 35 50 35ZM50 26C51.657 26 53 27.344 53 29C53 30.656 51.657 32 50 32C48.343 32 47 30.656 47 29C47 27.344 48.343 26 50 26Z" fill="#34A853"/>
<path d="M18 16H82V80H18V16ZM18 80H82V16H18V80ZM50 39C40.611 39 33 46.611 33 56C33 65.389 40.611 73 50 73C59.389 73 67 65.389 67 56C67 46.611 59.389 39 50 39ZM45 58H43V49H45V58ZM53 67H47V64.002C47.49 62.826 48.647 62 50 62C51.352 62 52.51 62.826 53 64.002V67ZM57 58H55V49H57V58Z" fill="#BCC1C5"/>
</g>
</g>
<defs>
<filter id="filter0_d_45_4147" x="-4" y="0" width="108" height="108" filterUnits="userSpaceOnUse" color-interpolation-filters="sRGB">
<feFlood flood-opacity="0" result="BackgroundImageFix"/>
<feColorMatrix in="SourceAlpha" type="matrix" values="0 0 0 0 0 0 0 0 0 0 0 0 0 0 0 0 0 0 127 0" result="hardAlpha"/>
<feOffset dy="4"/>
<feGaussianBlur stdDeviation="2"/>
<feComposite in2="hardAlpha" operator="out"/>
<feColorMatrix type="matrix" values="0 0 0 0 0 0 0 0 0 0 0 0 0 0 0 0 0 0 0.25 0"/>
<feBlend mode="normal" in2="BackgroundImageFix" result="effect1_dropShadow_45_4147"/>
<feBlend mode="normal" in="SourceGraphic" in2="effect1_dropShadow_45_4147" result="shape"/>
</filter>
<filter id="filter1_d_45_4147" x="0" y="0" width="100" height="100" filterUnits="userSpaceOnUse" color-interpolation-filters="sRGB">
<feFlood flood-opacity="0" result="BackgroundImageFix"/>
<feColorMatrix in="SourceAlpha" type="matrix" values="0 0 0 0 0 0 0 0 0 0 0 0 0 0 0 0 0 0 127 0" result="hardAlpha"/>
<feOffset dy="2"/>
<feGaussianBlur stdDeviation="5"/>
<feColorMatrix type="matrix" values="0 0 0 0 0 0 0 0 0 0 0 0 0 0 0 0 0 0 0.5 0"/>
<feBlend mode="normal" in2="BackgroundImageFix" result="effect1_dropShadow_45_4147"/>
<feBlend mode="normal" in="SourceGraphic" in2="effect1_dropShadow_45_4147" result="shape"/>
</filter>
<clipPath id="clip0_45_4147">
<rect width="100" height="100" fill="white"/>
</clipPath>
</defs>
</svg>
