<svg width="100" height="100" viewBox="0 0 100 100" fill="none" xmlns="http://www.w3.org/2000/svg">
<g clip-path="url(#clip0_45_4616)" filter="url(#filter0_d_45_4616)">
<g filter="url(#filter1_d_45_4616)">
<path d="M80 8H20C14.4772 8 10 12.4772 10 18V78C10 83.5229 14.4772 88 20 88H80C85.5229 88 90 83.5229 90 78V18C90 12.4772 85.5229 8 80 8Z" fill="#4F4F4F"/>
<path d="M65 23H35C31.687 23 29 25.687 29 29V32.002V36.025V68C29 71.314 31.687 74 35 74H65C68.314 74 71 71.314 71 68V36.025V32.002V29C71 25.687 68.314 23 65 23ZM30 29C30 26.243 32.243 24 35 24H43V32.002H30V29ZM68 53C68 62.941 59.941 71 50 71C40.059 71 32 62.941 32 53C32 43.059 40.059 35 50 35C59.941 35 68 43.059 68 53ZM44 32.002V24H65C67.757 24 70 26.243 70 29V32.002H44Z" fill="#BCC1C5"/>
<path d="M47 29H58V28H47V29Z" fill="#BCC1C5"/>
<path d="M63 26C61.896 26 61 26.896 61 28C61 29.104 61.896 30 63 30C64.104 30 65 29.104 65 28C65 26.896 64.104 26 63 26Z" fill="#BCC1C5"/>
<path d="M49 53C49 53.553 49.448 54 50 54C50.552 54 51 53.553 51 53C51 52.447 50.552 52 50 52C49.448 52 49 52.447 49 53Z" fill="#BCC1C5"/>
<path d="M46 53C46 55.209 47.791 57 50 57C52.209 57 54 55.209 54 53C54 50.791 52.209 49 50 49C47.791 49 46 50.791 46 53ZM53 53C53 54.654 51.654 56 50 56C48.346 56 47 54.654 47 53C47 51.346 48.346 50 50 50C51.654 50 53 51.346 53 53Z" fill="#BCC1C5"/>
<path d="M35 53C35 61.284 41.716 68 50 68C58.284 68 65 61.284 65 53C65 44.716 58.284 38 50 38C41.716 38 35 44.716 35 53ZM52.034 39.165C52.409 47.196 56.63 54.215 62.904 58.427C62.441 59.524 61.831 60.541 61.117 61.476C54.35 58.207 46.208 58.09 39.105 61.771C38.279 60.748 37.592 59.609 37.078 58.379C43.31 54.165 47.5 47.174 47.878 39.178C48.572 39.072 49.277 39 50 39C50.692 39 51.368 39.067 52.034 39.165ZM46.848 39.371C46.43 46.623 42.704 53.25 36.716 57.392C36.257 56.008 36 54.535 36 53C36 46.365 40.644 40.807 46.848 39.371ZM50 67C45.979 67 42.357 65.285 39.802 62.561C46.28 59.292 53.872 59.191 60.448 62.286C57.882 65.17 54.155 67 50 67ZM64 53C64 54.553 63.735 56.042 63.267 57.439C57.232 53.297 53.477 46.638 53.064 39.348C59.313 40.75 64 46.334 64 53Z" fill="#BCC1C5"/>
</g>
</g>
<defs>
<filter id="filter0_d_45_4616" x="-4" y="0" width="108" height="108" filterUnits="userSpaceOnUse" color-interpolation-filters="sRGB">
<feFlood flood-opacity="0" result="BackgroundImageFix"/>
<feColorMatrix in="SourceAlpha" type="matrix" values="0 0 0 0 0 0 0 0 0 0 0 0 0 0 0 0 0 0 127 0" result="hardAlpha"/>
<feOffset dy="4"/>
<feGaussianBlur stdDeviation="2"/>
<feComposite in2="hardAlpha" operator="out"/>
<feColorMatrix type="matrix" values="0 0 0 0 0 0 0 0 0 0 0 0 0 0 0 0 0 0 0.25 0"/>
<feBlend mode="normal" in2="BackgroundImageFix" result="effect1_dropShadow_45_4616"/>
<feBlend mode="normal" in="SourceGraphic" in2="effect1_dropShadow_45_4616" result="shape"/>
</filter>
<filter id="filter1_d_45_4616" x="0" y="0" width="100" height="100" filterUnits="userSpaceOnUse" color-interpolation-filters="sRGB">
<feFlood flood-opacity="0" result="BackgroundImageFix"/>
<feColorMatrix in="SourceAlpha" type="matrix" values="0 0 0 0 0 0 0 0 0 0 0 0 0 0 0 0 0 0 127 0" result="hardAlpha"/>
<feOffset dy="2"/>
<feGaussianBlur stdDeviation="5"/>
<feColorMatrix type="matrix" values="0 0 0 0 0 0 0 0 0 0 0 0 0 0 0 0 0 0 0.5 0"/>
<feBlend mode="normal" in2="BackgroundImageFix" result="effect1_dropShadow_45_4616"/>
<feBlend mode="normal" in="SourceGraphic" in2="effect1_dropShadow_45_4616" result="shape"/>
</filter>
<clipPath id="clip0_45_4616">
<rect width="100" height="100" fill="white"/>
</clipPath>
</defs>
</svg>
