<svg width="100" height="100" viewBox="0 0 100 100" fill="none" xmlns="http://www.w3.org/2000/svg">
<g clip-path="url(#clip0_45_3903)" filter="url(#filter0_d_45_3903)">
<g filter="url(#filter1_d_45_3903)">
<path d="M80 8H20C14.4772 8 10 12.4772 10 18V78C10 83.5229 14.4772 88 20 88H80C85.5229 88 90 83.5229 90 78V18C90 12.4772 85.5229 8 80 8Z" fill="#4F4F4F"/>
<path d="M73 27H27C23.687 27 21 29.687 21 33V63C21 66.313 23.687 69 27 69H50H73C76.314 69 79 66.313 79 63V33C79 29.687 76.314 27 73 27ZM78 63C78 65.757 75.757 68 73 68H27C24.243 68 22 65.757 22 63V33C22 30.243 24.243 28 27 28H73C75.757 28 78 30.243 78 33V63Z" fill="#BCC1C5"/>
<rect x="26.5" y="34.5" width="39" height="27" rx="2.5" stroke="#BCC1C5"/>
<line x1="69.5" y1="58" x2="69.5" y2="35" stroke="#BCC1C5"/>
<line x1="74.5" y1="58" x2="74.5" y2="35" stroke="#BCC1C5"/>
</g>
<path d="M42 46C40.896 46 40 46.896 40 48C40 49.104 40.896 50 42 50C43.104 50 44 49.104 44 48C44 46.896 43.104 46 42 46Z" fill="#FFC7C7"/>
<path d="M34 46C32.896 46 32 46.896 32 48C32 49.104 32.896 50 34 50C35.104 50 36 49.104 36 48C36 46.896 35.104 46 34 46Z" fill="#4285F4"/>
<path d="M50 46C48.896 46 48 46.896 48 48C48 49.104 48.896 50 50 50C51.104 50 52 49.104 52 48C52 46.896 51.104 46 50 46Z" fill="#FFF9B8"/>
<path d="M58 46C56.896 46 56 46.896 56 48C56 49.104 56.896 50 58 50C59.104 50 60 49.104 60 48C60 46.896 59.104 46 58 46Z" fill="#34A853"/>
</g>
<defs>
<filter id="filter0_d_45_3903" x="-4" y="0" width="108" height="108" filterUnits="userSpaceOnUse" color-interpolation-filters="sRGB">
<feFlood flood-opacity="0" result="BackgroundImageFix"/>
<feColorMatrix in="SourceAlpha" type="matrix" values="0 0 0 0 0 0 0 0 0 0 0 0 0 0 0 0 0 0 127 0" result="hardAlpha"/>
<feOffset dy="4"/>
<feGaussianBlur stdDeviation="2"/>
<feComposite in2="hardAlpha" operator="out"/>
<feColorMatrix type="matrix" values="0 0 0 0 0 0 0 0 0 0 0 0 0 0 0 0 0 0 0.25 0"/>
<feBlend mode="normal" in2="BackgroundImageFix" result="effect1_dropShadow_45_3903"/>
<feBlend mode="normal" in="SourceGraphic" in2="effect1_dropShadow_45_3903" result="shape"/>
</filter>
<filter id="filter1_d_45_3903" x="0" y="0" width="100" height="100" filterUnits="userSpaceOnUse" color-interpolation-filters="sRGB">
<feFlood flood-opacity="0" result="BackgroundImageFix"/>
<feColorMatrix in="SourceAlpha" type="matrix" values="0 0 0 0 0 0 0 0 0 0 0 0 0 0 0 0 0 0 127 0" result="hardAlpha"/>
<feOffset dy="2"/>
<feGaussianBlur stdDeviation="5"/>
<feColorMatrix type="matrix" values="0 0 0 0 0 0 0 0 0 0 0 0 0 0 0 0 0 0 0.5 0"/>
<feBlend mode="normal" in2="BackgroundImageFix" result="effect1_dropShadow_45_3903"/>
<feBlend mode="normal" in="SourceGraphic" in2="effect1_dropShadow_45_3903" result="shape"/>
</filter>
<clipPath id="clip0_45_3903">
<rect width="100" height="100" fill="white"/>
</clipPath>
</defs>
</svg>
