<svg width="100" height="100" viewBox="0 0 100 100" fill="none" xmlns="http://www.w3.org/2000/svg">
<g clip-path="url(#clip0_45_4199)" filter="url(#filter0_d_45_4199)">
<g filter="url(#filter1_d_45_4199)">
<path d="M80 8H20C14.4772 8 10 12.4772 10 18V78C10 83.5229 14.4772 88 20 88H80C85.5229 88 90 83.5229 90 78V18C90 12.4772 85.5229 8 80 8Z" fill="#4F4F4F"/>
<path d="M29 70C29 73.313 31.687 76 35 76H65C68.314 76 71 73.313 71 70V38H29V70ZM65 67H35C33.343 67 32 65.656 32 64V59H68V64C68 65.656 66.657 67 65 67ZM68 58H32V40.936H68V58Z" fill="#BCC1C5"/>
<path d="M65 25H35C31.687 25 29 27.687 29 31V34V36.003V37H71V36.003V34V31C71 27.687 68.314 25 65 25ZM66 34H55V31C55 30.448 55.449 30 56 30H65C65.552 30 66 30.448 66 31V34ZM67 34V31C67 29.896 66.104 29 65 29H56C54.896 29 54 29.896 54 31V34H30V31C30 28.243 32.243 26 35 26H65C67.757 26 70 28.243 70 31V34H67Z" fill="#BCC1C5"/>
<path d="M35 28C33.896 28 33 28.896 33 30C33 31.104 33.896 32 35 32C36.104 32 37 31.104 37 30C37 28.896 36.104 28 35 28Z" fill="#FFC7C7"/>
<path d="M42 28C40.896 28 40 28.896 40 30C40 31.104 40.896 32 42 32C43.104 32 44 31.104 44 30C44 28.896 43.104 28 42 28Z" fill="#FFC7C7"/>
<path d="M49 28C47.896 28 47 28.896 47 30C47 31.104 47.896 32 49 32C50.104 32 51 31.104 51 30C51 28.896 50.104 28 49 28Z" fill="#FFC7C7"/>
<path d="M64 47H36V48H64V47Z" fill="#BCC1C5"/>
</g>
</g>
<defs>
<filter id="filter0_d_45_4199" x="-4" y="0" width="108" height="108" filterUnits="userSpaceOnUse" color-interpolation-filters="sRGB">
<feFlood flood-opacity="0" result="BackgroundImageFix"/>
<feColorMatrix in="SourceAlpha" type="matrix" values="0 0 0 0 0 0 0 0 0 0 0 0 0 0 0 0 0 0 127 0" result="hardAlpha"/>
<feOffset dy="4"/>
<feGaussianBlur stdDeviation="2"/>
<feComposite in2="hardAlpha" operator="out"/>
<feColorMatrix type="matrix" values="0 0 0 0 0 0 0 0 0 0 0 0 0 0 0 0 0 0 0.25 0"/>
<feBlend mode="normal" in2="BackgroundImageFix" result="effect1_dropShadow_45_4199"/>
<feBlend mode="normal" in="SourceGraphic" in2="effect1_dropShadow_45_4199" result="shape"/>
</filter>
<filter id="filter1_d_45_4199" x="0" y="0" width="100" height="100" filterUnits="userSpaceOnUse" color-interpolation-filters="sRGB">
<feFlood flood-opacity="0" result="BackgroundImageFix"/>
<feColorMatrix in="SourceAlpha" type="matrix" values="0 0 0 0 0 0 0 0 0 0 0 0 0 0 0 0 0 0 127 0" result="hardAlpha"/>
<feOffset dy="2"/>
<feGaussianBlur stdDeviation="5"/>
<feColorMatrix type="matrix" values="0 0 0 0 0 0 0 0 0 0 0 0 0 0 0 0 0 0 0.5 0"/>
<feBlend mode="normal" in2="BackgroundImageFix" result="effect1_dropShadow_45_4199"/>
<feBlend mode="normal" in="SourceGraphic" in2="effect1_dropShadow_45_4199" result="shape"/>
</filter>
<clipPath id="clip0_45_4199">
<rect width="100" height="100" fill="white"/>
</clipPath>
</defs>
</svg>
