<svg width="100" height="100" viewBox="0 0 100 100" fill="none" xmlns="http://www.w3.org/2000/svg">
<g clip-path="url(#clip0_47_29)">
<g filter="url(#filter0_d_47_29)">
<path d="M80 8H20C14.4772 8 10 12.4772 10 18V78C10 83.5229 14.4772 88 20 88H80C85.5229 88 90 83.5229 90 78V18C90 12.4772 85.5229 8 80 8Z" fill="#4285F4"/>
</g>
<circle cx="50" cy="48" r="28" stroke="#EA4335" stroke-width="2"/>
<path d="M50 31C50 31 40 48.9623 40 54.7358C40 60.5094 44.375 65 50 65C55.625 65 60 60.5094 60 54.7358C60 48.9623 50 31 50 31Z" fill="#BCC1C5"/>
<path d="M50.0001 34.8491C50.0001 34.8491 43.7501 46.1893 43.7501 49.7279C43.7501 53.2666 46.4844 56.0189 50.0001 56.0189C53.5157 56.0189 56.2501 53.2666 56.2501 49.7279C56.2501 46.1893 50.0001 34.8491 50.0001 34.8491Z" fill="#D6FDFA"/>
</g>
<defs>
<filter id="filter0_d_47_29" x="0" y="0" width="100" height="100" filterUnits="userSpaceOnUse" color-interpolation-filters="sRGB">
<feFlood flood-opacity="0" result="BackgroundImageFix"/>
<feColorMatrix in="SourceAlpha" type="matrix" values="0 0 0 0 0 0 0 0 0 0 0 0 0 0 0 0 0 0 127 0" result="hardAlpha"/>
<feOffset dy="2"/>
<feGaussianBlur stdDeviation="5"/>
<feColorMatrix type="matrix" values="0 0 0 0 0 0 0 0 0 0 0 0 0 0 0 0 0 0 0.5 0"/>
<feBlend mode="normal" in2="BackgroundImageFix" result="effect1_dropShadow_47_29"/>
<feBlend mode="normal" in="SourceGraphic" in2="effect1_dropShadow_47_29" result="shape"/>
</filter>
<clipPath id="clip0_47_29">
<rect width="100" height="100" fill="white"/>
</clipPath>
</defs>
</svg>
