<svg width="100" height="100" viewBox="0 0 100 100" fill="none" xmlns="http://www.w3.org/2000/svg">
<g clip-path="url(#clip0_45_3021)">
<g filter="url(#filter0_d_45_3021)">
<path d="M80 8H20C14.4772 8 10 12.4772 10 18V78C10 83.5229 14.4772 88 20 88H80C85.5229 88 90 83.5229 90 78V18C90 12.4772 85.5229 8 80 8Z" fill="#4F4F4F"/>
<path d="M49.5 20H35C32.243 20 30 22.243 30 25V26H49.5V20Z" fill="#FABB04"/>
<path d="M65 20H50.5V26H70V25C70 22.243 67.757 20 65 20Z" fill="#FABB04"/>
<path d="M49.5 28H30V31H49.5V28Z" fill="#FABB04"/>
<path d="M50.5 31H70V28H50.5V31Z" fill="#FABB04"/>
<path d="M49.5 42H30V44H49.5V42Z" fill="#FABB04"/>
<path d="M50.5 44H70V42H50.5V44Z" fill="#FABB04"/>
<path d="M49.5 46H30V48H49.5V46Z" fill="#FABB04"/>
<path d="M50.5 48H70V46H50.5V48Z" fill="#FABB04"/>
<path d="M49.5 38H30V40H49.5V38Z" fill="#FABB04"/>
<path d="M50.5 40H70V38H50.5V40Z" fill="#FABB04"/>
<path d="M49.5 54H30V56H49.5V54Z" fill="#FABB04"/>
<path d="M50.5 56H70V54H50.5V56Z" fill="#FABB04"/>
<path d="M49.5 58H30V60H49.5V58Z" fill="#FABB04"/>
<path d="M50.5 60H70V58H50.5V60Z" fill="#FABB04"/>
<path d="M49.5 50H30V52H49.5V50Z" fill="#FABB04"/>
<path d="M50.5 52H70V50H50.5V52Z" fill="#FABB04"/>
<path d="M49.5 66H30V68H49.5V66Z" fill="#FABB04"/>
<path d="M50.5 68H70V66H50.5V68Z" fill="#FABB04"/>
<path d="M49.5 70H30V72H49.5V70Z" fill="#FABB04"/>
<path d="M50.5 72H70V70H50.5V72Z" fill="#FABB04"/>
<path d="M50 74H31V76H50V74Z" fill="#FABB04"/>
<path d="M50 76H69V74H50V76Z" fill="#FABB04"/>
<path d="M68 76H69V75H68V76Z" fill="#4F4F4F"/>
<path d="M31 76H32V75H31V76Z" fill="#4F4F4F"/>
<path d="M49.5 62H30V64H49.5V62Z" fill="#FABB04"/>
<path d="M50.5 64H70V62H50.5V64Z" fill="#FABB04"/>
<path d="M49.5 33H30V36H49.5V33Z" fill="#FABB04"/>
<path d="M50.5 36H70V33H50.5V36Z" fill="#FABB04"/>
<path d="M65 19H50.5H49.5H35C31.687 19 29 21.687 29 25V26V28V31V33V36V38V40V71C29 74.313 31.687 77 35 77H49.5H50.5H65C68.313 77 71 74.313 71 71V40V38V36V33V31V28V26V25C71 21.687 68.313 19 65 19ZM35 76C32.243 76 30 73.757 30 71V40V38V36V33V31V28V26V25C30 22.243 32.243 20 35 20H49.5V26V28V31V33V36V38V40V76H35ZM70 28V31V33V36V38V40V71C70 73.757 67.757 76 65 76H50.5V40V38V36V33V31V28V26V20H65C67.757 20 70 22.243 70 25V26V28Z" fill="#BCC1C5"/>
</g>
</g>
<defs>
<filter id="filter0_d_45_3021" x="0" y="0" width="100" height="100" filterUnits="userSpaceOnUse" color-interpolation-filters="sRGB">
<feFlood flood-opacity="0" result="BackgroundImageFix"/>
<feColorMatrix in="SourceAlpha" type="matrix" values="0 0 0 0 0 0 0 0 0 0 0 0 0 0 0 0 0 0 127 0" result="hardAlpha"/>
<feOffset dy="2"/>
<feGaussianBlur stdDeviation="5"/>
<feColorMatrix type="matrix" values="0 0 0 0 0 0 0 0 0 0 0 0 0 0 0 0 0 0 0.5 0"/>
<feBlend mode="normal" in2="BackgroundImageFix" result="effect1_dropShadow_45_3021"/>
<feBlend mode="normal" in="SourceGraphic" in2="effect1_dropShadow_45_3021" result="shape"/>
</filter>
<clipPath id="clip0_45_3021">
<rect width="100" height="100" fill="white"/>
</clipPath>
</defs>
</svg>
