<svg width="100" height="100" viewBox="0 0 100 100" fill="none" xmlns="http://www.w3.org/2000/svg">
<g clip-path="url(#clip0_45_4566)" filter="url(#filter0_d_45_4566)">
<g filter="url(#filter1_d_45_4566)">
<path d="M80 8H20C14.4772 8 10 12.4772 10 18V78C10 83.5229 14.4772 88 20 88H80C85.5229 88 90 83.5229 90 78V18C90 12.4772 85.5229 8 80 8Z" fill="#4F4F4F"/>
<path d="M65 23H35C31.687 23 29 25.687 29 29V32.002V36.025V68C29 71.314 31.687 74 35 74H65C68.314 74 71 71.314 71 68V36.025V32.002V29C71 25.687 68.314 23 65 23ZM30 29C30 26.243 32.243 24 35 24H43V32.002H30V29ZM68 53C68 62.941 59.941 71 50 71C40.059 71 32 62.941 32 53C32 43.059 40.059 35 50 35C59.941 35 68 43.059 68 53ZM44 32.002V24H65C67.757 24 70 26.243 70 29V32.002H44Z" fill="#BCC1C5"/>
<path d="M47 29H58V28H47V29Z" fill="#BCC1C5"/>
<path d="M63 26C61.896 26 61 26.896 61 28C61 29.104 61.896 30 63 30C64.104 30 65 29.104 65 28C65 26.896 64.104 26 63 26Z" fill="#4285F4"/>
<path d="M26 29.26H74.16V77.42H26V29.26ZM26 77.42H74.16V29.26H26V77.42ZM50.08 35.28C60.0543 35.28 68.14 43.3657 68.14 53.34C68.14 63.3143 60.0543 71.4 50.08 71.4C40.1057 71.4 32.02 63.3143 32.02 53.34C32.02 43.3657 40.1057 35.28 50.08 35.28Z" fill="#F8F8F9"/>
<path d="M26 29.26H74.16V77.42H26V29.26ZM26 77.42H74.16V29.26H26V77.42ZM50.08 46.46C53.8795 46.46 56.96 49.5405 56.96 53.34C56.96 57.1395 53.8795 60.22 50.08 60.22C46.2805 60.22 43.2 57.1395 43.2 53.34C43.2 49.5405 46.2805 46.46 50.08 46.46Z" fill="#E8EAEC"/>
<path d="M50.08 40.44C42.9558 40.44 37.18 46.2157 37.18 53.34C37.18 60.4642 42.9558 66.24 50.08 66.24V40.44Z" fill="#E9EAED"/>
<path d="M50.08 40.44C57.2042 40.44 62.98 46.2157 62.98 53.34C62.98 60.4642 57.2042 66.24 50.08 66.24V40.44Z" fill="#E9EAED"/>
<path d="M26 29.26H74.16V77.42H26V29.26ZM26 77.42H74.16V29.26H26V77.42ZM50.08 46.46C53.8795 46.46 56.96 49.5405 56.96 53.34C56.96 57.1395 53.8795 60.22 50.08 60.22C46.2805 60.22 43.2 57.1395 43.2 53.34C43.2 49.5405 46.2805 46.46 50.08 46.46Z" fill="#4F4F4F"/>
<path d="M26 29.26H74.16V77.42H26V29.26ZM26 77.42H74.16V29.26H26V77.42ZM67.0977 59.4013C64.6071 66.3948 57.9284 71.4 50.08 71.4C42.2316 71.4 35.5529 66.3948 33.0623 59.4013C34.0315 59.9233 35.1409 60.22 36.32 60.22C40.1195 60.22 43.2 57.1395 43.2 53.34C43.2 57.1395 46.2797 60.22 50.08 60.22C53.8795 60.22 56.96 57.1395 56.96 53.34C56.96 57.1395 60.0405 60.22 63.84 60.22C65.0182 60.22 66.1276 59.9233 67.0977 59.4013Z" fill="#DFE0E4"/>
</g>
</g>
<defs>
<filter id="filter0_d_45_4566" x="-4" y="0" width="108" height="108" filterUnits="userSpaceOnUse" color-interpolation-filters="sRGB">
<feFlood flood-opacity="0" result="BackgroundImageFix"/>
<feColorMatrix in="SourceAlpha" type="matrix" values="0 0 0 0 0 0 0 0 0 0 0 0 0 0 0 0 0 0 127 0" result="hardAlpha"/>
<feOffset dy="4"/>
<feGaussianBlur stdDeviation="2"/>
<feComposite in2="hardAlpha" operator="out"/>
<feColorMatrix type="matrix" values="0 0 0 0 0 0 0 0 0 0 0 0 0 0 0 0 0 0 0.25 0"/>
<feBlend mode="normal" in2="BackgroundImageFix" result="effect1_dropShadow_45_4566"/>
<feBlend mode="normal" in="SourceGraphic" in2="effect1_dropShadow_45_4566" result="shape"/>
</filter>
<filter id="filter1_d_45_4566" x="0" y="0" width="100" height="100" filterUnits="userSpaceOnUse" color-interpolation-filters="sRGB">
<feFlood flood-opacity="0" result="BackgroundImageFix"/>
<feColorMatrix in="SourceAlpha" type="matrix" values="0 0 0 0 0 0 0 0 0 0 0 0 0 0 0 0 0 0 127 0" result="hardAlpha"/>
<feOffset dy="2"/>
<feGaussianBlur stdDeviation="5"/>
<feColorMatrix type="matrix" values="0 0 0 0 0 0 0 0 0 0 0 0 0 0 0 0 0 0 0.5 0"/>
<feBlend mode="normal" in2="BackgroundImageFix" result="effect1_dropShadow_45_4566"/>
<feBlend mode="normal" in="SourceGraphic" in2="effect1_dropShadow_45_4566" result="shape"/>
</filter>
<clipPath id="clip0_45_4566">
<rect width="100" height="100" fill="white"/>
</clipPath>
</defs>
</svg>
