<svg width="100" height="100" viewBox="0 0 100 100" fill="none" xmlns="http://www.w3.org/2000/svg">
<g clip-path="url(#clip0_45_3542)">
<g filter="url(#filter0_d_45_3542)">
<path d="M80 8H20C14.4772 8 10 12.4772 10 18V78C10 83.5229 14.4772 88 20 88H80C85.5229 88 90 83.5229 90 78V18C90 12.4772 85.5229 8 80 8Z" fill="#4F4F4F"/>
<path d="M38 77H62V76H38V77Z" fill="#BCC1C5"/>
<path d="M18 16H82V80H18V16ZM18 80H82V16H18V80ZM68.395 60L67.944 54L65 28C65 22.953 58.411 19 50 19C41.589 19 35 22.953 35 28L32.052 54L31.604 60C31.549 60.992 31.517 62.082 31.517 63.305C31.517 67.465 33.79 70.602 36.319 73H63.679C66.208 70.602 68.481 67.465 68.481 63.305C68.481 62.082 68.449 60.992 68.395 60ZM50 20C57.732 20 64 23.582 64 28C64 32.418 57.732 36 50 36C42.268 36 36 32.418 36 28C36 23.582 42.268 20 50 20ZM35.694 30.756C37.592 34.414 43.198 37 50 37C56.802 37 62.408 34.414 64.306 30.756L66.826 53H33.173L35.694 30.756Z" fill="#BCC1C5"/>
<path d="M18 18H82V82H18V18ZM18 82H82V18H18V82ZM48 25C48 26.104 48.896 27 50 27C51.104 27 52 26.104 52 25C52 23.896 51.104 23 50 23C48.896 23 48 23.896 48 25Z" fill="#4285F4"/>
<path d="M18 14H82V78H18V14ZM18 78H82V14H18V78ZM52 31C52 29.896 51.104 29 50 29C48.896 29 48 29.896 48 31C48 32.104 48.896 33 50 33C51.104 33 52 32.104 52 31Z" fill="#FABB04"/>
<path d="M19 16H83V80H19V16ZM19 80H83V16H19V80ZM56 30C57.104 30 58 29.104 58 28C58 26.896 57.104 26 56 26C54.896 26 54 26.896 54 28C54 29.104 54.896 30 56 30Z" fill="#EA4335"/>
<path d="M17 16H81V80H17V16ZM17 80H81V16H17V80ZM44 30C45.104 30 46 29.104 46 28C46 26.896 45.104 26 44 26C42.896 26 42 26.896 42 28C42 29.104 42.896 30 44 30Z" fill="#34A853"/>
</g>
</g>
<defs>
<filter id="filter0_d_45_3542" x="0" y="0" width="100" height="100" filterUnits="userSpaceOnUse" color-interpolation-filters="sRGB">
<feFlood flood-opacity="0" result="BackgroundImageFix"/>
<feColorMatrix in="SourceAlpha" type="matrix" values="0 0 0 0 0 0 0 0 0 0 0 0 0 0 0 0 0 0 127 0" result="hardAlpha"/>
<feOffset dy="2"/>
<feGaussianBlur stdDeviation="5"/>
<feColorMatrix type="matrix" values="0 0 0 0 0 0 0 0 0 0 0 0 0 0 0 0 0 0 0.5 0"/>
<feBlend mode="normal" in2="BackgroundImageFix" result="effect1_dropShadow_45_3542"/>
<feBlend mode="normal" in="SourceGraphic" in2="effect1_dropShadow_45_3542" result="shape"/>
</filter>
<clipPath id="clip0_45_3542">
<rect width="100" height="100" fill="white"/>
</clipPath>
</defs>
</svg>
