<svg width="100" height="100" viewBox="0 0 100 100" fill="none" xmlns="http://www.w3.org/2000/svg">
<g clip-path="url(#clip0_45_4019)" filter="url(#filter0_d_45_4019)">
<g filter="url(#filter1_d_45_4019)">
<path d="M80 8H20C14.4772 8 10 12.4772 10 18V78C10 83.5229 14.4772 88 20 88H80C85.5229 88 90 83.5229 90 78V18C90 12.4772 85.5229 8 80 8Z" fill="#4F4F4F"/>
<path d="M18 16H82V80H18V16ZM18 80H82V16H18V80ZM53 32.238V33H50C61.028 33 70 41.971 70 53C70 64.028 61.028 73 50 73C38.972 73 30 64.028 30 53C30 41.971 38.972 33 50 33H47V32.238C36.827 33.697 29 42.424 29 53C29 64.597 38.402 74 50 74C61.598 74 71 64.597 71 53C71 42.424 63.173 33.697 53 32.238Z" fill="#BCC1C5"/>
<path d="M18 16H82V80H18V16ZM18 80H82V16H18V80ZM38 55C39.104 55 40 54.104 40 53C40 51.896 39.104 51 38 51C36.896 51 36 51.896 36 53C36 54.104 36.896 55 38 55Z" fill="#BCC1C5"/>
<path d="M18 16H82V80H18V16ZM18 80H82V16H18V80ZM46 55C47.104 55 48 54.104 48 53C48 51.896 47.104 51 46 51C44.896 51 44 51.896 44 53C44 54.104 44.896 55 46 55Z" fill="#BCC1C5"/>
<path d="M18 16H82V80H18V16ZM18 80H82V16H18V80ZM54 55C55.104 55 56 54.104 56 53C56 51.896 55.104 51 54 51C52.896 51 52 51.896 52 53C52 54.104 52.896 55 54 55Z" fill="#BCC1C5"/>
<path d="M18 16H82V80H18V16ZM18 80H82V16H18V80ZM62 55C63.104 55 64 54.104 64 53C64 51.896 63.104 51 62 51C60.896 51 60 51.896 60 53C60 54.104 60.896 55 62 55Z" fill="#BCC1C5"/>
<path d="M18 16H82V80H18V16ZM18 80H82V16H18V80ZM50.5 19H49.5V27H50.5V19Z" fill="#BCC1C5"/>
<path d="M18 16H82V80H18V16ZM18 80H82V16H18V80ZM50 33H53V32.238V29C53 27.896 52.104 27 51 27H50.5H49.5H49C47.896 27 47 27.896 47 29V32.238V33H50Z" fill="#BCC1C5"/>
</g>
</g>
<defs>
<filter id="filter0_d_45_4019" x="-4" y="0" width="108" height="108" filterUnits="userSpaceOnUse" color-interpolation-filters="sRGB">
<feFlood flood-opacity="0" result="BackgroundImageFix"/>
<feColorMatrix in="SourceAlpha" type="matrix" values="0 0 0 0 0 0 0 0 0 0 0 0 0 0 0 0 0 0 127 0" result="hardAlpha"/>
<feOffset dy="4"/>
<feGaussianBlur stdDeviation="2"/>
<feComposite in2="hardAlpha" operator="out"/>
<feColorMatrix type="matrix" values="0 0 0 0 0 0 0 0 0 0 0 0 0 0 0 0 0 0 0.25 0"/>
<feBlend mode="normal" in2="BackgroundImageFix" result="effect1_dropShadow_45_4019"/>
<feBlend mode="normal" in="SourceGraphic" in2="effect1_dropShadow_45_4019" result="shape"/>
</filter>
<filter id="filter1_d_45_4019" x="0" y="0" width="100" height="100" filterUnits="userSpaceOnUse" color-interpolation-filters="sRGB">
<feFlood flood-opacity="0" result="BackgroundImageFix"/>
<feColorMatrix in="SourceAlpha" type="matrix" values="0 0 0 0 0 0 0 0 0 0 0 0 0 0 0 0 0 0 127 0" result="hardAlpha"/>
<feOffset dy="2"/>
<feGaussianBlur stdDeviation="5"/>
<feColorMatrix type="matrix" values="0 0 0 0 0 0 0 0 0 0 0 0 0 0 0 0 0 0 0.5 0"/>
<feBlend mode="normal" in2="BackgroundImageFix" result="effect1_dropShadow_45_4019"/>
<feBlend mode="normal" in="SourceGraphic" in2="effect1_dropShadow_45_4019" result="shape"/>
</filter>
<clipPath id="clip0_45_4019">
<rect width="100" height="100" fill="white"/>
</clipPath>
</defs>
</svg>
