<svg width="100" height="100" viewBox="0 0 100 100" fill="none" xmlns="http://www.w3.org/2000/svg">
<g clip-path="url(#clip0_45_3998)" filter="url(#filter0_d_45_3998)">
<g filter="url(#filter1_d_45_3998)">
<path d="M80 8H20C14.4772 8 10 12.4772 10 18V78C10 83.5229 14.4772 88 20 88H80C85.5229 88 90 83.5229 90 78V18C90 12.4772 85.5229 8 80 8Z" fill="#4F4F4F"/>
<path d="M38.0001 45.409V60.589" stroke="#4285F4" stroke-width="4" stroke-linecap="round"/>
<path d="M46.0001 51.107V54.902" stroke="#FFC7C7" stroke-width="4" stroke-linecap="round"/>
<path d="M54.0001 47.308V58.693" stroke="#FFF9B8" stroke-width="4" stroke-linecap="round"/>
<path d="M62.0001 49.208V56.798" stroke="#34A853" stroke-width="4" stroke-linecap="round"/>
<path d="M53 32.2385V32.9999H50C61.0281 32.9999 70 41.9719 70 52.9999C70 64.0281 61.0281 72.9999 50 72.9999C38.9719 72.9999 30 64.0281 30 52.9999C30 41.9719 38.9719 32.9999 50 32.9999H47V32.2385C36.8271 33.6977 29 42.4233 29 52.9999C29 64.5979 38.4021 73.9999 50 73.9999C61.5979 73.9999 71 64.5979 71 52.9999C71 42.4233 63.1729 33.6977 53 32.2385Z" fill="#BCC1C5"/>
<path d="M50.5 19H49.5V27H50.5V19Z" fill="#BCC1C5"/>
<path d="M50 33H53V32.2386V29C53 27.8955 52.1045 27 51 27H50.5H49.5H49C47.8955 27 47 27.8955 47 29V32.2386V33H50Z" fill="#BCC1C5"/>
</g>
</g>
<defs>
<filter id="filter0_d_45_3998" x="-4" y="0" width="108" height="108" filterUnits="userSpaceOnUse" color-interpolation-filters="sRGB">
<feFlood flood-opacity="0" result="BackgroundImageFix"/>
<feColorMatrix in="SourceAlpha" type="matrix" values="0 0 0 0 0 0 0 0 0 0 0 0 0 0 0 0 0 0 127 0" result="hardAlpha"/>
<feOffset dy="4"/>
<feGaussianBlur stdDeviation="2"/>
<feComposite in2="hardAlpha" operator="out"/>
<feColorMatrix type="matrix" values="0 0 0 0 0 0 0 0 0 0 0 0 0 0 0 0 0 0 0.25 0"/>
<feBlend mode="normal" in2="BackgroundImageFix" result="effect1_dropShadow_45_3998"/>
<feBlend mode="normal" in="SourceGraphic" in2="effect1_dropShadow_45_3998" result="shape"/>
</filter>
<filter id="filter1_d_45_3998" x="0" y="0" width="100" height="100" filterUnits="userSpaceOnUse" color-interpolation-filters="sRGB">
<feFlood flood-opacity="0" result="BackgroundImageFix"/>
<feColorMatrix in="SourceAlpha" type="matrix" values="0 0 0 0 0 0 0 0 0 0 0 0 0 0 0 0 0 0 127 0" result="hardAlpha"/>
<feOffset dy="2"/>
<feGaussianBlur stdDeviation="5"/>
<feColorMatrix type="matrix" values="0 0 0 0 0 0 0 0 0 0 0 0 0 0 0 0 0 0 0.5 0"/>
<feBlend mode="normal" in2="BackgroundImageFix" result="effect1_dropShadow_45_3998"/>
<feBlend mode="normal" in="SourceGraphic" in2="effect1_dropShadow_45_3998" result="shape"/>
</filter>
<clipPath id="clip0_45_3998">
<rect width="100" height="100" fill="white"/>
</clipPath>
</defs>
</svg>
