<svg width="100" height="100" viewBox="0 0 100 100" fill="none" xmlns="http://www.w3.org/2000/svg">
<g clip-path="url(#clip0_45_3560)">
<g filter="url(#filter0_d_45_3560)">
<path d="M80 8H20C14.4772 8 10 12.4772 10 18V78C10 83.5229 14.4772 88 20 88H80C85.5229 88 90 83.5229 90 78V18C90 12.4772 85.5229 8 80 8Z" fill="#4F4F4F"/>
<path d="M38.217 77.45H62.217V76.45H38.217V77.45Z" fill="#BCC1C5"/>
<path d="M68.6113 60.4499L68.1621 54.4499L65.2168 28.4499C65.2168 23.403 58.6279 19.4499 50.2168 19.4499C41.8056 19.4499 35.2168 23.403 35.2168 28.4499L32.27 54.4499L31.8208 60.4499C31.7663 61.4426 31.7348 62.5314 31.7348 63.7548C31.7348 67.9152 34.0078 71.0516 36.5366 73.4501H63.8955C66.4243 71.0516 68.6972 67.9152 68.6972 63.7548C68.6972 62.5314 68.6657 61.4426 68.6113 60.4499ZM50.2168 20.4499C57.9487 20.4499 64.2168 24.0317 64.2168 28.4499C64.2168 32.8681 57.9487 36.4499 50.2168 36.4499C42.4848 36.4499 36.2168 32.8681 36.2168 28.4499C36.2168 24.0317 42.4848 20.4499 50.2168 20.4499ZM35.9108 31.2055C37.8087 34.8637 43.415 37.4499 50.2168 37.4499C57.0185 37.4499 62.6247 34.8637 64.5226 31.2055L67.0424 53.4499H33.3896L35.9108 31.2055Z" fill="#BCC1C5"/>
<path d="M59.2125 27.412V29.3087" stroke="#34A853" stroke-width="3" stroke-linecap="round"/>
<path d="M53.2125 26.935V29.785" stroke="#FFF9B8" stroke-width="3" stroke-linecap="round"/>
<path d="M47.2125 27.6483V29.0733" stroke="#EA4335" stroke-width="3" stroke-linecap="round"/>
<path d="M41.2125 26.6987V30.0205" stroke="#4285F4" stroke-width="3" stroke-linecap="round"/>
</g>
</g>
<defs>
<filter id="filter0_d_45_3560" x="0" y="0" width="100" height="100" filterUnits="userSpaceOnUse" color-interpolation-filters="sRGB">
<feFlood flood-opacity="0" result="BackgroundImageFix"/>
<feColorMatrix in="SourceAlpha" type="matrix" values="0 0 0 0 0 0 0 0 0 0 0 0 0 0 0 0 0 0 127 0" result="hardAlpha"/>
<feOffset dy="2"/>
<feGaussianBlur stdDeviation="5"/>
<feColorMatrix type="matrix" values="0 0 0 0 0 0 0 0 0 0 0 0 0 0 0 0 0 0 0.5 0"/>
<feBlend mode="normal" in2="BackgroundImageFix" result="effect1_dropShadow_45_3560"/>
<feBlend mode="normal" in="SourceGraphic" in2="effect1_dropShadow_45_3560" result="shape"/>
</filter>
<clipPath id="clip0_45_3560">
<rect width="100" height="100" fill="white"/>
</clipPath>
</defs>
</svg>
