<svg width="100" height="100" viewBox="0 0 100 100" fill="none" xmlns="http://www.w3.org/2000/svg">
<path d="M80 8H20C14.4772 8 10 12.4772 10 18V78C10 83.5229 14.4772 88 20 88H80C85.5229 88 90 83.5229 90 78V18C90 12.4772 85.5229 8 80 8Z" fill="#4F4F4F"/>
<path d="M73 27H27C23.6863 27 21 29.6863 21 33V63C21 66.3137 23.6863 69 27 69H49.4941V74H35V75H49.4941H50.4941H65V74H50.4941V69H73C76.3137 69 79 66.3137 79 63V33C79 29.6863 76.3137 27 73 27ZM50.5 63H49.5H41.5H40.5H32.5H31.5H22V53.5V52.5V44.5V43.5V35.5V34.5V33C22 30.2429 24.2431 28 27 28H73C75.7569 28 78 30.2429 78 33V63H50.5Z" fill="#BCC1C5"/>
<path d="M21 62.95C21 66.3189 23.6863 69.05 27 69.05H73C76.3137 69.05 79 66.3189 79 62.95H21ZM50.5 62.95H49.5H41.5H40.5H32.5H31.5H22H78H50.5Z" fill="#DBA13A"/>
<path fill-rule="evenodd" clip-rule="evenodd" d="M43 33L48.5152 46L43 59H51.4848L57 46L51.4848 33H43Z" fill="#DBA13A"/>
</svg>
