<svg width="100" height="100" viewBox="0 0 100 100" fill="none" xmlns="http://www.w3.org/2000/svg">
<g clip-path="url(#clip0_45_4591)" filter="url(#filter0_d_45_4591)">
<g filter="url(#filter1_d_45_4591)">
<path d="M80 8H20C14.4772 8 10 12.4772 10 18V78C10 83.5229 14.4772 88 20 88H80C85.5229 88 90 83.5229 90 78V18C90 12.4772 85.5229 8 80 8Z" fill="#4F4F4F"/>
<path d="M65 23H35C31.687 23 29 25.687 29 29V32.002V36.025V68C29 71.314 31.687 74 35 74H65C68.314 74 71 71.314 71 68V36.025V32.002V29C71 25.687 68.314 23 65 23ZM30 29C30 26.243 32.243 24 35 24H43V32.002H30V29ZM68 53C68 62.941 59.941 71 50 71C40.059 71 32 62.941 32 53C32 43.059 40.059 35 50 35C59.941 35 68 43.059 68 53ZM44 32.002V24H65C67.757 24 70 26.243 70 29V32.002H44Z" fill="#BCC1C5"/>
<path d="M47 29H58V28H47V29Z" fill="#BCC1C5"/>
<path d="M63 26C61.896 26 61 26.896 61 28C61 29.104 61.896 30 63 30C64.104 30 65 29.104 65 28C65 26.896 64.104 26 63 26Z" fill="#4285F4"/>
<path d="M50.06 34.8C60.0343 34.8 68.12 42.8857 68.12 52.86C68.12 62.8343 60.0343 70.92 50.06 70.92C40.0857 70.92 32 62.8343 32 52.86C32 42.8857 40.0857 34.8 50.06 34.8Z" fill="#CED1D4"/>
<path d="M50.06 45.98C53.8595 45.98 56.94 49.0605 56.94 52.86C56.94 56.6595 53.8595 59.74 50.06 59.74C46.2605 59.74 43.18 56.6595 43.18 52.86C43.18 49.0605 46.2605 45.98 50.06 45.98Z" fill="#E8EAEC"/>
<path d="M50.06 39.96C42.9358 39.96 37.16 45.7358 37.16 52.86C37.16 59.9842 42.9358 65.76 50.06 65.76V39.96Z" fill="#F8F8F9"/>
<path d="M50.06 39.96C57.1842 39.96 62.96 45.7358 62.96 52.86C62.96 59.9842 57.1842 65.76 50.06 65.76V39.96Z" fill="#E8EAEC"/>
<path d="M50.06 45.98C53.8595 45.98 56.94 49.0605 56.94 52.86C56.94 56.6595 53.8595 59.74 50.06 59.74C46.2605 59.74 43.18 56.6595 43.18 52.86C43.18 49.0605 46.2605 45.98 50.06 45.98Z" fill="#4F4F4F"/>
<path d="M67.0777 58.9213C64.5871 65.9148 57.9084 70.92 50.06 70.92C42.2116 70.92 35.5329 65.9148 33.0423 58.9213C34.0115 59.4433 35.1209 59.74 36.3 59.74C40.0995 59.74 43.18 56.6595 43.18 52.86C43.18 56.6595 46.2597 59.74 50.06 59.74C53.8595 59.74 56.94 56.6595 56.94 52.86C56.94 56.6595 60.0205 59.74 63.82 59.74C64.9982 59.74 66.1076 59.4433 67.0777 58.9213Z" fill="#4285F4"/>
</g>
</g>
<defs>
<filter id="filter0_d_45_4591" x="-4" y="0" width="108" height="108" filterUnits="userSpaceOnUse" color-interpolation-filters="sRGB">
<feFlood flood-opacity="0" result="BackgroundImageFix"/>
<feColorMatrix in="SourceAlpha" type="matrix" values="0 0 0 0 0 0 0 0 0 0 0 0 0 0 0 0 0 0 127 0" result="hardAlpha"/>
<feOffset dy="4"/>
<feGaussianBlur stdDeviation="2"/>
<feComposite in2="hardAlpha" operator="out"/>
<feColorMatrix type="matrix" values="0 0 0 0 0 0 0 0 0 0 0 0 0 0 0 0 0 0 0.25 0"/>
<feBlend mode="normal" in2="BackgroundImageFix" result="effect1_dropShadow_45_4591"/>
<feBlend mode="normal" in="SourceGraphic" in2="effect1_dropShadow_45_4591" result="shape"/>
</filter>
<filter id="filter1_d_45_4591" x="0" y="0" width="100" height="100" filterUnits="userSpaceOnUse" color-interpolation-filters="sRGB">
<feFlood flood-opacity="0" result="BackgroundImageFix"/>
<feColorMatrix in="SourceAlpha" type="matrix" values="0 0 0 0 0 0 0 0 0 0 0 0 0 0 0 0 0 0 127 0" result="hardAlpha"/>
<feOffset dy="2"/>
<feGaussianBlur stdDeviation="5"/>
<feColorMatrix type="matrix" values="0 0 0 0 0 0 0 0 0 0 0 0 0 0 0 0 0 0 0.5 0"/>
<feBlend mode="normal" in2="BackgroundImageFix" result="effect1_dropShadow_45_4591"/>
<feBlend mode="normal" in="SourceGraphic" in2="effect1_dropShadow_45_4591" result="shape"/>
</filter>
<clipPath id="clip0_45_4591">
<rect width="100" height="100" fill="white"/>
</clipPath>
</defs>
</svg>
