<svg width="100" height="100" viewBox="0 0 100 100" fill="none" xmlns="http://www.w3.org/2000/svg">
<g clip-path="url(#clip0_45_3288)">
<g filter="url(#filter0_d_45_3288)">
<path d="M80 8H20C14.4772 8 10 12.4772 10 18V78C10 83.5229 14.4772 88 20 88H80C85.5229 88 90 83.5229 90 78V18C90 12.4772 85.5229 8 80 8Z" fill="#4F4F4F"/>
<path d="M76 49C76 34.641 64.359 23 50 23C35.641 23 24 34.641 24 49C24 57.856 28.432 65.674 35.195 70.369L32.571 74.742L33.429 75.258L36.029 70.923C40.065 73.5 44.856 75 50 75C55.144 75 59.935 73.5 63.971 70.923L66.571 75.258L67.429 74.742L64.805 70.369C71.568 65.675 76 57.856 76 49ZM50 74C36.215 74 25 62.785 25 49C25 35.215 36.215 24 50 24C63.785 24 75 35.215 75 49C75 62.785 63.785 74 50 74Z" fill="#BCC1C5"/>
<path d="M50 27C37.85 27 28 36.85 28 49C28 61.15 37.85 71 50 71C62.15 71 72 61.15 72 49C72 36.85 62.15 27 50 27ZM50 65C41.164 65 34 57.836 34 49C34 40.164 41.164 33 50 33C58.836 33 66 40.164 66 49C66 57.836 58.836 65 50 65Z" fill="#EA4335"/>
<path d="M59 19H41V20H59V19Z" fill="#BCC1C5"/>
<path d="M50 40C51.104 40 52 39.104 52 38C52 36.896 51.104 36 50 36C48.896 36 48 36.896 48 38C48 39.104 48.896 40 50 40Z" fill="#BCC1C5"/>
<path d="M50 58C48.896 58 48 58.896 48 60C48 61.104 48.896 62 50 62C51.104 62 52 61.104 52 60C52 58.896 51.104 58 50 58Z" fill="#BCC1C5"/>
<path d="M39 47C37.896 47 37 47.896 37 49C37 50.104 37.896 51 39 51C40.104 51 41 50.104 41 49C41 47.896 40.104 47 39 47Z" fill="#BCC1C5"/>
<path d="M61 47C59.896 47 59 47.896 59 49C59 50.104 59.896 51 61 51C62.104 51 63 50.104 63 49C63 47.896 62.104 47 61 47Z" fill="#BCC1C5"/>
<path d="M58.107 40.186L49.294 49L56.646 56.354L57.353 55.647L50.708 49L58.814 40.893L58.107 40.186Z" fill="#EA4335"/>
</g>
</g>
<defs>
<filter id="filter0_d_45_3288" x="0" y="0" width="100" height="100" filterUnits="userSpaceOnUse" color-interpolation-filters="sRGB">
<feFlood flood-opacity="0" result="BackgroundImageFix"/>
<feColorMatrix in="SourceAlpha" type="matrix" values="0 0 0 0 0 0 0 0 0 0 0 0 0 0 0 0 0 0 127 0" result="hardAlpha"/>
<feOffset dy="2"/>
<feGaussianBlur stdDeviation="5"/>
<feColorMatrix type="matrix" values="0 0 0 0 0 0 0 0 0 0 0 0 0 0 0 0 0 0 0.5 0"/>
<feBlend mode="normal" in2="BackgroundImageFix" result="effect1_dropShadow_45_3288"/>
<feBlend mode="normal" in="SourceGraphic" in2="effect1_dropShadow_45_3288" result="shape"/>
</filter>
<clipPath id="clip0_45_3288">
<rect width="100" height="100" fill="white"/>
</clipPath>
</defs>
</svg>
