<svg width="100" height="100" viewBox="0 0 100 100" fill="none" xmlns="http://www.w3.org/2000/svg">
<g clip-path="url(#clip0_45_3526)">
<g filter="url(#filter0_d_45_3526)">
<path d="M80 8H20C14.4772 8 10 12.4772 10 18V78C10 83.5229 14.4772 88 20 88H80C85.5229 88 90 83.5229 90 78V18C90 12.4772 85.5229 8 80 8Z" fill="#4F4F4F"/>
<path d="M73 28C75.757 28 78 30.243 78 33V63C78 65.757 75.757 68 73 68H27C24.243 68 22 65.757 22 63V33C22 30.243 24.243 28 27 28H73ZM73 27H27C23.686 27 21 29.687 21 33V63C21 66.314 23.686 69 27 69H73C76.313 69 79 66.314 79 63V33C79 29.687 76.313 27 73 27Z" fill="#BCC1C5"/>
<path d="M50.494 75H49.494V68H50.494V75Z" fill="#BCC1C5"/>
<path d="M65 74H35V75H65V74Z" fill="#BCC1C5"/>
<path d="M21 63C21 66.314 23.686 69 27 69H73C76.313 69 79 66.314 79 63H21Z" fill="#BCC1C5"/>
<path d="M44.625 54.523V36.523L58.625 45.523L44.625 54.523Z" fill="#EA4335"/>
</g>
</g>
<defs>
<filter id="filter0_d_45_3526" x="0" y="0" width="100" height="100" filterUnits="userSpaceOnUse" color-interpolation-filters="sRGB">
<feFlood flood-opacity="0" result="BackgroundImageFix"/>
<feColorMatrix in="SourceAlpha" type="matrix" values="0 0 0 0 0 0 0 0 0 0 0 0 0 0 0 0 0 0 127 0" result="hardAlpha"/>
<feOffset dy="2"/>
<feGaussianBlur stdDeviation="5"/>
<feColorMatrix type="matrix" values="0 0 0 0 0 0 0 0 0 0 0 0 0 0 0 0 0 0 0.5 0"/>
<feBlend mode="normal" in2="BackgroundImageFix" result="effect1_dropShadow_45_3526"/>
<feBlend mode="normal" in="SourceGraphic" in2="effect1_dropShadow_45_3526" result="shape"/>
</filter>
<clipPath id="clip0_45_3526">
<rect width="100" height="100" fill="white"/>
</clipPath>
</defs>
</svg>
