<svg width="100" height="100" viewBox="0 0 100 100" fill="none" xmlns="http://www.w3.org/2000/svg">
<g clip-path="url(#clip0_45_3085)">
<g filter="url(#filter0_d_45_3085)">
<path d="M80 8H20C14.4772 8 10 12.4772 10 18V78C10 83.5229 14.4772 88 20 88H80C85.5229 88 90 83.5229 90 78V18C90 12.4772 85.5229 8 80 8Z" fill="#4F4F4F"/>
<path d="M18 16H82V80H18V16ZM18 80H82V16H18V80ZM50 26C51.104 26 52 25.104 52 24C52 22.896 51.104 22 50 22C48.896 22 48 22.896 48 24C48 25.104 48.896 26 50 26Z" fill="#BCC1C5"/>
<path d="M18 16H82V80H18V16ZM18 80H82V16H18V80ZM54 40C54 37.794 52.206 36 50 36C47.794 36 46 37.794 46 40C46 42.206 47.794 44 50 44C52.206 44 54 42.206 54 40Z" fill="#4285F4"/>
<path d="M18 16H82V80H18V16ZM18 80H82V16H18V80ZM61 40C61 33.925 56.075 29 50 29C43.925 29 39 33.925 39 40C39 46.075 43.925 51 50 51C56.075 51 61 46.075 61 40ZM45 40C45 37.239 47.238 35 50 35C52.761 35 55 37.239 55 40C55 42.761 52.761 45 50 45C47.238 45 45 42.761 45 40Z" fill="#4285F4"/>
<path d="M18 16H82V80H18V16ZM18 80H82V16H18V80ZM53 60.762C63.173 59.303 71 50.577 71 40C71 28.402 61.598 19 50 19C38.402 19 29 28.402 29 40C29 50.577 36.827 59.303 47 60.762V69.984H33V71C33 74.314 35.686 77 39 77H61C64.314 77 67 74.314 67 71V69.984H53V60.762ZM49.5 60.975C49.668 60.979 49.831 61 50 61C50.169 61 50.332 60.979 50.5 60.975V67H49.5V60.975ZM51 60.972H50.556C50.722 60.968 50.886 60.955 51.051 60.947L51 60.972ZM30 40C30 28.972 38.972 20 50 20C61.028 20 70 28.972 70 40C70 51.028 61.028 60 50 60C38.972 60 30 51.028 30 40ZM49.444 60.972H49L48.948 60.947C49.114 60.955 49.278 60.968 49.444 60.972Z" fill="#BCC1C5"/>
</g>
</g>
<defs>
<filter id="filter0_d_45_3085" x="0" y="0" width="100" height="100" filterUnits="userSpaceOnUse" color-interpolation-filters="sRGB">
<feFlood flood-opacity="0" result="BackgroundImageFix"/>
<feColorMatrix in="SourceAlpha" type="matrix" values="0 0 0 0 0 0 0 0 0 0 0 0 0 0 0 0 0 0 127 0" result="hardAlpha"/>
<feOffset dy="2"/>
<feGaussianBlur stdDeviation="5"/>
<feColorMatrix type="matrix" values="0 0 0 0 0 0 0 0 0 0 0 0 0 0 0 0 0 0 0.5 0"/>
<feBlend mode="normal" in2="BackgroundImageFix" result="effect1_dropShadow_45_3085"/>
<feBlend mode="normal" in="SourceGraphic" in2="effect1_dropShadow_45_3085" result="shape"/>
</filter>
<clipPath id="clip0_45_3085">
<rect width="100" height="100" fill="white"/>
</clipPath>
</defs>
</svg>
