<svg width="100" height="100" viewBox="0 0 100 100" fill="none" xmlns="http://www.w3.org/2000/svg">
<g clip-path="url(#clip0_45_4758)" filter="url(#filter0_d_45_4758)">
<g filter="url(#filter1_d_45_4758)">
<path d="M80 8H20C14.4772 8 10 12.4772 10 18V78C10 83.5229 14.4772 88 20 88H80C85.5229 88 90 83.5229 90 78V18C90 12.4772 85.5229 8 80 8Z" fill="#4F4F4F"/>
</g>
<path d="M24.5192 33.2887L50 18.5774L75.4808 33.2887V62.7113L50 77.4226L24.5192 62.7113V33.2887Z" stroke="#BCC1C5"/>
<path d="M54.25 25.0311L67.7667 32.8349C70.3966 34.3533 72.0167 37.1594 72.0167 40.1962V55.8038C72.0167 58.8406 70.3966 61.6467 67.7667 63.1651L54.25 70.9689C51.6201 72.4873 48.3799 72.4873 45.75 70.9689L32.2333 63.1651C29.6034 61.6467 27.9833 58.8406 27.9833 55.8038V40.1962C27.9833 37.1594 29.6034 34.3533 32.2333 32.8349L45.75 25.0311C48.3799 23.5127 51.6201 23.5127 54.25 25.0311Z" fill="#4F4F4F" stroke="#BCC1C5"/>
<path d="M50.5 31C43.5964 31 38 36.5964 38 43.5L45.7381 60.7619C45.7381 63.3917 47.8702 65.5238 50.5 65.5238C53.1298 65.5238 55.2619 63.3917 55.2619 60.7619L63 43.5C63 36.5964 57.4036 31 50.5 31ZM51.3619 60.1667L58.8333 43.5H62.3476L54.8762 60.1667H51.3619ZM58.2381 43.5L50.7667 60.1667H50.2333L42.7619 43.5H58.2381ZM50.5 31.5952C56.8631 31.5952 62.0625 36.6179 62.3756 42.9048H58.803C58.497 38.5815 54.9018 35.1667 50.5 35.1667C46.0982 35.1667 42.503 38.5815 42.1964 42.9048H38.6244C38.9375 36.6179 44.1369 31.5952 50.5 31.5952ZM38.6524 43.5H42.1667L49.6381 60.1667H46.1232L38.6524 43.5ZM50.5 64.9286C48.2024 64.9286 46.3333 63.0595 46.3333 60.7619H49.9048H50.5H51.0952H54.6667C54.6667 63.0595 52.7976 64.9286 50.5 64.9286Z" fill="#BCC1C5"/>
</g>
<defs>
<filter id="filter0_d_45_4758" x="-4" y="0" width="108" height="108" filterUnits="userSpaceOnUse" color-interpolation-filters="sRGB">
<feFlood flood-opacity="0" result="BackgroundImageFix"/>
<feColorMatrix in="SourceAlpha" type="matrix" values="0 0 0 0 0 0 0 0 0 0 0 0 0 0 0 0 0 0 127 0" result="hardAlpha"/>
<feOffset dy="4"/>
<feGaussianBlur stdDeviation="2"/>
<feComposite in2="hardAlpha" operator="out"/>
<feColorMatrix type="matrix" values="0 0 0 0 0 0 0 0 0 0 0 0 0 0 0 0 0 0 0.25 0"/>
<feBlend mode="normal" in2="BackgroundImageFix" result="effect1_dropShadow_45_4758"/>
<feBlend mode="normal" in="SourceGraphic" in2="effect1_dropShadow_45_4758" result="shape"/>
</filter>
<filter id="filter1_d_45_4758" x="0" y="-2" width="100" height="100" filterUnits="userSpaceOnUse" color-interpolation-filters="sRGB">
<feFlood flood-opacity="0" result="BackgroundImageFix"/>
<feColorMatrix in="SourceAlpha" type="matrix" values="0 0 0 0 0 0 0 0 0 0 0 0 0 0 0 0 0 0 127 0" result="hardAlpha"/>
<feOffset/>
<feGaussianBlur stdDeviation="5"/>
<feComposite in2="hardAlpha" operator="out"/>
<feColorMatrix type="matrix" values="0 0 0 0 0 0 0 0 0 0 0 0 0 0 0 0 0 0 0.4 0"/>
<feBlend mode="normal" in2="BackgroundImageFix" result="effect1_dropShadow_45_4758"/>
<feBlend mode="normal" in="SourceGraphic" in2="effect1_dropShadow_45_4758" result="shape"/>
</filter>
<clipPath id="clip0_45_4758">
<rect width="100" height="100" fill="white"/>
</clipPath>
</defs>
</svg>
