<svg width="100" height="100" viewBox="0 0 100 100" fill="none" xmlns="http://www.w3.org/2000/svg">
<g clip-path="url(#clip0_45_3960)" filter="url(#filter0_d_45_3960)">
<g filter="url(#filter1_d_45_3960)">
<path d="M80 8H20C14.4772 8 10 12.4772 10 18V78C10 83.5229 14.4772 88 20 88H80C85.5229 88 90 83.5229 90 78V18C90 12.4772 85.5229 8 80 8Z" fill="#4F4F4F"/>
<path d="M18 16H82V80H18V16ZM18 80H82V16H18V80ZM59 19H41C35.477 19 31 23.477 31 29V63C31 68.523 35.477 73 41 73H59C64.523 73 69 68.523 69 63V29C69 23.477 64.523 19 59 19ZM68 63C68 67.963 63.962 72 59 72H41C36.037 72 32 67.963 32 63V29C32 24.037 36.037 20 41 20H59C63.962 20 68 24.037 68 29V63Z" fill="#BCC1C5"/>
<path d="M18 16H82V80H18V16ZM18 80H82V16H18V80ZM39 77H61V76H39V77Z" fill="#BCC1C5"/>
<path d="M18 16H82V80H18V16ZM18 80H82V16H18V80ZM38 44C36.896 44 36 44.896 36 46C36 47.104 36.896 48 38 48C39.104 48 40 47.104 40 46C40 44.896 39.104 44 38 44Z" fill="#BCC1C5"/>
<path d="M18 16H82V80H18V16ZM18 80H82V16H18V80ZM46 44C44.896 44 44 44.896 44 46C44 47.104 44.896 48 46 48C47.104 48 48 47.104 48 46C48 44.896 47.104 44 46 44Z" fill="#BCC1C5"/>
<path d="M18 16H82V80H18V16ZM18 80H82V16H18V80ZM54 44C52.896 44 52 44.896 52 46C52 47.104 52.896 48 54 48C55.104 48 56 47.104 56 46C56 44.896 55.104 44 54 44Z" fill="#BCC1C5"/>
<path d="M18 16H82V80H18V16ZM18 80H82V16H18V80ZM62 44C60.896 44 60 44.896 60 46C60 47.104 60.896 48 62 48C63.104 48 64 47.104 64 46C64 44.896 63.104 44 62 44Z" fill="#BCC1C5"/>
</g>
</g>
<defs>
<filter id="filter0_d_45_3960" x="-4" y="0" width="108" height="108" filterUnits="userSpaceOnUse" color-interpolation-filters="sRGB">
<feFlood flood-opacity="0" result="BackgroundImageFix"/>
<feColorMatrix in="SourceAlpha" type="matrix" values="0 0 0 0 0 0 0 0 0 0 0 0 0 0 0 0 0 0 127 0" result="hardAlpha"/>
<feOffset dy="4"/>
<feGaussianBlur stdDeviation="2"/>
<feComposite in2="hardAlpha" operator="out"/>
<feColorMatrix type="matrix" values="0 0 0 0 0 0 0 0 0 0 0 0 0 0 0 0 0 0 0.25 0"/>
<feBlend mode="normal" in2="BackgroundImageFix" result="effect1_dropShadow_45_3960"/>
<feBlend mode="normal" in="SourceGraphic" in2="effect1_dropShadow_45_3960" result="shape"/>
</filter>
<filter id="filter1_d_45_3960" x="0" y="0" width="100" height="100" filterUnits="userSpaceOnUse" color-interpolation-filters="sRGB">
<feFlood flood-opacity="0" result="BackgroundImageFix"/>
<feColorMatrix in="SourceAlpha" type="matrix" values="0 0 0 0 0 0 0 0 0 0 0 0 0 0 0 0 0 0 127 0" result="hardAlpha"/>
<feOffset dy="2"/>
<feGaussianBlur stdDeviation="5"/>
<feColorMatrix type="matrix" values="0 0 0 0 0 0 0 0 0 0 0 0 0 0 0 0 0 0 0.5 0"/>
<feBlend mode="normal" in2="BackgroundImageFix" result="effect1_dropShadow_45_3960"/>
<feBlend mode="normal" in="SourceGraphic" in2="effect1_dropShadow_45_3960" result="shape"/>
</filter>
<clipPath id="clip0_45_3960">
<rect width="100" height="100" fill="white"/>
</clipPath>
</defs>
</svg>
