<svg width="100" height="100" viewBox="0 0 100 100" fill="none" xmlns="http://www.w3.org/2000/svg">
<g clip-path="url(#clip0_45_3385)">
<g filter="url(#filter0_d_45_3385)">
<path d="M80 8H20C14.4772 8 10 12.4772 10 18V78C10 83.5229 14.4772 88 20 88H80C85.5229 88 90 83.5229 90 78V18C90 12.4772 85.5229 8 80 8Z" fill="#4F4F4F"/>
<path d="M65 26H35C31.687 26 29 28.686 29 32V34.977V39.026V71C29 74.314 31.687 77 35 77H65C68.314 77 71 74.314 71 71V39.026V34.977V32C71 28.686 68.314 26 65 26ZM68 52H32V48C32 46.344 33.343 45 35 45H65C66.657 45 68 46.344 68 48V52ZM65 74H35C33.343 74 32 72.657 32 71V53H68V71C68 72.657 66.657 74 65 74ZM42 35H58C58 37.209 56.209 39 54 39H46C43.791 39 42 37.209 42 35ZM30 34.977V32C30 29.244 32.243 27 35 27H65C67.757 27 70 29.244 70 32V34.977H30Z" fill="#BCC1C5"/>
<path d="M34 32H49V31H34V32Z" fill="#BCC1C5"/>
<path d="M63 29C61.896 29 61 29.896 61 31C61 32.104 61.896 33 63 33C64.104 33 65 32.104 65 31C65 29.896 64.104 29 63 29Z" fill="#BCC1C5"/>
<path d="M56 29C54.896 29 54 29.896 54 31C54 32.104 54.896 33 56 33C57.104 33 58 32.104 58 31C58 29.896 57.104 29 56 29Z" fill="#BCC1C5"/>
<path d="M57.5 56C53.358 56 50 59.357 50 63.5C50 67.643 53.358 71 57.5 71C61.642 71 65 67.643 65 63.5C65 59.357 61.642 56 57.5 56ZM57.5 70C53.916 70 51 67.084 51 63.5C51 59.916 53.916 57 57.5 57C61.084 57 64 59.916 64 63.5C64 67.084 61.084 70 57.5 70Z" fill="#BCC1C5"/>
<path d="M46 63.5C46 60.802 47.654 58.483 50 57.502V56.436C47.089 57.467 45 60.236 45 63.5C45 66.764 47.089 69.533 50 70.564V69.498C47.654 68.517 46 66.198 46 63.5Z" fill="#BCC1C5"/>
<path d="M41 63.5C41 60.802 42.654 58.483 45 57.502V56.436C42.089 57.467 40 60.236 40 63.5C40 66.764 42.089 69.533 45 70.564V69.498C42.654 68.517 41 66.198 41 63.5Z" fill="#BCC1C5"/>
<path d="M36 63.5C36 60.802 37.654 58.483 40 57.502V56.436C37.089 57.467 35 60.236 35 63.5C35 66.764 37.089 69.533 40 70.564V69.498C37.654 68.517 36 66.198 36 63.5Z" fill="#BCC1C5"/>
<path d="M54 39C56.209 39 58 37.209 58 35H42C42 37.209 43.791 39 46 39H54Z" fill="#4285F4"/>
</g>
</g>
<defs>
<filter id="filter0_d_45_3385" x="0" y="0" width="100" height="100" filterUnits="userSpaceOnUse" color-interpolation-filters="sRGB">
<feFlood flood-opacity="0" result="BackgroundImageFix"/>
<feColorMatrix in="SourceAlpha" type="matrix" values="0 0 0 0 0 0 0 0 0 0 0 0 0 0 0 0 0 0 127 0" result="hardAlpha"/>
<feOffset dy="2"/>
<feGaussianBlur stdDeviation="5"/>
<feColorMatrix type="matrix" values="0 0 0 0 0 0 0 0 0 0 0 0 0 0 0 0 0 0 0.5 0"/>
<feBlend mode="normal" in2="BackgroundImageFix" result="effect1_dropShadow_45_3385"/>
<feBlend mode="normal" in="SourceGraphic" in2="effect1_dropShadow_45_3385" result="shape"/>
</filter>
<clipPath id="clip0_45_3385">
<rect width="100" height="100" fill="white"/>
</clipPath>
</defs>
</svg>
