<svg width="100" height="100" viewBox="0 0 100 100" fill="none" xmlns="http://www.w3.org/2000/svg">
<g clip-path="url(#clip0_45_2942)">
<g filter="url(#filter0_d_45_2942)">
<path d="M80 8H20C14.4772 8 10 12.4772 10 18V78C10 83.5229 14.4772 88 20 88H80C85.5229 88 90 83.5229 90 78V18C90 12.4772 85.5229 8 80 8Z" fill="#4F4F4F"/>
<path d="M73 27H27C23.687 27 21 29.687 21 33V63C21 66.313 23.687 69 27 69H49.494V74H35V75H49.494H50.494H65V74H50.494V69H73C76.314 69 79 66.313 79 63V33C79 29.687 76.314 27 73 27ZM22 63V33C22 30.243 24.243 28 27 28H73C75.757 28 78 30.243 78 33V63H22Z" fill="#BCC1C5"/>
<path d="M38 46C36.896 46 36 46.896 36 48C36 49.104 36.896 50 38 50C39.104 50 40 49.104 40 48C40 46.896 39.104 46 38 46Z" fill="#4285F4"/>
<path d="M46 46C44.896 46 44 46.896 44 48C44 49.104 44.896 50 46 50C47.104 50 48 49.104 48 48C48 46.896 47.104 46 46 46Z" fill="#EA4335"/>
<path d="M54 46C52.896 46 52 46.896 52 48C52 49.104 52.896 50 54 50C55.104 50 56 49.104 56 48C56 46.896 55.104 46 54 46Z" fill="#FABB04"/>
<path d="M62 46C60.896 46 60 46.896 60 48C60 49.104 60.896 50 62 50C63.104 50 64 49.104 64 48C64 46.896 63.104 46 62 46Z" fill="#34A853"/>
</g>
</g>
<defs>
<filter id="filter0_d_45_2942" x="0" y="0" width="100" height="100" filterUnits="userSpaceOnUse" color-interpolation-filters="sRGB">
<feFlood flood-opacity="0" result="BackgroundImageFix"/>
<feColorMatrix in="SourceAlpha" type="matrix" values="0 0 0 0 0 0 0 0 0 0 0 0 0 0 0 0 0 0 127 0" result="hardAlpha"/>
<feOffset dy="2"/>
<feGaussianBlur stdDeviation="5"/>
<feColorMatrix type="matrix" values="0 0 0 0 0 0 0 0 0 0 0 0 0 0 0 0 0 0 0.5 0"/>
<feBlend mode="normal" in2="BackgroundImageFix" result="effect1_dropShadow_45_2942"/>
<feBlend mode="normal" in="SourceGraphic" in2="effect1_dropShadow_45_2942" result="shape"/>
</filter>
<clipPath id="clip0_45_2942">
<rect width="100" height="100" fill="white"/>
</clipPath>
</defs>
</svg>
