<svg width="100" height="100" viewBox="0 0 100 100" fill="none" xmlns="http://www.w3.org/2000/svg">
<g clip-path="url(#clip0_45_4817)" filter="url(#filter0_d_45_4817)">
<g filter="url(#filter1_d_45_4817)">
<path d="M80 8H20C14.4772 8 10 12.4772 10 18V78C10 83.5229 14.4772 88 20 88H80C85.5229 88 90 83.5229 90 78V18C90 12.4772 85.5229 8 80 8Z" fill="#4F4F4F"/>
</g>
<rect x="18" y="64" width="64" height="6" rx="3" fill="#BCC1C5"/>
<circle cx="22.4" cy="67" r="1.9" stroke="#4F4F4F"/>
<circle cx="77.6" cy="67" r="1.9" stroke="#4F4F4F"/>
<line x1="47.5" y1="68.5" x2="52.5" y2="68.5" stroke="#D9D9D9" stroke-linecap="round"/>
<circle cx="50" cy="67" r="0.5" fill="#D9D9D9"/>
<circle cx="72.5" cy="67" r="1.125" stroke="#4F4F4F" stroke-width="0.75"/>
<circle cx="27.5" cy="67" r="1.125" stroke="#4F4F4F" stroke-width="0.75"/>
<path d="M33 27V48.505" stroke="#4285F4" stroke-width="4" stroke-linecap="round"/>
<path d="M44.3333 35.0721V40.4484" stroke="#FFC7C7" stroke-width="4" stroke-linecap="round"/>
<path d="M55.6666 29.6903V45.819" stroke="#FFF9B8" stroke-width="4" stroke-linecap="round"/>
<path d="M67 32.3819V43.1344" stroke="#34A853" stroke-width="4" stroke-linecap="round"/>
</g>
<defs>
<filter id="filter0_d_45_4817" x="-4" y="0" width="108" height="108" filterUnits="userSpaceOnUse" color-interpolation-filters="sRGB">
<feFlood flood-opacity="0" result="BackgroundImageFix"/>
<feColorMatrix in="SourceAlpha" type="matrix" values="0 0 0 0 0 0 0 0 0 0 0 0 0 0 0 0 0 0 127 0" result="hardAlpha"/>
<feOffset dy="4"/>
<feGaussianBlur stdDeviation="2"/>
<feComposite in2="hardAlpha" operator="out"/>
<feColorMatrix type="matrix" values="0 0 0 0 0 0 0 0 0 0 0 0 0 0 0 0 0 0 0.25 0"/>
<feBlend mode="normal" in2="BackgroundImageFix" result="effect1_dropShadow_45_4817"/>
<feBlend mode="normal" in="SourceGraphic" in2="effect1_dropShadow_45_4817" result="shape"/>
</filter>
<filter id="filter1_d_45_4817" x="0" y="-2" width="100" height="100" filterUnits="userSpaceOnUse" color-interpolation-filters="sRGB">
<feFlood flood-opacity="0" result="BackgroundImageFix"/>
<feColorMatrix in="SourceAlpha" type="matrix" values="0 0 0 0 0 0 0 0 0 0 0 0 0 0 0 0 0 0 127 0" result="hardAlpha"/>
<feOffset/>
<feGaussianBlur stdDeviation="5"/>
<feComposite in2="hardAlpha" operator="out"/>
<feColorMatrix type="matrix" values="0 0 0 0 0 0 0 0 0 0 0 0 0 0 0 0 0 0 0.4 0"/>
<feBlend mode="normal" in2="BackgroundImageFix" result="effect1_dropShadow_45_4817"/>
<feBlend mode="normal" in="SourceGraphic" in2="effect1_dropShadow_45_4817" result="shape"/>
</filter>
<clipPath id="clip0_45_4817">
<rect width="100" height="100" fill="white"/>
</clipPath>
</defs>
</svg>
