<svg width="100" height="100" viewBox="0 0 100 100" fill="none" xmlns="http://www.w3.org/2000/svg">
<g clip-path="url(#clip0_45_3409)">
<g filter="url(#filter0_d_45_3409)">
<path d="M80 8H20C14.4772 8 10 12.4772 10 18V78C10 83.5229 14.4772 88 20 88H80C85.5229 88 90 83.5229 90 78V18C90 12.4772 85.5229 8 80 8Z" fill="#4F4F4F"/>
<path d="M50 19C42.82 19 37 24.82 37 32V48V64C37 71.18 42.82 77 50 77C57.18 77 63 71.18 63 64V48V32C63 24.82 57.18 19 50 19ZM50 74C44.477 74 40 69.523 40 64C40 58.477 44.477 54 50 54C55.523 54 60 58.477 60 64C60 69.523 55.523 74 50 74ZM38 48V32C38 25.383 43.383 20 50 20C56.617 20 62 25.383 62 32V48H38Z" fill="#BCC1C5"/>
<path d="M50 55C45.038 55 41 59.037 41 64C41 68.963 45.038 73 50 73C54.963 73 59 68.963 59 64C59 59.037 54.963 55 50 55Z" fill="#BCC1C5"/>
<path d="M50 54C44.477 54 40 58.477 40 64C40 69.523 44.477 74 50 74C55.523 74 60 69.523 60 64C60 58.477 55.523 54 50 54ZM50 73C45.038 73 41 68.963 41 64C41 59.037 45.038 55 50 55C54.963 55 59 59.037 59 64C59 68.963 54.963 73 50 73Z" fill="#4285F4"/>
<path d="M50 26C46.691 26 44 28.691 44 32C44 35.309 46.691 38 50 38C53.309 38 56 35.309 56 32C56 28.691 53.309 26 50 26ZM50 34C48.896 34 48 33.104 48 32C48 30.896 48.896 30 50 30C51.104 30 52 30.896 52 32C52 33.104 51.104 34 50 34Z" fill="#BCC1C5"/>
<path d="M50 22C44.477 22 40 26.477 40 32C40 37.523 44.477 42 50 42C55.523 42 60 37.523 60 32C60 26.477 55.523 22 50 22ZM50 39C46.134 39 43 35.866 43 32C43 28.134 46.134 25 50 25C53.866 25 57 28.134 57 32C57 35.866 53.866 39 50 39Z" fill="#BCC1C5"/>
<path d="M50 30C48.896 30 48 30.896 48 32C48 33.104 48.896 34 50 34C51.104 34 52 33.104 52 32C52 30.896 51.104 30 50 30Z" fill="#4285F4"/>
</g>
</g>
<defs>
<filter id="filter0_d_45_3409" x="0" y="0" width="100" height="100" filterUnits="userSpaceOnUse" color-interpolation-filters="sRGB">
<feFlood flood-opacity="0" result="BackgroundImageFix"/>
<feColorMatrix in="SourceAlpha" type="matrix" values="0 0 0 0 0 0 0 0 0 0 0 0 0 0 0 0 0 0 127 0" result="hardAlpha"/>
<feOffset dy="2"/>
<feGaussianBlur stdDeviation="5"/>
<feColorMatrix type="matrix" values="0 0 0 0 0 0 0 0 0 0 0 0 0 0 0 0 0 0 0.5 0"/>
<feBlend mode="normal" in2="BackgroundImageFix" result="effect1_dropShadow_45_3409"/>
<feBlend mode="normal" in="SourceGraphic" in2="effect1_dropShadow_45_3409" result="shape"/>
</filter>
<clipPath id="clip0_45_3409">
<rect width="100" height="100" fill="white"/>
</clipPath>
</defs>
</svg>
