<svg width="100" height="100" viewBox="0 0 100 100" fill="none" xmlns="http://www.w3.org/2000/svg">
<g clip-path="url(#clip0_45_4217)" filter="url(#filter0_d_45_4217)">
<g filter="url(#filter1_d_45_4217)">
<path d="M80 8H20C14.4772 8 10 12.4772 10 18V78C10 83.5229 14.4772 88 20 88H80C85.5229 88 90 83.5229 90 78V18C90 12.4772 85.5229 8 80 8Z" fill="#4F4F4F"/>
<path fill-rule="evenodd" clip-rule="evenodd" d="M83.4042 61.7988C82.0954 63.4592 78.8889 64.6437 78.8889 64.6437L55.0359 73.2593V66.9055L72.5901 60.6159C74.5821 59.8982 74.888 58.8836 73.2688 58.351C71.6526 57.8169 68.7262 57.97 66.7326 58.6908L55.0359 62.8333V56.2392L55.71 56.0097C55.71 56.0097 59.09 54.8068 63.8427 54.2773C68.5953 53.7509 74.4147 54.3493 78.9833 56.0908C84.1316 57.7267 84.7114 60.1384 83.4042 61.7988ZM57.3064 50.9795V34.7307C57.3064 32.8224 56.9564 31.0656 55.1759 30.5682C53.8123 30.129 52.9662 31.4022 52.9662 33.309V74L42.0532 70.517V22C46.6932 22.8662 53.4532 24.9137 57.0873 26.1456C66.3293 29.3363 69.4627 33.3075 69.4627 42.2552C69.4627 50.9765 64.109 54.2819 57.3064 50.9795ZM22.0291 66.2413C16.7438 64.7447 15.8642 61.6259 18.2732 59.8293C20.4996 58.1705 24.2859 56.9217 24.2859 56.9217L39.9333 51.3269V57.7052L28.6733 61.7575C26.6843 62.4752 26.3784 63.4914 27.9946 64.0239C29.6123 64.5564 32.5403 64.4049 34.5324 63.6857L39.9333 61.7147V67.4212C39.5909 67.4824 39.2089 67.5436 38.8559 67.6033C33.4534 68.4909 27.6994 68.1205 22.0291 66.2413Z" fill="#BCC1C5"/>
</g>
</g>
<defs>
<filter id="filter0_d_45_4217" x="-4" y="0" width="108" height="108" filterUnits="userSpaceOnUse" color-interpolation-filters="sRGB">
<feFlood flood-opacity="0" result="BackgroundImageFix"/>
<feColorMatrix in="SourceAlpha" type="matrix" values="0 0 0 0 0 0 0 0 0 0 0 0 0 0 0 0 0 0 127 0" result="hardAlpha"/>
<feOffset dy="4"/>
<feGaussianBlur stdDeviation="2"/>
<feComposite in2="hardAlpha" operator="out"/>
<feColorMatrix type="matrix" values="0 0 0 0 0 0 0 0 0 0 0 0 0 0 0 0 0 0 0.25 0"/>
<feBlend mode="normal" in2="BackgroundImageFix" result="effect1_dropShadow_45_4217"/>
<feBlend mode="normal" in="SourceGraphic" in2="effect1_dropShadow_45_4217" result="shape"/>
</filter>
<filter id="filter1_d_45_4217" x="0" y="0" width="100" height="100" filterUnits="userSpaceOnUse" color-interpolation-filters="sRGB">
<feFlood flood-opacity="0" result="BackgroundImageFix"/>
<feColorMatrix in="SourceAlpha" type="matrix" values="0 0 0 0 0 0 0 0 0 0 0 0 0 0 0 0 0 0 127 0" result="hardAlpha"/>
<feOffset dy="2"/>
<feGaussianBlur stdDeviation="5"/>
<feColorMatrix type="matrix" values="0 0 0 0 0 0 0 0 0 0 0 0 0 0 0 0 0 0 0.5 0"/>
<feBlend mode="normal" in2="BackgroundImageFix" result="effect1_dropShadow_45_4217"/>
<feBlend mode="normal" in="SourceGraphic" in2="effect1_dropShadow_45_4217" result="shape"/>
</filter>
<clipPath id="clip0_45_4217">
<rect width="100" height="100" fill="white"/>
</clipPath>
</defs>
</svg>
