<svg width="100" height="100" viewBox="0 0 100 100" fill="none" xmlns="http://www.w3.org/2000/svg">
<g clip-path="url(#clip0_45_3767)">
<g filter="url(#filter0_d_45_3767)">
<path d="M80 8H20C14.4772 8 10 12.4772 10 18V78C10 83.5229 14.4772 88 20 88H80C85.5229 88 90 83.5229 90 78V18C90 12.4772 85.5229 8 80 8Z" fill="#34A853"/>
<path d="M61 50V36C61 29.935 56.065 25 50 25C43.935 25 39 29.935 39 36V50H40V36C40 30.477 44.477 26 50 26C55.523 26 60 30.477 60 36V50H61Z" fill="#BCC1C5"/>
<path d="M35 50V36C35 27.729 41.729 21 50 21C58.271 21 65 27.729 65 36V50H66V36C66 27.163 58.837 20 50 20C41.163 20 34 27.163 34 36V50H35Z" fill="#BCC1C5"/>
<path d="M51.483 56.709L54 63H46L48.516 56.709C48.093 56.539 47.712 56.294 47.376 56H31C31 66.493 39.506 75 50 75C60.493 75 69 66.493 69 56H52.624C52.287 56.294 51.906 56.539 51.483 56.709Z" fill="#BCC1C5"/>
<path d="M50 37C39.507 37 31 45.507 31 56H47.376C46.537 55.269 46 54.201 46 53C46 50.791 47.791 49 50 49C52.209 49 54 50.791 54 53C54 54.201 53.463 55.269 52.624 56H69C69 45.507 60.493 37 50 37Z" fill="#BCC1C5"/>
<path d="M46 63L48.517 56.709C47.043 56.119 46 54.684 46 53C46 50.791 47.791 49 50 49V37C39.507 37 31 45.507 31 56C31 66.493 39.507 75 50 75V63H46Z" fill="#BCC1C5"/>
<path d="M50 37V49C52.209 49 54 50.791 54 53C54 54.684 52.957 56.119 51.483 56.709L54 63H50V75C60.493 75 69 66.493 69 56C69 45.507 60.493 37 50 37Z" fill="#BCC1C5"/>
<path d="M38 56C38 49.383 43.383 44 50 44V41C41.716 41 35 47.716 35 56C35 64.284 41.716 71 50 71V68C43.383 68 38 62.617 38 56Z" fill="#B9FFB7"/>
<path d="M50 41V44C56.617 44 62 49.383 62 56C62 62.617 56.617 68 50 68V71C58.284 71 65 64.284 65 56C65 47.716 58.284 41 50 41Z" fill="#B9FFB7"/>
<path d="M50 68C43.383 68 38 62.617 38 56H35C35 64.284 41.716 71 50 71C58.284 71 65 64.284 65 56H62C62 62.617 56.617 68 50 68Z" fill="#B9FFB7"/>
<path d="M35 56H38C38 49.383 43.383 44 50 44C56.617 44 62 49.383 62 56H65C65 47.716 58.284 41 50 41C41.716 41 35 47.716 35 56Z" fill="#B9FFB7"/>
</g>
</g>
<defs>
<filter id="filter0_d_45_3767" x="0" y="0" width="100" height="100" filterUnits="userSpaceOnUse" color-interpolation-filters="sRGB">
<feFlood flood-opacity="0" result="BackgroundImageFix"/>
<feColorMatrix in="SourceAlpha" type="matrix" values="0 0 0 0 0 0 0 0 0 0 0 0 0 0 0 0 0 0 127 0" result="hardAlpha"/>
<feOffset dy="2"/>
<feGaussianBlur stdDeviation="5"/>
<feColorMatrix type="matrix" values="0 0 0 0 0 0 0 0 0 0 0 0 0 0 0 0 0 0 0.5 0"/>
<feBlend mode="normal" in2="BackgroundImageFix" result="effect1_dropShadow_45_3767"/>
<feBlend mode="normal" in="SourceGraphic" in2="effect1_dropShadow_45_3767" result="shape"/>
</filter>
<clipPath id="clip0_45_3767">
<rect width="100" height="100" fill="white"/>
</clipPath>
</defs>
</svg>
