<svg width="100" height="100" viewBox="0 0 100 100" fill="none" xmlns="http://www.w3.org/2000/svg">
<g clip-path="url(#clip0_1_1522)">
<g filter="url(#filter0_d_1_1522)">
<path d="M80 8H20C14.4772 8 10 12.4772 10 18V78C10 83.5229 14.4772 88 20 88H80C85.5229 88 90 83.5229 90 78V18C90 12.4772 85.5229 8 80 8Z" fill="white"/>
<path d="M69 23H31C27.6863 23 25 25.6863 25 29V67C25 70.3137 27.6863 73 31 73H69C72.3137 73 75 70.3137 75 67V29C75 25.6863 72.3137 23 69 23Z" stroke="#BCC1C5"/>
<path d="M50 57C54.9706 57 59 52.9706 59 48C59 43.0294 54.9706 39 50 39C45.0294 39 41 43.0294 41 48C41 52.9706 45.0294 57 50 57Z" fill="#BCC1C5"/>
<path d="M50 33C51.1046 33 52 32.1046 52 31C52 29.8954 51.1046 29 50 29C48.8954 29 48 29.8954 48 31C48 32.1046 48.8954 33 50 33Z" fill="#BCC1C5"/>
<path d="M50 54.5C53.5899 54.5 56.5 51.5899 56.5 48C56.5 44.4101 53.5899 41.5 50 41.5C46.4101 41.5 43.5 44.4101 43.5 48C43.5 51.5899 46.4101 54.5 50 54.5Z" stroke="white"/>
</g>
</g>
<defs>
<filter id="filter0_d_1_1522" x="0" y="0" width="100" height="100" filterUnits="userSpaceOnUse" color-interpolation-filters="sRGB">
<feFlood flood-opacity="0" result="BackgroundImageFix"/>
<feColorMatrix in="SourceAlpha" type="matrix" values="0 0 0 0 0 0 0 0 0 0 0 0 0 0 0 0 0 0 127 0" result="hardAlpha"/>
<feOffset dy="2"/>
<feGaussianBlur stdDeviation="5"/>
<feColorMatrix type="matrix" values="0 0 0 0 0 0 0 0 0 0 0 0 0 0 0 0 0 0 0.5 0"/>
<feBlend mode="normal" in2="BackgroundImageFix" result="effect1_dropShadow_1_1522"/>
<feBlend mode="normal" in="SourceGraphic" in2="effect1_dropShadow_1_1522" result="shape"/>
</filter>
<clipPath id="clip0_1_1522">
<rect width="100" height="100" fill="white"/>
</clipPath>
</defs>
</svg>
