<svg width="100" height="100" viewBox="0 0 100 100" fill="none" xmlns="http://www.w3.org/2000/svg">
<g clip-path="url(#clip0_1_1770)">
<g filter="url(#filter0_d_1_1770)">
<path d="M80 8H20C14.4772 8 10 12.4772 10 18V78C10 83.5229 14.4772 88 20 88H80C85.5229 88 90 83.5229 90 78V18C90 12.4772 85.5229 8 80 8Z" fill="white"/>
<path d="M73 27H27C23.687 27 21 29.687 21 33V63C21 66.313 23.687 69 27 69H50H73C76.314 69 79 66.313 79 63V33C79 29.687 76.314 27 73 27ZM78 63C78 65.757 75.757 68 73 68H27C24.243 68 22 65.757 22 63V33C22 30.243 24.243 28 27 28H73C75.757 28 78 30.243 78 33V63Z" fill="#BCC1C5"/>
<rect x="26.5" y="34.5" width="39" height="27" rx="2.5" stroke="#BCC1C5"/>
<line x1="69.5" y1="58" x2="69.5" y2="35" stroke="#BCC1C5"/>
<line x1="74.5" y1="58" x2="74.5" y2="35" stroke="#BCC1C5"/>
</g>
<path d="M34 40.5V55.68" stroke="#4285F4" stroke-width="4" stroke-linecap="round"/>
<path d="M42 46.198V49.993" stroke="#EA4335" stroke-width="4" stroke-linecap="round"/>
<path d="M50 42.399V53.784" stroke="#FBBC04" stroke-width="4" stroke-linecap="round"/>
<path d="M58 44.299V51.889" stroke="#34A853" stroke-width="4" stroke-linecap="round"/>
</g>
<defs>
<filter id="filter0_d_1_1770" x="0" y="0" width="100" height="100" filterUnits="userSpaceOnUse" color-interpolation-filters="sRGB">
<feFlood flood-opacity="0" result="BackgroundImageFix"/>
<feColorMatrix in="SourceAlpha" type="matrix" values="0 0 0 0 0 0 0 0 0 0 0 0 0 0 0 0 0 0 127 0" result="hardAlpha"/>
<feOffset dy="2"/>
<feGaussianBlur stdDeviation="5"/>
<feColorMatrix type="matrix" values="0 0 0 0 0 0 0 0 0 0 0 0 0 0 0 0 0 0 0.5 0"/>
<feBlend mode="normal" in2="BackgroundImageFix" result="effect1_dropShadow_1_1770"/>
<feBlend mode="normal" in="SourceGraphic" in2="effect1_dropShadow_1_1770" result="shape"/>
</filter>
<clipPath id="clip0_1_1770">
<rect width="100" height="100" fill="white"/>
</clipPath>
</defs>
</svg>
