<svg width="100" height="100" viewBox="0 0 100 100" fill="none" xmlns="http://www.w3.org/2000/svg">
<g clip-path="url(#clip0_1_896)">
<g filter="url(#filter0_d_1_896)">
<path d="M80 8H20C14.4772 8 10 12.4772 10 18V78C10 83.5229 14.4772 88 20 88H80C85.5229 88 90 83.5229 90 78V18C90 12.4772 85.5229 8 80 8Z" fill="#FFF9B8"/>
<path d="M32 69C32 73.418 35.582 77 40 77C44.418 77 48 73.418 48 69H32Z" fill="#BCC1C5"/>
<path d="M60 61C60 64.313 62.687 67 66 67C69.313 67 72 64.313 72 61H60Z" fill="#BCC1C5"/>
<path d="M56.376 52.544L59.999 61H64.999L58.933 46.842L56.376 52.544Z" fill="#FABB04"/>
<path d="M27 40H53L40 69L27 40Z" fill="#FABB04"/>
<path d="M40 19C28.562 19 19.26 28.357 19 40L32 69H39L26 40C26.173 32.238 32.375 26 40 26C47.625 26 53.827 32.238 54 40L41 69H48L61 40C60.74 28.357 51.438 19 40 19Z" fill="#FABB04"/>
<path d="M66 25C63.019 25 60.24 25.89 57.904 27.425C58.855 28.786 59.663 30.259 60.304 31.821C61.92 30.673 63.883 30 66 30C71.446 30 75.877 34.456 76 40L67 61H72L81 40C80.814 31.684 74.17 25 66 25Z" fill="#FABB04"/>
<path d="M59.443 45.702L66.001 61L75.001 40H62.001L59.443 45.702Z" fill="#FABB04"/>
</g>
</g>
<defs>
<filter id="filter0_d_1_896" x="0" y="0" width="100" height="100" filterUnits="userSpaceOnUse" color-interpolation-filters="sRGB">
<feFlood flood-opacity="0" result="BackgroundImageFix"/>
<feColorMatrix in="SourceAlpha" type="matrix" values="0 0 0 0 0 0 0 0 0 0 0 0 0 0 0 0 0 0 127 0" result="hardAlpha"/>
<feOffset dy="2"/>
<feGaussianBlur stdDeviation="5"/>
<feColorMatrix type="matrix" values="0 0 0 0 0 0 0 0 0 0 0 0 0 0 0 0 0 0 0.5 0"/>
<feBlend mode="normal" in2="BackgroundImageFix" result="effect1_dropShadow_1_896"/>
<feBlend mode="normal" in="SourceGraphic" in2="effect1_dropShadow_1_896" result="shape"/>
</filter>
<clipPath id="clip0_1_896">
<rect width="100" height="100" fill="white"/>
</clipPath>
</defs>
</svg>
