<svg width="100" height="100" viewBox="0 0 100 100" fill="none" xmlns="http://www.w3.org/2000/svg">
<g clip-path="url(#clip0_1_172)">
<g filter="url(#filter0_d_1_172)">
<path d="M80 8H20C14.4772 8 10 12.4772 10 18V78C10 83.5229 14.4772 88 20 88H80C85.5229 88 90 83.5229 90 78V18C90 12.4772 85.5229 8 80 8Z" fill="white"/>
<path d="M38 77H62V76H38V77Z" fill="#BCC1C5"/>
<path d="M39 69C40.104 69 41 68.104 41 67C41 65.896 40.104 65 39 65C37.896 65 37 65.896 37 67C37 68.104 37.896 69 39 69Z" fill="#4285F4"/>
<path d="M57.964 28H58H67V23V19H33V23V28H57.964ZM34 20H66V23H34V20Z" fill="#BCC1C5"/>
<path d="M33 47V52V67C33 70.313 35.687 73 39 73H61C64.313 73 67 70.313 67 67V52V47H33ZM66 67C66 69.757 63.757 72 61 72H39C36.243 72 34 69.757 34 67V52H66V67Z" fill="#BCC1C5"/>
<path d="M58 29H57.964H33V34H50V35H33V40H42V41H33V46H67V41H42.026V40H67V35H50.026V34H67V29H58Z" fill="#BCC1C5"/>
<path d="M50.026 34V35H67H68C69.312 35 70.583 35.47 71.58 36.324L75.209 39.436C76.386 40.444 77.888 41 79.439 41H82V40H79.439C78.127 40 76.856 39.53 75.859 38.676L72.23 35.564C71.052 34.556 69.55 34 68 34H67H50.026Z" fill="#4285F4"/>
<path d="M42.026 40V41H67H68C69.312 41 70.583 41.47 71.58 42.324L75.209 45.436C76.386 46.444 77.888 47 79.439 47H82V46H79.439C78.127 46 76.856 45.53 75.859 44.676L72.23 41.564C71.052 40.556 69.55 40 68 40H67H42.026Z" fill="#4285F4"/>
<path d="M33 46V47H67H68C69.313 47 70.583 47.47 71.58 48.324L75.209 51.436C76.387 52.444 77.889 53 79.439 53H82V52H79.439C78.127 52 76.856 51.53 75.859 50.676L72.23 47.564C71.053 46.556 69.551 46 68 46H67H33Z" fill="#4285F4"/>
<path d="M58 28H57.964V29H58H67H68C69.313 29 70.583 29.47 71.58 30.324L75.209 33.436C76.387 34.444 77.889 35 79.439 35H82V34H79.439C78.127 34 76.856 33.53 75.859 32.676L72.23 29.564C71.053 28.556 69.551 28 68 28H67H58Z" fill="#4285F4"/>
</g>
</g>
<defs>
<filter id="filter0_d_1_172" x="0" y="0" width="100" height="100" filterUnits="userSpaceOnUse" color-interpolation-filters="sRGB">
<feFlood flood-opacity="0" result="BackgroundImageFix"/>
<feColorMatrix in="SourceAlpha" type="matrix" values="0 0 0 0 0 0 0 0 0 0 0 0 0 0 0 0 0 0 127 0" result="hardAlpha"/>
<feOffset dy="2"/>
<feGaussianBlur stdDeviation="5"/>
<feColorMatrix type="matrix" values="0 0 0 0 0 0 0 0 0 0 0 0 0 0 0 0 0 0 0.5 0"/>
<feBlend mode="normal" in2="BackgroundImageFix" result="effect1_dropShadow_1_172"/>
<feBlend mode="normal" in="SourceGraphic" in2="effect1_dropShadow_1_172" result="shape"/>
</filter>
<clipPath id="clip0_1_172">
<rect width="100" height="100" fill="white"/>
</clipPath>
</defs>
</svg>
