<svg width="100" height="100" viewBox="0 0 100 100" fill="none" xmlns="http://www.w3.org/2000/svg">
<g clip-path="url(#clip0_1_1454)">
<g filter="url(#filter0_d_1_1454)">
<path d="M80 8H20C14.4772 8 10 12.4772 10 18V78C10 83.5229 14.4772 88 20 88H80C85.5229 88 90 83.5229 90 78V18C90 12.4772 85.5229 8 80 8Z" fill="white"/>
<path d="M71 50H78V46H71V50Z" fill="#BCC1C5"/>
<path d="M30 51H22V55H30V51Z" fill="#BCC1C5"/>
<path d="M71 55H78V51H71V55Z" fill="#BCC1C5"/>
<path d="M30 41H22V45H30V41Z" fill="#BCC1C5"/>
<path d="M30 37H71V40H78V36H22V40H30V37Z" fill="#BCC1C5"/>
<path d="M78 60V56H71V59H30V56H22V60H78Z" fill="#BCC1C5"/>
<path d="M30 46H22V50H30V46Z" fill="#BCC1C5"/>
<path d="M71 45H78V41H71V45Z" fill="#BCC1C5"/>
<path d="M73 27H27C23.687 27 21 29.687 21 33V36V40H22V36V33C22 30.243 24.243 28 27 28H73C75.757 28 78 30.243 78 33V36V40H79V33C79 29.687 76.314 27 73 27Z" fill="#BCC1C5"/>
<path d="M78 60V63C78 65.757 75.757 68 73 68H27C24.243 68 22 65.757 22 63V60V56H21V60V63C21 66.313 23.687 69 27 69H73C76.314 69 79 66.313 79 63V56H78V60Z" fill="#BCC1C5"/>
<path d="M78 50H79V46H78V50Z" fill="#BCC1C5"/>
<path d="M78 45H79V41H78V45Z" fill="#BCC1C5"/>
<path d="M78 55H79V51H78V55Z" fill="#BCC1C5"/>
<path d="M22 46H21V50H22V46Z" fill="#BCC1C5"/>
<path d="M22 51H21V55H22V51Z" fill="#BCC1C5"/>
<path d="M22 41H21V45H22V41Z" fill="#BCC1C5"/>
<path d="M40 48C40 46.896 39.104 46 38 46C36.896 46 36 46.896 36 48C36 49.104 36.896 50 38 50C39.104 50 40 49.104 40 48Z" fill="#4285F4"/>
<path d="M48.092 48C48.092 46.896 47.196 46 46.092 46C44.988 46 44.092 46.896 44.092 48C44.092 49.104 44.988 50 46.092 50C47.196 50 48.092 49.104 48.092 48Z" fill="#EA4335"/>
<path d="M52.092 48C52.092 49.104 52.988 50 54.092 50C55.196 50 56.092 49.104 56.092 48C56.092 46.896 55.196 46 54.092 46C52.988 46 52.092 46.896 52.092 48Z" fill="#FABB04"/>
<path d="M60 48C60 49.104 60.896 50 62 50C63.104 50 64 49.104 64 48C64 46.896 63.104 46 62 46C60.896 46 60 46.896 60 48Z" fill="#34A853"/>
</g>
</g>
<defs>
<filter id="filter0_d_1_1454" x="0" y="0" width="100" height="100" filterUnits="userSpaceOnUse" color-interpolation-filters="sRGB">
<feFlood flood-opacity="0" result="BackgroundImageFix"/>
<feColorMatrix in="SourceAlpha" type="matrix" values="0 0 0 0 0 0 0 0 0 0 0 0 0 0 0 0 0 0 127 0" result="hardAlpha"/>
<feOffset dy="2"/>
<feGaussianBlur stdDeviation="5"/>
<feColorMatrix type="matrix" values="0 0 0 0 0 0 0 0 0 0 0 0 0 0 0 0 0 0 0.5 0"/>
<feBlend mode="normal" in2="BackgroundImageFix" result="effect1_dropShadow_1_1454"/>
<feBlend mode="normal" in="SourceGraphic" in2="effect1_dropShadow_1_1454" result="shape"/>
</filter>
<clipPath id="clip0_1_1454">
<rect width="100" height="100" fill="white"/>
</clipPath>
</defs>
</svg>
