<svg width="100" height="100" viewBox="0 0 100 100" fill="none" xmlns="http://www.w3.org/2000/svg">
<g clip-path="url(#clip0_1_1198)">
<g filter="url(#filter0_d_1_1198)">
<path d="M80 8H20C14.4772 8 10 12.4772 10 18V78C10 83.5229 14.4772 88 20 88H80C85.5229 88 90 83.5229 90 78V18C90 12.4772 85.5229 8 80 8Z" fill="white"/>
<path fill-rule="evenodd" clip-rule="evenodd" d="M53.0709 32.863L53.0271 73.9956L42.2643 70.4114V22.0639L56.0024 25.7831C64.7962 28.2031 70.1778 32.9074 70.0903 41.152C70.0028 50.7411 65.6714 54.5941 57.2273 52.0849V33.176C57.2273 30.8907 53.0709 30.7569 53.0709 32.863Z" fill="#DE0029"/>
<path fill-rule="evenodd" clip-rule="evenodd" d="M37.32 62.4347L32.2447 64.1826C28.9628 65.3479 26.1631 62.6148 29.1819 61.4939L31.6319 60.5984L22.4001 57.5957C19.5561 58.5819 16.887 60.6878 17.0625 63.6453C17.2375 66.647 23.9313 67.3643 29.0945 68.2157C33.9069 69.0218 38.2822 68.5738 42.2641 67.14V64.048L37.32 62.4347ZM53.1145 73.9957L62.5213 70.6348L53.0271 67.5435V73.7712L53.1145 73.9957Z" fill="#F3C202"/>
<path fill-rule="evenodd" clip-rule="evenodd" d="M78.1409 64.9896L78.3157 64.9445C82.4285 63.4663 84.1786 61.4044 83.7414 59.4784C83.0413 56.2524 78.0098 54.5045 70.2654 53.9219C64.709 53.5189 59.2401 54.7732 53.9023 56.6549L53.0272 56.9689L62.609 60.0158L68.2091 58.0888C74.072 56.9689 76.4351 58.9402 70.7907 60.7775L67.9904 61.7627L78.1409 64.9896ZM42.2642 50.7411L38.0198 52.2193L42.2642 53.5636V50.7411Z" fill="#326DB3"/>
<path fill-rule="evenodd" clip-rule="evenodd" d="M62.5213 70.6348L78.1409 64.9896L67.9902 61.7627L53.0271 67.0051V67.5435L62.5213 70.6348ZM42.2643 60.7322L37.3202 62.4349L42.2643 64.048V60.7322ZM53.0271 63.3766V56.9689L62.6089 60.0158L53.0271 63.3766ZM31.632 60.5984L42.2641 56.7001V53.5636L38.0199 52.2193L22.6189 57.5514C22.5752 57.5514 22.4877 57.5957 22.4003 57.5957L31.632 60.5984Z" fill="#00AA9E"/>
</g>
</g>
<defs>
<filter id="filter0_d_1_1198" x="0" y="0" width="100" height="100" filterUnits="userSpaceOnUse" color-interpolation-filters="sRGB">
<feFlood flood-opacity="0" result="BackgroundImageFix"/>
<feColorMatrix in="SourceAlpha" type="matrix" values="0 0 0 0 0 0 0 0 0 0 0 0 0 0 0 0 0 0 127 0" result="hardAlpha"/>
<feOffset dy="2"/>
<feGaussianBlur stdDeviation="5"/>
<feColorMatrix type="matrix" values="0 0 0 0 0 0 0 0 0 0 0 0 0 0 0 0 0 0 0.5 0"/>
<feBlend mode="normal" in2="BackgroundImageFix" result="effect1_dropShadow_1_1198"/>
<feBlend mode="normal" in="SourceGraphic" in2="effect1_dropShadow_1_1198" result="shape"/>
</filter>
<clipPath id="clip0_1_1198">
<rect width="100" height="100" fill="white"/>
</clipPath>
</defs>
</svg>
