<svg width="100" height="100" viewBox="0 0 100 100" fill="none" xmlns="http://www.w3.org/2000/svg">
<g clip-path="url(#clip0_1_1207)">
<g filter="url(#filter0_d_1_1207)">
<path d="M80 8H20C14.4772 8 10 12.4772 10 18V78C10 83.5229 14.4772 88 20 88H80C85.5229 88 90 83.5229 90 78V18C90 12.4772 85.5229 8 80 8Z" fill="#B9FFB7"/>
<path d="M49.967 19.8571C52.6867 19.8571 55.3245 20.3895 57.8071 21.4396C60.2056 22.4541 62.36 23.9066 64.2102 25.7568C66.0604 27.607 67.5129 29.7614 68.5274 32.1598C69.5774 34.6426 70.1098 37.2803 70.1098 40.0001V56C70.1098 58.7197 69.5774 61.3575 68.5274 63.8402C67.5129 66.2386 66.0604 68.3929 64.2102 70.2431C62.36 72.0933 60.2056 73.5459 57.8071 74.5603C55.3245 75.6104 52.6867 76.1429 49.967 76.1429C47.2473 76.1429 44.6095 75.6104 42.1268 74.5603C39.7283 73.5459 37.5741 72.0933 35.7239 70.2431C33.8736 68.3929 32.4212 66.2386 31.4067 63.8402C30.3566 61.3575 29.8242 58.7197 29.8242 56V40.0001C29.8242 37.2803 30.3566 34.6426 31.4067 32.1598C32.4212 29.7614 33.8736 27.607 35.7239 25.7568C37.5741 23.9066 39.7283 22.4541 42.1268 21.4396C44.6095 20.3895 47.2473 19.8571 49.967 19.8571ZM49.967 18.8571C38.2901 18.8571 28.8242 28.3232 28.8242 40.0001V56C28.8242 67.6769 38.2901 77.1429 49.967 77.1429C61.6439 77.1429 71.1098 67.6769 71.1098 56V40.0001C71.1098 28.3232 61.6439 18.8571 49.967 18.8571Z" fill="#BCC1C5"/>
<path d="M49.967 23.857C52.724 23.857 54.967 26.1 54.967 28.857C54.967 31.614 52.724 33.857 49.967 33.857C47.21 33.857 44.967 31.614 44.967 28.857C44.967 26.1 47.21 23.857 49.967 23.857ZM49.967 22.857C46.6533 22.857 43.967 25.5433 43.967 28.857C43.967 32.1707 46.6533 34.857 49.967 34.857C53.2807 34.857 55.967 32.1707 55.967 28.857C55.967 25.5433 53.2807 22.857 49.967 22.857Z" fill="#BCC1C5"/>
<g opacity="0.934803">
<path d="M51.967 28.882C51.967 29.9866 51.0716 30.882 49.967 30.882C48.8625 30.882 47.967 29.9866 47.967 28.882C47.967 27.7775 48.8625 26.882 49.967 26.882C51.0716 26.882 51.967 27.7775 51.967 28.882Z" fill="#34A853"/>
</g>
<path d="M49.9428 38.825C40.475 38.825 32.8 46.5002 32.8 55.9679C32.8 65.4356 40.475 73.1108 49.9428 73.1108C59.4105 73.1108 67.0856 65.4356 67.0856 55.9679C67.0856 46.5002 59.4105 38.825 49.9428 38.825ZM45.0856 57.9679H43.0856V49.1108H45.0856V57.9679ZM53.0856 67.1197H46.8V63.9948C46.9354 63.7796 47.0911 63.5789 47.2665 63.3965C47.9424 62.6932 48.8904 62.2536 49.9428 62.2536C50.9951 62.2536 51.9433 62.6932 52.6191 63.3965C52.7945 63.5789 52.9502 63.7796 53.0856 63.9948V67.1197ZM57.0856 57.9679H55.0856V49.1108H57.0856V57.9679Z" fill="#34A853"/>
</g>
</g>
<defs>
<filter id="filter0_d_1_1207" x="0" y="0" width="100" height="100" filterUnits="userSpaceOnUse" color-interpolation-filters="sRGB">
<feFlood flood-opacity="0" result="BackgroundImageFix"/>
<feColorMatrix in="SourceAlpha" type="matrix" values="0 0 0 0 0 0 0 0 0 0 0 0 0 0 0 0 0 0 127 0" result="hardAlpha"/>
<feOffset dy="2"/>
<feGaussianBlur stdDeviation="5"/>
<feColorMatrix type="matrix" values="0 0 0 0 0 0 0 0 0 0 0 0 0 0 0 0 0 0 0.5 0"/>
<feBlend mode="normal" in2="BackgroundImageFix" result="effect1_dropShadow_1_1207"/>
<feBlend mode="normal" in="SourceGraphic" in2="effect1_dropShadow_1_1207" result="shape"/>
</filter>
<clipPath id="clip0_1_1207">
<rect width="100" height="100" fill="white"/>
</clipPath>
</defs>
</svg>
