<svg width="100" height="100" viewBox="0 0 100 100" fill="none" xmlns="http://www.w3.org/2000/svg">
<g clip-path="url(#clip0_1_1562)">
<g filter="url(#filter0_d_1_1562)">
<path d="M80 8H20C14.4772 8 10 12.4772 10 18V78C10 83.5229 14.4772 88 20 88H80C85.5229 88 90 83.5229 90 78V18C90 12.4772 85.5229 8 80 8Z" fill="white"/>
<path d="M18 16H82V80H18V16ZM18 80H82V16H18V80ZM50 39C54.418 39 58 35.418 58 31C58 26.582 54.418 23 50 23C45.582 23 42 26.582 42 31C42 35.418 45.582 39 50 39ZM50 27C52.209 27 54 28.791 54 31C54 33.209 52.209 35 50 35C47.791 35 46 33.209 46 31C46 28.791 47.791 27 50 27Z" fill="#BCC1C5"/>
<path d="M18 16H82V80H18V16ZM18 80H82V16H18V80ZM50 34C51.654 34 53 32.654 53 31C53 29.346 51.654 28 50 28C48.346 28 47 29.346 47 31C47 32.654 48.346 34 50 34Z" fill="#BCC1C5"/>
<path d="M18 16H82V80H18V16ZM18 80H82V16H18V80ZM65 19H35C31.686 19 29 21.686 29 25V71C29 74.313 31.686 77 35 77H65C68.313 77 71 74.313 71 71V25C71 21.686 68.313 19 65 19ZM30 71V25C30 22.243 32.243 20 35 20H65C67.757 20 70 22.243 70 25V71H30Z" fill="#BCC1C5"/>
<path d="M18 16H82V80H18V16ZM18 80H82V16H18V80ZM50 43C43.373 43 38 48.373 38 55C38 61.627 43.373 67 50 67C56.627 67 62 61.627 62 55C62 48.373 56.627 43 50 43ZM50 60C47.238 60 45 57.762 45 55C45 52.238 47.238 50 50 50C52.761 50 55 52.238 55 55C55 57.762 52.761 60 50 60Z" fill="#4285F4"/>
<path d="M18 16H82V80H18V16ZM18 80H82V16H18V80ZM50 51C47.794 51 46 52.795 46 55C46 57.205 47.794 59 50 59C52.206 59 54 57.205 54 55C54 52.795 52.206 51 50 51Z" fill="#4285F4"/>
</g>
</g>
<defs>
<filter id="filter0_d_1_1562" x="0" y="0" width="100" height="100" filterUnits="userSpaceOnUse" color-interpolation-filters="sRGB">
<feFlood flood-opacity="0" result="BackgroundImageFix"/>
<feColorMatrix in="SourceAlpha" type="matrix" values="0 0 0 0 0 0 0 0 0 0 0 0 0 0 0 0 0 0 127 0" result="hardAlpha"/>
<feOffset dy="2"/>
<feGaussianBlur stdDeviation="5"/>
<feColorMatrix type="matrix" values="0 0 0 0 0 0 0 0 0 0 0 0 0 0 0 0 0 0 0.5 0"/>
<feBlend mode="normal" in2="BackgroundImageFix" result="effect1_dropShadow_1_1562"/>
<feBlend mode="normal" in="SourceGraphic" in2="effect1_dropShadow_1_1562" result="shape"/>
</filter>
<clipPath id="clip0_1_1562">
<rect width="100" height="100" fill="white"/>
</clipPath>
</defs>
</svg>
