<svg width="100" height="100" viewBox="0 0 100 100" fill="none" xmlns="http://www.w3.org/2000/svg">
<g clip-path="url(#clip0_65_52)">
<g filter="url(#filter0_d_65_52)">
<path d="M80 8H20C14.4772 8 10 12.4772 10 18V78C10 83.5229 14.4772 88 20 88H80C85.5229 88 90 83.5229 90 78V18C90 12.4772 85.5229 8 80 8Z" fill="white"/>
</g>
<line x1="24" y1="19" x2="37" y2="19" stroke="#4285F4" stroke-width="2"/>
<line x1="37" y1="19" x2="50" y2="19" stroke="#EA4335" stroke-width="2"/>
<line x1="50" y1="19" x2="63" y2="19" stroke="#FBBC04" stroke-width="2"/>
<line x1="63" y1="19" x2="76" y2="19" stroke="#34A853" stroke-width="2"/>
<path d="M46.2857 26.7826V74.6087M53.7143 73.413V25.587M68.5714 25.587V73.413M38.8571 25.587V73.413M61.1429 26.7826V74.6087M31.4286 26.7826V74.6087M24 22C27.7143 22 27.7143 23.1957 31.4286 23.1957C35.1429 23.1957 35.1429 22 38.8571 22C42.5714 22 42.5714 23.1957 46.2857 23.1957C50 23.1957 50 22 53.7143 22C57.4286 22 57.4286 23.1957 61.1429 23.1957C64.8571 23.1957 64.8571 22 68.5714 22C72.2857 22 72.2857 23.1957 76 23.1957V50.0978V77C72.2857 77 72.2857 75.8043 68.5714 75.8043C64.8571 75.8043 64.8571 77 61.1429 77C57.4286 77 57.4286 75.8043 53.7143 75.8043C50 75.8043 50 77 46.2857 77C42.5714 77 42.5714 75.8043 38.8571 75.8043C35.1429 75.8043 35.1429 77 31.4286 77C27.7143 77 27.7143 75.8043 24 75.8043C24 75.8043 24 65.0435 24 22Z" stroke="#BCC1C5" stroke-width="2"/>
</g>
<defs>
<filter id="filter0_d_65_52" x="0" y="0" width="100" height="100" filterUnits="userSpaceOnUse" color-interpolation-filters="sRGB">
<feFlood flood-opacity="0" result="BackgroundImageFix"/>
<feColorMatrix in="SourceAlpha" type="matrix" values="0 0 0 0 0 0 0 0 0 0 0 0 0 0 0 0 0 0 127 0" result="hardAlpha"/>
<feOffset dy="2"/>
<feGaussianBlur stdDeviation="5"/>
<feComposite in2="hardAlpha" operator="out"/>
<feColorMatrix type="matrix" values="0 0 0 0 0 0 0 0 0 0 0 0 0 0 0 0 0 0 0.5 0"/>
<feBlend mode="normal" in2="BackgroundImageFix" result="effect1_dropShadow_65_52"/>
<feBlend mode="normal" in="SourceGraphic" in2="effect1_dropShadow_65_52" result="shape"/>
</filter>
<clipPath id="clip0_65_52">
<rect width="100" height="100" fill="white"/>
</clipPath>
</defs>
</svg>
