<svg width="100" height="100" viewBox="0 0 100 100" fill="none" xmlns="http://www.w3.org/2000/svg">
<g clip-path="url(#clip0_1_810)">
<g filter="url(#filter0_d_1_810)">
<path d="M80 8H20C14.4772 8 10 12.4772 10 18V78C10 83.5229 14.4772 88 20 88H80C85.5229 88 90 83.5229 90 78V18C90 12.4772 85.5229 8 80 8Z" fill="white"/>
<path d="M73 27H27C23.687 27 21 29.687 21 33V63C21 66.313 23.687 69 27 69H29V71C29 72.657 30.343 74 32 74H68C69.657 74 71 72.657 71 71V69H73C76.314 69 79 66.313 79 63V33C79 29.687 76.314 27 73 27ZM78 63C78 65.757 75.757 68 73 68H27C24.243 68 22 65.757 22 63V33C22 30.243 24.243 28 27 28H73C75.757 28 78 30.243 78 33V63Z" fill="#BCC1C5"/>
<path d="M72 31H28C26.343 31 25 32.343 25 34V62C25 63.657 26.343 65 28 65H72C73.657 65 75 63.657 75 62V34C75 32.343 73.657 31 72 31ZM74 62C74 63.103 73.103 64 72 64H28C26.897 64 26 63.103 26 62V34C26 32.897 26.897 32 28 32H72C73.103 32 74 32.897 74 34V62Z" fill="#BCC1C5"/>
<path d="M38 46C36.896 46 36 46.896 36 48C36 49.104 36.896 50 38 50C39.104 50 40 49.104 40 48C40 46.896 39.104 46 38 46Z" fill="#4285F4"/>
<path d="M46 46C44.896 46 44 46.896 44 48C44 49.104 44.896 50 46 50C47.104 50 48 49.104 48 48C48 46.896 47.104 46 46 46Z" fill="#EA4335"/>
<path d="M54 46C52.896 46 52 46.896 52 48C52 49.104 52.896 50 54 50C55.104 50 56 49.104 56 48C56 46.896 55.104 46 54 46Z" fill="#FABB04"/>
<path d="M62 46C60.896 46 60 46.896 60 48C60 49.104 60.896 50 62 50C63.104 50 64 49.104 64 48C64 46.896 63.104 46 62 46Z" fill="#34A853"/>
</g>
</g>
<defs>
<filter id="filter0_d_1_810" x="0" y="0" width="100" height="100" filterUnits="userSpaceOnUse" color-interpolation-filters="sRGB">
<feFlood flood-opacity="0" result="BackgroundImageFix"/>
<feColorMatrix in="SourceAlpha" type="matrix" values="0 0 0 0 0 0 0 0 0 0 0 0 0 0 0 0 0 0 127 0" result="hardAlpha"/>
<feOffset dy="2"/>
<feGaussianBlur stdDeviation="5"/>
<feColorMatrix type="matrix" values="0 0 0 0 0 0 0 0 0 0 0 0 0 0 0 0 0 0 0.5 0"/>
<feBlend mode="normal" in2="BackgroundImageFix" result="effect1_dropShadow_1_810"/>
<feBlend mode="normal" in="SourceGraphic" in2="effect1_dropShadow_1_810" result="shape"/>
</filter>
<clipPath id="clip0_1_810">
<rect width="100" height="100" fill="white"/>
</clipPath>
</defs>
</svg>
