<svg width="100" height="100" viewBox="0 0 100 100" fill="none" xmlns="http://www.w3.org/2000/svg">
<g clip-path="url(#clip0_1_860)">
<g filter="url(#filter0_d_1_860)">
<path d="M80 8H20C14.4772 8 10 12.4772 10 18V78C10 83.5229 14.4772 88 20 88H80C85.5229 88 90 83.5229 90 78V18C90 12.4772 85.5229 8 80 8Z" fill="white"/>
<path d="M71 61L80 40H81L72 61H71Z" fill="#BCC1C5"/>
<path d="M60 61H72V60H60V61Z" fill="#BCC1C5"/>
<path d="M58.933 46.842L65 60.999H66L59.471 45.643L58.933 46.842Z" fill="#BCC1C5"/>
<path d="M60.303 31.821C61.92 30.673 63.882 30 65.999 30C71.115 30 75.332 33.929 75.93 39H79.999L80.999 40H75.999L66.999 61H65.999L74.928 40H73.999H61.999C61.935 37.106 61.338 34.346 60.303 31.821Z" fill="#BCC1C5"/>
<path d="M40 20C29.107 20 20.247 28.911 20 40V41L19 40C19.26 28.357 28.562 19 40 19C51.438 19 60.74 28.357 61 40L60 41V40C59.753 28.911 50.893 20 40 20Z" fill="#BCC1C5"/>
<path d="M54 40C54 32.268 47.732 26 40 26C32.268 26 26 32.268 26 40H54Z" fill="#BCC1C5"/>
<path d="M20 39H60L61 40H19L20 39Z" fill="#BCC1C5"/>
<path d="M27 39L26 40L39 69H40H41L54 40L53 39V40L40 69L27 40V39Z" fill="#BCC1C5"/>
<path d="M57.092 27.999C59.583 26.115 62.665 25 66 25C74.17 25 80.815 31.684 81 40L80 41V39.992C79.822 32.234 73.623 26 66 26C62.869 26 59.978 27.053 57.645 28.83L57.659 28.853C57.395 29.057 57.137 29.27 56.887 29.493C56.709 29.207 56.524 28.925 56.332 28.649C56.583 28.43 56.841 28.22 57.106 28.019C57.101 28.012 57.097 28.005 57.092 27.999Z" fill="#BCC1C5"/>
<path d="M56.376 52.545L59.999 61H60.999L56.887 51.404L56.376 52.545Z" fill="#BCC1C5"/>
<path d="M61 60V61C61 63.762 63.238 66 66 66C68.762 66 71 63.762 71 61V60L72 61C72 64.313 69.313 67 66 67C62.687 67 60 64.313 60 61L61 60Z" fill="#BCC1C5"/>
<path d="M32 68H48V69H32V68Z" fill="#BCC1C5"/>
<path d="M40 77C44.418 77 48 73.418 48 69L47 68.5V69C47 72.866 43.866 76 40 76C36.134 76 33 72.866 33 69V68.5L32 69C32 73.418 35.582 77 40 77Z" fill="#BCC1C5"/>
<path d="M60 40H61L48 69H47L60 40Z" fill="#BCC1C5"/>
<path d="M20 40H19L32 69H33L20 40Z" fill="#BCC1C5"/>
</g>
</g>
<defs>
<filter id="filter0_d_1_860" x="0" y="0" width="100" height="100" filterUnits="userSpaceOnUse" color-interpolation-filters="sRGB">
<feFlood flood-opacity="0" result="BackgroundImageFix"/>
<feColorMatrix in="SourceAlpha" type="matrix" values="0 0 0 0 0 0 0 0 0 0 0 0 0 0 0 0 0 0 127 0" result="hardAlpha"/>
<feOffset dy="2"/>
<feGaussianBlur stdDeviation="5"/>
<feColorMatrix type="matrix" values="0 0 0 0 0 0 0 0 0 0 0 0 0 0 0 0 0 0 0.5 0"/>
<feBlend mode="normal" in2="BackgroundImageFix" result="effect1_dropShadow_1_860"/>
<feBlend mode="normal" in="SourceGraphic" in2="effect1_dropShadow_1_860" result="shape"/>
</filter>
<clipPath id="clip0_1_860">
<rect width="100" height="100" fill="white"/>
</clipPath>
</defs>
</svg>
