<svg width="100" height="100" viewBox="0 0 100 100" fill="none" xmlns="http://www.w3.org/2000/svg">
<g clip-path="url(#clip0_1_1510)">
<g filter="url(#filter0_d_1_1510)">
<path d="M80 8H20C14.4772 8 10 12.4772 10 18V78C10 83.5229 14.4772 88 20 88H80C85.5229 88 90 83.5229 90 78V18C90 12.4772 85.5229 8 80 8Z" fill="white"/>
<path d="M62 18H38C34.687 18 32 20.686 32 24V38.992V70C32 72.692 33.773 74.971 36.216 75.73C36.779 75.906 37.379 76 38 76H62C62.622 76 63.221 75.906 63.784 75.73C66.227 74.971 68 72.692 68 70V38.992V24C68 20.686 65.314 18 62 18ZM36.5 43H36V42H36.5C37.878 42 39 43.121 39 44.5V52.5C39 53.879 37.878 55 36.5 55H36V54H36.5C37.327 54 38 53.327 38 52.5V44.5C38 43.673 37.327 43 36.5 43ZM33 38.992V24C33 21.243 35.243 19 38 19H62C64.757 19 67 21.243 67 24V38.992H33Z" fill="#BCC1C5"/>
<path d="M36.5 23H36V24H36.5C37.327 24 38 24.673 38 25.5V33.5C38 34.327 37.327 35 36.5 35H36V36H36.5C37.878 36 39 34.879 39 33.5V25.5C39 24.121 37.878 23 36.5 23Z" fill="#BCC1C5"/>
<path d="M62 22C60.896 22 60 22.896 60 24C60 25.104 60.896 26 62 26C63.104 26 64 25.104 64 24C64 22.896 63.104 22 62 22Z" fill="#4285F4"/>
</g>
</g>
<defs>
<filter id="filter0_d_1_1510" x="0" y="0" width="100" height="100" filterUnits="userSpaceOnUse" color-interpolation-filters="sRGB">
<feFlood flood-opacity="0" result="BackgroundImageFix"/>
<feColorMatrix in="SourceAlpha" type="matrix" values="0 0 0 0 0 0 0 0 0 0 0 0 0 0 0 0 0 0 127 0" result="hardAlpha"/>
<feOffset dy="2"/>
<feGaussianBlur stdDeviation="5"/>
<feColorMatrix type="matrix" values="0 0 0 0 0 0 0 0 0 0 0 0 0 0 0 0 0 0 0.5 0"/>
<feBlend mode="normal" in2="BackgroundImageFix" result="effect1_dropShadow_1_1510"/>
<feBlend mode="normal" in="SourceGraphic" in2="effect1_dropShadow_1_1510" result="shape"/>
</filter>
<clipPath id="clip0_1_1510">
<rect width="100" height="100" fill="white"/>
</clipPath>
</defs>
</svg>
