<svg width="100" height="100" viewBox="0 0 100 100" fill="none" xmlns="http://www.w3.org/2000/svg">
<g clip-path="url(#clip0_1_1225)">
<g filter="url(#filter0_d_1_1225)">
<path d="M80 8H20C14.4772 8 10 12.4772 10 18V78C10 83.5229 14.4772 88 20 88H80C85.5229 88 90 83.5229 90 78V18C90 12.4772 85.5229 8 80 8Z" fill="#FFC7C7"/>
<path d="M18 16H82V80H18V16ZM18 80H82V16H18V80ZM50 19C33.983 19 21 31.983 21 48C21 64.017 33.983 77 50 77C66.016 77 79 64.017 79 48C79 31.983 66.016 19 50 19ZM50 76C34.561 76 22 63.439 22 48C22 32.561 34.561 20 50 20C65.439 20 78 32.561 78 48C78 63.439 65.439 76 50 76Z" fill="#BCC1C5"/>
<path d="M18 16H82V80H18V16ZM18 80H82V16H18V80ZM50 24C36.745 24 26 34.746 26 48C26 61.255 36.745 72 50 72C63.255 72 74 61.255 74 48C74 34.746 63.255 24 50 24ZM54 56C54 60.418 50.418 64 46 64C46 59.582 49.582 56 54 56ZM61.388 63.184L56.593 56.79C59.264 54.784 61 51.599 61 48C61 46.685 60.758 45.43 60.334 44.261L50.31 48.413L50 48L49.538 47.809L53.74 37.666C52.571 37.243 51.315 37 50 37C43.925 37 39 41.925 39 48C39 51.599 40.736 54.784 43.408 56.79L38.613 63.184C33.998 59.717 31 54.216 31 48C31 37.507 39.507 29 50 29C52.4 29 54.687 29.464 56.801 30.276L57.657 28.21L58.58 28.593L57.727 30.653C59.711 31.538 61.51 32.753 63.065 34.229L64.647 32.647L65.354 33.354L63.772 34.936C65.247 36.491 66.463 38.289 67.347 40.274L69.408 39.42L69.79 40.344L67.725 41.2C68.537 43.314 69 45.6 69 48C69 54.216 66.002 59.717 61.388 63.184Z" fill="#BCC1C5"/>
<path d="M18 16H82.001V80H18V16ZM18 80H82.001V16H18V80ZM60.334 44.261C60.757 45.43 61 46.685 61 48C61 51.599 59.264 54.783 56.593 56.79L61.388 63.184C66.002 59.717 69.001 54.216 69.001 48C69.001 45.6 68.537 43.314 67.725 41.199L60.334 44.261Z" fill="#4285F4"/>
<path d="M18 16H82V80H18V16ZM18 80H82V16H18V80ZM57.408 39.885L63.065 34.229C61.51 32.753 59.711 31.538 57.727 30.653L54.663 38.049C55.672 38.522 56.595 39.143 57.408 39.885Z" fill="#4285F4"/>
<path d="M18 16H82V80H18V16ZM18 80H82V16H18V80ZM59.952 43.337L67.348 40.273C66.463 38.288 65.246 36.489 63.771 34.935L58.114 40.592C58.857 41.405 59.478 42.328 59.952 43.337Z" fill="#4285F4"/>
<path d="M18 16H82V80H18V16ZM18 80H82V16H18V80ZM50 29C39.506 29 31 37.507 31 48C31 54.216 33.998 59.717 38.612 63.184L43.407 56.79C40.736 54.783 39 51.599 39 48C39 41.925 43.925 37 50 37C51.315 37 52.57 37.242 53.739 37.666L56.8 30.275C54.686 29.464 52.4 29 50 29Z" fill="#4285F4"/>
<path d="M18 16H82V80H18V16ZM18 80H82V16H18V80ZM52.13 46.576L59.952 43.337C59.478 42.328 58.858 41.405 58.115 40.592L52.13 46.576Z" fill="#BCC1C5"/>
<path d="M18 16H82V80H18V16ZM18 80H82V16H18V80ZM51.424 45.869L57.408 39.885C56.595 39.142 55.672 38.521 54.663 38.049L51.424 45.869Z" fill="#BCC1C5"/>
<path d="M18 16H82V80H18V16ZM18 80H82V16H18V80ZM69.79 40.344L69.407 39.42L67.347 40.273L59.952 43.336L52.131 46.575L58.115 40.592L63.771 34.935L65.353 33.353L64.646 32.646L63.064 34.228L57.408 39.885L51.424 45.868L54.663 38.049L57.727 30.653L58.58 28.592L57.656 28.209L56.801 30.276L53.739 37.666L49.538 47.808L50 48L50.31 48.413L60.334 44.261L67.725 41.198L69.79 40.344Z" fill="#BCC1C5"/>
</g>
</g>
<defs>
<filter id="filter0_d_1_1225" x="0" y="0" width="100" height="100" filterUnits="userSpaceOnUse" color-interpolation-filters="sRGB">
<feFlood flood-opacity="0" result="BackgroundImageFix"/>
<feColorMatrix in="SourceAlpha" type="matrix" values="0 0 0 0 0 0 0 0 0 0 0 0 0 0 0 0 0 0 127 0" result="hardAlpha"/>
<feOffset dy="2"/>
<feGaussianBlur stdDeviation="5"/>
<feColorMatrix type="matrix" values="0 0 0 0 0 0 0 0 0 0 0 0 0 0 0 0 0 0 0.5 0"/>
<feBlend mode="normal" in2="BackgroundImageFix" result="effect1_dropShadow_1_1225"/>
<feBlend mode="normal" in="SourceGraphic" in2="effect1_dropShadow_1_1225" result="shape"/>
</filter>
<clipPath id="clip0_1_1225">
<rect width="100" height="100" fill="white"/>
</clipPath>
</defs>
</svg>
