<svg width="100" height="100" viewBox="0 0 100 100" fill="none" xmlns="http://www.w3.org/2000/svg">
<g clip-path="url(#clip0_20_313)">
<g filter="url(#filter0_d_20_313)">
<path d="M80 8H20C14.4772 8 10 12.4772 10 18V78C10 83.5229 14.4772 88 20 88H80C85.5229 88 90 83.5229 90 78V18C90 12.4772 85.5229 8 80 8Z" fill="white"/>
</g>
<rect x="18.2286" y="25" width="63.5143" height="36.7714" rx="2" fill="#BCC1C5"/>
<g opacity="0.75">
<rect x="25.3279" y="68" width="51.6393" height="2.29508" fill="#BCC1C5"/>
<rect x="15" y="68" width="70" height="1.14754" fill="#BCC1C5"/>
<ellipse cx="75.8197" cy="69.1475" rx="9.18032" ry="1.14754" fill="#BCC1C5"/>
<ellipse cx="24.1803" cy="69.1475" rx="9.18032" ry="1.14754" fill="#BCC1C5"/>
<line x1="39.5984" y1="68.6476" x2="58.1066" y2="68.6476" stroke="#D9D9D9" stroke-linecap="round"/>
<line x1="39.0984" y1="68.3237" x2="58.6066" y2="68.3237" stroke="#D9D9D9" stroke-width="0.5"/>
</g>
<path d="M15 68L20 61.5H80L84.9115 68H15Z" fill="#BCC1C5"/>
<rect x="19.3428" y="26.11" width="61.4095" height="34.5429" fill="white"/>
<path d="M33.4857 33.11V54.615" stroke="#4285F4" stroke-width="4" stroke-linecap="round"/>
<path d="M44.819 41.1821V46.5584" stroke="#EA4335" stroke-width="4" stroke-linecap="round"/>
<path d="M56.1523 35.8003V51.929" stroke="#FBBC04" stroke-width="4" stroke-linecap="round"/>
<path d="M67.4857 38.4919V49.2444" stroke="#34A853" stroke-width="4" stroke-linecap="round"/>
</g>
<defs>
<filter id="filter0_d_20_313" x="0" y="-2" width="100" height="100" filterUnits="userSpaceOnUse" color-interpolation-filters="sRGB">
<feFlood flood-opacity="0" result="BackgroundImageFix"/>
<feColorMatrix in="SourceAlpha" type="matrix" values="0 0 0 0 0 0 0 0 0 0 0 0 0 0 0 0 0 0 127 0" result="hardAlpha"/>
<feOffset/>
<feGaussianBlur stdDeviation="5"/>
<feComposite in2="hardAlpha" operator="out"/>
<feColorMatrix type="matrix" values="0 0 0 0 0 0 0 0 0 0 0 0 0 0 0 0 0 0 0.4 0"/>
<feBlend mode="normal" in2="BackgroundImageFix" result="effect1_dropShadow_20_313"/>
<feBlend mode="normal" in="SourceGraphic" in2="effect1_dropShadow_20_313" result="shape"/>
</filter>
<clipPath id="clip0_20_313">
<rect width="100" height="100" fill="white"/>
</clipPath>
</defs>
</svg>
