<svg width="100" height="100" viewBox="0 0 100 100" fill="none" xmlns="http://www.w3.org/2000/svg">
<g clip-path="url(#clip0_1_848)">
<g filter="url(#filter0_d_1_848)">
<path d="M80 8H20C14.4772 8 10 12.4772 10 18V78C10 83.5229 14.4772 88 20 88H80C85.5229 88 90 83.5229 90 78V18C90 12.4772 85.5229 8 80 8Z" fill="#FFF9B8"/>
<path d="M42 69C42 73.418 45.582 77 50 77C54.418 77 58 73.418 58 69H42Z" fill="#BCC1C6"/>
<path d="M37 40L50 69L63 40H37Z" fill="#FBBC03"/>
<path d="M50 19C38.402 19 29 28.402 29 40L42 69H49L36 40C36 32.268 42.268 26 50 26C57.732 26 64 32.268 64 40L51 69H58L71 40C71 28.402 61.598 19 50 19Z" fill="#FBBC03"/>
</g>
</g>
<defs>
<filter id="filter0_d_1_848" x="0" y="0" width="100" height="100" filterUnits="userSpaceOnUse" color-interpolation-filters="sRGB">
<feFlood flood-opacity="0" result="BackgroundImageFix"/>
<feColorMatrix in="SourceAlpha" type="matrix" values="0 0 0 0 0 0 0 0 0 0 0 0 0 0 0 0 0 0 127 0" result="hardAlpha"/>
<feOffset dy="2"/>
<feGaussianBlur stdDeviation="5"/>
<feColorMatrix type="matrix" values="0 0 0 0 0 0 0 0 0 0 0 0 0 0 0 0 0 0 0.5 0"/>
<feBlend mode="normal" in2="BackgroundImageFix" result="effect1_dropShadow_1_848"/>
<feBlend mode="normal" in="SourceGraphic" in2="effect1_dropShadow_1_848" result="shape"/>
</filter>
<clipPath id="clip0_1_848">
<rect width="100" height="100" fill="white"/>
</clipPath>
</defs>
</svg>
