<svg width="100" height="100" viewBox="0 0 100 100" fill="none" xmlns="http://www.w3.org/2000/svg">
<g clip-path="url(#clip0_1_760)">
<g filter="url(#filter0_d_1_760)">
<path d="M80 8H20C14.4772 8 10 12.4772 10 18V78C10 83.5229 14.4772 88 20 88H80C85.5229 88 90 83.5229 90 78V18C90 12.4772 85.5229 8 80 8Z" fill="white"/>
<path d="M33 77H67C70.313 77 73 74.313 73 71H27C27 74.313 29.687 77 33 77Z" fill="#BCC1C5"/>
<path d="M30.992 62H29.94L27 71H73L70.06 62H69.008H30.992Z" fill="#4285F4"/>
<path d="M76.175 33C71.821 33 67.851 35.209 65.555 38.908L63.596 42.064C63.586 42.081 63.573 42.095 63.563 42.111L60.587 33L60.584 32.993H60.573C59.264 28.382 55.031 25 50 25C44.969 25 40.736 28.382 39.427 32.993H39.416L39.414 33L38.043 37.197C37.38 37.072 36.699 37 36 37C29.925 37 25 41.925 25 48C25 52.381 27.567 56.151 31.273 57.921L29.94 62H30.992L33.668 53.811L40.139 34H59.861L62.842 43.124C60.673 45.881 57.393 47.5 53.825 47.5H52V48.5H53.825C57.482 48.5 60.854 46.927 63.205 44.236L66.333 53.811L69.008 62H70.06L67.283 53.5L63.948 43.291C64.115 43.059 64.293 42.838 64.446 42.592L66.405 39.436C68.517 36.031 72.17 34 76.175 34H79V33H76.175ZM32.717 53.5L31.587 56.96C28.283 55.325 26 51.929 26 48C26 42.486 30.486 38 36 38C36.591 38 37.166 38.062 37.728 38.16L32.717 53.5Z" fill="#BCC1C5"/>
<path d="M52 23C52 21.896 51.104 21 50 21C48.896 21 48 21.896 48 23C48 24.104 48.896 25 50 25C51.104 25 52 24.104 52 23Z" fill="#BCC1C5"/>
</g>
</g>
<defs>
<filter id="filter0_d_1_760" x="0" y="0" width="100" height="100" filterUnits="userSpaceOnUse" color-interpolation-filters="sRGB">
<feFlood flood-opacity="0" result="BackgroundImageFix"/>
<feColorMatrix in="SourceAlpha" type="matrix" values="0 0 0 0 0 0 0 0 0 0 0 0 0 0 0 0 0 0 127 0" result="hardAlpha"/>
<feOffset dy="2"/>
<feGaussianBlur stdDeviation="5"/>
<feColorMatrix type="matrix" values="0 0 0 0 0 0 0 0 0 0 0 0 0 0 0 0 0 0 0.5 0"/>
<feBlend mode="normal" in2="BackgroundImageFix" result="effect1_dropShadow_1_760"/>
<feBlend mode="normal" in="SourceGraphic" in2="effect1_dropShadow_1_760" result="shape"/>
</filter>
<clipPath id="clip0_1_760">
<rect width="100" height="100" fill="white"/>
</clipPath>
</defs>
</svg>
