<svg width="100" height="100" viewBox="0 0 100 100" fill="none" xmlns="http://www.w3.org/2000/svg">
<g clip-path="url(#clip0_1_569)">
<g filter="url(#filter0_d_1_569)">
<path d="M80 8H20C14.4772 8 10 12.4772 10 18V78C10 83.5229 14.4772 88 20 88H80C85.5229 88 90 83.5229 90 78V18C90 12.4772 85.5229 8 80 8Z" fill="white"/>
<path d="M18 16H82V80H18V16ZM18 80H82V16H18V80ZM69 23H31C27.686 23 25 25.686 25 29V67C25 70.313 27.686 73 31 73H69C72.313 73 75 70.313 75 67V29C75 25.686 72.313 23 69 23ZM44 28C45.104 28 46 28.896 46 30C46 31.104 45.104 32 44 32C42.896 32 42 31.104 42 30C42 28.896 42.896 28 44 28ZM40 70C33.373 70 28 64.627 28 58C28 51.373 33.373 46 40 46C46.627 46 52 51.373 52 58C52 64.627 46.627 70 40 70ZM56 44C54.896 44 54 43.104 54 42C54 40.896 54.896 40 56 40C57.104 40 58 40.896 58 42C58 43.104 57.104 44 56 44ZM56 32C54.896 32 54 31.104 54 30C54 28.896 54.896 28 56 28C57.104 28 58 28.896 58 30C58 31.104 57.104 32 56 32ZM68 56C66.896 56 66 55.104 66 54C66 52.896 66.896 52 68 52C69.104 52 70 52.896 70 54C70 55.104 69.104 56 68 56ZM68 44C66.896 44 66 43.104 66 42C66 40.896 66.896 40 68 40C69.104 40 70 40.896 70 42C70 43.104 69.104 44 68 44ZM68 32C66.896 32 66 31.104 66 30C66 28.896 66.896 28 68 28C69.104 28 70 28.896 70 30C70 31.104 69.104 32 68 32Z" fill="#BCC1C5"/>
<path d="M18 16H82V80H18V16ZM18 80H82V16H18V80ZM40 56C38.896 56 38 56.896 38 58C38 59.104 38.896 60 40 60C41.104 60 42 59.104 42 58C42 56.896 41.104 56 40 56Z" fill="#34A853"/>
<path d="M18 16H82V80H18V16ZM18 80H82V16H18V80ZM40 49C35.029 49 31 53.029 31 58C31 62.971 35.029 67 40 67C44.97 67 49 62.971 49 58C49 53.029 44.97 49 40 49ZM40 66C35.589 66 32 62.411 32 58C32 53.589 35.589 50 40 50C44.411 50 48 53.589 48 58C48 62.411 44.411 66 40 66Z" fill="#BCC1C5"/>
</g>
</g>
<defs>
<filter id="filter0_d_1_569" x="0" y="0" width="100" height="100" filterUnits="userSpaceOnUse" color-interpolation-filters="sRGB">
<feFlood flood-opacity="0" result="BackgroundImageFix"/>
<feColorMatrix in="SourceAlpha" type="matrix" values="0 0 0 0 0 0 0 0 0 0 0 0 0 0 0 0 0 0 127 0" result="hardAlpha"/>
<feOffset dy="2"/>
<feGaussianBlur stdDeviation="5"/>
<feColorMatrix type="matrix" values="0 0 0 0 0 0 0 0 0 0 0 0 0 0 0 0 0 0 0.5 0"/>
<feBlend mode="normal" in2="BackgroundImageFix" result="effect1_dropShadow_1_569"/>
<feBlend mode="normal" in="SourceGraphic" in2="effect1_dropShadow_1_569" result="shape"/>
</filter>
<clipPath id="clip0_1_569">
<rect width="100" height="100" fill="white"/>
</clipPath>
</defs>
</svg>
