<svg width="100" height="100" viewBox="0 0 100 100" fill="none" xmlns="http://www.w3.org/2000/svg">
<g clip-path="url(#clip0_21_425)">
<g filter="url(#filter0_d_21_425)">
<path d="M80 8H20C14.4772 8 10 12.4772 10 18V78C10 83.5229 14.4772 88 20 88H80C85.5229 88 90 83.5229 90 78V18C90 12.4772 85.5229 8 80 8Z" fill="#B9FFB7"/>
</g>
<rect x="18.2286" y="29" width="63.5143" height="36.7714" rx="2" fill="#BCC1C5"/>
<rect x="26.0286" y="65.7714" width="50.1429" height="2.22857" fill="#BCC1C5"/>
<rect x="16" y="65.7714" width="67.9714" height="1.11429" fill="#BCC1C5"/>
<ellipse cx="75.0571" cy="66.8857" rx="8.91429" ry="1.11429" fill="#BCC1C5"/>
<ellipse cx="24.9143" cy="66.8857" rx="8.91429" ry="1.11429" fill="#BCC1C5"/>
<line x1="39.9" y1="66.3857" x2="57.8428" y2="66.3857" stroke="#D9D9D9" stroke-linecap="round"/>
<line x1="39.4" y1="66.0786" x2="58.3428" y2="66.0786" stroke="#D9D9D9" stroke-width="0.5"/>
<rect x="19.3428" y="30.11" width="61.4095" height="34.5429" fill="white"/>
<path d="M33.4857 37.11V58.615" stroke="#4285F4" stroke-width="4" stroke-linecap="round"/>
<path d="M44.819 45.1821V50.5584" stroke="#EA4335" stroke-width="4" stroke-linecap="round"/>
<path d="M56.1524 39.8003V55.929" stroke="#FBBC04" stroke-width="4" stroke-linecap="round"/>
<path d="M67.4857 42.4919V53.2444" stroke="#34A853" stroke-width="4" stroke-linecap="round"/>
</g>
<defs>
<filter id="filter0_d_21_425" x="0" y="-2" width="100" height="100" filterUnits="userSpaceOnUse" color-interpolation-filters="sRGB">
<feFlood flood-opacity="0" result="BackgroundImageFix"/>
<feColorMatrix in="SourceAlpha" type="matrix" values="0 0 0 0 0 0 0 0 0 0 0 0 0 0 0 0 0 0 127 0" result="hardAlpha"/>
<feOffset/>
<feGaussianBlur stdDeviation="5"/>
<feComposite in2="hardAlpha" operator="out"/>
<feColorMatrix type="matrix" values="0 0 0 0 0 0 0 0 0 0 0 0 0 0 0 0 0 0 0.4 0"/>
<feBlend mode="normal" in2="BackgroundImageFix" result="effect1_dropShadow_21_425"/>
<feBlend mode="normal" in="SourceGraphic" in2="effect1_dropShadow_21_425" result="shape"/>
</filter>
<clipPath id="clip0_21_425">
<rect width="100" height="100" fill="white"/>
</clipPath>
</defs>
</svg>
