<svg width="100" height="100" viewBox="0 0 100 100" fill="none" xmlns="http://www.w3.org/2000/svg">
<g clip-path="url(#clip0_1_916)">
<g filter="url(#filter0_d_1_916)">
<path d="M80 8H20C14.4772 8 10 12.4772 10 18V78C10 83.5229 14.4772 88 20 88H80C85.5229 88 90 83.5229 90 78V18C90 12.4772 85.5229 8 80 8Z" fill="white"/>
<path d="M72.8572 27.9996C75.693 27.9996 78 30.3067 78 33.1424V62.8566C78 65.6924 75.693 67.9995 72.8572 67.9995H27.1428C24.3071 67.9995 22 65.6924 22 62.8566V33.1424C22 30.3067 24.3071 27.9996 27.1428 27.9996H72.8572ZM72.8571 26.8566H27.1428C23.6713 26.8566 20.8571 29.6709 20.8571 33.1424V62.8566C20.8571 66.3281 23.6713 69.1423 27.1428 69.1423H72.8571C76.3286 69.1423 79.1429 66.3281 79.1429 62.8566V33.1424C79.1429 29.6709 76.3286 26.8566 72.8571 26.8566Z" fill="#BCC1C5"/>
<path d="M72.0001 31.9996C73.1029 31.9996 74.0001 32.8968 74.0001 33.9996V61.9995C74.0001 63.1023 73.1029 63.9995 72.0001 63.9995H28.0001C26.8973 63.9995 26.0001 63.1023 26.0001 61.9995V33.9996C26.0001 32.8968 26.8973 31.9996 28.0001 31.9996H72.0001ZM72.0001 30.8566H28.0001C26.2644 30.8566 24.8572 32.2638 24.8572 33.9996V61.9995C24.8572 63.7352 26.2644 65.1423 28.0001 65.1423H72.0001C73.7358 65.1423 75.143 63.7352 75.143 61.9995V33.9996C75.143 32.2638 73.7358 30.8566 72.0001 30.8566Z" fill="#BCC1C5"/>
<path d="M68.0001 74.2853H32.0001C30.2644 74.2853 28.8572 72.8782 28.8572 71.1424V68.5709H71.143V71.1424C71.143 72.8782 69.7358 74.2853 68.0001 74.2853Z" fill="#BCC1C5"/>
<path d="M38.0001 40.409V55.589" stroke="#4285F4" stroke-width="4" stroke-linecap="round"/>
<path d="M46.0001 46.107V49.902" stroke="#EA4335" stroke-width="4" stroke-linecap="round"/>
<path d="M54.0001 42.308V53.693" stroke="#FBBC04" stroke-width="4" stroke-linecap="round"/>
<path d="M62.0001 44.208V51.798" stroke="#34A853" stroke-width="4" stroke-linecap="round"/>
</g>
</g>
<defs>
<filter id="filter0_d_1_916" x="0" y="0" width="100" height="100" filterUnits="userSpaceOnUse" color-interpolation-filters="sRGB">
<feFlood flood-opacity="0" result="BackgroundImageFix"/>
<feColorMatrix in="SourceAlpha" type="matrix" values="0 0 0 0 0 0 0 0 0 0 0 0 0 0 0 0 0 0 127 0" result="hardAlpha"/>
<feOffset dy="2"/>
<feGaussianBlur stdDeviation="5"/>
<feColorMatrix type="matrix" values="0 0 0 0 0 0 0 0 0 0 0 0 0 0 0 0 0 0 0.5 0"/>
<feBlend mode="normal" in2="BackgroundImageFix" result="effect1_dropShadow_1_916"/>
<feBlend mode="normal" in="SourceGraphic" in2="effect1_dropShadow_1_916" result="shape"/>
</filter>
<clipPath id="clip0_1_916">
<rect width="100" height="100" fill="white"/>
</clipPath>
</defs>
</svg>
