<svg width="100" height="100" viewBox="0 0 100 100" fill="none" xmlns="http://www.w3.org/2000/svg">
<g clip-path="url(#clip0_16_30)">
<g filter="url(#filter0_d_16_30)">
<path d="M80 8H20C14.4772 8 10 12.4772 10 18V78C10 83.5229 14.4772 88 20 88H80C85.5229 88 90 83.5229 90 78V18C90 12.4772 85.5229 8 80 8Z" fill="#FFC7C7"/>
</g>
<path d="M67.0587 27.4145C67.0587 27.4145 56.7809 27.0512 55.3942 31.5931C59.6766 33.7733 62.7355 38.8603 62.7355 44.8557C62.7355 52.8496 57.2295 59.39 50.5 59.39C43.7705 59.39 38.2645 52.8496 38.2645 44.8557C38.2645 38.8603 41.3234 33.7733 45.6058 31.5931C44.2191 27.0512 33.9413 27.4145 33.9413 27.4145C37.9382 23.7809 44.3823 27.0057 47.4411 27.9141C47.4411 25.9157 37.3672 21.9187 37.3672 21.9187C40.63 19.3752 47.2776 23.2359 48.2161 24.9164C48.7871 22.4184 50.5 19.4207 50.5 19.4207C50.5 19.4207 52.213 22.4184 52.784 24.9164C53.7224 23.2359 60.37 19.3752 63.6328 21.9187C63.6328 21.9187 53.5589 25.9157 53.5589 27.9141C56.6178 27.0057 63.0618 23.7809 67.0587 27.4145Z" fill="#EA4335"/>
<path d="M57.4335 50.3061C57.8413 49.5794 58.0452 48.8526 58.2492 48.1259L55.5981 44.8557L58.4531 41.7672C58.2492 41.0404 57.8413 40.3137 57.6374 39.587L54.5785 43.0389L51.5196 39.4053L54.7824 35.5901C54.3746 35.045 53.7628 34.6817 53.151 34.5L50.5 37.5885L47.849 34.5C47.2372 34.6817 46.6254 35.045 46.2176 35.5901L49.4804 39.4053L46.4215 43.0389L43.3626 39.587C43.1587 40.3137 42.7508 41.0404 42.5469 41.7672L45.4019 44.8557L42.7508 48.1259C42.9548 48.8526 43.1587 49.5794 43.5665 50.3061L46.4215 46.6725L49.4804 50.3061L46.2176 54.1213C46.8293 54.4847 47.2372 54.848 47.849 55.2114L50.5 52.1228L53.151 55.2114C53.7628 54.848 54.1706 54.4847 54.7824 54.1213L51.5196 50.3061L54.5785 46.6725L57.4335 50.3061Z" fill="#FFC7C7"/>
<path d="M50.5 41.2221L47.4411 44.8557L50.5 48.4893L53.5589 44.8557L50.5 41.2221Z" fill="#EA4335"/>
<rect x="48.787" y="58.248" width="3.42595" height="5.70991" fill="#EA4335"/>
<path d="M60.8488 44.9012C60.8488 52.1824 56.1193 57.8908 50.5 57.8908C44.8807 57.8908 40.1512 52.1824 40.1512 44.9012C40.1512 37.62 44.8807 31.9115 50.5 31.9115C56.1193 31.9115 60.8488 37.62 60.8488 44.9012Z" stroke="#FFC7C7"/>
<path d="M72.7686 68.6428C72.7686 68.6428 58.9467 67.9161 57.0819 77.0001H43.9181C42.0533 67.9161 28.2314 68.6428 28.2314 68.6428C33.6065 61.3757 42.2727 67.8253 46.3863 69.6421C46.3863 65.6451 32.8387 57.6513 32.8387 57.6513C37.2266 52.5642 47.525 60.2856 48.787 63.6467H52.213C53.475 60.2856 63.7734 52.5643 68.1613 57.6513C68.1613 57.6513 54.6137 65.6451 54.6137 69.6421C58.7273 67.8253 67.3934 61.3757 72.7686 68.6428Z" fill="#EA4335"/>
</g>
<defs>
<filter id="filter0_d_16_30" x="0" y="-2" width="100" height="100" filterUnits="userSpaceOnUse" color-interpolation-filters="sRGB">
<feFlood flood-opacity="0" result="BackgroundImageFix"/>
<feColorMatrix in="SourceAlpha" type="matrix" values="0 0 0 0 0 0 0 0 0 0 0 0 0 0 0 0 0 0 127 0" result="hardAlpha"/>
<feOffset/>
<feGaussianBlur stdDeviation="5"/>
<feComposite in2="hardAlpha" operator="out"/>
<feColorMatrix type="matrix" values="0 0 0 0 0 0 0 0 0 0 0 0 0 0 0 0 0 0 0.4 0"/>
<feBlend mode="normal" in2="BackgroundImageFix" result="effect1_dropShadow_16_30"/>
<feBlend mode="normal" in="SourceGraphic" in2="effect1_dropShadow_16_30" result="shape"/>
</filter>
<clipPath id="clip0_16_30">
<rect width="100" height="100" fill="white"/>
</clipPath>
</defs>
</svg>
