<svg width="100" height="100" viewBox="0 0 100 100" fill="none" xmlns="http://www.w3.org/2000/svg">
<g clip-path="url(#clip0_1_527)">
<g filter="url(#filter0_d_1_527)">
<path d="M80 8H20C14.4772 8 10 12.4772 10 18V78C10 83.5229 14.4772 88 20 88H80C85.5229 88 90 83.5229 90 78V18C90 12.4772 85.5229 8 80 8Z" fill="white"/>
<path d="M64.8276 22H25.1724C22.3164 22 20 24.3164 20 27.1724V53.0345C20 55.8905 22.3164 58.2069 25.1724 58.2069H44.5638V62.5172H32.069V63.3793H44.5638H45.4259H57.931V62.5172H45.4259V58.2069H64.8276C67.6845 58.2069 70 55.8905 70 53.0345V27.1724C70 24.3164 67.6845 22 64.8276 22ZM20.8621 53.0345V27.1724C20.8621 24.7957 22.7957 22.8621 25.1724 22.8621H64.8276C67.2043 22.8621 69.1379 24.7957 69.1379 27.1724V53.0345H20.8621Z" fill="#BCC1C5"/>
<path d="M35.0001 32.0956V44.8468" stroke="#4285F4" stroke-width="4" stroke-linecap="round"/>
<path d="M41.7201 36.8819V40.0697" stroke="#EA4335" stroke-width="4" stroke-linecap="round"/>
<path d="M48.4401 33.6907V43.2541" stroke="#FBBC04" stroke-width="4" stroke-linecap="round"/>
<path d="M55.1601 35.2867V41.6623" stroke="#34A853" stroke-width="4" stroke-linecap="round"/>
<path d="M81 35H67C65.8954 35 65 35.8954 65 37V73C65 74.1046 65.8954 75 67 75H81C82.1046 75 83 74.1046 83 73V37C83 35.8954 82.1046 35 81 35Z" fill="#BCC1C5" stroke="white" stroke-width="2"/>
<path d="M78.5 40H69.5C68.3954 40 67.5 40.8954 67.5 42C67.5 43.1046 68.3954 44 69.5 44H78.5C79.6046 44 80.5 43.1046 80.5 42C80.5 40.8954 79.6046 40 78.5 40Z" fill="white"/>
<path d="M78.5 46H69.5C68.3954 46 67.5 46.8954 67.5 48C67.5 49.1046 68.3954 50 69.5 50H78.5C79.6046 50 80.5 49.1046 80.5 48C80.5 46.8954 79.6046 46 78.5 46Z" fill="white"/>
<path d="M76 62C76 60.8954 75.1046 60 74 60C72.8954 60 72 60.8954 72 62C72 63.1046 72.8954 64 74 64C75.1046 64 76 63.1046 76 62Z" stroke="white" stroke-width="2"/>
</g>
</g>
<defs>
<filter id="filter0_d_1_527" x="0" y="0" width="100" height="100" filterUnits="userSpaceOnUse" color-interpolation-filters="sRGB">
<feFlood flood-opacity="0" result="BackgroundImageFix"/>
<feColorMatrix in="SourceAlpha" type="matrix" values="0 0 0 0 0 0 0 0 0 0 0 0 0 0 0 0 0 0 127 0" result="hardAlpha"/>
<feOffset dy="2"/>
<feGaussianBlur stdDeviation="5"/>
<feColorMatrix type="matrix" values="0 0 0 0 0 0 0 0 0 0 0 0 0 0 0 0 0 0 0.5 0"/>
<feBlend mode="normal" in2="BackgroundImageFix" result="effect1_dropShadow_1_527"/>
<feBlend mode="normal" in="SourceGraphic" in2="effect1_dropShadow_1_527" result="shape"/>
</filter>
<clipPath id="clip0_1_527">
<rect width="100" height="100" fill="white"/>
</clipPath>
</defs>
</svg>
