<svg width="100" height="100" viewBox="0 0 100 100" fill="none" xmlns="http://www.w3.org/2000/svg">
<g clip-path="url(#clip0_1_1289)">
<g filter="url(#filter0_d_1_1289)">
<path d="M80 8H20C14.4772 8 10 12.4772 10 18V78C10 83.5229 14.4772 88 20 88H80C85.5229 88 90 83.5229 90 78V18C90 12.4772 85.5229 8 80 8Z" fill="white"/>
<path d="M52 56.598H55.118V55.596H52V56.598Z" fill="#BCC1C5"/>
<path d="M44.882 56.598H48V55.596H44.882V56.598Z" fill="#BCC1C5"/>
<path d="M49.5 54.098H50.5V50.98H49.5V54.098Z" fill="#BCC1C5"/>
<path d="M49.5 61.216H50.5V58.098H49.5V61.216Z" fill="#BCC1C5"/>
<path d="M43.461 30.804C42.361 30.804 41.461 29.904 41.461 28.804C41.461 27.704 42.361 26.804 43.461 26.804C44.561 26.804 45.461 27.704 45.461 28.804C45.461 29.904 44.561 30.804 43.461 30.804Z" fill="#EA4335"/>
<path d="M50 30.804C48.9 30.804 48 29.904 48 28.804C48 27.704 48.9 26.804 50 26.804C51.1 26.804 52 27.704 52 28.804C52 29.904 51.1 30.804 50 30.804Z" fill="#BCC1C5"/>
<path d="M56.539 30.804C55.439 30.804 54.539 29.904 54.539 28.804C54.539 27.704 55.439 26.804 56.539 26.804C57.64 26.804 58.539 27.704 58.539 28.804C58.539 29.904 57.64 30.804 56.539 30.804Z" fill="#BCC1C5"/>
<path d="M43.461 69.471C42.361 69.471 41.461 68.571 41.461 67.471C41.461 66.37 42.361 65.471 43.461 65.471C44.561 65.471 45.461 66.37 45.461 67.471C45.461 68.571 44.561 69.471 43.461 69.471Z" fill="#BCC1C5"/>
<path d="M50 69.471C48.9 69.471 48 68.571 48 67.471C48 66.37 48.9 65.471 50 65.471C51.1 65.471 52 66.37 52 67.471C52 68.571 51.1 69.471 50 69.471Z" fill="#BCC1C5"/>
<path d="M56.539 69.471C55.439 69.471 54.539 68.571 54.539 67.471C54.539 66.37 55.439 65.471 56.539 65.471C57.64 65.471 58.539 66.37 58.539 67.471C58.539 68.571 57.64 69.471 56.539 69.471Z" fill="#BCC1C5"/>
<path d="M55.402 19C58.299 19 60.657 21.357 60.657 24.255V69.745C60.657 72.643 58.299 75 55.402 75H44.598C41.7 75 39.343 72.643 39.343 69.745V24.255C39.343 21.357 41.7 19 44.598 19H55.402ZM55.402 18H44.598C41.143 18 38.343 20.8 38.343 24.255V69.745C38.343 73.199 41.143 76 44.598 76H55.402C58.856 76 61.657 73.199 61.657 69.745V24.255C61.657 20.8 58.856 18 55.402 18Z" fill="#BCC1C5"/>
<path d="M52.843 24.471H47.157V23.471H52.843V24.471Z" fill="#BCC1C5"/>
<path d="M58.431 33.813H41.471V46.147H58.431V33.813Z" fill="#BCC1C5"/>
</g>
</g>
<defs>
<filter id="filter0_d_1_1289" x="0" y="0" width="100" height="100" filterUnits="userSpaceOnUse" color-interpolation-filters="sRGB">
<feFlood flood-opacity="0" result="BackgroundImageFix"/>
<feColorMatrix in="SourceAlpha" type="matrix" values="0 0 0 0 0 0 0 0 0 0 0 0 0 0 0 0 0 0 127 0" result="hardAlpha"/>
<feOffset dy="2"/>
<feGaussianBlur stdDeviation="5"/>
<feColorMatrix type="matrix" values="0 0 0 0 0 0 0 0 0 0 0 0 0 0 0 0 0 0 0.5 0"/>
<feBlend mode="normal" in2="BackgroundImageFix" result="effect1_dropShadow_1_1289"/>
<feBlend mode="normal" in="SourceGraphic" in2="effect1_dropShadow_1_1289" result="shape"/>
</filter>
<clipPath id="clip0_1_1289">
<rect width="100" height="100" fill="white"/>
</clipPath>
</defs>
</svg>
