<svg width="100" height="100" viewBox="0 0 100 100" fill="none" xmlns="http://www.w3.org/2000/svg">
<g clip-path="url(#clip0_63_2)">
<g filter="url(#filter0_d_63_2)">
<path d="M80 8H20C14.4772 8 10 12.4772 10 18V78C10 83.5229 14.4772 88 20 88H80C85.5229 88 90 83.5229 90 78V18C90 12.4772 85.5229 8 80 8Z" fill="white"/>
</g>
<line x1="24" y1="19" x2="37" y2="19" stroke="#4285F4" stroke-width="2"/>
<line x1="37" y1="19" x2="50" y2="19" stroke="#EA4335" stroke-width="2"/>
<line x1="50" y1="19" x2="63" y2="19" stroke="#FBBC04" stroke-width="2"/>
<line x1="63" y1="19" x2="76" y2="19" stroke="#34A853" stroke-width="2"/>
<path d="M31.4286 73.413V25.587M35.1429 25.587V73.413M27.7143 25.587V73.413M25 22C25.9286 22 25.9286 23.1957 26.8571 23.1957C27.7857 23.1957 27.7857 22 28.7143 22C29.6429 22 29.6429 23.1957 30.5714 23.1957C31.5 23.1957 31.5 22 32.4286 22C33.3571 22 33.3571 23.1957 34.2857 23.1957C35.2143 23.1957 35.2143 22 36.1429 22C37.0714 22 38 23.1957 38 23.1957V50.0978V77C37.0714 77 37.0714 75.8043 36.1429 75.8043C35.2143 75.8043 35.2143 77 34.2857 77C33.3571 77 33.3571 75.8043 32.4286 75.8043C31.5 75.8043 31.5 77 30.5714 77C29.6429 77 29.6429 75.8043 28.7143 75.8043C27.7857 75.8043 27.7857 77 26.8571 77C25.9286 77 25 75.8043 25 75.8043C25 75.8043 25 65.0435 25 22Z" stroke="#BCC1C5" stroke-width="2"/>
</g>
<defs>
<filter id="filter0_d_63_2" x="0" y="0" width="100" height="100" filterUnits="userSpaceOnUse" color-interpolation-filters="sRGB">
<feFlood flood-opacity="0" result="BackgroundImageFix"/>
<feColorMatrix in="SourceAlpha" type="matrix" values="0 0 0 0 0 0 0 0 0 0 0 0 0 0 0 0 0 0 127 0" result="hardAlpha"/>
<feOffset dy="2"/>
<feGaussianBlur stdDeviation="5"/>
<feComposite in2="hardAlpha" operator="out"/>
<feColorMatrix type="matrix" values="0 0 0 0 0 0 0 0 0 0 0 0 0 0 0 0 0 0 0.5 0"/>
<feBlend mode="normal" in2="BackgroundImageFix" result="effect1_dropShadow_63_2"/>
<feBlend mode="normal" in="SourceGraphic" in2="effect1_dropShadow_63_2" result="shape"/>
</filter>
<clipPath id="clip0_63_2">
<rect width="100" height="100" fill="white"/>
</clipPath>
</defs>
</svg>
