<svg width="100" height="100" viewBox="0 0 100 100" fill="none" xmlns="http://www.w3.org/2000/svg">
<g clip-path="url(#clip0_6_1860)">
<g filter="url(#filter0_d_6_1860)">
<path d="M80 8H20C14.4772 8 10 12.4772 10 18V78C10 83.5229 14.4772 88 20 88H80C85.5229 88 90 83.5229 90 78V18C90 12.4772 85.5229 8 80 8Z" fill="#FFF9B8"/>
</g>
<path d="M42.818 69.4828C36.8542 68.5466 34.1224 61.762 37.5339 57.068C38.9063 55.1827 40.8557 53.6949 42.6128 52.1174C43.844 51.0145 44.8315 49.8987 44.4596 47.9877C43.0103 47.7953 41.8432 48.3725 40.8942 49.2702C37.6879 52.2713 34.8919 55.5802 33.6479 60.1845C31.7113 57.5297 30.2492 54.862 30.0697 51.784C30.0184 50.681 30.8135 49.3728 31.5446 48.4109C33.9942 45.1918 37.162 42.8704 41.0609 41.6648C41.497 41.5366 41.9971 41.4212 42.305 41.1134C42.7154 40.703 42.9719 40.1386 43.2925 39.6128C42.6897 39.3435 41.9843 38.715 41.5226 38.8689C40.2529 39.2922 38.9447 39.8565 37.9187 40.6773C36.1103 42.1266 34.5072 43.858 32.7501 45.3842C31.9293 46.1024 30.9418 46.6539 30.044 47.2951C29.8388 47.2438 29.6336 47.1925 29.4156 47.1541C29.5438 46.7693 29.7362 46.3974 29.7875 46.0126C30.2877 42.5113 30.6083 38.9587 31.2881 35.4831C31.8652 32.4948 33.199 29.8271 35.8282 27.9931C39.1628 25.6846 42.1382 25.7615 45.2548 28.3651C46.1782 29.1346 46.9605 30.0452 48.0507 31.1353C47.8839 23.4786 47.3834 27.2971 48.6916 20.3715C49.4053 19.2697 49.7275 19.1411 50.715 19.1796C49.099 25.7205 49.859 21.4523 49.3588 28.6216C50.2053 27.8777 50.7953 27.2877 51.4493 26.8132C55.8869 23.6069 61.5941 24.261 65.275 28.4805C68.5198 32.187 69.4304 36.7913 70.3025 41.5366C66.9679 40.0232 63.8385 38.5611 60.6579 37.176C59.5549 36.6886 58.375 36.3552 57.1951 36.073C56.8488 35.9833 56.169 36.1756 56.028 36.445C55.8869 36.7143 56.0921 37.3299 56.3614 37.6249C56.7462 38.061 57.272 38.4585 57.7978 38.7279C61.1581 40.3951 64.5055 42.0496 67.9041 43.6271C69.969 44.589 70.4692 45.6279 69.9305 47.8594C69.4047 50.0013 69.0841 52.1944 68.6608 54.3619C68.5582 54.9005 68.5454 55.5033 68.2761 55.9778C66.9423 58.3633 66.5575 60.8258 67.4937 63.5063C65.6084 60.4667 63.364 57.7862 60.3886 55.8624C58.6571 54.7466 56.7718 53.8104 54.8609 53.028C53.9118 52.6433 52.7575 52.7459 51.3596 52.6048C52.5395 55.3494 54.5274 56.6704 56.3871 58.1196C57.6696 59.12 59.0291 60.0178 60.286 61.0182C63.8385 63.8269 63.6975 67.0204 59.9268 69.4828C59.1702 69.983 58.3622 70.4319 57.5542 70.8295C54.8737 72.1761 52.9756 74.2795 51.7828 76.6008C49.7949 75.2285 47.8455 73.8434 45.8575 72.5224C43.7927 71.1501 43.2797 69.7393 44.2287 67.4564C45.1778 65.1735 46.2423 62.9291 47.2042 60.6334C47.6018 59.6972 48.3841 58.4018 47.1401 57.799C45.8704 57.1706 45.2035 58.5557 44.6648 59.4791C43.1642 62.0827 42.446 64.9042 42.4588 67.9181C42.4845 68.4055 42.6769 68.9057 42.818 69.4828ZM55.6432 45.397C55.5534 45.5637 55.4893 45.7305 55.4124 45.8844C57.6183 46.8591 59.8114 47.8466 62.0174 48.8213C62.0687 48.6931 62.12 48.5905 62.1841 48.4751C60.209 46.9873 58.1441 45.7176 55.6432 45.397Z" fill="#FBBC03"/>
</g>
<defs>
<filter id="filter0_d_6_1860" x="0" y="-2" width="100" height="100" filterUnits="userSpaceOnUse" color-interpolation-filters="sRGB">
<feFlood flood-opacity="0" result="BackgroundImageFix"/>
<feColorMatrix in="SourceAlpha" type="matrix" values="0 0 0 0 0 0 0 0 0 0 0 0 0 0 0 0 0 0 127 0" result="hardAlpha"/>
<feOffset/>
<feGaussianBlur stdDeviation="5"/>
<feComposite in2="hardAlpha" operator="out"/>
<feColorMatrix type="matrix" values="0 0 0 0 0 0 0 0 0 0 0 0 0 0 0 0 0 0 0.4 0"/>
<feBlend mode="normal" in2="BackgroundImageFix" result="effect1_dropShadow_6_1860"/>
<feBlend mode="normal" in="SourceGraphic" in2="effect1_dropShadow_6_1860" result="shape"/>
</filter>
<clipPath id="clip0_6_1860">
<rect width="100" height="100" fill="white"/>
</clipPath>
</defs>
</svg>
