<svg width="100" height="100" viewBox="0 0 100 100" fill="none" xmlns="http://www.w3.org/2000/svg">
<g clip-path="url(#clip0_1_1007)">
<g filter="url(#filter0_d_1_1007)">
<path d="M80 8H20C14.4772 8 10 12.4772 10 18V78C10 83.5229 14.4772 88 20 88H80C85.5229 88 90 83.5229 90 78V18C90 12.4772 85.5229 8 80 8Z" fill="white"/>
<path d="M39.032 76.968H61.032V75.968H39.032V76.968Z" fill="#BCC1C5"/>
<path d="M59.031 18.969H41.031C35.5081 18.969 31.031 23.446 31.031 28.969V62.969C31.031 68.4919 35.5081 72.969 41.031 72.969H59.031C64.5539 72.969 69.031 68.4919 69.031 62.969V28.969C69.031 23.446 64.5539 18.969 59.031 18.969ZM68.031 62.969C68.031 67.9316 63.9936 71.969 59.031 71.969H41.031C36.0684 71.969 32.031 67.9316 32.031 62.969V28.969C32.031 24.0064 36.0684 19.969 41.031 19.969H59.031C63.9936 19.969 68.031 24.0064 68.031 28.969V62.969Z" fill="#BCC1C5"/>
<path d="M62.0501 42.158V49.748" stroke="#34A853" stroke-width="4" stroke-linecap="round"/>
<path d="M54.0501 40.258V51.643" stroke="#FBBC04" stroke-width="4" stroke-linecap="round"/>
<path d="M46.0501 44.057V47.852" stroke="#EA4335" stroke-width="4" stroke-linecap="round"/>
<path d="M38.0501 38.359V53.539" stroke="#4285F4" stroke-width="4" stroke-linecap="round"/>
</g>
</g>
<defs>
<filter id="filter0_d_1_1007" x="0" y="0" width="100" height="100" filterUnits="userSpaceOnUse" color-interpolation-filters="sRGB">
<feFlood flood-opacity="0" result="BackgroundImageFix"/>
<feColorMatrix in="SourceAlpha" type="matrix" values="0 0 0 0 0 0 0 0 0 0 0 0 0 0 0 0 0 0 127 0" result="hardAlpha"/>
<feOffset dy="2"/>
<feGaussianBlur stdDeviation="5"/>
<feColorMatrix type="matrix" values="0 0 0 0 0 0 0 0 0 0 0 0 0 0 0 0 0 0 0.5 0"/>
<feBlend mode="normal" in2="BackgroundImageFix" result="effect1_dropShadow_1_1007"/>
<feBlend mode="normal" in="SourceGraphic" in2="effect1_dropShadow_1_1007" result="shape"/>
</filter>
<clipPath id="clip0_1_1007">
<rect width="100" height="100" fill="white"/>
</clipPath>
</defs>
</svg>
