<svg width="100" height="100" viewBox="0 0 100 100" fill="none" xmlns="http://www.w3.org/2000/svg">
<g clip-path="url(#clip0_1_1407)">
<g filter="url(#filter0_d_1_1407)">
<path d="M80 8H20C14.4772 8 10 12.4772 10 18V78C10 83.5229 14.4772 88 20 88H80C85.5229 88 90 83.5229 90 78V18C90 12.4772 85.5229 8 80 8Z" fill="white"/>
<path d="M78.5715 40H78H70.5714V44.5714H78H78.5715H79.1429V40H78.5715Z" fill="#BCC1C5"/>
<path d="M21.4286 40H20.8572V44.5714H21.4286H22H29.4286V40H22H21.4286Z" fill="#BCC1C5"/>
<path d="M78.5715 51.4285H78H70.5714V56H78H78.5715H79.1429V51.4285H78.5715Z" fill="#BCC1C5"/>
<path d="M21.4286 51.4285H20.8572V56H21.4286H22H29.4286V51.4285H22H21.4286Z" fill="#BCC1C5"/>
<path d="M78.5715 45.7143H78H70.5714V50.2857H78H78.5715H79.1429V45.7143H78.5715Z" fill="#BCC1C5"/>
<path d="M21.4286 45.7143H20.8572V50.2857H21.4286H22H29.4286V45.7143H22H21.4286Z" fill="#BCC1C5"/>
<path d="M78 34.2857H22H21.4286V38.8571H22H29.4286V35.4286H70.5714V38.8571H78H78.5714V34.2857H78Z" fill="#BCC1C5"/>
<path d="M78 57.1427H70.5714V60.5713H29.4286V57.1427H22H21.4286V61.7143H22H78H78.5714V57.1427H78Z" fill="#BCC1C5"/>
<path d="M72.8572 26.8571H27.1428C23.6713 26.8571 20.8572 29.6713 20.8572 33.1428V38.8571H21.4285H22V34.2857V33.1428C22 30.3071 24.3071 28 27.1428 28H72.8572C75.693 28 78 30.3071 78 33.1428V34.2857V38.8571H78.5714H79.1429V33.1428C79.1429 29.6713 76.3287 26.8571 72.8572 26.8571Z" fill="#BCC1C5"/>
<path d="M78.5714 57.1428H78V61.7143V62.8572C78 65.693 75.693 68 72.8571 68H27.1429C24.3071 68 22 65.693 22 62.8572V61.7143V57.1428H21.4286H20.8571V62.8572C20.8571 66.3286 23.6714 69.1429 27.1429 69.1429H72.8571C76.3286 69.1429 79.1429 66.3286 79.1429 62.8572V57.1428H78.5714Z" fill="#BCC1C5"/>
<path d="M38.0001 40.409V55.589" stroke="#4285F4" stroke-width="4" stroke-linecap="round"/>
<path d="M46.0001 46.107V49.902" stroke="#EA4335" stroke-width="4" stroke-linecap="round"/>
<path d="M54.0001 42.308V53.693" stroke="#FBBC04" stroke-width="4" stroke-linecap="round"/>
<path d="M62.0001 44.208V51.798" stroke="#34A853" stroke-width="4" stroke-linecap="round"/>
</g>
</g>
<defs>
<filter id="filter0_d_1_1407" x="0" y="0" width="100" height="100" filterUnits="userSpaceOnUse" color-interpolation-filters="sRGB">
<feFlood flood-opacity="0" result="BackgroundImageFix"/>
<feColorMatrix in="SourceAlpha" type="matrix" values="0 0 0 0 0 0 0 0 0 0 0 0 0 0 0 0 0 0 127 0" result="hardAlpha"/>
<feOffset dy="2"/>
<feGaussianBlur stdDeviation="5"/>
<feColorMatrix type="matrix" values="0 0 0 0 0 0 0 0 0 0 0 0 0 0 0 0 0 0 0.5 0"/>
<feBlend mode="normal" in2="BackgroundImageFix" result="effect1_dropShadow_1_1407"/>
<feBlend mode="normal" in="SourceGraphic" in2="effect1_dropShadow_1_1407" result="shape"/>
</filter>
<clipPath id="clip0_1_1407">
<rect width="100" height="100" fill="white"/>
</clipPath>
</defs>
</svg>
