<svg width="100" height="100" viewBox="0 0 100 100" fill="none" xmlns="http://www.w3.org/2000/svg">
<g clip-path="url(#clip0_1_722)">
<g filter="url(#filter0_d_1_722)">
<path d="M80 8H20C14.4772 8 10 12.4772 10 18V78C10 83.5229 14.4772 88 20 88H80C85.5229 88 90 83.5229 90 78V18C90 12.4772 85.5229 8 80 8Z" fill="white"/>
<path d="M18 16H82V80H18V16ZM18 80H82V16H18V80ZM65 19H35C31.686 19 29 21.686 29 25V71C29 74.313 31.686 77 35 77H65C68.313 77 71 74.313 71 71V25C71 21.686 68.313 19 65 19ZM70 71C70 73.757 67.757 76 65 76H35C32.243 76 30 73.757 30 71V25C30 22.243 32.243 20 35 20H65C67.757 20 70 22.243 70 25V71Z" fill="#BCC1C5"/>
<path d="M18 16H82V80H18V16ZM18 80H82V16H18V80ZM38 69C36.896 69 36 69.896 36 71C36 72.104 36.896 73 38 73C39.104 73 40 72.104 40 71C40 69.896 39.104 69 38 69Z" fill="#BCC1C5"/>
<path d="M18 16H82V80H18V16ZM18 80H82V16H18V80ZM46 69C44.896 69 44 69.896 44 71C44 72.104 44.896 73 46 73C47.104 73 48 72.104 48 71C48 69.896 47.104 69 46 69Z" fill="#BCC1C5"/>
<path d="M18 16H82V80H18V16ZM18 80H82V16H18V80ZM54 69C52.896 69 52 69.896 52 71C52 72.104 52.896 73 54 73C55.104 73 56 72.104 56 71C56 69.896 55.104 69 54 69Z" fill="#BCC1C5"/>
<path d="M18 16H82V80H18V16ZM18 80H82V16H18V80ZM62 69C60.896 69 60 69.896 60 71C60 72.104 60.896 73 62 73C63.104 73 64 72.104 64 71C64 69.896 63.104 69 62 69Z" fill="#BCC1C5"/>
<path d="M18 16H82V80H18V16ZM18 80H82V16H18V80ZM50 34C51.654 34 53 32.654 53 31C53 29.346 51.654 28 50 28C48.346 28 47 29.346 47 31C47 32.654 48.346 34 50 34Z" fill="#BCC1C5"/>
<path d="M18 16H82V80H18V16ZM18 80H82V16H18V80ZM50 39C54.418 39 58 35.418 58 31C58 26.582 54.418 23 50 23C45.582 23 42 26.582 42 31C42 35.418 45.582 39 50 39ZM50 27C52.209 27 54 28.791 54 31C54 33.209 52.209 35 50 35C47.791 35 46 33.209 46 31C46 28.791 47.791 27 50 27Z" fill="#BCC1C5"/>
<path d="M18 16H82V80H18V16ZM18 80H82V16H18V80ZM50 43C43.925 43 39 47.925 39 54C39 60.075 43.925 65 50 65C56.075 65 61 60.075 61 54C61 47.925 56.075 43 50 43ZM50 59C47.238 59 45 56.761 45 54C45 51.238 47.238 49 50 49C52.761 49 55 51.238 55 54C55 56.761 52.761 59 50 59Z" fill="#BCC1C5"/>
<path d="M18 16H82V80H18V16ZM18 80H82V16H18V80ZM50 50C47.794 50 46 51.794 46 54C46 56.206 47.794 58 50 58C52.206 58 54 56.206 54 54C54 51.794 52.206 50 50 50Z" fill="#BCC1C5"/>
</g>
</g>
<defs>
<filter id="filter0_d_1_722" x="0" y="0" width="100" height="100" filterUnits="userSpaceOnUse" color-interpolation-filters="sRGB">
<feFlood flood-opacity="0" result="BackgroundImageFix"/>
<feColorMatrix in="SourceAlpha" type="matrix" values="0 0 0 0 0 0 0 0 0 0 0 0 0 0 0 0 0 0 127 0" result="hardAlpha"/>
<feOffset dy="2"/>
<feGaussianBlur stdDeviation="5"/>
<feColorMatrix type="matrix" values="0 0 0 0 0 0 0 0 0 0 0 0 0 0 0 0 0 0 0.5 0"/>
<feBlend mode="normal" in2="BackgroundImageFix" result="effect1_dropShadow_1_722"/>
<feBlend mode="normal" in="SourceGraphic" in2="effect1_dropShadow_1_722" result="shape"/>
</filter>
<clipPath id="clip0_1_722">
<rect width="100" height="100" fill="white"/>
</clipPath>
</defs>
</svg>
