<svg width="100" height="100" viewBox="0 0 100 100" fill="none" xmlns="http://www.w3.org/2000/svg">
<g clip-path="url(#clip0_1_993)">
<g filter="url(#filter0_d_1_993)">
<path d="M80 8H20C14.4772 8 10 12.4772 10 18V78C10 83.5229 14.4772 88 20 88H80C85.5229 88 90 83.5229 90 78V18C90 12.4772 85.5229 8 80 8Z" fill="white"/>
<path d="M66 47.78V35C66 26.163 58.836 19 50 19C41.164 19 34 26.163 34 35V39.028L40 39.082V35C40 29.478 44.477 25 50 25C55.523 25 60 29.478 60 35V41.866C57.093 40.061 53.674 39 50 39C39.507 39 31 47.507 31 58C31 68.493 39.507 77 50 77C60.494 77 69 68.493 69 58C69 54.233 67.89 50.732 66 47.78ZM50 24C43.935 24 39 28.935 39 35V38.073L35 38.037V35C35 26.729 41.729 20 50 20C58.271 20 65 26.729 65 35V46.367C63.86 44.9 62.515 43.605 61 42.526V35C61 28.935 56.065 24 50 24ZM50 76C40.075 76 32 67.925 32 58C32 48.075 40.075 40 50 40C59.925 40 68 48.075 68 58C68 67.925 59.925 76 50 76Z" fill="#BCC1C5"/>
<path d="M50 43C41.716 43 35 49.716 35 58C35 66.284 41.716 73 50 73C58.284 73 65 66.284 65 58C65 49.716 58.284 43 50 43ZM50 72C42.28 72 36 65.72 36 58C36 50.28 42.28 44 50 44C57.72 44 64 50.28 64 58C64 65.72 57.72 72 50 72Z" fill="#BCC1C5"/>
<path d="M54 54.999C54 52.79 52.209 50.999 50 50.999C47.791 50.999 46 52.79 46 54.999C46 56.683 47.043 58.118 48.517 58.709L50 54.999L51.483 58.709C52.957 58.119 54 56.683 54 54.999Z" fill="#BCC1C5"/>
<path d="M48.517 58.709L46 65H54L51.484 58.709L50 55L48.517 58.709Z" fill="#BCC1C5"/>
</g>
</g>
<defs>
<filter id="filter0_d_1_993" x="0" y="0" width="100" height="100" filterUnits="userSpaceOnUse" color-interpolation-filters="sRGB">
<feFlood flood-opacity="0" result="BackgroundImageFix"/>
<feColorMatrix in="SourceAlpha" type="matrix" values="0 0 0 0 0 0 0 0 0 0 0 0 0 0 0 0 0 0 127 0" result="hardAlpha"/>
<feOffset dy="2"/>
<feGaussianBlur stdDeviation="5"/>
<feColorMatrix type="matrix" values="0 0 0 0 0 0 0 0 0 0 0 0 0 0 0 0 0 0 0.5 0"/>
<feBlend mode="normal" in2="BackgroundImageFix" result="effect1_dropShadow_1_993"/>
<feBlend mode="normal" in="SourceGraphic" in2="effect1_dropShadow_1_993" result="shape"/>
</filter>
<clipPath id="clip0_1_993">
<rect width="100" height="100" fill="white"/>
</clipPath>
</defs>
</svg>
