<svg width="100" height="100" viewBox="0 0 100 100" fill="none" xmlns="http://www.w3.org/2000/svg">
<g clip-path="url(#clip0_1_937)">
<g filter="url(#filter0_d_1_937)">
<path d="M80 8H20C14.4772 8 10 12.4772 10 18V78C10 83.5229 14.4772 88 20 88H80C85.5229 88 90 83.5229 90 78V18C90 12.4772 85.5229 8 80 8Z" fill="white"/>
<path d="M64 40C64 32.268 57.732 26 50 26C42.268 26 36 32.268 36 40H64Z" fill="#FABB04"/>
<path d="M50 19C38.402 19 29 28.402 29 40L42 68V69C42 73.418 45.582 77 50 77C54.418 77 58 73.418 58 69V68L71 40C71 28.402 61.598 19 50 19ZM64 40L51 68H56.897H57V69C57 72.859 53.859 76 50 76C46.141 76 43 72.859 43 69V68H43.103H49L36 40H30L29.952 39.069C30.44 28.434 39.246 19.931 50 19.931C60.754 19.931 69.512 28.364 70 39V40H64Z" fill="#BCC1C5"/>
<path d="M50 67.779L62.897 40.001H37.103L50 67.779Z" fill="#BCC1C5"/>
</g>
</g>
<defs>
<filter id="filter0_d_1_937" x="0" y="0" width="100" height="100" filterUnits="userSpaceOnUse" color-interpolation-filters="sRGB">
<feFlood flood-opacity="0" result="BackgroundImageFix"/>
<feColorMatrix in="SourceAlpha" type="matrix" values="0 0 0 0 0 0 0 0 0 0 0 0 0 0 0 0 0 0 127 0" result="hardAlpha"/>
<feOffset dy="2"/>
<feGaussianBlur stdDeviation="5"/>
<feColorMatrix type="matrix" values="0 0 0 0 0 0 0 0 0 0 0 0 0 0 0 0 0 0 0.5 0"/>
<feBlend mode="normal" in2="BackgroundImageFix" result="effect1_dropShadow_1_937"/>
<feBlend mode="normal" in="SourceGraphic" in2="effect1_dropShadow_1_937" result="shape"/>
</filter>
<clipPath id="clip0_1_937">
<rect width="100" height="100" fill="white"/>
</clipPath>
</defs>
</svg>
