<svg width="100" height="100" viewBox="0 0 100 100" fill="none" xmlns="http://www.w3.org/2000/svg">
<g clip-path="url(#clip0_1_31)">
<g filter="url(#filter0_d_1_31)">
<path d="M80 8H20C14.4772 8 10 12.4772 10 18V78C10 83.5229 14.4772 88 20 88H80C85.5229 88 90 83.5229 90 78V18C90 12.4772 85.5229 8 80 8Z" fill="white"/>
<mask id="mask0_1_31" style="mask-type:alpha" maskUnits="userSpaceOnUse" x="21" y="31" width="43" height="35">
<path d="M63.723 31.0363L21.6684 31.0453V65.8461L63.723 65.8371V31.0363Z" fill="white"/>
</mask>
<g mask="url(#mask0_1_31)">
<path d="M20.9576 51.2844V52.5844C27.3576 51.1844 33.5577 55.8844 32.7577 64.0844L33.7577 63.3844C34.3278 54.0328 26.949 50.5733 20.9576 51.2844Z" fill="#4285F4"/>
<path d="M21.1369 41.9913V42.9913C33.2369 41.8913 42.6369 51.1913 42.0369 63.2913H43.0369C43.5369 51.0913 35.1369 41.3913 21.1369 41.9913Z" fill="#4285F4"/>
<path d="M20.6369 33.1912L20.3369 34.1912C38.1234 32.0507 53.1369 47.4912 50.8369 64.9912L51.9369 63.8912C53.6369 49.2912 41.1369 31.2912 20.6369 33.1912Z" fill="#4285F4"/>
</g>
<path d="M73 27H27C23.6863 27 21 29.6863 21 33V63C21 66.3137 23.6863 69 27 69H49.4941V74H35V75H49.4941H50.4941H65V74H50.4941V69H73C76.3137 69 79 66.3137 79 63V33C79 29.6863 76.3137 27 73 27ZM50.5 63H49.5H41.5H40.5H32.5H31.5H22V53.5V52.5V44.5V43.5V35.5V34.5V33C22 30.2429 24.2431 28 27 28H73C75.7569 28 78 30.2429 78 33V63H50.5Z" fill="#BCC1C5"/>
<path d="M21 62.95C21 66.3189 23.6863 69.05 27 69.05H73C76.3137 69.05 79 66.3189 79 62.95H21ZM50.5 62.95H49.5H41.5H40.5H32.5H31.5H22H78H50.5Z" fill="#4285F4"/>
</g>
</g>
<defs>
<filter id="filter0_d_1_31" x="0" y="0" width="100" height="100" filterUnits="userSpaceOnUse" color-interpolation-filters="sRGB">
<feFlood flood-opacity="0" result="BackgroundImageFix"/>
<feColorMatrix in="SourceAlpha" type="matrix" values="0 0 0 0 0 0 0 0 0 0 0 0 0 0 0 0 0 0 127 0" result="hardAlpha"/>
<feOffset dy="2"/>
<feGaussianBlur stdDeviation="5"/>
<feColorMatrix type="matrix" values="0 0 0 0 0 0 0 0 0 0 0 0 0 0 0 0 0 0 0.5 0"/>
<feBlend mode="normal" in2="BackgroundImageFix" result="effect1_dropShadow_1_31"/>
<feBlend mode="normal" in="SourceGraphic" in2="effect1_dropShadow_1_31" result="shape"/>
</filter>
<clipPath id="clip0_1_31">
<rect width="100" height="100" fill="white"/>
</clipPath>
</defs>
</svg>
