<svg width="100" height="100" viewBox="0 0 100 100" fill="none" xmlns="http://www.w3.org/2000/svg">
<g clip-path="url(#clip0_1_470)">
<g filter="url(#filter0_d_1_470)">
<path d="M80 8H20C14.4772 8 10 12.4772 10 18V78C10 83.5229 14.4772 88 20 88H80C85.5229 88 90 83.5229 90 78V18C90 12.4772 85.5229 8 80 8Z" fill="white"/>
<path d="M38.0001 68.409V83.589" stroke="#4285F4" stroke-width="4" stroke-linecap="round"/>
<path d="M46.0001 74.107V77.902" stroke="#EA4335" stroke-width="4" stroke-linecap="round"/>
<path d="M54.0001 70.308V81.693" stroke="#FBBC04" stroke-width="4" stroke-linecap="round"/>
<path d="M62.0001 72.208V79.798" stroke="#34A853" stroke-width="4" stroke-linecap="round"/>
<path d="M69 76H31C28.2386 76 26 78.2386 26 81C26 83.7614 28.2386 86 31 86H69C71.7614 86 74 83.7614 74 81C74 78.2386 71.7614 76 69 76Z" fill="white"/>
<path d="M65 19H35C31.6863 19 29 21.6863 29 25V71C29 74.3137 31.6863 77 35 77H65C68.3137 77 71 74.3137 71 71V25C71 21.6863 68.3137 19 65 19ZM70 71C70 73.757 67.757 76 65 76H35C32.2429 76 30 73.757 30 71V25C30 22.2429 32.2429 20 35 20H65C67.757 20 70 22.2429 70 25V71Z" fill="#BCC1C5"/>
<path d="M18 16H82V80H18V16ZM18 80H82V16H18V80ZM50 34C51.654 34 53 32.654 53 31C53 29.346 51.654 28 50 28C48.346 28 47 29.346 47 31C47 32.654 48.346 34 50 34Z" fill="#BCC1C5"/>
<path d="M18 16H82V80H18V16ZM18 80H82V16H18V80ZM50 39C54.418 39 58 35.418 58 31C58 26.582 54.418 23 50 23C45.582 23 42 26.582 42 31C42 35.418 45.582 39 50 39ZM50 27C52.209 27 54 28.791 54 31C54 33.209 52.209 35 50 35C47.791 35 46 33.209 46 31C46 28.791 47.791 27 50 27Z" fill="#BCC1C5"/>
<path d="M18 16H82V80H18V16ZM18 80H82V16H18V80ZM50 43C43.925 43 39 47.925 39 54C39 60.075 43.925 65 50 65C56.075 65 61 60.075 61 54C61 47.925 56.075 43 50 43ZM50 59C47.238 59 45 56.761 45 54C45 51.238 47.238 49 50 49C52.761 49 55 51.238 55 54C55 56.761 52.761 59 50 59Z" fill="#BCC1C5"/>
<path d="M18 16H82V80H18V16ZM18 80H82V16H18V80ZM50 50C47.794 50 46 51.794 46 54C46 56.206 47.794 58 50 58C52.206 58 54 56.206 54 54C54 51.794 52.206 50 50 50Z" fill="#BCC1C5"/>
</g>
</g>
<defs>
<filter id="filter0_d_1_470" x="0" y="0" width="100" height="100" filterUnits="userSpaceOnUse" color-interpolation-filters="sRGB">
<feFlood flood-opacity="0" result="BackgroundImageFix"/>
<feColorMatrix in="SourceAlpha" type="matrix" values="0 0 0 0 0 0 0 0 0 0 0 0 0 0 0 0 0 0 127 0" result="hardAlpha"/>
<feOffset dy="2"/>
<feGaussianBlur stdDeviation="5"/>
<feColorMatrix type="matrix" values="0 0 0 0 0 0 0 0 0 0 0 0 0 0 0 0 0 0 0.5 0"/>
<feBlend mode="normal" in2="BackgroundImageFix" result="effect1_dropShadow_1_470"/>
<feBlend mode="normal" in="SourceGraphic" in2="effect1_dropShadow_1_470" result="shape"/>
</filter>
<clipPath id="clip0_1_470">
<rect width="100" height="100" fill="white"/>
</clipPath>
</defs>
</svg>
