<svg width="100" height="100" viewBox="0 0 100 100" fill="none" xmlns="http://www.w3.org/2000/svg">
<g clip-path="url(#clip0_1_1249)">
<g filter="url(#filter0_d_1_1249)">
<path d="M80 8H20C14.4772 8 10 12.4772 10 18V78C10 83.5229 14.4772 88 20 88H80C85.5229 88 90 83.5229 90 78V18C90 12.4772 85.5229 8 80 8Z" fill="white"/>
<path d="M50.813 25L60.626 34.813L50.813 44.626L41 34.813L50.813 25Z" fill="#DFE0E4"/>
<path d="M50.796 44.609L50.813 44.626L60.626 34.813L50.813 25L50.796 25.017V44.609Z" fill="#CED1D4"/>
<path d="M50.813 52L60.626 61.813L50.813 71.626L41 61.813L50.813 52Z" fill="#4FC26D"/>
<path d="M50.796 71.608L50.813 71.626L60.626 61.812L50.813 52L50.796 52.016V71.608Z" fill="#41B55F"/>
<path d="M64.812 38L74.625 47.813L64.812 57.626L54.999 47.813L64.812 38Z" fill="#DFE0E4"/>
<path d="M64.796 57.608L64.813 57.626L74.626 47.813L64.813 38L64.796 38.017V57.608Z" fill="#CED1D4"/>
<path d="M36.813 38L46.626 47.813L36.813 57.626L27 47.813L36.813 38Z" fill="#DFE0E4"/>
<path d="M36.796 57.608L36.813 57.626L46.626 47.813L36.813 38L36.796 38.017V57.608Z" fill="#CED1D4"/>
</g>
</g>
<defs>
<filter id="filter0_d_1_1249" x="0" y="0" width="100" height="100" filterUnits="userSpaceOnUse" color-interpolation-filters="sRGB">
<feFlood flood-opacity="0" result="BackgroundImageFix"/>
<feColorMatrix in="SourceAlpha" type="matrix" values="0 0 0 0 0 0 0 0 0 0 0 0 0 0 0 0 0 0 127 0" result="hardAlpha"/>
<feOffset dy="2"/>
<feGaussianBlur stdDeviation="5"/>
<feColorMatrix type="matrix" values="0 0 0 0 0 0 0 0 0 0 0 0 0 0 0 0 0 0 0.5 0"/>
<feBlend mode="normal" in2="BackgroundImageFix" result="effect1_dropShadow_1_1249"/>
<feBlend mode="normal" in="SourceGraphic" in2="effect1_dropShadow_1_1249" result="shape"/>
</filter>
<clipPath id="clip0_1_1249">
<rect width="100" height="100" fill="white"/>
</clipPath>
</defs>
</svg>
