<svg width="100" height="100" viewBox="0 0 100 100" fill="none" xmlns="http://www.w3.org/2000/svg">
<g clip-path="url(#clip0_1_548)">
<g filter="url(#filter0_d_1_548)">
<path d="M80 8H20C14.4772 8 10 12.4772 10 18V78C10 83.5229 14.4772 88 20 88H80C85.5229 88 90 83.5229 90 78V18C90 12.4772 85.5229 8 80 8Z" fill="white"/>
<path d="M64.8276 22H25.1724C22.3164 22 20 24.3164 20 27.1724V53.0345C20 55.8905 22.3164 58.2069 25.1724 58.2069H44.5638V62.5172H32.069V63.3793H44.5638H45.4259H57.931V62.5172H45.4259V58.2069H64.8276C67.6845 58.2069 70 55.8905 70 53.0345V27.1724C70 24.3164 67.6845 22 64.8276 22ZM20.8621 53.0345V27.1724C20.8621 24.7957 22.7957 22.8621 25.1724 22.8621H64.8276C67.2043 22.8621 69.1379 24.7957 69.1379 27.1724V53.0345H20.8621Z" fill="#BCC1C5"/>
<path d="M34.6552 38.3793C33.7034 38.3793 32.931 39.1517 32.931 40.1034C32.931 41.0552 33.7034 41.8276 34.6552 41.8276C35.6069 41.8276 36.3793 41.0552 36.3793 40.1034C36.3793 39.1517 35.6069 38.3793 34.6552 38.3793Z" fill="#BCC1C5"/>
<path d="M41.5517 38.3793C40.6 38.3793 39.8276 39.1517 39.8276 40.1034C39.8276 41.0552 40.6 41.8276 41.5517 41.8276C42.5034 41.8276 43.2759 41.0552 43.2759 40.1034C43.2759 39.1517 42.5034 38.3793 41.5517 38.3793Z" fill="#BCC1C5"/>
<path d="M48.4483 38.3793C47.4966 38.3793 46.7242 39.1517 46.7242 40.1034C46.7242 41.0552 47.4966 41.8276 48.4483 41.8276C49.4 41.8276 50.1724 41.0552 50.1724 40.1034C50.1724 39.1517 49.4 38.3793 48.4483 38.3793Z" fill="#BCC1C5"/>
<path d="M55.3448 38.3793C54.3931 38.3793 53.6207 39.1517 53.6207 40.1034C53.6207 41.0552 54.3931 41.8276 55.3448 41.8276C56.2966 41.8276 57.069 41.0552 57.069 40.1034C57.069 39.1517 56.2966 38.3793 55.3448 38.3793Z" fill="#BCC1C5"/>
<path d="M81 35H67C65.8954 35 65 35.8954 65 37V73C65 74.1046 65.8954 75 67 75H81C82.1046 75 83 74.1046 83 73V37C83 35.8954 82.1046 35 81 35Z" fill="#BCC1C5" stroke="white" stroke-width="2"/>
<path d="M78.5 40H69.5C68.3954 40 67.5 40.8954 67.5 42C67.5 43.1046 68.3954 44 69.5 44H78.5C79.6046 44 80.5 43.1046 80.5 42C80.5 40.8954 79.6046 40 78.5 40Z" fill="white"/>
<path d="M78.5 46H69.5C68.3954 46 67.5 46.8954 67.5 48C67.5 49.1046 68.3954 50 69.5 50H78.5C79.6046 50 80.5 49.1046 80.5 48C80.5 46.8954 79.6046 46 78.5 46Z" fill="white"/>
<path d="M76 62C76 60.8954 75.1046 60 74 60C72.8954 60 72 60.8954 72 62C72 63.1046 72.8954 64 74 64C75.1046 64 76 63.1046 76 62Z" stroke="white" stroke-width="2"/>
</g>
</g>
<defs>
<filter id="filter0_d_1_548" x="0" y="0" width="100" height="100" filterUnits="userSpaceOnUse" color-interpolation-filters="sRGB">
<feFlood flood-opacity="0" result="BackgroundImageFix"/>
<feColorMatrix in="SourceAlpha" type="matrix" values="0 0 0 0 0 0 0 0 0 0 0 0 0 0 0 0 0 0 127 0" result="hardAlpha"/>
<feOffset dy="2"/>
<feGaussianBlur stdDeviation="5"/>
<feColorMatrix type="matrix" values="0 0 0 0 0 0 0 0 0 0 0 0 0 0 0 0 0 0 0.5 0"/>
<feBlend mode="normal" in2="BackgroundImageFix" result="effect1_dropShadow_1_548"/>
<feBlend mode="normal" in="SourceGraphic" in2="effect1_dropShadow_1_548" result="shape"/>
</filter>
<clipPath id="clip0_1_548">
<rect width="100" height="100" fill="white"/>
</clipPath>
</defs>
</svg>
