<svg width="1021" height="794" xmlns="http://www.w3.org/2000/svg" xmlns:xlink="http://www.w3.org/1999/xlink" overflow="hidden"><defs><clipPath id="clip0"><path d="M0 0 1021 0 1021 794 0 794Z" fill-rule="evenodd" clip-rule="evenodd"/></clipPath></defs><g clip-path="url(#clip0)"><rect x="0" y="0" width="348.976" height="710" fill="#FFF2CC" transform="matrix(1.00007 0 -0 1 618 42)"/><rect x="0" y="0" width="60.9958" height="60" stroke="#DADADA" stroke-width="2.99979" stroke-miterlimit="8" fill="none" transform="matrix(1.00007 0 -0 1 624.5 600.5)"/><path d="M0 0 278.245 0.000105031" stroke="#DADADA" stroke-width="2.99979" stroke-miterlimit="8" fill="none" fill-rule="evenodd" transform="matrix(1.00007 0 -0 1 688.5 680.5)"/><path d="M0 0-0.000105031-133.649" stroke="#DADADA" stroke-width="2.99979" stroke-miterlimit="8" fill="none" fill-rule="evenodd" transform="matrix(-1.00007 -0 -0 1 690.5 680.149)"/><path d="M0 0 72.4573 0.000105031" stroke="#DADADA" stroke-width="2.99979" stroke-miterlimit="8" fill="none" fill-rule="evenodd" transform="matrix(1.00007 0 -0 1 619.5 546.5)"/><path d="M0 9.5C-2.54609e-15 4.25329 4.47685 0 9.99932 0 15.5218-2.41895e-15 19.9986 4.25329 19.9986 9.5 19.9986 14.7467 15.5218 19 9.99932 19 4.47685 19-3.81914e-15 14.7467 0 9.5Z" stroke="#DADADA" stroke-width="2.99979" stroke-miterlimit="8" fill="#FFF2CC" fill-rule="evenodd" transform="matrix(1.00007 0 -0 1 631.5 636.5)"/><path d="M0 4.5C-1.27304e-15 2.01472 2.23841 0 4.99963 0 7.76085-1.14582e-15 9.99926 2.01472 9.99926 4.5 9.99926 6.98528 7.76085 9 4.99963 9 2.23841 9-1.90956e-15 6.98528 0 4.5Z" stroke="#DADADA" stroke-width="2.99979" stroke-miterlimit="8" fill="none" fill-rule="evenodd" transform="matrix(1.00007 0 -0 1 636.5 641.5)"/><path d="M0 7C-1.78227e-15 3.13401 3.13379 0 6.99953 0 10.8653-1.78239e-15 13.9991 3.13401 13.9991 7 13.9991 10.866 10.8653 14 6.99953 14 3.13379 14-2.6734e-15 10.866 0 7Z" stroke="#DADADA" stroke-width="2.99979" stroke-miterlimit="8" fill="none" fill-rule="evenodd" transform="matrix(1.00007 0 -0 1 634.5 609.5)"/><path d="M0 7C-1.78227e-15 3.13401 3.13379 0 6.99953 0 10.8653-1.78239e-15 13.9991 3.13401 13.9991 7 13.9991 10.866 10.8653 14 6.99953 14 3.13379 14-2.6734e-15 10.866 0 7Z" stroke="#DADADA" stroke-width="2.99979" stroke-miterlimit="8" fill="none" fill-rule="evenodd" transform="matrix(1.00007 0 -0 1 662.5 638.5)"/><path d="M0 9.5C-2.41879e-15 4.25329 4.25301 0 9.49937 0 14.7457-2.41895e-15 18.9987 4.25329 18.9987 9.5 18.9987 14.7467 14.7457 19 9.49937 19 4.25301 19-3.62819e-15 14.7467 0 9.5Z" stroke="#DADADA" stroke-width="2.99979" stroke-miterlimit="8" fill="none" fill-rule="evenodd" transform="matrix(1.00007 0 -0 1 659.5 607.5)"/><path d="M0 0 66.4609 0.000105031" stroke="#DADADA" stroke-width="2.99979" stroke-miterlimit="8" fill="none" fill-rule="evenodd" transform="matrix(1.00007 0 -0 1 618.5 542.5)"/><path d="M0 0 66.4609 0.000105031" stroke="#DADADA" stroke-width="2.99979" stroke-miterlimit="8" fill="none" fill-rule="evenodd" transform="matrix(1.00007 0 -0 1 618.5 472.5)"/><path d="M0 0 2.99979 0C4.65653-8.91193e-15 5.99958 15.67 5.99958 35 5.99958 54.33 4.65653 70 2.99979 70L0 70Z" stroke="#DADADA" stroke-width="2.99979" stroke-miterlimit="8" fill="none" fill-rule="evenodd" transform="matrix(1.00007 0 -0 1 685.5 472.5)"/><path d="M0 6.30139C-1.10596e-15 2.82123 2.82122 0 6.30138 0L132.689 0C136.169 0 138.99 2.82123 138.99 6.30139L138.99 50.6986C138.99 54.1788 136.169 57 132.689 57L6.30138 57C2.82122 57 0 54.1788 0 50.6986Z" stroke="#DADADA" stroke-width="2.99979" stroke-miterlimit="8" fill="none" fill-rule="evenodd" transform="matrix(1.00007 0 -0 1 731.5 686.5)"/><rect x="0" y="0" width="49.9965" height="34" stroke="#DADADA" stroke-width="2.99979" stroke-miterlimit="8" fill="none" transform="matrix(1.00007 0 -0 1 911.5 711.5)"/><rect x="0" y="0" width="18.9986" height="26" stroke="#DADADA" stroke-width="2.99979" stroke-miterlimit="8" fill="none" transform="matrix(1.00007 0 -0 1 666.5 717.5)"/><rect x="0" y="0" width="124.991" height="82" stroke="#DADADA" stroke-width="2.99979" stroke-miterlimit="8" fill="none" transform="matrix(1.00007 0 -0 1 836.5 426.5)"/><path d="M-27.4931-5.70885C-41.9515 1.91009-59.086 1.90257-73.5381-5.72906L-70.7819-11.264C-58.0643-4.49399-42.968-4.48732-30.2448-11.2461Z" stroke="#DADADA" stroke-width="2.99979" stroke-miterlimit="8" fill="none" fill-rule="evenodd" transform="matrix(1.00007 8.74289e-08 8.74228e-08 -1 921.5 410.5)"/><path d="M0 0 0.000105031 6.28747" stroke="#DADADA" stroke-width="2.99979" stroke-miterlimit="8" fill="none" fill-rule="evenodd" transform="matrix(1.00007 0 -0 1 851.5 421.5)"/><path d="M0 0 0.000105031 6.28747" stroke="#DADADA" stroke-width="2.99979" stroke-miterlimit="8" fill="none" fill-rule="evenodd" transform="matrix(1.00007 0 -0 1 890.5 421.5)"/><path d="M-27.669-5.56272C-42.0319 1.86113-59.0053 1.85379-73.3621-5.58247L-70.6063-11.1167C-57.9835-4.54298-43.0484-4.5365-30.4203-11.0992Z" stroke="#DADADA" stroke-width="2.99979" stroke-miterlimit="8" fill="none" fill-rule="evenodd" transform="matrix(1.00007 8.74289e-08 8.74228e-08 -1 984.5 410.5)"/><path d="M0 0 0.000105031 6.28747" stroke="#DADADA" stroke-width="2.99979" stroke-miterlimit="8" fill="none" fill-rule="evenodd" transform="matrix(1.00007 0 -0 1 914.5 421.5)"/><path d="M0 0 0.000105031 6.28747" stroke="#DADADA" stroke-width="2.99979" stroke-miterlimit="8" fill="none" fill-rule="evenodd" transform="matrix(1.00007 0 -0 1 953.5 421.5)"/><path d="M27.4931 5.70885C41.9515-1.91009 59.086-1.90257 73.5381 5.72906L70.7819 11.264C58.0643 4.49399 42.968 4.48732 30.2448 11.2461Z" stroke="#DADADA" stroke-width="2.99979" stroke-miterlimit="8" fill="none" fill-rule="evenodd" transform="matrix(-1.00007 -8.74289e-08 8.74228e-08 -1 921.5 524.5)"/><path d="M0 0-0.000105031-6.28747" stroke="#DADADA" stroke-width="2.99979" stroke-miterlimit="8" fill="none" fill-rule="evenodd" transform="matrix(-1.00007 -0 -0 1 851.5 513.787)"/><path d="M0 0-0.000105031-6.28747" stroke="#DADADA" stroke-width="2.99979" stroke-miterlimit="8" fill="none" fill-rule="evenodd" transform="matrix(-1.00007 -0 -0 1 890.5 513.787)"/><path d="M27.4931 5.70885C41.9515-1.91009 59.086-1.90257 73.5381 5.72906L70.7819 11.264C58.0643 4.49399 42.968 4.48732 30.2448 11.2461Z" stroke="#DADADA" stroke-width="2.99979" stroke-miterlimit="8" fill="none" fill-rule="evenodd" transform="matrix(-1.00007 -8.74289e-08 8.74228e-08 -1 984.5 524.5)"/><path d="M0 0-0.000105031-6.28747" stroke="#DADADA" stroke-width="2.99979" stroke-miterlimit="8" fill="none" fill-rule="evenodd" transform="matrix(-1.00007 -0 -0 1 914.5 513.787)"/><path d="M0 0-0.000105031-6.28747" stroke="#DADADA" stroke-width="2.99979" stroke-miterlimit="8" fill="none" fill-rule="evenodd" transform="matrix(-1.00007 -0 -0 1 953.5 513.787)"/><path d="M0 6.45336C-2.30739e-15 2.88927 2.88926 0 6.45335 0L138.537 0C142.101-1.1537e-15 144.99 2.88927 144.99 6.45336L144.99 75.5466C144.99 79.1107 142.101 82 138.537 82L6.45335 82C2.88926 82 0 79.1107 0 75.5466Z" stroke="#DADADA" stroke-width="2.99979" stroke-miterlimit="8" fill="none" fill-rule="evenodd" transform="matrix(1.00007 0 -0 1 629.5 52.5)"/><path d="M0 0-0.000105031-146.133" stroke="#DADADA" stroke-width="2.99979" stroke-miterlimit="8" fill="none" fill-rule="evenodd" transform="matrix(-1.00007 -0 -0 1 700.5 280.633)"/><path d="M0 1.25914C-2.35729e-16 0.563736 0.56373 0 1.25913 0L235.741 0C236.436 0 237 0.563736 237 1.25914L237 14.7398C237 15.4352 236.436 15.9989 235.741 15.9989L1.25913 15.9989C0.56373 15.9989 0 15.4352 0 14.7398Z" stroke="#DADADA" stroke-width="2.99979" stroke-miterlimit="8" fill="#FFF2CC" fill-rule="evenodd" transform="matrix(-4.37114e-08 -1 1.00007 -4.37144e-08 624.5 290.5)"/><path d="M0 1.25919C-1.52169e-16 0.563757 0.563756 -1.52169e-16 1.25918 -1.52169e-16L151.73 0C152.426 -1.52169e-16 152.989 0.563757 152.989 1.25919L152.989 14.7408C152.989 15.4362 152.426 16 151.73 16L1.25918 16C0.563756 16 1.52169e-16 15.4362 1.52169e-16 14.7408Z" stroke="#DADADA" stroke-width="2.99979" stroke-miterlimit="8" fill="#FFF2CC" fill-rule="evenodd" transform="matrix(1.00007 0 -0 1 624.5 47.5)"/><path d="M0 1.25923C-3.18261e-16 0.563779 0.563776 -1.59131e-16 1.25923 0L78.7352 0C79.4306 -1.59131e-16 79.9944 0.563779 79.9944 1.25923L79.9944 14.7408C79.9944 15.4362 79.4306 16 78.7352 16L1.25923 16C0.563776 16 -1.59131e-16 15.4362 0 14.7408Z" stroke="#DADADA" stroke-width="2.99979" stroke-miterlimit="8" fill="#FFF2CC" fill-rule="evenodd" transform="matrix(1.00007 0 -0 1 624.5 282.5)"/><rect x="0" y="0" width="54.9961" height="55" stroke="#DADADA" stroke-width="2.99979" stroke-miterlimit="8" fill="none" transform="matrix(1.00007 0 -0 1 634.5 303.5)"/><path d="M0 12.5C-3.30992e-15 5.59644 5.8199 0 12.9991 0 20.1783-3.18283e-15 25.9982 5.59644 25.9982 12.5 25.9982 19.4036 20.1783 25 12.9991 25 5.8199 25-4.96488e-15 19.4036 0 12.5Z" stroke="#DADADA" stroke-width="2.99979" stroke-miterlimit="8" fill="#FFF2CC" fill-rule="evenodd" transform="matrix(1.00007 0 -0 1 625.5 290.5)"/><path d="M0 3C-7.63826e-16 1.34315 1.34305 0 2.99979 0 4.65653 -7.6388e-16 5.99958 1.34315 5.99958 3 5.99958 4.65685 4.65653 6 2.99979 6 1.34305 6-1.14574e-15 4.65685 0 3Z" stroke="#DADADA" stroke-width="2.99979" stroke-miterlimit="8" fill="none" fill-rule="evenodd" transform="matrix(1.00007 0 -0 1 635.5 300.5)"/><rect x="0" y="0" width="82.9942" height="109" stroke="#DADADA" stroke-width="2.99979" stroke-miterlimit="8" fill="none" transform="matrix(1.00007 0 -0 1 739.5 161.5)"/><rect x="0" y="0" width="37.9974" height="38" stroke="#DADADA" stroke-width="2.99979" stroke-miterlimit="8" fill="none" transform="matrix(1.00007 0 -0 1 787.5 52.5)"/><rect x="0" y="0" width="37.9974" height="30" stroke="#DADADA" stroke-width="2.99979" stroke-miterlimit="8" fill="none" transform="matrix(1.00007 0 -0 1 914.5 49.5)"/><rect x="0" y="0" width="37.9974" height="30" stroke="#DADADA" stroke-width="2.99979" stroke-miterlimit="8" fill="none" transform="matrix(1.00007 0 -0 1 914.5 352.5)"/><rect x="0" y="0" width="43.9969" height="65" stroke="#DADADA" stroke-width="2.99979" stroke-miterlimit="8" fill="none" transform="matrix(1.00007 0 -0 1 911.5 281.5)"/><rect x="0" y="0" width="43.9969" height="131" stroke="#DADADA" stroke-width="2.99979" stroke-miterlimit="8" fill="none" transform="matrix(1.00007 0 -0 1 911.5 150.5)"/><rect x="0" y="0" width="43.9969" height="65" stroke="#DADADA" stroke-width="2.99979" stroke-miterlimit="8" fill="none" transform="matrix(1.00007 0 -0 1 911.5 85.5)"/><path d="M2.99973 0 116 0 119 2.99979 119 5.99958 119 5.99958 0 5.99958 0 5.99958 0 2.99979Z" stroke="#DADADA" stroke-width="2.99979" stroke-miterlimit="8" fill="none" fill-rule="evenodd" transform="matrix(-4.37114e-08 1 -1.00007 -4.37144e-08 929.5 156.5)"/><path d="M0 0 6.906 2.0063" stroke="#DADADA" stroke-width="2.99979" stroke-miterlimit="8" fill="none" fill-rule="evenodd" transform="matrix(1.00007 0 -0 1 916.5 173.5)"/><path d="M0 0-15.5907-4.49648" stroke="#DADADA" stroke-width="2.99979" stroke-miterlimit="8" fill="none" fill-rule="evenodd" transform="matrix(-1.00007 -0 -0 1 929.5 175.997)"/><path d="M0 0-6.906-2.0063" stroke="#DADADA" stroke-width="2.99979" stroke-miterlimit="8" fill="none" fill-rule="evenodd" transform="matrix(-1.00007 -0 -0 1 916.5 258.506)"/><path d="M0 0 15.5907 4.49648" stroke="#DADADA" stroke-width="2.99979" stroke-miterlimit="8" fill="none" fill-rule="evenodd" transform="matrix(1.00007 0 -0 1 929.5 255.5)"/><rect x="0" y="0" width="913.936" height="709" stroke="#7E7E7E" stroke-width="5.99958" stroke-miterlimit="8" fill="none" transform="matrix(1.00007 0 -0 1 53 42)"/><path d="M0 0 0.000105031 127.356" stroke="#7E7E7E" stroke-width="3.99968" stroke-miterlimit="8" fill="none" fill-rule="evenodd" transform="matrix(1.00007 0 -0 1 185 42)"/><path d="M0 0-25.2358-0.000105031" stroke="#7E7E7E" stroke-width="3.99968" stroke-miterlimit="8" fill="none" fill-rule="evenodd" transform="matrix(1.00007 8.74289e-08 8.74228e-08 -1 78.2376 170)"/><path d="M0 0-334.365-0.000105031" stroke="#7E7E7E" stroke-width="3.99968" stroke-miterlimit="8" fill="none" fill-rule="evenodd" transform="matrix(1.00007 8.74289e-08 8.74228e-08 -1 497.389 170)"/><path d="M0 0 0.000105031 34.0143" stroke="#7E7E7E" stroke-width="3.99968" stroke-miterlimit="8" fill="none" fill-rule="evenodd" transform="matrix(1.00007 0 -0 1 495 170)"/><path d="M0 0 0.000105031 140.559" stroke="#7E7E7E" stroke-width="3.99968" stroke-miterlimit="8" fill="none" fill-rule="evenodd" transform="matrix(1.00007 0 -0 1 425 170)"/><path d="M0 0-72.4481-0.000105031" stroke="#7E7E7E" stroke-width="3.99968" stroke-miterlimit="8" fill="none" fill-rule="evenodd" transform="matrix(1.00007 8.74289e-08 8.74228e-08 -1 495.453 310)"/><path d="M0 0-0.000105031-28.0118" stroke="#7E7E7E" stroke-width="3.99968" stroke-miterlimit="8" fill="none" fill-rule="evenodd" transform="matrix(-1.00007 -0 -0 1 495 322.012)"/><path d="M0 0-441.911-0.000105031" stroke="#7E7E7E" stroke-width="3.99968" stroke-miterlimit="8" fill="none" fill-rule="evenodd" transform="matrix(1.00007 8.74289e-08 8.74228e-08 -1 494.942 415)"/><path d="M0 0-0.000105031-34.5145" stroke="#7E7E7E" stroke-width="3.99968" stroke-miterlimit="8" fill="none" fill-rule="evenodd" transform="matrix(-1.00007 -0 -0 1 495 432.515)"/><path d="M0 0-0.000105031-20.0081" stroke="#7E7E7E" stroke-width="3.99968" stroke-miterlimit="8" fill="none" fill-rule="evenodd" transform="matrix(-1.00007 -0 -0 1 495 544.008)"/><path d="M0 0 115.548 0.000105031" stroke="#7E7E7E" stroke-width="3.99968" stroke-miterlimit="8" fill="none" fill-rule="evenodd" transform="matrix(1.00007 0 -0 1 396 544)"/><path d="M0 0 0.000105031 207.132" stroke="#7E7E7E" stroke-width="3.99968" stroke-miterlimit="8" fill="none" fill-rule="evenodd" transform="matrix(1.00007 0 -0 1 396 542)"/><path d="M0 0-0.000105031-297.17" stroke="#7E7E7E" stroke-width="3.99968" stroke-miterlimit="8" fill="none" fill-rule="evenodd" transform="matrix(-1.00007 -0 -0 1 619 749.17)"/><path d="M0 0 16.0064 0.000105031" stroke="#7E7E7E" stroke-width="3.99968" stroke-miterlimit="8" fill="none" fill-rule="evenodd" transform="matrix(1.00007 0 -0 1 603 544)"/><path d="M0 0-0.000105031-320.937" stroke="#7E7E7E" stroke-width="3.99968" stroke-miterlimit="8" fill="none" fill-rule="evenodd" transform="matrix(-1.00007 -0 -0 1 619 362.937)"/></g></svg>