<svg width="1021" height="794" viewBox="0 0 1021 794" fill="none" xmlns="http://www.w3.org/2000/svg">
<g clip-path="url(#clip0)">
<path d="M418.5 176.5H254.5V263.5H418.5V176.5Z" fill="#FFF2CC" stroke="#A6A6A6" stroke-width="2.99979" stroke-miterlimit="8"/>
<path d="M388.5 236.436L388.5 183.5" stroke="#A6A6A6" stroke-width="2.99979" stroke-miterlimit="8"/>
<path d="M412.971 184.5L388.5 184.5" stroke="#A6A6A6" stroke-width="2.99979" stroke-miterlimit="8"/>
<path d="M413.5 236.436L413.5 183.5" stroke="#A6A6A6" stroke-width="2.99979" stroke-miterlimit="8"/>
<path d="M400.5 238.857L414.402 234.5" stroke="#A6A6A6" stroke-width="2.99979" stroke-miterlimit="8"/>
<path d="M401.402 238.857L387.5 234.5" stroke="#A6A6A6" stroke-width="2.99979" stroke-miterlimit="8"/>
<path d="M380.712 195.5L312.5 195.5" stroke="#A6A6A6" stroke-width="2.99979" stroke-miterlimit="8"/>
<path d="M316.429 187.5L314.5 194.503" stroke="#A6A6A6" stroke-width="2.99979" stroke-miterlimit="8"/>
<path d="M377.5 187.5L379.429 194.503" stroke="#A6A6A6" stroke-width="2.99979" stroke-miterlimit="8"/>
<path d="M378.784 188.5L314.5 188.5" stroke="#A6A6A6" stroke-width="2.99979" stroke-miterlimit="8"/>
<path d="M310.444 194.794L260.87 213.727" stroke="#A6A6A6" stroke-width="3.00129" stroke-miterlimit="8"/>
<path d="M261.098 207.391L261.64 213.016" stroke="#A6A6A6" stroke-width="3.00129" stroke-miterlimit="8"/>
<path d="M306.027 190.232L309.373 194.786" stroke="#A6A6A6" stroke-width="3.00129" stroke-miterlimit="8"/>
<path d="M307.143 190.431L260.424 208.273" stroke="#A6A6A6" stroke-width="3.00129" stroke-miterlimit="8"/>
<path d="M967 42H53V751H967V42Z" stroke="#7E7E7E" stroke-width="5.99958" stroke-miterlimit="8"/>
<path d="M185 42L185 169.356" stroke="#7E7E7E" stroke-width="3.99968" stroke-miterlimit="8"/>
<path d="M78.2376 170L53.0001 170" stroke="#7E7E7E" stroke-width="3.99968" stroke-miterlimit="8"/>
<path d="M497.389 170L163.001 170" stroke="#7E7E7E" stroke-width="3.99968" stroke-miterlimit="8"/>
<path d="M495 170L495 204.014" stroke="#7E7E7E" stroke-width="3.99968" stroke-miterlimit="8"/>
<path d="M425 170L425 310.559" stroke="#7E7E7E" stroke-width="3.99968" stroke-miterlimit="8"/>
<path d="M495.453 310L423 310" stroke="#7E7E7E" stroke-width="3.99968" stroke-miterlimit="8"/>
<path d="M495 322.012L495 294" stroke="#7E7E7E" stroke-width="3.99968" stroke-miterlimit="8"/>
<path d="M494.942 415L53.0001 415" stroke="#7E7E7E" stroke-width="3.99968" stroke-miterlimit="8"/>
<path d="M495 432.515L495 398" stroke="#7E7E7E" stroke-width="3.99968" stroke-miterlimit="8"/>
<path d="M495 544.008L495 524" stroke="#7E7E7E" stroke-width="3.99968" stroke-miterlimit="8"/>
<path d="M396 544L511.556 544" stroke="#7E7E7E" stroke-width="3.99968" stroke-miterlimit="8"/>
<path d="M396 542L396 749.132" stroke="#7E7E7E" stroke-width="3.99968" stroke-miterlimit="8"/>
<path d="M619 749.17L619 452" stroke="#7E7E7E" stroke-width="3.99968" stroke-miterlimit="8"/>
<path d="M603 544L619.008 544" stroke="#7E7E7E" stroke-width="3.99968" stroke-miterlimit="8"/>
<path d="M619 362.937L619 42" stroke="#7E7E7E" stroke-width="3.99968" stroke-miterlimit="8"/>
</g>
<defs>
<clipPath id="clip0">
<rect width="1021" height="794" fill="white"/>
</clipPath>
</defs>
</svg>
