<svg width="1021" height="794" viewBox="0 0 1021 794" fill="none" xmlns="http://www.w3.org/2000/svg">
<path d="M619 544L619 43L495 43L495 544L619 544Z" fill="#FFF2CC"/>
<path d="M497 170L497 43L185 43L185 170L497 170Z" fill="url(#paint0_linear)"/>
<path d="M967 42H53V751H967V42Z" stroke="#7E7E7E" stroke-width="5.99958" stroke-miterlimit="8"/>
<path d="M185 42L185 169.356" stroke="#7E7E7E" stroke-width="3.99968" stroke-miterlimit="8"/>
<path d="M78.2376 170L53.0001 170" stroke="#7E7E7E" stroke-width="3.99968" stroke-miterlimit="8"/>
<path d="M497.389 170L163.001 170" stroke="#7E7E7E" stroke-width="3.99968" stroke-miterlimit="8"/>
<path d="M495 170L495 204.014" stroke="#7E7E7E" stroke-width="3.99968" stroke-miterlimit="8"/>
<path d="M425 170L425 310.559" stroke="#7E7E7E" stroke-width="3.99968" stroke-miterlimit="8"/>
<path d="M495.453 310L423 310" stroke="#7E7E7E" stroke-width="3.99968" stroke-miterlimit="8"/>
<path d="M495 322.012L495 294" stroke="#7E7E7E" stroke-width="3.99968" stroke-miterlimit="8"/>
<path d="M494.942 415L53.0001 415" stroke="#7E7E7E" stroke-width="3.99968" stroke-miterlimit="8"/>
<path d="M495 432.515L495 398" stroke="#7E7E7E" stroke-width="3.99968" stroke-miterlimit="8"/>
<path d="M495 544.008L495 524" stroke="#7E7E7E" stroke-width="3.99968" stroke-miterlimit="8"/>
<path d="M396 544L511.556 544" stroke="#7E7E7E" stroke-width="3.99968" stroke-miterlimit="8"/>
<path d="M396 542L396 749.132" stroke="#7E7E7E" stroke-width="3.99968" stroke-miterlimit="8"/>
<path d="M619 749.17L619 452" stroke="#7E7E7E" stroke-width="3.99968" stroke-miterlimit="8"/>
<path d="M603 544L619.008 544" stroke="#7E7E7E" stroke-width="3.99968" stroke-miterlimit="8"/>
<path d="M619 362.937L619 42" stroke="#7E7E7E" stroke-width="3.99968" stroke-miterlimit="8"/>
<path fill-rule="evenodd" clip-rule="evenodd" d="M545.5 270.5C545.5 262.768 551.992 256.5 560 256.5C568.008 256.5 574.5 262.768 574.5 270.5C574.5 278.232 568.008 284.5 560 284.5C551.992 284.5 545.5 278.232 545.5 270.5Z" stroke="#DADADA" stroke-width="2.99979" stroke-miterlimit="8"/>
<defs>
<linearGradient id="paint0_linear" x1="497" y1="106.5" x2="185" y2="106.5" gradientUnits="userSpaceOnUse">
<stop stop-color="#FFF2CC"/>
<stop offset="1" stop-color="#FFF2CC" stop-opacity="0"/>
</linearGradient>
</defs>
</svg>
