<svg width="1021" height="794" xmlns="http://www.w3.org/2000/svg" xmlns:xlink="http://www.w3.org/1999/xlink" overflow="hidden"><defs><clipPath id="clip0"><path d="M0 0 1021 0 1021 794 0 794Z" fill-rule="evenodd" clip-rule="evenodd"/></clipPath></defs><g clip-path="url(#clip0)"><rect x="0" y="0" width="105.993" height="128" fill="#C5E0B4" transform="matrix(1.00007 0 -0 1 388 415)"/><rect x="0" y="0" width="341.976" height="336" fill="#C5E0B4" transform="matrix(1.00007 0 -0 1 54 415)"/><rect x="0" y="0" width="42.9969" height="42" stroke="#A6A6A6" stroke-width="2.99979" stroke-miterlimit="8" fill="none" transform="matrix(1.00007 0 -0 1 61.5 420.5)"/><rect x="0" y="0" width="42.9969" height="42" stroke="#A6A6A6" stroke-width="2.99979" stroke-miterlimit="8" fill="none" transform="matrix(1.00007 0 -0 1 291.5 420.5)"/><rect x="0" y="0" width="173.988" height="218" stroke="#A6A6A6" stroke-width="2.99979" stroke-miterlimit="8" fill="none" transform="matrix(1.00007 0 -0 1 111.5 420.5)"/><path d="M0 8.49232C-1.73465e-15 3.80214 3.80214 0 8.49233 0L165.496 0C170.186-1.73464e-15 173.988 3.80214 173.988 8.49232L173.988 209.508C173.988 214.198 170.186 218 165.496 218L8.49233 218C3.80214 218 0 214.198 0 209.508Z" stroke="#A6A6A6" stroke-width="2.99979" stroke-miterlimit="8" fill="none" fill-rule="evenodd" transform="matrix(1.00007 0 -0 1 111.5 420.5)"/><path d="M0 14C-3.56452e-15 6.26801 6.26757 0 13.999 0 21.7304-3.56477e-15 27.998 6.26801 27.998 14 27.998 21.732 21.7304 28 13.999 28 6.26757 28-5.34678e-15 21.732 0 14Z" stroke="#A6A6A6" stroke-width="2.99979" stroke-miterlimit="8" fill="none" fill-rule="evenodd" transform="matrix(1.00007 0 -0 1 220.5 572.5)"/><rect x="0" y="0" width="86.9939" height="54" stroke="#A6A6A6" stroke-width="2.99979" stroke-miterlimit="8" fill="none" transform="matrix(1.00007 0 -0 1 60.5 691.5)"/><path d="M0 0-0.000105031-201.585" stroke="#A6A6A6" stroke-width="2.99979" stroke-miterlimit="8" fill="none" fill-rule="evenodd" transform="matrix(-1.00007 -0 -0 1 348.5 748.085)"/><path d="M0 0-45.1787-0.000105031" stroke="#A6A6A6" stroke-width="2.99979" stroke-miterlimit="8" fill="none" fill-rule="evenodd" transform="matrix(-1.00007 -0 -0 1 348.5 682.5)"/><path d="M0 0-45.1787-0.000105031" stroke="#A6A6A6" stroke-width="2.99979" stroke-miterlimit="8" fill="none" fill-rule="evenodd" transform="matrix(-1.00007 -0 -0 1 349.5 614.5)"/><path d="M0 0 46.6792 0.000105031" stroke="#A6A6A6" stroke-width="2.99979" stroke-miterlimit="8" fill="none" fill-rule="evenodd" transform="matrix(1.00007 0 -0 1 347.5 546.5)"/><rect x="0" y="0" width="913.936" height="709" stroke="#7E7E7E" stroke-width="5.99958" stroke-miterlimit="8" fill="none" transform="matrix(1.00007 0 -0 1 53 42)"/><path d="M0 0 0.000105031 127.356" stroke="#7E7E7E" stroke-width="3.99968" stroke-miterlimit="8" fill="none" fill-rule="evenodd" transform="matrix(1.00007 0 -0 1 185 42)"/><path d="M0 0-25.2358-0.000105031" stroke="#7E7E7E" stroke-width="3.99968" stroke-miterlimit="8" fill="none" fill-rule="evenodd" transform="matrix(1.00007 8.74289e-08 8.74228e-08 -1 78.2376 170)"/><path d="M0 0-334.365-0.000105031" stroke="#7E7E7E" stroke-width="3.99968" stroke-miterlimit="8" fill="none" fill-rule="evenodd" transform="matrix(1.00007 8.74289e-08 8.74228e-08 -1 497.389 170)"/><path d="M0 0 0.000105031 34.0143" stroke="#7E7E7E" stroke-width="3.99968" stroke-miterlimit="8" fill="none" fill-rule="evenodd" transform="matrix(1.00007 0 -0 1 495 170)"/><path d="M0 0 0.000105031 140.559" stroke="#7E7E7E" stroke-width="3.99968" stroke-miterlimit="8" fill="none" fill-rule="evenodd" transform="matrix(1.00007 0 -0 1 425 170)"/><path d="M0 0-72.4481-0.000105031" stroke="#7E7E7E" stroke-width="3.99968" stroke-miterlimit="8" fill="none" fill-rule="evenodd" transform="matrix(1.00007 8.74289e-08 8.74228e-08 -1 495.453 310)"/><path d="M0 0-0.000105031-28.0118" stroke="#7E7E7E" stroke-width="3.99968" stroke-miterlimit="8" fill="none" fill-rule="evenodd" transform="matrix(-1.00007 -0 -0 1 495 322.012)"/><path d="M0 0-441.911-0.000105031" stroke="#7E7E7E" stroke-width="3.99968" stroke-miterlimit="8" fill="none" fill-rule="evenodd" transform="matrix(1.00007 8.74289e-08 8.74228e-08 -1 494.942 415)"/><path d="M0 0-0.000105031-34.5145" stroke="#7E7E7E" stroke-width="3.99968" stroke-miterlimit="8" fill="none" fill-rule="evenodd" transform="matrix(-1.00007 -0 -0 1 495 432.515)"/><path d="M0 0-0.000105031-20.0081" stroke="#7E7E7E" stroke-width="3.99968" stroke-miterlimit="8" fill="none" fill-rule="evenodd" transform="matrix(-1.00007 -0 -0 1 495 544.008)"/><path d="M0 0 115.548 0.000105031" stroke="#7E7E7E" stroke-width="3.99968" stroke-miterlimit="8" fill="none" fill-rule="evenodd" transform="matrix(1.00007 0 -0 1 396 544)"/><path d="M0 0 0.000105031 207.132" stroke="#7E7E7E" stroke-width="3.99968" stroke-miterlimit="8" fill="none" fill-rule="evenodd" transform="matrix(1.00007 0 -0 1 396 542)"/><path d="M0 0-0.000105031-297.17" stroke="#7E7E7E" stroke-width="3.99968" stroke-miterlimit="8" fill="none" fill-rule="evenodd" transform="matrix(-1.00007 -0 -0 1 619 749.17)"/><path d="M0 0 16.0064 0.000105031" stroke="#7E7E7E" stroke-width="3.99968" stroke-miterlimit="8" fill="none" fill-rule="evenodd" transform="matrix(1.00007 0 -0 1 603 544)"/><path d="M0 0-0.000105031-320.937" stroke="#7E7E7E" stroke-width="3.99968" stroke-miterlimit="8" fill="none" fill-rule="evenodd" transform="matrix(-1.00007 -0 -0 1 619 362.937)"/></g></svg>