<?xml version="1.0" encoding="UTF-8"?>
<svg width="100px" height="100px" viewBox="0 0 100 100" version="1.1" xmlns="http://www.w3.org/2000/svg" xmlns:xlink="http://www.w3.org/1999/xlink">
    <!-- Generator: Sketch 56.3 (81716) - https://sketch.com -->
    <title>icn_refrigerator</title>
    <desc>Created with Sketch.</desc>
    <defs>
        <filter x="-28.8%" y="-28.8%" width="157.5%" height="157.5%" filterUnits="objectBoundingBox" id="filter-1">
            <feOffset dx="0" dy="2" in="SourceAlpha" result="shadowOffsetOuter1"></feOffset>
            <feGaussianBlur stdDeviation="5" in="shadowOffsetOuter1" result="shadowBlurOuter1"></feGaussianBlur>
            <feColorMatrix values="0 0 0 0 0   0 0 0 0 0   0 0 0 0 0  0 0 0 0.5 0" type="matrix" in="shadowBlurOuter1" result="shadowMatrixOuter1"></feColorMatrix>
            <feMerge>
                <feMergeNode in="shadowMatrixOuter1"></feMergeNode>
                <feMergeNode in="SourceGraphic"></feMergeNode>
            </feMerge>
        </filter>
    </defs>
    <g id="Icons" stroke="none" stroke-width="1" fill="none" fill-rule="evenodd">
        <g transform="translate(-490.000000, -992.000000)" id="icn_refrigerator">
            <g filter="url(#filter-1)" transform="translate(500.000000, 1000.000000)">
                <rect id="Rectangle" fill="#FFFFFF" x="0" y="0" width="80" height="80" rx="10"></rect>
                <g id="Group" transform="translate(22.000000, 10.000000)" fill-rule="nonzero">
                    <g fill="#BCC1C5" id="Shape">
                        <path d="M30,0 C30,0 6,0 6,0 C2.68700027,0 0,2.68600082 0,6 C0,6 0,20.9919996 0,20.9919996 C0,20.9919996 0,52 0,52 C0,54.6919994 1.77300072,56.9710007 4.2159996,57.7299995 C4.77900028,57.9060001 5.37899971,58 6,58 C6,58 30,58 30,58 C30.6219997,58 31.2209997,57.9060001 31.7840004,57.7299995 C34.2269993,56.9710007 36,54.6919994 36,52 C36,52 36,20.9919996 36,20.9919996 C36,20.9919996 36,6 36,6 C36,2.68600082 33.3140001,0 30,0 Z M4.5,25 C4.5,25 4,25 4,25 C4,25 4,24 4,24 C4,24 4.5,24 4.5,24 C5.87800026,24 7,25.1210001 7,26.5 C7,26.5 7,34.5 7,34.5 C7,35.8790002 5.87800026,37 4.5,37 C4.5,37 4,37 4,37 C4,37 4,36 4,36 C4,36 4.5,36 4.5,36 C5.32699966,36 6,35.3270001 6,34.5 C6,34.5 6,26.5 6,26.5 C6,25.6730001 5.32699966,25 4.5,25 Z M1,20.9919996 C1,20.9919996 1,6 1,6 C1,3.24300003 3.24300003,1 6,1 C6,1 30,1 30,1 C32.757,1 35,3.24300003 35,6 C35,6 35,20.9919996 35,20.9919996 C35,20.9919996 1,20.9919996 1,20.9919996 Z"></path>
                    </g>
                    <g transform="translate(3.500000, 4.500000)" fill="#BCC1C5" id="Path">
                        <path d="M1,0.5 C1,0.5 0.5,0.5 0.5,0.5 C0.5,0.5 0.5,1.5 0.5,1.5 C0.5,1.5 1,1.5 1,1.5 C1.82700001,1.5 2.5,2.17299986 2.5,3 C2.5,3 2.5,11 2.5,11 C2.5,11.8270001 1.82700001,12.5 1,12.5 C1,12.5 0.5,12.5 0.5,12.5 C0.5,12.5 0.5,13.5 0.5,13.5 C0.5,13.5 1,13.5 1,13.5 C2.37799999,13.5 3.5,12.3790002 3.5,11 C3.5,11 3.5,3 3.5,3 C3.5,1.62099981 2.37799999,0.5 1,0.5 Z"></path>
                    </g>
                    <g transform="translate(28.000000, 4.000000)" fill="#4285F4" id="Path">
                        <path d="M2,0 C0.896000028,0 0,0.896000028 0,2 C0,3.10399997 0.896000028,4 2,4 C3.10399997,4 4,3.10399997 4,2 C4,0.896000028 3.10399997,0 2,0 Z"></path>
                    </g>
                </g>
            </g>
        </g>
    </g>
</svg>
