<?xml version="1.0" encoding="UTF-8"?>
<svg width="100px" height="100px" viewBox="0 0 100 100" version="1.1" xmlns="http://www.w3.org/2000/svg" xmlns:xlink="http://www.w3.org/1999/xlink">
    <!-- Generator: Sketch 56.3 (81716) - https://sketch.com -->
    <title>icn_max</title>
    <desc>Created with Sketch.</desc>
    <defs>
        <filter x="-28.8%" y="-28.8%" width="157.5%" height="157.5%" filterUnits="objectBoundingBox" id="filter-1">
            <feOffset dx="0" dy="2" in="SourceAlpha" result="shadowOffsetOuter1"></feOffset>
            <feGaussianBlur stdDeviation="5" in="shadowOffsetOuter1" result="shadowBlurOuter1"></feGaussianBlur>
            <feColorMatrix values="0 0 0 0 0   0 0 0 0 0   0 0 0 0 0  0 0 0 0.5 0" type="matrix" in="shadowBlurOuter1" result="shadowMatrixOuter1"></feColorMatrix>
            <feMerge>
                <feMergeNode in="shadowMatrixOuter1"></feMergeNode>
                <feMergeNode in="SourceGraphic"></feMergeNode>
            </feMerge>
        </filter>
    </defs>
    <g id="Icons" stroke="none" stroke-width="1" fill="none" fill-rule="evenodd">
        <g transform="translate(-890.000000, -592.000000)" id="icn_max">
            <g filter="url(#filter-1)" transform="translate(900.000000, 600.000000)">
                <rect id="Rectangle" fill="#FFFFFF" x="0" y="0" width="80" height="80" rx="10"></rect>
                <g id="Group" transform="translate(8.000000, 7.000000)" fill-rule="nonzero">
                    <g transform="translate(0.000000, 1.000000)" fill="#BCC1C5" id="Shape">
                        <path d="M0,0 C0,0 64,0 64,0 C64,0 64,64 64,64 C64,64 0,64 0,64 C0,64 0,0 0,0 Z M0,64 C0,64 64,64 64,64 C64,64 64,0 64,0 C64,0 0,0 0,0 C0,0 0,64 0,64 Z M41,3 C41,3 23,3 23,3 C17.4770002,3 13,7.47699928 13,13 C13,13 13,47 13,47 C13,52.5230007 17.4770002,57 23,57 C23,57 41,57 41,57 C46.5229998,57 51,52.5230007 51,47 C51,47 51,13 51,13 C51,7.47699928 46.5229998,3 41,3 Z M50,47 C50,51.9629993 45.9619999,56 41,56 C41,56 23,56 23,56 C18.0369997,56 14,51.9629993 14,47 C14,47 14,13 14,13 C14,8.03700066 18.0369997,4 23,4 C23,4 41,4 41,4 C45.9619999,4 50,8.03700066 50,13 C50,13 50,47 50,47 Z"></path>
                    </g>
                    <g transform="translate(0.000000, 0.500000)" fill="#BCC1C5" id="Shape">
                        <path d="M0,0.5 C0,0.5 64,0.5 64,0.5 C64,0.5 64,64.5 64,64.5 C64,64.5 0,64.5 0,64.5 C0,64.5 0,0.5 0,0.5 Z M0,64.5 C0,64.5 64,64.5 64,64.5 C64,64.5 64,0.5 64,0.5 C64,0.5 0,0.5 0,0.5 C0,0.5 0,64.5 0,64.5 Z M21,61.5 C21,61.5 43,61.5 43,61.5 C43,61.5 43,60.5 43,60.5 C43,60.5 21,60.5 21,60.5 C21,60.5 21,61.5 21,61.5 Z"></path>
                    </g>
                    <g transform="translate(0.000000, 1.000000)" fill="#4285F4" id="Shape">
                        <path d="M0,0 C0,0 64,0 64,0 C64,0 64,64 64,64 C64,64 0,64 0,64 C0,64 0,0 0,0 Z M0,64 C0,64 64,64 64,64 C64,64 64,0 64,0 C64,0 0,0 0,0 C0,0 0,64 0,64 Z M20,28 C18.896,28 18,28.896 18,30 C18,31.104 18.896,32 20,32 C21.104,32 22,31.104 22,30 C22,28.896 21.104,28 20,28 Z"></path>
                    </g>
                    <g transform="translate(0.000000, 1.000000)" fill="#EA4335" id="Shape">
                        <path d="M0,0 C0,0 64,0 64,0 C64,0 64,64 64,64 C64,64 0,64 0,64 C0,64 0,0 0,0 Z M0,64 C0,64 64,64 64,64 C64,64 64,0 64,0 C64,0 0,0 0,0 C0,0 0,64 0,64 Z M28,28 C26.896,28 26,28.896 26,30 C26,31.104 26.896,32 28,32 C29.104,32 30,31.104 30,30 C30,28.896 29.104,28 28,28 Z"></path>
                    </g>
                    <g transform="translate(0.000000, 1.000000)" fill="#FABB04" id="Shape">
                        <path d="M0,0 C0,0 64,0 64,0 C64,0 64,64 64,64 C64,64 0,64 0,64 C0,64 0,0 0,0 Z M0,64 C0,64 64,64 64,64 C64,64 64,0 64,0 C64,0 0,0 0,0 C0,0 0,64 0,64 Z M36,28 C34.896,28 34,28.896 34,30 C34,31.104 34.896,32 36,32 C37.104,32 38,31.104 38,30 C38,28.896 37.104,28 36,28 Z"></path>
                    </g>
                    <g transform="translate(0.000000, 1.000000)" fill="#34A852" id="Shape">
                        <path d="M0,0 C0,0 64,0 64,0 C64,0 64,64 64,64 C64,64 0,64 0,64 C0,64 0,0 0,0 Z M0,64 C0,64 64,64 64,64 C64,64 64,0 64,0 C64,0 0,0 0,0 C0,0 0,64 0,64 Z M44,28 C42.896,28 42,28.896 42,30 C42,31.104 42.896,32 44,32 C45.104,32 46,31.104 46,30 C46,28.896 45.104,28 44,28 Z"></path>
                    </g>
                </g>
            </g>
        </g>
    </g>
</svg>