<?xml version="1.0" encoding="UTF-8"?>
<svg width="100px" height="100px" viewBox="0 0 100 100" version="1.1" xmlns="http://www.w3.org/2000/svg" xmlns:xlink="http://www.w3.org/1999/xlink">
    <!-- Generator: Sketch 56.3 (81716) - https://sketch.com -->
    <title>icn_m_device_offline</title>
    <desc>Created with Sketch.</desc>
    <defs>
        <filter x="-28.8%" y="-28.8%" width="157.5%" height="157.5%" filterUnits="objectBoundingBox" id="filter-1">
            <feOffset dx="0" dy="2" in="SourceAlpha" result="shadowOffsetOuter1"></feOffset>
            <feGaussianBlur stdDeviation="5" in="shadowOffsetOuter1" result="shadowBlurOuter1"></feGaussianBlur>
            <feColorMatrix values="0 0 0 0 0   0 0 0 0 0   0 0 0 0 0  0 0 0 0.5 0" type="matrix" in="shadowBlurOuter1" result="shadowMatrixOuter1"></feColorMatrix>
            <feMerge>
                <feMergeNode in="shadowMatrixOuter1"></feMergeNode>
                <feMergeNode in="SourceGraphic"></feMergeNode>
            </feMerge>
        </filter>
    </defs>
    <g id="Icons" stroke="none" stroke-width="1" fill="none" fill-rule="evenodd">
        <g transform="translate(-790.000000, -792.000000)" id="icn_m_device_offline">
            <g filter="url(#filter-1)" transform="translate(800.000000, 800.000000)">
                <rect id="Rectangle" fill="#FFFFFF" x="0" y="0" width="80" height="80" rx="10"></rect>
                <g id="Group" transform="translate(11.000000, 18.000000)" fill="#BCC1C5" fill-rule="nonzero">
                    <g transform="translate(0.000000, 0.500000)" id="Shape">
                        <path d="M52,0.5 C52,0.5 6,0.5 6,0.5 C2.68700027,0.5 0,3.18700027 0,6.5 C0,6.5 0,36.5 0,36.5 C0,39.8129997 2.68700027,42.5 6,42.5 C6,42.5 8,42.5 8,42.5 C8,42.5 8,44.5 8,44.5 C8,46.1569996 9.34300041,47.5 11,47.5 C11,47.5 47,47.5 47,47.5 C48.6569996,47.5 50,46.1569996 50,44.5 C50,44.5 50,42.5 50,42.5 C50,42.5 52,42.5 52,42.5 C55.3139992,42.5 58,39.8129997 58,36.5 C58,36.5 58,6.5 58,6.5 C58,3.18700027 55.3139992,0.5 52,0.5 Z M57,36.5 C57,39.257 54.757,41.5 52,41.5 C52,41.5 6,41.5 6,41.5 C3.24300003,41.5 1,39.257 1,36.5 C1,36.5 1,6.5 1,6.5 C1,3.74300003 3.24300003,1.5 6,1.5 C6,1.5 52,1.5 52,1.5 C54.757,1.5 57,3.74300003 57,6.5 C57,6.5 57,36.5 57,36.5 Z"></path>
                    </g>
                    <g transform="translate(4.000000, 5.000000)" id="Shape">
                        <path d="M47,0 C47,0 3,0 3,0 C1.34300041,0 0,1.34300041 0,3 C0,3 0,31 0,31 C0,32.6569996 1.34300041,34 3,34 C3,34 47,34 47,34 C48.6569996,34 50,32.6569996 50,31 C50,31 50,3 50,3 C50,1.34300041 48.6569996,0 47,0 Z M49,31 C49,32.1029997 48.1030006,33 47,33 C47,33 3,33 3,33 C1.89699936,33 1,32.1029997 1,31 C1,31 1,3 1,3 C1,1.89700031 1.89699936,1 3,1 C3,1 47,1 47,1 C48.1030006,1 49,1.89700031 49,3 C49,3 49,31 49,31 Z"></path>
                    </g>
                    <g transform="translate(15.000000, 20.000000)" id="Path">
                        <path d="M2,0 C0.896000028,0 0,0.896000028 0,2 C0,3.10399997 0.896000028,4 2,4 C3.10399997,4 4,3.10399997 4,2 C4,0.896000028 3.10399997,0 2,0 Z"></path>
                    </g>
                    <g transform="translate(23.000000, 20.000000)" id="Path">
                        <path d="M2,0 C0.896000028,0 0,0.896000028 0,2 C0,3.10399997 0.896000028,4 2,4 C3.10399997,4 4,3.10399997 4,2 C4,0.896000028 3.10399997,0 2,0 Z"></path>
                    </g>
                    <g transform="translate(31.000000, 20.000000)" id="Path">
                        <path d="M2,0 C0.896000028,0 0,0.896000028 0,2 C0,3.10399997 0.896000028,4 2,4 C3.10399997,4 4,3.10399997 4,2 C4,0.896000028 3.10399997,0 2,0 Z"></path>
                    </g>
                    <g transform="translate(39.000000, 20.000000)" id="Path">
                        <path d="M2,0 C0.896000028,0 0,0.896000028 0,2 C0,3.10399997 0.896000028,4 2,4 C3.10399997,4 4,3.10399997 4,2 C4,0.896000028 3.10399997,0 2,0 Z"></path>
                    </g>
                </g>
            </g>
        </g>
    </g>
</svg>