<?xml version="1.0" encoding="UTF-8"?>
<svg width="100px" height="100px" viewBox="0 0 100 100" version="1.1" xmlns="http://www.w3.org/2000/svg" xmlns:xlink="http://www.w3.org/1999/xlink">
    <!-- Generator: Sketch 56.3 (81716) - https://sketch.com -->
    <title>icn_lock_active</title>
    <desc>Created with Sketch.</desc>
    <defs>
        <filter x="-28.8%" y="-28.8%" width="157.5%" height="157.5%" filterUnits="objectBoundingBox" id="filter-1">
            <feOffset dx="0" dy="2" in="SourceAlpha" result="shadowOffsetOuter1"></feOffset>
            <feGaussianBlur stdDeviation="5" in="shadowOffsetOuter1" result="shadowBlurOuter1"></feGaussianBlur>
            <feColorMatrix values="0 0 0 0 0   0 0 0 0 0   0 0 0 0 0  0 0 0 0.5 0" type="matrix" in="shadowBlurOuter1" result="shadowMatrixOuter1"></feColorMatrix>
            <feMerge>
                <feMergeNode in="shadowMatrixOuter1"></feMergeNode>
                <feMergeNode in="SourceGraphic"></feMergeNode>
            </feMerge>
        </filter>
    </defs>
    <g id="Icons" stroke="none" stroke-width="1" fill="none" fill-rule="evenodd">
        <g transform="translate(-690.000000, -692.000000)" id="icn_lock_active">
            <g filter="url(#filter-1)" transform="translate(700.000000, 700.000000)">
                <rect id="Rectangle" fill="#B9FFB7" x="0" y="0" width="80" height="80" rx="10"></rect>
                <g id="Group" transform="translate(20.000000, 12.000000)" fill-rule="nonzero">
                    <g transform="translate(9.000000, 4.500000)" fill="#BCC1C5" id="Path">
                        <path d="M22,25.5 C22,25.5 22,11.5 22,11.5 C22,5.43499994 17.0650001,0.5 11,0.5 C4.93499994,0.5 0,5.43499994 0,11.5 C0,11.5 0,25.5 0,25.5 C0,25.5 1,25.5 1,25.5 C1,25.5 1,11.5 1,11.5 C1,5.97700024 5.47700024,1.5 11,1.5 C16.5229998,1.5 21,5.97700024 21,11.5 C21,11.5 21,25.5 21,25.5 C21,25.5 22,25.5 22,25.5 Z"></path>
                    </g>
                    <g transform="translate(4.000000, 0.000000)" fill="#BCC1C5" id="Path">
                        <path d="M1,30 C1,30 1,16 1,16 C1,7.72900009 7.72900009,1 16,1 C24.2709999,1 31,7.72900009 31,16 C31,16 31,30 31,30 C31,30 32,30 32,30 C32,30 32,16 32,16 C32,7.16300011 24.8369999,0 16,0 C7.16300011,0 0,7.16300011 0,16 C0,16 0,30 0,30 C0,30 1,30 1,30 Z"></path>
                    </g>
                    <g transform="translate(1.000000, 35.500000)" fill="#BCC1C5" id="Path">
                        <path d="M20.483,1.20899963 C20.483,1.20899963 23,7.5 23,7.5 C23,7.5 15,7.5 15,7.5 C15,7.5 17.516,1.20899963 17.516,1.20899963 C17.0930001,1.03899956 16.7119999,0.793999672 16.3759999,0.5 C16.3759999,0.5 0,0.5 0,0.5 C0,10.993 8.50599957,19.5 19,19.5 C29.493,19.5 38,10.993 38,0.5 C38,0.5 21.6240001,0.5 21.6240001,0.5 C21.2869999,0.793999672 20.906,1.03899956 20.483,1.20899963 Z"></path>
                    </g>
                    <g transform="translate(1.000000, 16.500000)" fill="#BCC1C5" id="Path">
                        <path d="M19,0.5 C8.50699997,0.5 0,9.00700003 0,19.5 C0,19.5 16.3759999,19.5 16.3759999,19.5 C15.5369999,18.7690001 15,17.7010002 15,16.5 C15,14.2909999 16.7909999,12.5 19,12.5 C21.2090001,12.5 23,14.2909999 23,16.5 C23,17.7010002 22.4630001,18.7690001 21.6240001,19.5 C21.6240001,19.5 38,19.5 38,19.5 C38,9.00700003 29.493,0.5 19,0.5 Z"></path>
                    </g>
                    <g transform="translate(0.500000, 17.000000)" fill="#BCC1C5" id="Path">
                        <path d="M15.5,26 C15.5,26 18.0170002,19.709 18.0170002,19.709 C16.5430002,19.119 15.5,17.684 15.5,16 C15.5,13.7909999 17.2909999,12 19.5,12 C19.5,12 19.5,0 19.5,0 C9.00700003,0 0.5,8.50699997 0.5,19 C0.5,29.493 9.00700003,38 19.5,38 C19.5,38 19.5,26 19.5,26 C19.5,26 15.5,26 15.5,26 Z"></path>
                    </g>
                    <g transform="translate(19.500000, 17.000000)" fill="#BCC1C5" id="Path">
                        <path d="M0.5,0 C0.5,0 0.5,12 0.5,12 C2.70900011,12 4.5,13.7909999 4.5,16 C4.5,17.684 3.45699978,19.119 1.9829998,19.709 C1.9829998,19.709 4.5,26 4.5,26 C4.5,26 0.5,26 0.5,26 C0.5,26 0.5,38 0.5,38 C10.993,38 19.5,29.493 19.5,19 C19.5,8.50699997 10.993,0 0.5,0 Z"></path>
                    </g>
                    <g transform="translate(4.500000, 21.000000)" fill="#34A852" id="Path">
                        <path d="M3.5,15 C3.5,8.3829999 8.88300002,3 15.5,3 C15.5,3 15.5,0 15.5,0 C7.21600002,0 0.5,6.7159996 0.5,15 C0.5,23.2840004 7.21600002,30 15.5,30 C15.5,30 15.5,27 15.5,27 C8.88300002,27 3.5,21.6170001 3.5,15 Z"></path>
                    </g>
                    <g transform="translate(19.500000, 21.000000)" fill="#34A852" id="Path">
                        <path d="M0.5,0 C0.5,0 0.5,3 0.5,3 C7.11699998,3 12.5,8.3829999 12.5,15 C12.5,21.6170001 7.11699998,27 0.5,27 C0.5,27 0.5,30 0.5,30 C8.78399998,30 15.5,23.2840004 15.5,15 C15.5,6.7159996 8.78399998,0 0.5,0 Z"></path>
                    </g>
                    <g transform="translate(5.000000, 35.500000)" fill="#34A852" id="Path">
                        <path d="M15,12.5 C8.3829999,12.5 3,7.11699998 3,0.5 C3,0.5 0,0.5 0,0.5 C0,8.78399998 6.7159996,15.5 15,15.5 C23.2840004,15.5 30,8.78399998 30,0.5 C30,0.5 27,0.5 27,0.5 C27,7.11699998 21.6170001,12.5 15,12.5 Z"></path>
                    </g>
                    <g transform="translate(5.000000, 20.500000)" fill="#34A852" id="Path">
                        <path d="M0,15.5 C0,15.5 3,15.5 3,15.5 C3,8.88300002 8.3829999,3.5 15,3.5 C21.6170001,3.5 27,8.88300002 27,15.5 C27,15.5 30,15.5 30,15.5 C30,7.21600002 23.2840004,0.5 15,0.5 C6.7159996,0.5 0,7.21600002 0,15.5 Z"></path>
                    </g>
                </g>
            </g>
        </g>
    </g>
</svg>
