<?xml version="1.0" encoding="UTF-8"?>
<svg width="100px" height="100px" viewBox="0 0 100 100" version="1.1" xmlns="http://www.w3.org/2000/svg" xmlns:xlink="http://www.w3.org/1999/xlink">
    <!-- Generator: Sketch 56.3 (81716) - https://sketch.com -->
    <title>icn_android_tv_active</title>
    <desc>Created with Sketch.</desc>
    <defs>
        <filter x="-28.8%" y="-28.8%" width="157.5%" height="157.5%" filterUnits="objectBoundingBox" id="filter-1">
            <feOffset dx="0" dy="2" in="SourceAlpha" result="shadowOffsetOuter1"></feOffset>
            <feGaussianBlur stdDeviation="5" in="shadowOffsetOuter1" result="shadowBlurOuter1"></feGaussianBlur>
            <feColorMatrix values="0 0 0 0 0   0 0 0 0 0   0 0 0 0 0  0 0 0 0.5 0" type="matrix" in="shadowBlurOuter1" result="shadowMatrixOuter1"></feColorMatrix>
            <feMerge>
                <feMergeNode in="shadowMatrixOuter1"></feMergeNode>
                <feMergeNode in="SourceGraphic"></feMergeNode>
            </feMerge>
        </filter>
    </defs>
    <g id="Icons" stroke="none" stroke-width="1" fill="none" fill-rule="evenodd">
        <g transform="translate(-90.000000, -92.000000)" id="icn_android_tv_active">
            <g filter="url(#filter-1)" transform="translate(100.000000, 100.000000)">
                <rect id="Rectangle" fill="#FFFFFF" x="-2.84217094e-14" y="0" width="80" height="80" rx="10"></rect>
                <g id="Group" transform="translate(10.000000, 18.000000)" fill-rule="nonzero">
                    <g transform="translate(0.732199, 0.446801)">
                        <g transform="translate(0.067801, 0.067799)" fill="#BCC1C5" id="Shape">
                            <path d="M52.0572014,1.20010073 C54.8930001,1.20010073 57.2,3.50720067 57.2,6.34290018 C57.2,6.34290018 57.2,36.0572012 57.2,36.0572012 C57.2,38.8929998 54.8930001,41.2000006 52.0572014,41.2000006 C52.0572014,41.2000006 6.34279947,41.2000006 6.34279947,41.2000006 C3.50710149,41.2000006 1.20000002,38.8929998 1.20000002,36.0572012 C1.20000002,36.0572012 1.20000002,6.34290018 1.20000002,6.34290018 C1.20000002,3.50720067 3.50710149,1.20010073 6.34279947,1.20010073 C6.34279947,1.20010073 52.0572014,1.20010073 52.0572014,1.20010073 Z M52.0571014,0.0572006234 C52.0571014,0.0572006234 6.34279947,0.0572006234 6.34279947,0.0572006234 C2.87130131,0.0572006234 0.0571014413,2.87140049 0.0571014413,6.34290018 C0.0571014413,6.34290018 0.0571014413,36.0572006 0.0571014413,36.0572006 C0.0571014413,39.5287008 2.87130131,42.3429007 6.34279947,42.3429007 C6.34279947,42.3429007 52.0571014,42.3429007 52.0571014,42.3429007 C55.5286019,42.3429007 58.3428994,39.5287008 58.3428994,36.0572006 C58.3428994,36.0572006 58.3428994,6.34290018 58.3428994,6.34290018 C58.3428994,2.87140049 55.5286019,0.0572006234 52.0571014,0.0572006234 Z"></path>
                        </g>
                        <g transform="translate(0.067801, 36.067801)" fill="#BCC1C5" id="Path">
                            <path d="M0.0571990975,0.0572000512 C0.0571990975,3.52880006 2.87130131,6.34280004 6.34279947,6.34280004 C6.34279947,6.34280004 52.0571991,6.34280004 52.0571991,6.34280004 C55.5286996,6.34280004 58.3428018,3.52880006 58.3428018,0.0572000512 C58.3428018,0.0572000512 0.0571990975,0.0572000512 0.0571990975,0.0572000512 Z"></path>
                        </g>
                        <g transform="translate(29.200000, 42.400001)" fill="#000000" fill-opacity="0" id="Path" stroke="#BCC1C5" stroke-width="1.14290002">
                            <path d="M0.0678985606,0.0106994631 C0.0678985606,0.0106994631 0.0678985606,5.43930062 0.0678985606,5.43930062"></path>
                        </g>
                        <g transform="translate(14.400000, 48.000001)" fill="#000000" fill-opacity="0" id="Path" stroke="#BCC1C5" stroke-width="1.14290002">
                            <path d="M0.0106994631,0.125000002 C0.0106994631,0.125000002 29.7250004,0.125000002 29.7250004,0.125000002"></path>
                        </g>
                    </g>
                    <g transform="translate(17.950099, 14.025000)" fill="#000000" fill-opacity="0" id="Path" stroke="#4285F4" stroke-linecap="round" stroke-width="4.00000006">
                        <path d="M0.0500000007,0.0840000013 C0.0500000007,0.0840000013 0.0500000007,15.2640002 0.0500000007,15.2640002"></path>
                    </g>
                    <g transform="translate(25.950099, 19.725000)" fill="#000000" fill-opacity="0" id="Path" stroke="#EA4335" stroke-linecap="round" stroke-width="4.00000006">
                        <path d="M0.0500000007,0.0820000012 C0.0500000007,0.0820000012 0.0500000007,3.87700006 0.0500000007,3.87700006"></path>
                    </g>
                    <g transform="translate(33.950103, 15.925000)" fill="#000000" fill-opacity="0" id="Path" stroke="#FBBC04" stroke-linecap="round" stroke-width="4.00000006">
                        <path d="M0.0500000007,0.0830000012 C0.0500000007,0.0830000012 0.0500000007,11.4680002 0.0500000007,11.4680002"></path>
                    </g>
                    <g transform="translate(41.950103, 17.825000)" fill="#000000" fill-opacity="0" id="Path" stroke="#34A853" stroke-linecap="round" stroke-width="4.00000006">
                        <path d="M0.0500000007,0.0830000012 C0.0500000007,0.0830000012 0.0500000007,7.67300011 0.0500000007,7.67300011"></path>
                    </g>
                </g>
            </g>
        </g>
    </g>
</svg>