<?xml version="1.0" encoding="UTF-8"?>
<svg width="100px" height="100px" viewBox="0 0 100 100" version="1.1" xmlns="http://www.w3.org/2000/svg" xmlns:xlink="http://www.w3.org/1999/xlink">
    <!-- Generator: Sketch 56.3 (81716) - https://sketch.com -->
    <title>icn_blinds</title>
    <desc>Created with Sketch.</desc>
    <defs>
        <filter x="-28.8%" y="-28.8%" width="157.5%" height="157.5%" filterUnits="objectBoundingBox" id="filter-1">
            <feOffset dx="0" dy="2" in="SourceAlpha" result="shadowOffsetOuter1"></feOffset>
            <feGaussianBlur stdDeviation="5" in="shadowOffsetOuter1" result="shadowBlurOuter1"></feGaussianBlur>
            <feColorMatrix values="0 0 0 0 0   0 0 0 0 0   0 0 0 0 0  0 0 0 0.5 0" type="matrix" in="shadowBlurOuter1" result="shadowMatrixOuter1"></feColorMatrix>
            <feMerge>
                <feMergeNode in="shadowMatrixOuter1"></feMergeNode>
                <feMergeNode in="SourceGraphic"></feMergeNode>
            </feMerge>
        </filter>
    </defs>
    <g id="Icons" stroke="none" stroke-width="1" fill="none" fill-rule="evenodd">
        <g transform="translate(-190.000000, 8.000000)" id="icn_blinds">
            <g filter="url(#filter-1)" transform="translate(200.000000, 0.000000)">
                <rect id="Rectangle" fill="#FFFFFF" x="0" y="0" width="80" height="80" rx="10"></rect>
                <g id="Group" transform="translate(19.000000, 11.000000)" fill-rule="nonzero">
                    <g transform="translate(0.750000, 1.000000)" fill="#FABB04" id="Path">
                        <path d="M19.75,0 C19.75,0 5.25,0 5.25,0 C2.49300003,0 0.25,2.24299997 0.25,5 C0.25,5 0.25,6 0.25,6 C0.25,6 19.75,6 19.75,6 C19.75,6 19.75,0 19.75,0 Z"></path>
                    </g>
                    <g transform="translate(21.250000, 1.000000)" fill="#FABB04" id="Path">
                        <path d="M14.75,0 C14.75,0 0.25,0 0.25,0 C0.25,0 0.25,6 0.25,6 C0.25,6 19.75,6 19.75,6 C19.75,6 19.75,5 19.75,5 C19.75,2.24299997 17.507,0 14.75,0 Z"></path>
                    </g>
                    <g transform="translate(0.750000, 8.500000)" fill="#FABB04" id="Path">
                        <path d="M19.75,0.5 C19.75,0.5 0.25,0.5 0.25,0.5 C0.25,0.5 0.25,3.5 0.25,3.5 C0.25,3.5 19.75,3.5 19.75,3.5 C19.75,3.5 19.75,0.5 19.75,0.5 Z"></path>
                    </g>
                    <g transform="translate(21.250000, 8.500000)" fill="#FABB04" id="Path">
                        <path d="M0.25,3.5 C0.25,3.5 19.75,3.5 19.75,3.5 C19.75,3.5 19.75,0.5 19.75,0.5 C19.75,0.5 0.25,0.5 0.25,0.5 C0.25,0.5 0.25,3.5 0.25,3.5 Z"></path>
                    </g>
                    <g transform="translate(0.750000, 19.000000)" fill="#FABB04" id="Path">
                        <path d="M19.75,0 C19.75,0 0.25,0 0.25,0 C0.25,0 0.25,2 0.25,2 C0.25,2 19.75,2 19.75,2 C19.75,2 19.75,0 19.75,0 Z"></path>
                    </g>
                    <g transform="translate(21.250000, 19.000000)" fill="#FABB04" id="Path">
                        <path d="M0.25,2 C0.25,2 19.75,2 19.75,2 C19.75,2 19.75,0 19.75,0 C19.75,0 0.25,0 0.25,0 C0.25,0 0.25,2 0.25,2 Z"></path>
                    </g>
                    <g transform="translate(0.750000, 13.500000)" fill="#FABB04" id="Path">
                        <path d="M19.75,0.5 C19.75,0.5 0.25,0.5 0.25,0.5 C0.25,0.5 0.25,3.5 0.25,3.5 C0.25,3.5 19.75,3.5 19.75,3.5 C19.75,3.5 19.75,0.5 19.75,0.5 Z"></path>
                    </g>
                    <g transform="translate(21.250000, 13.500000)" fill="#FABB04" id="Path">
                        <path d="M0.25,3.5 C0.25,3.5 19.75,3.5 19.75,3.5 C19.75,3.5 19.75,0.5 19.75,0.5 C19.75,0.5 0.25,0.5 0.25,0.5 C0.25,0.5 0.25,3.5 0.25,3.5 Z"></path>
                    </g>
                    <g fill="#BCC1C5" id="Shape">
                        <path d="M36,0 C36,0 21.5,0 21.5,0 C21.5,0 20.5,0 20.5,0 C20.5,0 6,0 6,0 C2.68700027,0 0,2.68700027 0,6 C0,6 0,7 0,7 C0,7 0,9 0,9 C0,9 0,12 0,12 C0,12 0,14 0,14 C0,14 0,17 0,17 C0,17 0,19 0,19 C0,19 0,21 0,21 C0,21 0,52 0,52 C0,55.3129997 2.68700027,58 6,58 C6,58 20.5,58 20.5,58 C20.5,58 21.5,58 21.5,58 C21.5,58 36,58 36,58 C39.3129997,58 42,55.3129997 42,52 C42,52 42,21 42,21 C42,21 42,19 42,19 C42,19 42,17 42,17 C42,17 42,14 42,14 C42,14 42,12 42,12 C42,12 42,9 42,9 C42,9 42,7 42,7 C42,7 42,6 42,6 C42,2.68700027 39.3129997,0 36,0 Z M6,57 C3.24300003,57 1,54.757 1,52 C1,52 1,21 1,21 C1,21 1,19 1,19 C1,19 1,17 1,17 C1,17 1,14 1,14 C1,14 1,12 1,12 C1,12 1,9 1,9 C1,9 1,7 1,7 C1,7 1,6 1,6 C1,3.24300003 3.24300003,1 6,1 C6,1 20.5,1 20.5,1 C20.5,1 20.5,7 20.5,7 C20.5,7 20.5,9 20.5,9 C20.5,9 20.5,12 20.5,12 C20.5,12 20.5,14 20.5,14 C20.5,14 20.5,17 20.5,17 C20.5,17 20.5,19 20.5,19 C20.5,19 20.5,21 20.5,21 C20.5,21 20.5,57 20.5,57 C20.5,57 6,57 6,57 Z M41,9 C41,9 41,12 41,12 C41,12 41,14 41,14 C41,14 41,17 41,17 C41,17 41,19 41,19 C41,19 41,21 41,21 C41,21 41,52 41,52 C41,54.757 38.757,57 36,57 C36,57 21.5,57 21.5,57 C21.5,57 21.5,21 21.5,21 C21.5,21 21.5,19 21.5,19 C21.5,19 21.5,17 21.5,17 C21.5,17 21.5,14 21.5,14 C21.5,14 21.5,12 21.5,12 C21.5,12 21.5,9 21.5,9 C21.5,9 21.5,7 21.5,7 C21.5,7 21.5,1 21.5,1 C21.5,1 36,1 36,1 C38.757,1 41,3.24300003 41,6 C41,6 41,7 41,7 C41,7 41,9 41,9 Z"></path>
                    </g>
                </g>
            </g>
        </g>
    </g>
</svg>