<?xml version="1.0" encoding="UTF-8"?>
<svg width="100px" height="100px" viewBox="0 0 100 100" version="1.1" xmlns="http://www.w3.org/2000/svg" xmlns:xlink="http://www.w3.org/1999/xlink">
    <!-- Generator: Sketch 56.3 (81716) - https://sketch.com -->
    <title>icn_wash_machine</title>
    <desc>Created with Sketch.</desc>
    <defs>
        <filter x="-28.8%" y="-28.8%" width="157.5%" height="157.5%" filterUnits="objectBoundingBox" id="filter-1">
            <feOffset dx="0" dy="2" in="SourceAlpha" result="shadowOffsetOuter1"></feOffset>
            <feGaussianBlur stdDeviation="5" in="shadowOffsetOuter1" result="shadowBlurOuter1"></feGaussianBlur>
            <feColorMatrix values="0 0 0 0 0   0 0 0 0 0   0 0 0 0 0  0 0 0 0.5 0" type="matrix" in="shadowBlurOuter1" result="shadowMatrixOuter1"></feColorMatrix>
            <feMerge>
                <feMergeNode in="shadowMatrixOuter1"></feMergeNode>
                <feMergeNode in="SourceGraphic"></feMergeNode>
            </feMerge>
        </filter>
    </defs>
    <g id="Icons" stroke="none" stroke-width="1" fill="none" fill-rule="evenodd">
        <g transform="translate(-490.000000, -1392.000000)" id="icn_wash_machine">
            <g filter="url(#filter-1)" transform="translate(500.000000, 1400.000000)">
                <rect id="Rectangle" fill="#FFFFFF" x="0" y="0" width="80" height="80" rx="10"></rect>
                <g id="Group" transform="translate(19.000000, 14.000000)" fill-rule="nonzero">
                    <g transform="translate(0.000000, 0.500000)" fill="#BCC1C5" id="Shape">
                        <path d="M36,0.5 C36,0.5 6,0.5 6,0.5 C2.68700027,0.5 0,3.18700027 0,6.5 C0,6.5 0,9.50200081 0,9.50200081 C0,9.50200081 0,13.5249996 0,13.5249996 C0,13.5249996 0,45.5 0,45.5 C0,48.8139992 2.68700027,51.5 6,51.5 C6,51.5 36,51.5 36,51.5 C39.3139992,51.5 42,48.8139992 42,45.5 C42,45.5 42,13.5249996 42,13.5249996 C42,13.5249996 42,9.50200081 42,9.50200081 C42,9.50200081 42,6.5 42,6.5 C42,3.18700027 39.3139992,0.5 36,0.5 Z M1,6.5 C1,3.74300003 3.24300003,1.5 6,1.5 C6,1.5 14,1.5 14,1.5 C14,1.5 14,9.50200081 14,9.50200081 C14,9.50200081 1,9.50200081 1,9.50200081 C1,9.50200081 1,6.5 1,6.5 Z M39,30.5 C39,40.441 30.941,48.5 21,48.5 C11.059,48.5 3,40.441 3,30.5 C3,20.559 11.059,12.5 21,12.5 C30.941,12.5 39,20.559 39,30.5 Z M15,9.50200081 C15,9.50200081 15,1.5 15,1.5 C15,1.5 36,1.5 36,1.5 C38.757,1.5 41,3.74300003 41,6.5 C41,6.5 41,9.50200081 41,9.50200081 C41,9.50200081 15,9.50200081 15,9.50200081 Z"></path>
                    </g>
                    <g transform="translate(17.500000, 5.500000)" fill="#BCC1C5" id="Path">
                        <path d="M0.5,1.5 C0.5,1.5 11.5,1.5 11.5,1.5 C11.5,1.5 11.5,0.5 11.5,0.5 C11.5,0.5 0.5,0.5 0.5,0.5 C0.5,0.5 0.5,1.5 0.5,1.5 Z"></path>
                    </g>
                    <g transform="translate(32.000000, 4.000000)" fill="#4285F4" id="Path">
                        <path d="M2,0 C0.896000028,0 0,0.896000028 0,2 C0,3.10399997 0.896000028,4 2,4 C3.10399997,4 4,3.10399997 4,2 C4,0.896000028 3.10399997,0 2,0 Z"></path>
                    </g>


                    <g id="Group" transform="translate(-3, 6.4), scale(0.86, 0.86)" fill-rule="nonzero">
                        <g transform="translate(0.000000, 1.000000)" fill="#F8F8F9" id="Shape">
                            <path d="M0,0 C0,0 56,0 56,0 C56,0 56,56 56,56 C56,56 0,56 0,56 C0,56 0,0 0,0 Z M0,56 C0,56 56,56 56,56 C56,56 56,0 56,0 C56,0 0,0 0,0 C0,0 0,56 0,56 Z M28,7 C39.5979996,7 49,16.4020004 49,28 C49,39.5979996 39.5979996,49 28,49 C16.4020004,49 7,39.5979996 7,28 C7,16.4020004 16.4020004,7 28,7 Z"></path>
                        </g>
                        <g transform="translate(0.000000, 1.000000)" fill="#E8EAEC" id="Shape">
                            <path d="M0,0 C0,0 56,0 56,0 C56,0 56,56 56,56 C56,56 0,56 0,56 C0,56 0,0 0,0 Z M0,56 C0,56 56,56 56,56 C56,56 56,0 56,0 C56,0 0,0 0,0 C0,0 0,56 0,56 Z M28,20 C32.4180002,20 36,23.5819998 36,28 C36,32.4180002 32.4180002,36 28,36 C23.5819998,36 20,32.4180002 20,28 C20,23.5819998 23.5819998,20 28,20 Z"></path>
                        </g>
                        <g transform="translate(12.500000, 14.000000)" fill="#E9EAED" id="Path">
                            <path d="M15.5,0 C7.21600002,0 0.5,6.7159996 0.5,15 C0.5,23.2840004 7.21600002,30 15.5,30 C15.5,30 15.5,0 15.5,0 Z"></path>
                        </g>
                        <g transform="translate(27.500000, 14.000000)" fill="#E9EAED" id="Path">
                            <path d="M0.5,0 C8.78399998,0 15.5,6.7159996 15.5,15 C15.5,23.2840004 8.78399998,30 0.5,30 C0.5,30 0.5,0 0.5,0 Z"></path>
                        </g>
                        <g transform="translate(0.000000, 1.000000)" fill="#FFFFFF" id="Shape">
                            <path d="M0,0 C0,0 56,0 56,0 C56,0 56,56 56,56 C56,56 0,56 0,56 C0,56 0,0 0,0 Z M0,56 C0,56 56,56 56,56 C56,56 56,0 56,0 C56,0 0,0 0,0 C0,0 0,56 0,56 Z M28,20 C32.4180002,20 36,23.5819998 36,28 C36,32.4180002 32.4180002,36 28,36 C23.5819998,36 20,32.4180002 20,28 C20,23.5819998 23.5819998,20 28,20 Z"></path>
                        </g>
                        <g transform="translate(0.000000, 0.500000)" fill="#DFE0E4" id="Shape">
                            <path d="M0,0.5 C0,0.5 56,0.5 56,0.5 C56,0.5 56,56.5 56,56.5 C56,56.5 0,56.5 0,56.5 C0,56.5 0,0.5 0,0.5 Z M0,56.5 C0,56.5 56,56.5 56,56.5 C56,56.5 56,0.5 56,0.5 C56,0.5 0,0.5 0,0.5 C0,0.5 0,56.5 0,56.5 Z M47.7880001,35.5480001 C44.8920002,43.6799998 37.1260004,49.5 28,49.5 C18.8739996,49.5 11.1079998,43.6799998 8.21199989,35.5480001 C9.3390007,36.155 10.6289997,36.5 12,36.5 C16.4180002,36.5 20,32.9180002 20,28.5 C20,32.9180002 23.5809999,36.5 28,36.5 C32.4180002,36.5 36,32.9180002 36,28.5 C36,32.9180002 39.5819998,36.5 44,36.5 C45.3700008,36.5 46.6599998,36.155 47.7880001,35.5480001 Z"></path>
                        </g>
                    </g>
                </g>
            </g>
        </g>
    </g>
</svg>