<?xml version="1.0" encoding="UTF-8"?>
<svg width="100px" height="100px" viewBox="0 0 100 100" version="1.1" xmlns="http://www.w3.org/2000/svg" xmlns:xlink="http://www.w3.org/1999/xlink">
    <!-- Generator: Sketch 56.3 (81716) - https://sketch.com -->
    <title>icn_sd_assistant_active</title>
    <desc>Created with Sketch.</desc>
    <defs>
        <filter x="-28.8%" y="-28.8%" width="157.5%" height="157.5%" filterUnits="objectBoundingBox" id="filter-1">
            <feOffset dx="0" dy="2" in="SourceAlpha" result="shadowOffsetOuter1"></feOffset>
            <feGaussianBlur stdDeviation="5" in="shadowOffsetOuter1" result="shadowBlurOuter1"></feGaussianBlur>
            <feColorMatrix values="0 0 0 0 0   0 0 0 0 0   0 0 0 0 0  0 0 0 0.5 0" type="matrix" in="shadowBlurOuter1" result="shadowMatrixOuter1"></feColorMatrix>
            <feMerge>
                <feMergeNode in="shadowMatrixOuter1"></feMergeNode>
                <feMergeNode in="SourceGraphic"></feMergeNode>
            </feMerge>
        </filter>
    </defs>
    <g id="Icons" stroke="none" stroke-width="1" fill="none" fill-rule="evenodd">
        <g transform="translate(-790.000000, -1092.000000)" id="icn_sd_assistant_active">
            <g filter="url(#filter-1)" transform="translate(800.000000, 1100.000000)">
                <rect id="Rectangle" fill="#FFFFFF" x="0" y="0" width="80" height="80" rx="10"></rect>
                <g id="Group" transform="translate(10.000000, 18.000000)" fill-rule="nonzero">
                    <g transform="translate(0.732102, 0.832100)" fill="#BCC1C5" id="Path">
                        <g transform="translate(49.825098, 13.153600)">
                            <path d="M8.01430028,0.0142999651 C8.01430028,0.0142999651 7.44280006,0.0142999651 7.44280006,0.0142999651 C7.44280006,0.0142999651 0.0141998293,0.0142999651 0.0141998293,0.0142999651 C0.0141998293,0.0142999651 0.0141998293,4.5857001 0.0141998293,4.5857001 C0.0141998293,4.5857001 7.44280006,4.5857001 7.44280006,4.5857001 C7.44280006,4.5857001 8.01430028,4.5857001 8.01430028,4.5857001 C8.01430028,4.5857001 8.58569997,4.5857001 8.58569997,4.5857001 C8.58569997,4.5857001 8.58569997,0.0142999651 8.58569997,0.0142999651 C8.58569997,0.0142999651 8.01430028,0.0142999651 8.01430028,0.0142999651 Z"></path>
                        </g>
                        <g transform="translate(0.110800, 13.153600)">
                            <path d="M0.585699853,0.0142999651 C0.585699853,0.0142999651 0.0143001559,0.0142999651 0.0143001559,0.0142999651 C0.0143001559,0.0142999651 0.0143001559,4.5857001 0.0143001559,4.5857001 C0.0143001559,4.5857001 0.585699853,4.5857001 0.585699853,4.5857001 C0.585699853,4.5857001 1.15709993,4.5857001 1.15709993,4.5857001 C1.15709993,4.5857001 8.58569997,4.5857001 8.58569997,4.5857001 C8.58569997,4.5857001 8.58569997,0.0142999651 8.58569997,0.0142999651 C8.58569997,0.0142999651 1.15709993,0.0142999651 1.15709993,0.0142999651 C1.15709993,0.0142999651 0.585699853,0.0142999651 0.585699853,0.0142999651 Z"></path>
                        </g>
                        <g transform="translate(49.825098, 24.582102)">
                            <path d="M8.01430028,0.0142999651 C8.01430028,0.0142999651 7.44280006,0.0142999651 7.44280006,0.0142999651 C7.44280006,0.0142999651 0.0141998293,0.0142999651 0.0141998293,0.0142999651 C0.0141998293,0.0142999651 0.0141998293,4.58580005 0.0141998293,4.58580005 C0.0141998293,4.58580005 7.44280006,4.58580005 7.44280006,4.58580005 C7.44280006,4.58580005 8.01430028,4.58580005 8.01430028,4.58580005 C8.01430028,4.58580005 8.58569997,4.58580005 8.58569997,4.58580005 C8.58569997,4.58580005 8.58569997,0.0142999651 8.58569997,0.0142999651 C8.58569997,0.0142999651 8.01430028,0.0142999651 8.01430028,0.0142999651 Z"></path>
                        </g>
                        <g transform="translate(0.110800, 24.582102)">
                            <path d="M0.585699853,0.0142999651 C0.585699853,0.0142999651 0.0143001559,0.0142999651 0.0143001559,0.0142999651 C0.0143001559,0.0142999651 0.0143001559,4.58580005 0.0143001559,4.58580005 C0.0143001559,4.58580005 0.585699853,4.58580005 0.585699853,4.58580005 C0.585699853,4.58580005 1.15709993,4.58580005 1.15709993,4.58580005 C1.15709993,4.58580005 8.58569997,4.58580005 8.58569997,4.58580005 C8.58569997,4.58580005 8.58569997,0.0142999651 8.58569997,0.0142999651 C8.58569997,0.0142999651 1.15709993,0.0142999651 1.15709993,0.0142999651 C1.15709993,0.0142999651 0.585699853,0.0142999651 0.585699853,0.0142999651 Z"></path>
                        </g>
                        <g transform="translate(49.825098, 18.867900)">
                            <path d="M8.01430028,0.0142999651 C8.01430028,0.0142999651 7.44280006,0.0142999651 7.44280006,0.0142999651 C7.44280006,0.0142999651 0.0141998293,0.0142999651 0.0141998293,0.0142999651 C0.0141998293,0.0142999651 0.0141998293,4.5857001 0.0141998293,4.5857001 C0.0141998293,4.5857001 7.44280006,4.5857001 7.44280006,4.5857001 C7.44280006,4.5857001 8.01430028,4.5857001 8.01430028,4.5857001 C8.01430028,4.5857001 8.58569997,4.5857001 8.58569997,4.5857001 C8.58569997,4.5857001 8.58569997,0.0142999651 8.58569997,0.0142999651 C8.58569997,0.0142999651 8.01430028,0.0142999651 8.01430028,0.0142999651 Z"></path>
                        </g>
                        <g transform="translate(0.110800, 18.867900)">
                            <path d="M0.585699853,0.0142999651 C0.585699853,0.0142999651 0.0143001559,0.0142999651 0.0143001559,0.0142999651 C0.0143001559,0.0142999651 0.0143001559,4.5857001 0.0143001559,4.5857001 C0.0143001559,4.5857001 0.585699853,4.5857001 0.585699853,4.5857001 C0.585699853,4.5857001 1.15709993,4.5857001 1.15709993,4.5857001 C1.15709993,4.5857001 8.58569997,4.5857001 8.58569997,4.5857001 C8.58569997,4.5857001 8.58569997,0.0142999651 8.58569997,0.0142999651 C8.58569997,0.0142999651 1.15709993,0.0142999651 1.15709993,0.0142999651 C1.15709993,0.0142999651 0.585699853,0.0142999651 0.585699853,0.0142999651 Z"></path>
                        </g>
                        <g transform="translate(0.667899, 7.439300)">
                            <path d="M56.6000008,0.0142999651 C56.6000008,0.0142999651 0.600000009,0.0142999651 0.600000009,0.0142999651 C0.600000009,0.0142999651 0.0286010746,0.0142999651 0.0286010746,0.0142999651 C0.0286010746,0.0142999651 0.0286010746,4.5857001 0.0286010746,4.5857001 C0.0286010746,4.5857001 0.600000009,4.5857001 0.600000009,4.5857001 C0.600000009,4.5857001 8.02860107,4.5857001 8.02860107,4.5857001 C8.02860107,4.5857001 8.02860107,1.15719997 8.02860107,1.15719997 C8.02860107,1.15719997 49.1714012,1.15719997 49.1714012,1.15719997 C49.1714012,1.15719997 49.1714012,4.5857001 49.1714012,4.5857001 C49.1714012,4.5857001 56.6000008,4.5857001 56.6000008,4.5857001 C56.6000008,4.5857001 57.1713998,4.5857001 57.1713998,4.5857001 C57.1713998,4.5857001 57.1713998,0.0142999651 57.1713998,0.0142999651 C57.1713998,0.0142999651 56.6000008,0.0142999651 56.6000008,0.0142999651 Z"></path>
                        </g>
                        <g transform="translate(0.667899, 30.296399)">
                            <path d="M56.6000008,0.01420002 C56.6000008,0.01420002 49.1714012,0.01420002 49.1714012,0.01420002 C49.1714012,0.01420002 49.1714012,3.4428001 49.1714012,3.4428001 C49.1714012,3.4428001 8.02860107,3.4428001 8.02860107,3.4428001 C8.02860107,3.4428001 8.02860107,0.01420002 8.02860107,0.01420002 C8.02860107,0.01420002 0.600000009,0.01420002 0.600000009,0.01420002 C0.600000009,0.01420002 0.0286010746,0.01420002 0.0286010746,0.01420002 C0.0286010746,0.01420002 0.0286010746,4.58580005 0.0286010746,4.58580005 C0.0286010746,4.58580005 0.600000009,4.58580005 0.600000009,4.58580005 C0.600000009,4.58580005 56.6000008,4.58580005 56.6000008,4.58580005 C56.6000008,4.58580005 57.1713998,4.58580005 57.1713998,4.58580005 C57.1713998,4.58580005 57.1713998,0.01420002 57.1713998,0.01420002 C57.1713998,0.01420002 56.6000008,0.01420002 56.6000008,0.01420002 Z"></path>
                        </g>
                        <g transform="translate(0.067899, 0.025000)">
                            <path d="M52.0571991,0 C52.0571991,0 6.34279947,0 6.34279947,0 C2.87130131,0 0.0571990975,2.81420006 0.0571990975,6.2857001 C0.0571990975,6.2857001 0.0571990975,12 0.0571990975,12 C0.0571990975,12 0.628500376,12 0.628500376,12 C0.628500376,12 1.20000002,12 1.20000002,12 C1.20000002,12 1.20000002,7.42860014 1.20000002,7.42860014 C1.20000002,7.42860014 1.20000002,6.2857001 1.20000002,6.2857001 C1.20000002,3.45000005 3.50710149,1.1429001 6.34279947,1.1429001 C6.34279947,1.1429001 52.0571991,1.1429001 52.0571991,1.1429001 C54.8930001,1.1429001 57.2000009,3.45000005 57.2000009,6.2857001 C57.2000009,6.2857001 57.2000009,7.42860014 57.2000009,7.42860014 C57.2000009,7.42860014 57.2000009,12 57.2000009,12 C57.2000009,12 57.7713998,12 57.7713998,12 C57.7713998,12 58.3428994,12 58.3428994,12 C58.3428994,12 58.3428994,6.2857001 58.3428994,6.2857001 C58.3428994,2.81420006 55.5286996,0 52.0571991,0 Z"></path>
                        </g>
                        <g transform="translate(0.067899, 30.310700)">
                            <path d="M57.7713998,0 C57.7713998,0 57.2000009,0 57.2000009,0 C57.2000009,0 57.2000009,4.57150008 57.2000009,4.57150008 C57.2000009,4.57150008 57.2000009,5.71440009 57.2000009,5.71440009 C57.2000009,8.55020021 54.8930001,10.8572 52.0571014,10.8572 C52.0571014,10.8572 6.34290018,10.8572 6.34290018,10.8572 C3.50710149,10.8572 1.20000002,8.55020021 1.20000002,5.71440009 C1.20000002,5.71440009 1.20000002,4.57150008 1.20000002,4.57150008 C1.20000002,4.57150008 1.20000002,0 1.20000002,0 C1.20000002,0 0.628601084,0 0.628601084,0 C0.628601084,0 0.0571014413,0 0.0571014413,0 C0.0571014413,0 0.0571014413,5.71440009 0.0571014413,5.71440009 C0.0571014413,9.18580012 2.87139897,12.0001001 6.34290018,12.0001001 C6.34290018,12.0001001 52.0571014,12.0001001 52.0571014,12.0001001 C55.5286019,12.0001001 58.3428994,9.18580012 58.3428994,5.71440009 C58.3428994,5.71440009 58.3428994,0 58.3428994,0 C58.3428994,0 57.7713998,0 57.7713998,0 Z"></path>
                        </g>
                    </g>
                    <g transform="translate(17.950099, 14.324999)" fill="#000000" fill-opacity="0" id="Path" stroke="#4285F4" stroke-linecap="round" stroke-width="4.00000006">
                        <path d="M0.0500000007,0.0840000013 C0.0500000007,0.0840000013 0.0500000007,15.2640002 0.0500000007,15.2640002"></path>
                    </g>
                    <g transform="translate(25.950099, 20.024999)" fill="#000000" fill-opacity="0" id="Path" stroke="#EA4335" stroke-linecap="round" stroke-width="4.00000006">
                        <path d="M0.0500000007,0.0820000012 C0.0500000007,0.0820000012 0.0500000007,3.87700006 0.0500000007,3.87700006"></path>
                    </g>
                    <g transform="translate(33.950103, 16.224999)" fill="#000000" fill-opacity="0" id="Path" stroke="#FBBC04" stroke-linecap="round" stroke-width="4.00000006">
                        <path d="M0.0500000007,0.0830000012 C0.0500000007,0.0830000012 0.0500000007,11.4680002 0.0500000007,11.4680002"></path>
                    </g>
                    <g transform="translate(41.950103, 18.124999)" fill="#000000" fill-opacity="0" id="Path" stroke="#34A853" stroke-linecap="round" stroke-width="4.00000006">
                        <path d="M0.0500000007,0.0830000012 C0.0500000007,0.0830000012 0.0500000007,7.67300011 0.0500000007,7.67300011"></path>
                    </g>
                </g>
            </g>
        </g>
    </g>
</svg>