<?xml version="1.0" encoding="UTF-8"?>
<svg width="100px" height="100px" viewBox="0 0 100 100" version="1.1" xmlns="http://www.w3.org/2000/svg" xmlns:xlink="http://www.w3.org/1999/xlink">
<!-- Generator: Sketch 56.3 (81716) - https://sketch.com -->
<title>icn_playstation</title>
<desc>Created with Sketch.</desc>
<defs>
    <filter x="-28.8%" y="-28.8%" width="157.5%" height="157.5%" filterUnits="objectBoundingBox" id="filter-1">
        <feOffset dx="0" dy="2" in="SourceAlpha" result="shadowOffsetOuter1"></feOffset>
        <feGaussianBlur stdDeviation="5" in="shadowOffsetOuter1" result="shadowBlurOuter1"></feGaussianBlur>
        <feColorMatrix values="0 0 0 0 0   0 0 0 0 0   0 0 0 0 0  0 0 0 0.5 0" type="matrix" in="shadowBlurOuter1" result="shadowMatrixOuter1"></feColorMatrix>
        <feMerge>
            <feMergeNode in="shadowMatrixOuter1"></feMergeNode>
            <feMergeNode in="SourceGraphic"></feMergeNode>
        </feMerge>
    </filter>
</defs>
    <g id="Page-1" stroke="none" stroke-width="1" fill="none" fill-rule="evenodd">
        <g id="icn_playstation" filter="url(#filter-1)" transform="translate(10.000000, 8.000000)">
            <rect id="Rectangle" fill="#FFFFFF" fill-rule="nonzero" x="0" y="0" width="80" height="80" rx="10"></rect>
            <g id="Playstation_logo_colour" transform="translate(7.000000, 14.000000)">
                <path d="M36.0708677,10.862965 L36.0270772,51.995645 L25.2642838,48.4114115 L25.2642838,0.0639011752 L39.0023756,3.78306937 C47.7962326,6.20314465 53.1778291,10.9073886 53.0902518,19.1519983 C53.0028082,28.7410944 48.6713606,32.5940875 40.2272842,30.0848918 L40.2272842,11.1760084 C40.2272842,8.8907308 36.0708677,8.75690588 36.0708677,10.862965 L36.0708677,10.862965 Z"
                      id="path7" fill="#DE0029"></path>
                <path d="M20.3200444,40.4347248 L15.2447048,42.1826297 C11.9628715,43.3478996 9.16313972,40.614779 12.1819591,39.4939337 L14.6319121,38.5983963 L5.40015364,35.595686 C2.55608786,36.5818755 -0.112952344,38.6877975 0.0624801241,41.6452513 C0.237505808,44.6469916 6.9313243,45.3642815 12.0945146,46.2156713 C16.9069743,47.0218085 21.2822134,46.5738303 25.26415,45.1399464 L25.26415,42.047971 L20.3200444,40.4347248 L20.3200444,40.4347248 Z M36.1145207,51.995645 L45.5213033,48.6347738 L36.0270772,45.5434971 L36.0270772,51.7711729 L36.1145207,51.995645 L36.1145207,51.995645 Z"
                      id="path9" fill="#F3C202"></path>
                <path d="M61.1408917,42.9895969 L61.3157787,42.9444812 C65.4285478,41.4663117 67.1786708,39.4043954 66.741441,37.4783857 C66.0413405,34.2524493 61.0097905,32.5045492 53.2654131,31.9219123 C47.7090568,31.5189118 42.2401506,32.773168 36.902339,34.654894 L36.027211,34.9689092 L45.6090202,38.0157642 L51.209168,36.0887827 C57.0720544,34.9689092 59.435103,36.9401725 53.7907613,38.7774787 L50.9904838,39.7626925 L61.1408917,42.9895969 L61.1408917,42.9895969 Z M25.2642838,28.7410944 L21.0198772,30.2192697 L25.2642838,31.5636153 L25.2642838,28.7410944 L25.2642838,28.7410944 Z"
                      id="path11" fill="#326DB3"></path>
                <path d="M45.5213033,48.6347738 L61.1408917,42.9895969 L50.9902161,39.7626925 L36.0270772,45.0051497 L36.0270772,45.5434971 L45.5213033,48.6347738 L45.5213033,48.6347738 Z M25.2642838,38.7322193 L20.3201792,40.4348676 L25.2642838,42.047971 L25.2642838,38.7322193 L25.2642838,38.7322193 Z M36.0270772,41.3766315 L36.0270772,34.9689092 L45.6088863,38.0157642 L36.0270772,41.3766315 L36.0270772,41.3766315 Z M14.6320487,38.5983963 L25.26415,34.7001457 L25.26415,31.5636153 L21.0198772,30.2192697 L5.61897054,35.5514042 C5.57517905,35.5514042 5.48773439,35.595686 5.40028983,35.595686 L14.6320487,38.5983963 L14.6320487,38.5983963 Z"
                      id="path13" fill="#00AA9E"></path>
            </g>
        </g>
    </g>
</svg>