<?xml version="1.0" encoding="UTF-8"?>
<svg width="100px" height="100px" viewBox="0 0 100 100" version="1.1" xmlns="http://www.w3.org/2000/svg" xmlns:xlink="http://www.w3.org/1999/xlink">
    <!-- Generator: Sketch 56.3 (81716) - https://sketch.com -->
    <title>icn_chromecast_netflix</title>
    <desc>Created with Sketch.</desc>
    <defs>
        <filter x="-28.8%" y="-28.8%" width="157.5%" height="157.5%" filterUnits="objectBoundingBox" id="filter-1">
            <feOffset dx="0" dy="2" in="SourceAlpha" result="shadowOffsetOuter1"></feOffset>
            <feGaussianBlur stdDeviation="5" in="shadowOffsetOuter1" result="shadowBlurOuter1"></feGaussianBlur>
            <feColorMatrix values="0 0 0 0 0   0 0 0 0 0   0 0 0 0 0  0 0 0 0.5 0" type="matrix" in="shadowBlurOuter1" result="shadowMatrixOuter1"></feColorMatrix>
            <feMerge>
                <feMergeNode in="shadowMatrixOuter1"></feMergeNode>
                <feMergeNode in="SourceGraphic"></feMergeNode>
            </feMerge>
        </filter>
        <radialGradient cx="48.3397178%" cy="49.4186213%" fx="48.3397178%" fy="49.4186213%" r="22.6417314%" gradientTransform="translate(0.483397,0.494186),scale(1.000000,0.556352),rotate(-18.923623),translate(-0.483397,-0.494186)" id="radialGradient-2">
            <stop stop-color="#000000" offset="0%"></stop>
            <stop stop-color="#000000" stop-opacity="0" offset="100%"></stop>
        </radialGradient>
    </defs>
    <g id="Icons" stroke="none" stroke-width="1" fill="none" fill-rule="evenodd">
        <g transform="translate(-390.000000, -292.000000)" id="icn_chromecast_netflix">
            <g filter="url(#filter-1)" transform="translate(400.000000, 300.000000)">
                <rect id="Rectangle" fill="#FFFFFF" x="0" y="0" width="80" height="80" rx="10"></rect>
                <g id="Group" transform="translate(10.000000, 18.000000)" fill-rule="nonzero">
                    <g transform="translate(0.975000, 0.975000)" fill="#BCC1C5" id="Shape">
                        <g transform="translate(0.025000, 0.025000)">
                            <path d="M52,0 C52,0 6,0 6,0 C2.6863007,0 0,2.6863007 0,6 C0,6 0,36 0,36 C0,39.3136999 2.6863007,42 6,42 C6,42 28.4941004,42 28.4941004,42 C28.4941004,42 28.4941004,47 28.4941004,47 C28.4941004,47 14,47 14,47 C14,47 14,48 14,48 C14,48 28.4941004,48 28.4941004,48 C28.4941004,48 29.4941004,48 29.4941004,48 C29.4941004,48 44,48 44,48 C44,48 44,47 44,47 C44,47 29.4941004,47 29.4941004,47 C29.4941004,47 29.4941004,42 29.4941004,42 C29.4941004,42 52,42 52,42 C55.3137002,42 58,39.3136999 58,36 C58,36 58,6 58,6 C58,2.6863007 55.3137002,0 52,0 Z M29.5,36 C29.5,36 28.5,36 28.5,36 C28.5,36 20.5,36 20.5,36 C20.5,36 19.5,36 19.5,36 C19.5,36 11.5,36 11.5,36 C11.5,36 10.5,36 10.5,36 C10.5,36 1.00000001,36 1.00000001,36 C1.00000001,36 1.00000001,26.5 1.00000001,26.5 C1.00000001,26.5 1.00000001,25.5 1.00000001,25.5 C1.00000001,25.5 1.00000001,17.5 1.00000001,17.5 C1.00000001,17.5 1.00000001,16.5 1.00000001,16.5 C1.00000001,16.5 1.00000001,8.50000001 1.00000001,8.50000001 C1.00000001,8.50000001 1.00000001,7.50000001 1.00000001,7.50000001 C1.00000001,7.50000001 1.00000001,6.00000001 1.00000001,6.00000001 C1.00000001,3.24290013 3.24310002,1.00000001 6.00000001,1.00000001 C6.00000001,1.00000001 52,1.00000001 52,1.00000001 C54.7569008,1.00000001 57,3.24290013 57,6.00000001 C57,6.00000001 57,36 57,36 C57,36 29.5,36 29.5,36 Z"></path>
                        </g>
                    </g>
                    <g id="Clipped" transform="translate(0.000000, 36.000000)" fill="#E50914">
                        <g id="Group" transform="translate(0.975000, 0.824999)">
                            <g transform="translate(0.025000, 0.075000)" id="Shape">
                                <path d="M0,0.0500000007 C0,3.41890004 2.6863007,6.15000009 6,6.15000009 C6,6.15000009 52,6.15000009 52,6.15000009 C55.3137002,6.15000009 58,3.41890004 58,0.0500000007 C58,0.0500000007 0,0.0500000007 0,0.0500000007 Z M29.5,0.0500000007 C29.5,0.0500000007 28.5,0.0500000007 28.5,0.0500000007 C28.5,0.0500000007 20.5,0.0500000007 20.5,0.0500000007 C20.5,0.0500000007 19.5,0.0500000007 19.5,0.0500000007 C19.5,0.0500000007 11.5,0.0500000007 11.5,0.0500000007 C11.5,0.0500000007 10.5,0.0500000007 10.5,0.0500000007 C10.5,0.0500000007 1.00000001,0.0500000007 1.00000001,0.0500000007 C1.00000001,0.0500000007 57,0.0500000007 57,0.0500000007 C57,0.0500000007 29.5,0.0500000007 29.5,0.0500000007 Z"></path>
                            </g>
                        </g>
                    </g>
                </g>
                <g id="Netflix_icon" transform="translate(31.000000, 22.000000)">
                    <g id="g5747">
                        <path d="M11.3398998,0.0464145031 L11.3275088,7.02613912 L11.3150523,14.0058635 L10.7350989,12.3855703 C10.7348975,12.3850119 10.7341826,12.3829479 10.7339845,12.3823895 L9.9845561,27.9211052 C10.7213871,29.9814175 11.1161639,31.0812855 11.1205981,31.0856754 C11.1263999,31.091422 11.5463066,31.1165035 12.0537288,31.1414377 C13.591104,31.216975 15.4962167,31.3788378 16.9414367,31.556638 C17.2760604,31.5978017 17.564041,31.6188821 17.5813781,31.6035071 C17.5987156,31.5881318 17.6081564,24.4814844 17.6023577,15.8109715 L17.5918025,0.0464145031 L14.4658511,0.0464145031 L11.3398998,0.0464145031 L11.3398998,0.0464145031 Z" id="path4155" fill="#B1060F"></path>
                        <path d="M0.0319281732,0.0256415136 L0.0319281732,15.8061677 C0.0319281732,24.4854684 0.0405052802,31.5952495 0.0510064626,31.6056493 C0.0615069737,31.6160457 0.604352717,31.5653005 1.25732996,31.4928908 C1.91030654,31.4204778 2.81276609,31.3304351 3.2627772,31.292821 C3.95295268,31.2351286 6.0136127,31.103941 6.25223062,31.1024886 C6.32164302,31.1020565 6.32609505,30.7474675 6.33614878,24.4185193 L6.34676946,17.7350046 L6.84536147,19.1317934 C6.92241546,19.3476806 6.94658523,19.4150964 7.02165505,19.6254118 L7.77088676,4.09052623 C7.61213811,3.64611115 7.69535639,3.87940545 7.51342854,3.37009296 C6.90126472,1.65632119 6.38180059,0.202730419 6.35902957,0.139892956 L6.31759481,0.0256415136 L3.17479439,0.0256415136 L0.0319281732,0.0256415136 Z" id="path4157" fill="#B1060F"></path>
                        <path d="M0.0319264949,0.0256415136 L0.0319264949,8.8836988 L6.33405083,25.4363957 C6.33470874,25.0570756 6.33546065,24.852115 6.33614878,24.4185193 L6.34676946,17.7350046 L6.84536147,19.1317934 C9.62073933,26.9077483 11.1118287,31.076994 11.1205981,31.0856754 C11.1263999,31.091422 11.5463066,31.1165035 12.0537288,31.1414377 C13.591104,31.216975 15.4962167,31.3788378 16.9414367,31.556638 C17.2760604,31.5978017 17.564041,31.6188821 17.5813781,31.6035071 C17.5932945,31.5929392 17.6010734,28.1083895 17.6031445,23.1926533 L11.3305248,5.33638628 L11.3275071,7.02613912 L11.3150506,14.0058635 L10.7350973,12.3855703 C10.1684198,10.802366 9.79005261,9.74357839 7.51342686,3.37009296 C6.90126304,1.65632119 6.38179891,0.202730419 6.35902789,0.139892956 L6.31759313,0.0256415136 L3.17479271,0.0256415136 L0.0319264949,0.0256415136 L0.0319264949,0.0256415136 Z" id="path5623" fill="url(#radialGradient-2)"></path>
                        <path d="M0.0320594212,0.0256398517 L6.34676946,17.7430543 L6.34676946,17.7350046 L6.84536147,19.1317934 C9.62073933,26.9077483 11.1118287,31.076994 11.1205981,31.0856754 C11.1263999,31.091422 11.5463066,31.1165035 12.0537288,31.1414377 C13.591104,31.216975 15.4962167,31.3788378 16.9414367,31.556638 C17.2743454,31.5975907 17.5608511,31.6186266 17.5808538,31.6037016 L11.3150523,14.0026179 L11.3150523,14.0058618 L10.7350989,12.3855686 C10.1684214,10.8023644 9.79005428,9.74357673 7.51342854,3.3700913 C6.90126472,1.65631953 6.38180059,0.202728757 6.35902957,0.139891294 L6.31759481,0.0256398517 L3.17479439,0.0256398517 L0.0320594212,0.0256398517 L0.0320594212,0.0256398517 Z" id="path4159" fill="#E50914"></path>
                        <path d="M11.3275088,7.02613912 L11.3150523,14.0058635 L10.7350989,12.3855703 C10.7348975,12.3850119 10.7341826,12.3829479 10.7339845,12.3823895 L9.9845561,27.9211052 C10.7213871,29.9814175 11.1161639,31.0812855 11.1205981,31.0856754 C11.1263999,31.091422 11.5463066,31.1165035 12.0537288,31.1414377 C13.591104,31.216975 15.4962167,31.3788378 16.9414367,31.556638 C17.2760604,31.5978017 17.564041,31.6188821 17.5813781,31.6035071 C17.5987156,31.5881318 17.6081564,24.4814844 17.6023577,15.8109715 L17.5918025,0.0464145031 L14.4658511,0.0464145031 L11.3398998,0.0464145031 L11.3275088,7.02613912 Z" id="path5715" fill="#B1060F"></path>
                        <path d="M0.0319281732,0.0256415136 L0.0319281732,15.8061677 C0.0319281732,24.4854684 0.0405052802,31.5952495 0.0510064626,31.6056493 C0.0615069737,31.6160457 0.604352717,31.5653005 1.25732996,31.4928908 C1.91030654,31.4204778 2.81276609,31.3304351 3.2627772,31.292821 C3.95295268,31.2351286 6.0136127,31.103941 6.25223062,31.1024886 C6.32164302,31.1020565 6.32609505,30.7474675 6.33614878,24.4185193 L6.34676946,17.7350046 L6.84536147,19.1317934 C6.92241546,19.3476806 6.94658523,19.4150964 7.02165505,19.6254118 L7.77088676,4.09052623 C7.61213811,3.64611115 7.69535639,3.87940545 7.51342854,3.37009296 C6.90126472,1.65632119 6.38180059,0.202730419 6.35902957,0.139892956 L6.31759481,0.0256415136 L3.17479439,0.0256415136 L0.0319281732,0.0256415136 Z" id="path5717" fill="#B1060F"></path>
                        <path d="M0.0319264949,8.8836988 C1.23557736,12.0451198 2.1383155,14.4161855 2.74014093,15.996896 C3.53878758,18.0945626 4.73675754,21.2410625 6.33405083,25.4363957 C6.33470874,25.0570756 6.33546065,24.852115 6.33614878,24.4185193 L6.34676946,17.7350046 L6.84536147,19.1317934 C9.62073933,26.9077483 11.1118287,31.076994 11.1205981,31.0856754 C11.1263999,31.091422 11.5463066,31.1165035 12.0537288,31.1414377 C13.591104,31.216975 15.4962167,31.3788378 16.9414367,31.556638 C17.2760604,31.5978017 17.564041,31.6188821 17.5813781,31.6035071 C17.5932945,31.5929392 17.6010734,28.1083895 17.6031445,23.1926533 L11.3305248,5.33638628 L11.3275071,7.02613912 L11.3150506,14.0058635 L10.7350973,12.3855703 C10.1684198,10.802366 9.79005261,9.74357839 7.51342686,3.37009296 C6.90126304,1.65632119 6.38179891,0.202730419 6.35902789,0.139892956 L6.31759313,0.0256415136 L3.17479271,0.0256415136 L0.0319264949,0.0256415136 L0.0319264949,8.8836988 Z" id="path5719" fill="url(#radialGradient-2)"></path>
                        <path d="M0.0320594212,0.0256398517 L6.34676946,17.7430543 L6.34676946,17.7350046 L6.84536147,19.1317934 C9.62073933,26.9077483 11.1118287,31.076994 11.1205981,31.0856754 C11.1263999,31.091422 11.5463066,31.1165035 12.0537288,31.1414377 C13.591104,31.216975 15.4962167,31.3788378 16.9414367,31.556638 C17.2743454,31.5975907 17.5608511,31.6186266 17.5808538,31.6037016 L11.3150523,14.0026179 L11.3150523,14.0058618 L10.7350989,12.3855686 C10.1684214,10.8023644 9.79005428,9.74357673 7.51342854,3.3700913 C6.90126472,1.65631953 6.38180059,0.202728757 6.35902957,0.139891294 L6.31759481,0.0256398517 L3.17479439,0.0256398517 L0.0320594212,0.0256398517 L0.0320594212,0.0256398517 Z" id="path5721" fill="#E50914"></path>
                    </g>
                </g>
            </g>
        </g>
    </g>
</svg>
