<?xml version="1.0" encoding="UTF-8"?>
<svg width="100px" height="100px" viewBox="0 0 100 100" version="1.1" xmlns="http://www.w3.org/2000/svg" xmlns:xlink="http://www.w3.org/1999/xlink">
    <!-- Generator: Sketch 56.3 (81716) - https://sketch.com -->
    <title>icn_mini</title>
    <desc>Created with Sketch.</desc>
    <defs>
        <filter x="-28.8%" y="-28.8%" width="157.5%" height="157.5%" filterUnits="objectBoundingBox" id="filter-1">
            <feOffset dx="0" dy="2" in="SourceAlpha" result="shadowOffsetOuter1"></feOffset>
            <feGaussianBlur stdDeviation="5" in="shadowOffsetOuter1" result="shadowBlurOuter1"></feGaussianBlur>
            <feColorMatrix values="0 0 0 0 0   0 0 0 0 0   0 0 0 0 0  0 0 0 0.5 0" type="matrix" in="shadowBlurOuter1" result="shadowMatrixOuter1"></feColorMatrix>
            <feMerge>
                <feMergeNode in="shadowMatrixOuter1"></feMergeNode>
                <feMergeNode in="SourceGraphic"></feMergeNode>
            </feMerge>
        </filter>
    </defs>
    <g id="Icons" stroke="none" stroke-width="1" fill="none" fill-rule="evenodd">
        <g transform="translate(10.000000, -992.000000)" id="icn_mini">
            <g filter="url(#filter-1)" transform="translate(0.000000, 1000.000000)">
                <rect id="Rectangle" fill="#FFFFFF" x="0" y="0" width="80" height="80" rx="10"></rect>
                <g id="Group" transform="translate(8.000000, 7.000000)" fill-rule="nonzero">
                    <g transform="translate(0.000000, 0.118999)" fill="#BCC1C5" id="Shape">
                        <path d="M0,0.881000519 C0,0.881000519 64,0.881000519 64,0.881000519 C64,0.881000519 64,64.8810005 64,64.8810005 C64,64.8810005 0,64.8810005 0,64.8810005 C0,64.8810005 0,0.881000519 0,0.881000519 Z M0,64.8810005 C0,64.8810005 64,64.8810005 64,64.8810005 C64,64.8810005 64,0.881000519 64,0.881000519 C64,0.881000519 0,0.881000519 0,0.881000519 C0,0.881000519 0,64.8810005 0,64.8810005 Z M35,17.1189995 C35,17.1189995 35,17.8810005 35,17.8810005 C35,17.8810005 32,17.8810005 32,17.8810005 C43.0279999,17.8810005 52,26.8520002 52,37.881 C52,48.9090004 43.0279999,57.8810005 32,57.8810005 C20.9720001,57.8810005 12,48.9090004 12,37.881 C12,26.8520002 20.9720001,17.8810005 32,17.8810005 C32,17.8810005 29,17.8810005 29,17.8810005 C29,17.8810005 29,17.1189995 29,17.1189995 C18.8269997,18.5779991 11,27.3050003 11,37.881 C11,49.4779997 20.4020004,58.8810005 32,58.8810005 C43.5979996,58.8810005 53,49.4779997 53,37.881 C53,27.3050003 45.1730003,18.5779991 35,17.1189995 Z"></path>
                    </g>
                    <g transform="translate(0.000000, 1.000000)" fill="#4285F4" id="Shape">
                        <path d="M0,0 C0,0 64,0 64,0 C64,0 64,64 64,64 C64,64 0,64 0,64 C0,64 0,0 0,0 Z M0,64 C0,64 64,64 64,64 C64,64 64,0 64,0 C64,0 0,0 0,0 C0,0 0,64 0,64 Z M20,39 C21.104,39 22,38.104 22,37 C22,35.896 21.104,35 20,35 C18.896,35 18,35.896 18,37 C18,38.104 18.896,39 20,39 Z"></path>
                    </g>
                    <g transform="translate(0.000000, 1.000000)" fill="#EA4335" id="Shape">
                        <path d="M0,0 C0,0 64,0 64,0 C64,0 64,64 64,64 C64,64 0,64 0,64 C0,64 0,0 0,0 Z M0,64 C0,64 64,64 64,64 C64,64 64,0 64,0 C64,0 0,0 0,0 C0,0 0,64 0,64 Z M28,39 C29.104,39 30,38.104 30,37 C30,35.896 29.104,35 28,35 C26.896,35 26,35.896 26,37 C26,38.104 26.896,39 28,39 Z"></path>
                    </g>
                    <g transform="translate(0.000000, 1.000000)" fill="#FABB04" id="Shape">
                        <path d="M0,0 C0,0 64,0 64,0 C64,0 64,64 64,64 C64,64 0,64 0,64 C0,64 0,0 0,0 Z M0,64 C0,64 64,64 64,64 C64,64 64,0 64,0 C64,0 0,0 0,0 C0,0 0,64 0,64 Z M36,39 C37.104,39 38,38.104 38,37 C38,35.896 37.104,35 36,35 C34.896,35 34,35.896 34,37 C34,38.104 34.896,39 36,39 Z"></path>
                    </g>
                    <g transform="translate(0.000000, 1.000000)" fill="#34A852" id="Shape">
                        <path d="M0,0 C0,0 64,0 64,0 C64,0 64,64 64,64 C64,64 0,64 0,64 C0,64 0,0 0,0 Z M0,64 C0,64 64,64 64,64 C64,64 64,0 64,0 C64,0 0,0 0,0 C0,0 0,64 0,64 Z M44,39 C45.104,39 46,38.104 46,37 C46,35.896 45.104,35 44,35 C42.896,35 42,35.896 42,37 C42,38.104 42.896,39 44,39 Z"></path>
                    </g>
                    <g transform="translate(0.000000, 1.000000)" fill="#BCC1C5" id="Shape">
                        <path d="M0,0 C0,0 64,0 64,0 C64,0 64,64 64,64 C64,64 0,64 0,64 C0,64 0,0 0,0 Z M0,64 C0,64 64,64 64,64 C64,64 64,0 64,0 C64,0 0,0 0,0 C0,0 0,64 0,64 Z M32.5,3 C32.5,3 31.5,3 31.5,3 C31.5,3 31.5,11 31.5,11 C31.5,11 32.5,11 32.5,11 C32.5,11 32.5,3 32.5,3 Z"></path>
                    </g>
                    <g transform="translate(0.000000, 1.000000)" fill="#BCC1C5" id="Shape">
                        <path d="M0,0 C0,0 64,0 64,0 C64,0 64,64 64,64 C64,64 0,64 0,64 C0,64 0,0 0,0 Z M0,64 C0,64 64,64 64,64 C64,64 64,0 64,0 C64,0 0,0 0,0 C0,0 0,64 0,64 Z M32,17 C32,17 35,17 35,17 C35,17 35,16.2379999 35,16.2379999 C35,16.2379999 35,13 35,13 C35,11.8959999 34.1040001,11 33,11 C33,11 32.5,11 32.5,11 C32.5,11 31.5,11 31.5,11 C31.5,11 31,11 31,11 C29.8959999,11 29,11.8959999 29,13 C29,13 29,16.2379999 29,16.2379999 C29,16.2379999 29,17 29,17 C29,17 32,17 32,17 Z"></path>
                    </g>
                </g>
            </g>
        </g>
    </g>
</svg>