<?xml version="1.0" encoding="UTF-8"?>
<svg width="100px" height="100px" viewBox="0 0 100 100" version="1.1" xmlns="http://www.w3.org/2000/svg" xmlns:xlink="http://www.w3.org/1999/xlink">
    <!-- Generator: Sketch 56.3 (81716) - https://sketch.com -->
    <title>icn_doorbell</title>
    <desc>Created with Sketch.</desc>
    <defs>
        <filter x="-28.8%" y="-28.8%" width="157.5%" height="157.5%" filterUnits="objectBoundingBox" id="filter-1">
            <feOffset dx="0" dy="2" in="SourceAlpha" result="shadowOffsetOuter1"></feOffset>
            <feGaussianBlur stdDeviation="5" in="shadowOffsetOuter1" result="shadowBlurOuter1"></feGaussianBlur>
            <feColorMatrix values="0 0 0 0 0   0 0 0 0 0   0 0 0 0 0  0 0 0 0.5 0" type="matrix" in="shadowBlurOuter1" result="shadowMatrixOuter1"></feColorMatrix>
            <feMerge>
                <feMergeNode in="shadowMatrixOuter1"></feMergeNode>
                <feMergeNode in="SourceGraphic"></feMergeNode>
            </feMerge>
        </filter>
    </defs>
    <g id="Icons" stroke="none" stroke-width="1" fill="none" fill-rule="evenodd">
        <g transform="translate(-890.000000, 8.000000)" id="icn_doorbell">
            <g filter="url(#filter-1)" transform="translate(900.000000, 0.000000)">
                <rect id="Rectangle" fill="#FFFFFF" x="0" y="0" width="80" height="80" rx="10"></rect>
                <g id="Group" transform="translate(27.000000, 11.000000)" fill-rule="nonzero">
                    <g fill="#BCC1C5" id="Shape">
                        <path d="M13,0 C5.82000017,0 0,5.81999969 0,13 C0,13 0,29 0,29 C0,29 0,45 0,45 C0,52.1800003 5.82000017,58 13,58 C20.1799998,58 26,52.1800003 26,45 C26,45 26,29 26,29 C26,29 26,13 26,13 C26,5.81999969 20.1799998,0 13,0 Z M13,55 C7.47700024,55 3,50.5230007 3,45 C3,39.4770002 7.47700024,35 13,35 C18.5229998,35 23,39.4770002 23,45 C23,50.5230007 18.5229998,55 13,55 Z M1,29 C1,29 1,13 1,13 C1,6.38299942 6.3829999,1 13,1 C19.6170001,1 25,6.38299942 25,13 C25,13 25,29 25,29 C25,29 1,29 1,29 Z"></path>
                    </g>
                    <g transform="translate(4.000000, 36.000000)" fill="#BCC1C5" id="Path">
                        <path d="M9,0 C4.03800011,0 0,4.03700018 0,9 C0,13.9629998 4.03800011,18 9,18 C13.9629998,18 18,13.9629998 18,9 C18,4.03700018 13.9629998,0 9,0 Z"></path>
                    </g>
                    <g transform="translate(3.000000, 35.000000)" fill="#4285F4" id="Shape">
                        <path d="M10,0 C4.47700024,0 0,4.47700024 0,10 C0,15.5229998 4.47700024,20 10,20 C15.5229998,20 20,15.5229998 20,10 C20,4.47700024 15.5229998,0 10,0 Z M10,19 C5.03800011,19 1,14.9629998 1,10 C1,5.03700018 5.03800011,1 10,1 C14.9629998,1 19,5.03700018 19,10 C19,14.9629998 14.9629998,19 10,19 Z"></path>
                    </g>
                    <g transform="translate(7.000000, 7.000000)" fill="#BCC1C5" id="Shape">
                        <path d="M6,0 C2.69099998,0 0,2.69099998 0,6 C0,9.30900002 2.69099998,12 6,12 C9.30900002,12 12,9.30900002 12,6 C12,2.69099998 9.30900002,0 6,0 Z M6,8 C4.89600003,8 4,7.10399997 4,6 C4,4.89600003 4.89600003,4 6,4 C7.10399997,4 8,4.89600003 8,6 C8,7.10399997 7.10399997,8 6,8 Z"></path>
                    </g>
                    <g transform="translate(3.000000, 3.000000)" fill="#BCC1C5" id="Shape">
                        <path d="M10,0 C4.47700024,0 0,4.47700024 0,10 C0,15.5229998 4.47700024,20 10,20 C15.5229998,20 20,15.5229998 20,10 C20,4.47700024 15.5229998,0 10,0 Z M10,17 C6.13400006,17 3,13.8659999 3,10 C3,6.13400006 6.13400006,3 10,3 C13.8659999,3 17,6.13400006 17,10 C17,13.8659999 13.8659999,17 10,17 Z"></path>
                    </g>
                    <g transform="translate(11.000000, 11.000000)" fill="#4285F4" id="Path">
                        <path d="M2,0 C0.896000028,0 0,0.896000028 0,2 C0,3.10399997 0.896000028,4 2,4 C3.10399997,4 4,3.10399997 4,2 C4,0.896000028 3.10399997,0 2,0 Z"></path>
                    </g>
                </g>
            </g>
        </g>
    </g>
</svg>
