<?xml version="1.0" encoding="UTF-8"?>
<svg width="100px" height="100px" viewBox="0 0 100 100" version="1.1" xmlns="http://www.w3.org/2000/svg" xmlns:xlink="http://www.w3.org/1999/xlink">
    <!-- Generator: Sketch 56.3 (81716) - https://sketch.com -->
    <title>icn_outlet</title>
    <desc>Created with Sketch.</desc>
    <defs>
        <filter x="-28.8%" y="-28.8%" width="157.5%" height="157.5%" filterUnits="objectBoundingBox" id="filter-1">
            <feOffset dx="0" dy="2" in="SourceAlpha" result="shadowOffsetOuter1"></feOffset>
            <feGaussianBlur stdDeviation="5" in="shadowOffsetOuter1" result="shadowBlurOuter1"></feGaussianBlur>
            <feColorMatrix values="0 0 0 0 0   0 0 0 0 0   0 0 0 0 0  0 0 0 0.5 0" type="matrix" in="shadowBlurOuter1" result="shadowMatrixOuter1"></feColorMatrix>
            <feMerge>
                <feMergeNode in="shadowMatrixOuter1"></feMergeNode>
                <feMergeNode in="SourceGraphic"></feMergeNode>
            </feMerge>
        </filter>
    </defs>
    <g id="Icons" stroke="none" stroke-width="1" fill="none" fill-rule="evenodd">
        <g transform="translate(-290.000000, -992.000000)" id="icn_outlet">
            <g filter="url(#filter-1)" transform="translate(300.000000, 1000.000000)">
                <rect id="Rectangle" fill="#FFFFFF" x="0" y="0" width="80" height="80" rx="10"></rect>
                <g id="Group" transform="translate(8.000000, 8.000000)" fill-rule="nonzero">
                    <g fill="#BCC1C5" id="Shape">
                        <path d="M0,0 C0,0 64,0 64,0 C64,0 64,64 64,64 C64,64 0,64 0,64 C0,64 0,0 0,0 Z M0,64 C0,64 64,64 64,64 C64,64 64,0 64,0 C64,0 0,0 0,0 C0,0 0,64 0,64 Z M32,3 C20.4020004,3 11,12.4020004 11,24 C11,24 11,40 11,40 C11,51.5979996 20.4020004,61 32,61 C43.5979996,61 53,51.5979996 53,40 C53,40 53,24 53,24 C53,12.4020004 43.5979996,3 32,3 Z M52,40 C52,51.0270004 43.0279999,60 32,60 C20.9720001,60 12,51.0270004 12,40 C12,40 12,24 12,24 C12,12.9729996 20.9720001,4 32,4 C43.0279999,4 52,12.9729996 52,24 C52,24 52,40 52,40 Z"></path>
                    </g>
                    <g fill="#34A852" id="Shape">
                        <path d="M0,0 C0,0 64,0 64,0 C64,0 64,64 64,64 C64,64 0,64 0,64 C0,64 0,0 0,0 Z M0,64 C0,64 64,64 64,64 C64,64 64,0 64,0 C64,0 0,0 0,0 C0,0 0,64 0,64 Z M32,15 C33.103,15 34,14.104 34,13 C34,11.896 33.103,11 32,11 C30.897,11 30,11.896 30,13 C30,14.104 30.897,15 32,15 Z"></path>
                    </g>
                    <g fill="#34A852" id="Shape">
                        <path d="M0,0 C0,0 64,0 64,0 C64,0 64,64 64,64 C64,64 0,64 0,64 C0,64 0,0 0,0 Z M0,64 C0,64 64,64 64,64 C64,64 64,0 64,0 C64,0 0,0 0,0 C0,0 0,64 0,64 Z M32,19 C35.313,19 38,16.313 38,13 C38,9.68700004 35.313,7 32,7 C28.6860001,7 26,9.68700004 26,13 C26,16.313 28.6860001,19 32,19 Z M32,10 C33.6569999,10 35,11.344 35,13 C35,14.656 33.6569999,16 32,16 C30.3430001,16 29,14.656 29,13 C29,11.344 30.3430001,10 32,10 Z"></path>
                    </g>
                    <g fill="#BCC1C5" id="Shape">
                        <path d="M0,0 C0,0 64,0 64,0 C64,0 64,64 64,64 C64,64 0,64 0,64 C0,64 0,0 0,0 Z M0,64 C0,64 64,64 64,64 C64,64 64,0 64,0 C64,0 0,0 0,0 C0,0 0,64 0,64 Z M32,23 C22.6110001,23 15,30.6110001 15,40 C15,49.3889999 22.6110001,57 32,57 C41.3889999,57 49,49.3889999 49,40 C49,30.6110001 41.3889999,23 32,23 Z M27,42 C27,42 25,42 25,42 C25,42 25,33 25,33 C25,33 27,33 27,33 C27,33 27,42 27,42 Z M35,51 C35,51 29,51 29,51 C29,51 29,48.0019999 29,48.0019999 C29.49,46.8260002 30.647,46 32,46 C33.352,46 34.51,46.8260002 35,48.0019999 C35,48.0019999 35,51 35,51 Z M39,42 C39,42 37,42 37,42 C37,42 37,33 37,33 C37,33 39,33 39,33 C39,33 39,42 39,42 Z"></path>
                    </g>
                </g>
            </g>
        </g>
    </g>
</svg>
