<?xml version="1.0" encoding="UTF-8"?>
<svg width="100px" height="100px" viewBox="0 0 100 100" version="1.1" xmlns="http://www.w3.org/2000/svg" xmlns:xlink="http://www.w3.org/1999/xlink">
    <!-- Generator: Sketch 56.3 (81716) - https://sketch.com -->
    <title>icn_outlet_active</title>
    <desc>Created with Sketch.</desc>
    <defs>
        <filter x="-28.8%" y="-28.8%" width="157.5%" height="157.5%" filterUnits="objectBoundingBox" id="filter-1">
            <feOffset dx="0" dy="2" in="SourceAlpha" result="shadowOffsetOuter1"></feOffset>
            <feGaussianBlur stdDeviation="5" in="shadowOffsetOuter1" result="shadowBlurOuter1"></feGaussianBlur>
            <feColorMatrix values="0 0 0 0 0   0 0 0 0 0   0 0 0 0 0  0 0 0 0.5 0" type="matrix" in="shadowBlurOuter1" result="shadowMatrixOuter1"></feColorMatrix>
            <feMerge>
                <feMergeNode in="shadowMatrixOuter1"></feMergeNode>
                <feMergeNode in="SourceGraphic"></feMergeNode>
            </feMerge>
        </filter>
    </defs>
    <g id="Icons" stroke="none" stroke-width="1" fill="none" fill-rule="evenodd">
        <g transform="translate(-290.000000, -1092.000000)" id="icn_outlet_active">
            <g filter="url(#filter-1)" transform="translate(300.000000, 1100.000000)">
                <rect id="Rectangle" fill="#B9FFB7" x="0" y="0" width="80" height="80" rx="10"></rect>
                <g id="Group" transform="translate(18.000000, 10.000000)" fill-rule="nonzero">
                    <g transform="translate(0.699200, 0.732199)" fill="#BCC1C5" id="Shape">
                        <g transform="translate(0.067799, 0.067801)">
                            <path d="M21.2000003,1.05710146 C23.9197004,1.05710146 26.5575005,1.58949893 29.0401005,2.63959965 C31.4386006,3.65410009 33.5930005,5.1065995 35.4432012,6.95679942 C37.2934011,8.80700086 38.7459005,10.9614 39.760401,13.3598009 C40.810401,15.8425997 41.3428,18.4803004 41.3428,21.2001003 C41.3428,21.2001003 41.3428,37.2000006 41.3428,37.2000006 C41.3428,39.9197005 40.810401,42.5575003 39.760401,45.0402 C38.7459005,47.4386009 37.2934011,49.5929008 35.4432012,51.4431007 C33.5930005,53.2933007 31.4386006,54.7459008 29.0401005,55.7603005 C26.5575005,56.8104012 23.9197004,57.3428994 21.2000003,57.3428994 C18.4803002,57.3428994 15.8425002,56.8104012 13.3598002,55.7603005 C10.9613001,54.7459008 8.80710005,53.2933007 6.95690013,51.4431007 C5.1065995,49.5929008 3.6542008,47.4386009 2.63970036,45.0402 C1.58959963,42.5575003 1.05720064,39.9197005 1.05720064,37.2000006 C1.05720064,37.2000006 1.05720064,21.2001003 1.05720064,21.2001003 C1.05720064,18.4803004 1.58959963,15.8425997 2.63970036,13.3598009 C3.6542008,10.9614 5.1065995,8.80700086 6.95690013,6.95679942 C8.80710005,5.1065995 10.9613001,3.65410009 13.3598002,2.63959965 C15.8425002,1.58949893 18.4803002,1.05710146 21.2000003,1.05710146 Z M21.2000003,0.0571014413 C9.52310042,0.0571014413 0.0572006234,9.5231996 0.0572006234,21.2001003 C0.0572006234,21.2001003 0.0572006234,37.2000006 0.0572006234,37.2000006 C0.0572006234,48.8769004 9.52310042,58.3428994 21.2000003,58.3428994 C32.8769002,58.3428994 42.3428,48.8769004 42.3428,37.2000006 C42.3428,37.2000006 42.3428,21.2001003 42.3428,21.2001003 C42.3428,9.5231996 32.8769002,0.0571014413 21.2000003,0.0571014413 Z"></path>
                        </g>
                    </g>
                    <g transform="translate(15.941999, 4.832000)" fill="#BCC1C5" id="Shape">
                        <g transform="translate(0.025000, 0.025000)">
                            <path d="M6.00000001,1.00000001 C8.7570001,1.00000001 11,3.24300008 11,6.00000001 C11,8.7570001 8.7570001,11 6.00000001,11 C3.24300008,11 1.00000001,8.7570001 1.00000001,6.00000001 C1.00000001,3.24300008 3.24300008,1.00000001 6.00000001,1.00000001 Z M6,0 C2.68629994,0 0,2.68629994 0,6 C0,9.31370024 2.68629994,12 6,12 C9.31370024,12 12,9.31370024 12,6 C12,2.68629994 9.31370024,0 6,0 Z"></path>
                        </g>
                    </g>
                    <g opacity="0.9348032" transform="translate(19.941999, 8.857000)" fill="#34A852" id="Path">
                        <g transform="translate(0.025000, 0.025000)">
                            <path d="M4,2 C4,3.1046 3.1046,4 2,4 C0.895500006,4 0,3.1046 0,2 C0,0.895500006 0.895500006,0 2,0 C3.1046,0 4,0.895500006 4,2 Z"></path>
                        </g>
                    </g>
                    <g transform="translate(4.675000, 20.699999)" fill="#34A852" id="Shape">
                        <g transform="translate(0.067799, 0.067900)">
                            <path d="M17.2000003,0.0570999154 C7.73219997,0.0570999154 0.0572006234,7.73229992 0.0572006234,17.2000003 C0.0572006234,26.6677006 7.73219997,34.3429006 17.2000003,34.3429006 C26.6677006,34.3429006 34.3427999,26.6677006 34.3427999,17.2000003 C34.3427999,7.73229992 26.6677006,0.0570999154 17.2000003,0.0570999154 Z M12.3428003,19.2000003 C12.3428003,19.2000003 10.3428003,19.2000003 10.3428003,19.2000003 C10.3428003,19.2000003 10.3428003,10.3429002 10.3428003,10.3429002 C10.3428003,10.3429002 12.3428003,10.3429002 12.3428003,10.3429002 C12.3428003,10.3429002 12.3428003,19.2000003 12.3428003,19.2000003 Z M20.3428003,28.3518002 C20.3428003,28.3518002 14.0572003,28.3518002 14.0572003,28.3518002 C14.0572003,28.3518002 14.0572003,25.2269001 14.0572003,25.2269001 C14.1926003,25.0117 14.3483002,24.8110004 14.5237002,24.6286007 C15.1996003,23.9253002 16.1476002,23.4857002 17.2000003,23.4857002 C18.2523002,23.4857002 19.2005002,23.9253002 19.8763003,24.6286007 C20.0517003,24.8110004 20.2074002,25.0117 20.3428003,25.2269001 C20.3428003,25.2269001 20.3428003,28.3518002 20.3428003,28.3518002 Z M24.3428005,19.2000003 C24.3428005,19.2000003 22.3428005,19.2000003 22.3428005,19.2000003 C22.3428005,19.2000003 22.3428005,10.3429002 22.3428005,10.3429002 C22.3428005,10.3429002 24.3428005,10.3429002 24.3428005,10.3429002 C24.3428005,10.3429002 24.3428005,19.2000003 24.3428005,19.2000003 Z"></path>
                        </g>
                    </g>
                </g>
            </g>
        </g>
    </g>
</svg>