<?xml version="1.0" encoding="UTF-8"?>
<svg width="100px" height="100px" viewBox="0 0 100 100" version="1.1" xmlns="http://www.w3.org/2000/svg" xmlns:xlink="http://www.w3.org/1999/xlink">
    <!-- Generator: Sketch 56.3 (81716) - https://sketch.com -->
    <title>icn_chromecast_plex</title>
    <desc>Created with Sketch.</desc>
    <defs>
        <filter x="-28.8%" y="-28.8%" width="157.5%" height="157.5%" filterUnits="objectBoundingBox" id="filter-1">
            <feOffset dx="0" dy="2" in="SourceAlpha" result="shadowOffsetOuter1"></feOffset>
            <feGaussianBlur stdDeviation="5" in="shadowOffsetOuter1" result="shadowBlurOuter1"></feGaussianBlur>
            <feColorMatrix values="0 0 0 0 0   0 0 0 0 0   0 0 0 0 0  0 0 0 0.5 0" type="matrix" in="shadowBlurOuter1" result="shadowMatrixOuter1"></feColorMatrix>
            <feMerge>
                <feMergeNode in="shadowMatrixOuter1"></feMergeNode>
                <feMergeNode in="SourceGraphic"></feMergeNode>
            </feMerge>
        </filter>
    </defs>
    <g id="Icons" stroke="none" stroke-width="1" fill="none" fill-rule="evenodd">
        <g transform="translate(-390.000000, -192.000000)" id="icn_chromecast_plex">
            <g filter="url(#filter-1)" transform="translate(400.000000, 200.000000)">
                <rect id="Rectangle" fill="#FFFFFF" x="0" y="0" width="80" height="80" rx="10"></rect>
                <g id="Group" transform="translate(10.000000, 18.000000)">
                    <g transform="translate(0.975000, 0.975000)" fill="#BCC1C5" fill-rule="nonzero" id="Shape">
                        <g transform="translate(0.025000, 0.025000)">
                            <path d="M52,0 C52,0 6,0 6,0 C2.6863007,0 0,2.6863007 0,6 C0,6 0,36 0,36 C0,39.3136999 2.6863007,42 6,42 C6,42 28.4941004,42 28.4941004,42 C28.4941004,42 28.4941004,47 28.4941004,47 C28.4941004,47 14,47 14,47 C14,47 14,48 14,48 C14,48 28.4941004,48 28.4941004,48 C28.4941004,48 29.4941004,48 29.4941004,48 C29.4941004,48 44,48 44,48 C44,48 44,47 44,47 C44,47 29.4941004,47 29.4941004,47 C29.4941004,47 29.4941004,42 29.4941004,42 C29.4941004,42 52,42 52,42 C55.3137002,42 58,39.3136999 58,36 C58,36 58,6 58,6 C58,2.6863007 55.3137002,0 52,0 Z M29.5,36 C29.5,36 28.5,36 28.5,36 C28.5,36 20.5,36 20.5,36 C20.5,36 19.5,36 19.5,36 C19.5,36 11.5,36 11.5,36 C11.5,36 10.5,36 10.5,36 C10.5,36 1.00000001,36 1.00000001,36 C1.00000001,36 1.00000001,26.5 1.00000001,26.5 C1.00000001,26.5 1.00000001,25.5 1.00000001,25.5 C1.00000001,25.5 1.00000001,17.5 1.00000001,17.5 C1.00000001,17.5 1.00000001,16.5 1.00000001,16.5 C1.00000001,16.5 1.00000001,8.50000001 1.00000001,8.50000001 C1.00000001,8.50000001 1.00000001,7.50000001 1.00000001,7.50000001 C1.00000001,7.50000001 1.00000001,6.00000001 1.00000001,6.00000001 C1.00000001,3.24290013 3.24310002,1.00000001 6.00000001,1.00000001 C6.00000001,1.00000001 52,1.00000001 52,1.00000001 C54.7569008,1.00000001 57,3.24290013 57,6.00000001 C57,6.00000001 57,36 57,36 C57,36 29.5,36 29.5,36 Z"></path>
                        </g>
                    </g>
                    <g id="Clipped" transform="translate(0.000000, 36.000000)" fill="#DBA13A" fill-rule="nonzero">
                        <g id="Group" transform="translate(0.975000, 0.824999)">
                            <g transform="translate(0.025000, 0.075000)" id="Shape">
                                <path d="M0,0.0500000007 C0,3.41890004 2.6863007,6.15000009 6,6.15000009 C6,6.15000009 52,6.15000009 52,6.15000009 C55.3137002,6.15000009 58,3.41890004 58,0.0500000007 C58,0.0500000007 0,0.0500000007 0,0.0500000007 Z M29.5,0.0500000007 C29.5,0.0500000007 28.5,0.0500000007 28.5,0.0500000007 C28.5,0.0500000007 20.5,0.0500000007 20.5,0.0500000007 C20.5,0.0500000007 19.5,0.0500000007 19.5,0.0500000007 C19.5,0.0500000007 11.5,0.0500000007 11.5,0.0500000007 C11.5,0.0500000007 10.5,0.0500000007 10.5,0.0500000007 C10.5,0.0500000007 1.00000001,0.0500000007 1.00000001,0.0500000007 C1.00000001,0.0500000007 57,0.0500000007 57,0.0500000007 C57,0.0500000007 29.5,0.0500000007 29.5,0.0500000007 Z"></path>
                            </g>
                        </g>
                    </g>
                    <polygon id="Path-2" fill="#DBA13A" points="23 7 28.5151515 20 23 33 31.4848485 33 37 20 31.4848485 7"></polygon>
                </g>
            </g>
        </g>
    </g>
</svg>
