<?xml version="1.0" encoding="UTF-8"?>
<svg width="100px" height="100px" viewBox="0 0 100 100" version="1.1" xmlns="http://www.w3.org/2000/svg" xmlns:xlink="http://www.w3.org/1999/xlink">
    <!-- Generator: Sketch 56.3 (81716) - https://sketch.com -->
    <title>icn_lightgroup_active</title>
    <desc>Created with Sketch.</desc>
    <defs>
        <filter x="-28.8%" y="-28.8%" width="157.5%" height="157.5%" filterUnits="objectBoundingBox" id="filter-1">
            <feOffset dx="0" dy="2" in="SourceAlpha" result="shadowOffsetOuter1"></feOffset>
            <feGaussianBlur stdDeviation="5" in="shadowOffsetOuter1" result="shadowBlurOuter1"></feGaussianBlur>
            <feColorMatrix values="0 0 0 0 0   0 0 0 0 0   0 0 0 0 0  0 0 0 0.5 0" type="matrix" in="shadowBlurOuter1" result="shadowMatrixOuter1"></feColorMatrix>
            <feMerge>
                <feMergeNode in="shadowMatrixOuter1"></feMergeNode>
                <feMergeNode in="SourceGraphic"></feMergeNode>
            </feMerge>
        </filter>
    </defs>
    <g id="Icons" stroke="none" stroke-width="1" fill="none" fill-rule="evenodd">
        <g transform="translate(-590.000000, -692.000000)" id="icn_lightgroup_active">
            <g filter="url(#filter-1)" transform="translate(600.000000, 700.000000)">
                <rect id="Rectangle" fill="#FFF9B8" x="0" y="0" width="80" height="80" rx="10"></rect>
                <g id="Group" transform="translate(9.000000, 11.000000)" fill-rule="nonzero">
                    <g transform="translate(13.000000, 50.000000)" fill="#BCC1C5" id="Path">
                        <path d="M0,0 C0,4.41800001 3.58199978,8 8,8 C12.4180002,8 16,4.41800001 16,0 C16,0 0,0 0,0 Z"></path>
                    </g>
                    <g transform="translate(41.000000, 42.000000)" fill="#BCC1C5" id="Path">
                        <path d="M0,0 C0,3.31299999 2.68700004,6 6,6 C9.31299996,6 12,3.31299999 12,0 C12,0 0,0 0,0 Z"></path>
                    </g>
                    <g transform="translate(36.688000, 26.921001)" fill="#FABB04" id="Path">
                        <path d="M0.688000202,6.62300003 C0.688000202,6.62300003 4.31099999,15.079 4.31099999,15.079 C4.31099999,15.079 9.31099987,15.079 9.31099987,15.079 C9.31099987,15.079 3.245,0.921000004 3.245,0.921000004 C3.245,0.921000004 0.688000202,6.62300003 0.688000202,6.62300003 Z"></path>
                    </g>
                    <g transform="translate(8.000000, 20.500000)" fill="#FABB04" id="Path">
                        <path d="M0,0.5 C0,0.5 26,0.5 26,0.5 C26,0.5 13,29.5 13,29.5 C13,29.5 0,0.5 0,0.5 Z"></path>
                    </g>
                    <g fill="#FABB04" id="Path">
                        <path d="M21,0 C9.56200027,0 0.260000229,9.35700035 0,21 C0,21 13,50 13,50 C13,50 20,50 20,50 C20,50 7,21 7,21 C7.17300034,13.2379999 13.375,7 21,7 C28.625,7 34.8269997,13.2379999 35,21 C35,21 22,50 22,50 C22,50 29,50 29,50 C29,50 42,21 42,21 C41.7399998,9.35700035 32.4379997,0 21,0 Z"></path>
                    </g>
                    <g transform="translate(38.452000, 6.000000)" fill="#FABB04" id="Path">
                        <path d="M8.5480001,0 C5.56699991,0 2.78800011,0.88999939 0.451999664,2.42500019 C1.40299988,3.78600025 2.21100044,5.25899982 2.85200024,6.8210001 C4.46799994,5.67300034 6.43100023,5 8.5480001,5 C13.994,5 18.4250002,9.45600033 18.5479999,15 C18.5479999,15 9.5480001,36 9.5480001,36 C9.5480001,36 14.5480001,36 14.5480001,36 C14.5480001,36 23.5480003,15 23.5480003,15 C23.3620005,6.68400002 16.7179999,0 8.5480001,0 Z"></path>
                    </g>
                    <g transform="translate(40.222000, 20.500000)" fill="#FABB04" id="Path">
                        <path d="M0.221000195,6.20200014 C0.221000195,6.20200014 6.77900004,21.5 6.77900004,21.5 C6.77900004,21.5 15.7789998,0.5 15.7789998,0.5 C15.7789998,0.5 2.77899981,0.5 2.77899981,0.5 C2.77899981,0.5 0.221000195,6.20200014 0.221000195,6.20200014 Z"></path>
                    </g>
                </g>
            </g>
        </g>
    </g>
</svg>