<?xml version="1.0" encoding="UTF-8"?>
<svg width="100px" height="100px" viewBox="0 0 100 100" version="1.1" xmlns="http://www.w3.org/2000/svg" xmlns:xlink="http://www.w3.org/1999/xlink">
    <!-- Generator: Sketch 56.3 (81716) - https://sketch.com -->
    <title>icn_home_active</title>
    <desc>Created with Sketch.</desc>
    <defs>
        <filter x="-28.8%" y="-28.8%" width="157.5%" height="157.5%" filterUnits="objectBoundingBox" id="filter-1">
            <feOffset dx="0" dy="2" in="SourceAlpha" result="shadowOffsetOuter1"></feOffset>
            <feGaussianBlur stdDeviation="5" in="shadowOffsetOuter1" result="shadowBlurOuter1"></feGaussianBlur>
            <feColorMatrix values="0 0 0 0 0   0 0 0 0 0   0 0 0 0 0  0 0 0 0.5 0" type="matrix" in="shadowBlurOuter1" result="shadowMatrixOuter1"></feColorMatrix>
            <feMerge>
                <feMergeNode in="shadowMatrixOuter1"></feMergeNode>
                <feMergeNode in="SourceGraphic"></feMergeNode>
            </feMerge>
        </filter>
    </defs>
    <g id="Icons" stroke="none" stroke-width="1" fill="none" fill-rule="evenodd">
        <g transform="translate(-290.000000, -692.000000)" id="icn_home_active">
            <g filter="url(#filter-1)" transform="translate(300.000000, 700.000000)">
                <rect id="Rectangle" fill="#FFFFFF" x="0" y="0" width="80" height="80" rx="10"></rect>
                <g id="Group" transform="translate(21.000000, 11.000000)" fill-rule="nonzero">
                    <g transform="translate(7.191998, 57.424999)" fill="#BCC1C5" id="Path">
                        <g transform="translate(0.025000, 0.025000)">
                            <path d="M0,1 C0,1 24,1 24,1 C24,1 24,0 24,0 C24,0 0,0 0,0 C0,0 0,1 0,1 Z"></path>
                        </g>
                    </g>
                    <g transform="translate(0.709799, 0.324900)" fill="#BCC1C5" id="Shape">
                        <g transform="translate(0.006200, 0.025101)">
                            <path d="M36.8953008,41.0998993 C36.8953008,41.0998993 36.4461004,35.0998993 36.4461004,35.0998993 C36.4461004,35.0998993 33.5008001,9.09989929 33.5008001,9.09989929 C33.5008001,4.05299994 26.9119007,0.0998992935 18.5008003,0.0998992935 C10.0896005,0.0998992935 3.50079961,4.05299994 3.50079961,9.09989929 C3.50079961,9.09989929 0.553999337,35.0998993 0.553999337,35.0998993 C0.553999337,35.0998993 0.104800417,41.0998993 0.104800417,41.0998993 C0.0503005989,42.0926001 0.0188003543,43.1814002 0.0188003543,44.4048011 C0.0188003543,48.5652 2.29179996,51.7016014 4.82059944,54.1001015 C4.82059944,54.1001015 32.1795003,54.1001015 32.1795003,54.1001015 C34.7082998,51.7016014 36.9812002,48.5652 36.9812002,44.4048011 C36.9812002,43.1814002 36.9497,42.0926001 36.8953008,41.0998993 Z M18.5007996,1.09989931 C26.2327007,1.09989931 32.5007996,4.6817002 32.5007996,9.09989931 C32.5007996,13.5181002 26.2327007,17.0998993 18.5007996,17.0998993 C10.7688005,17.0998993 4.50079963,13.5181002 4.50079963,9.09989931 C4.50079963,4.6817002 10.7688005,1.09989931 18.5007996,1.09989931 Z M4.19479987,11.8554994 C6.09270029,15.5137003 11.699,18.0999003 18.5008003,18.0999003 C25.3025005,18.0999003 30.9087003,15.5137003 32.8065999,11.8554994 C32.8065999,11.8554994 35.3264013,34.0999006 35.3264013,34.0999006 C35.3264013,34.0999006 1.67359927,34.0999006 1.67359927,34.0999006 C1.67359927,34.0999006 4.19479987,11.8554994 4.19479987,11.8554994 Z"></path>
                        </g>
                    </g>
                    <g transform="translate(28.162500, 8.400000)" fill="#000000" fill-opacity="0" id="Path" stroke="#34A853" stroke-linecap="round" stroke-width="3.00000012">
                        <path d="M0.05,0.0120000005 C0.05,0.0120000005 0.05,1.90875008 0.05,1.90875008"></path>
                    </g>
                    <g transform="translate(22.162500, 7.875000)" fill="#000000" fill-opacity="0" id="Path" stroke="#FBBC04" stroke-linecap="round" stroke-width="3.00000012">
                        <path d="M0.05,0.0600000024 C0.05,0.0600000024 0.05,2.91000012 0.05,2.91000012"></path>
                    </g>
                    <g transform="translate(16.162500, 8.625000)" fill="#000000" fill-opacity="0" id="Path" stroke="#EA4335" stroke-linecap="round" stroke-width="3.00000012">
                        <path d="M0.05,0.0232500009 C0.05,0.0232500009 0.05,1.44825006 0.05,1.44825006"></path>
                    </g>
                    <g transform="translate(10.162500, 7.650000)" fill="#000000" fill-opacity="0" id="Path" stroke="#4285F4" stroke-linecap="round" stroke-width="3.00000012">
                        <path d="M0.05,0.0487500019 C0.05,0.0487500019 0.05,3.37050013 0.05,3.37050013"></path>
                    </g>
                </g>
            </g>
        </g>
    </g>
</svg>