<?xml version="1.0" encoding="UTF-8"?>
<svg width="100px" height="100px" viewBox="0 0 100 100" version="1.1" xmlns="http://www.w3.org/2000/svg" xmlns:xlink="http://www.w3.org/1999/xlink">
    <!-- Generator: Sketch 56.3 (81716) - https://sketch.com -->
    <title>icn_desktop_active</title>
    <desc>Created with Sketch.</desc>
    <defs>
        <filter x="-28.8%" y="-28.8%" width="157.5%" height="157.5%" filterUnits="objectBoundingBox" id="filter-1">
            <feOffset dx="0" dy="2" in="SourceAlpha" result="shadowOffsetOuter1"></feOffset>
            <feGaussianBlur stdDeviation="5" in="shadowOffsetOuter1" result="shadowBlurOuter1"></feGaussianBlur>
            <feColorMatrix values="0 0 0 0 0   0 0 0 0 0   0 0 0 0 0  0 0 0 0.5 0" type="matrix" in="shadowBlurOuter1" result="shadowMatrixOuter1"></feColorMatrix>
            <feMerge>
                <feMergeNode in="shadowMatrixOuter1"></feMergeNode>
                <feMergeNode in="SourceGraphic"></feMergeNode>
            </feMerge>
        </filter>
    </defs>
    <g id="Icons" stroke="none" stroke-width="1" fill="none" fill-rule="evenodd">
        <g transform="translate(-690.000000, -1492.000000)" id="icn_desktop_active">
            <g filter="url(#filter-1)" transform="translate(700.000000, 1500.000000)">
                <rect id="Rectangle" fill="#FFFFFF" x="0" y="0" width="80" height="80" rx="10"></rect>
                <g id="Group" transform="translate(10.000000, 14.000000)" fill="#BCC1C5" fill-rule="nonzero">
                    <path d="M44.8275862,0 C44.8275862,0 5.17241379,0 5.17241379,0 C2.31637955,0 0,2.31637955 0,5.17241379 C0,5.17241379 0,31.0344828 0,31.0344828 C0,33.890517 2.31637955,36.2068966 5.17241379,36.2068966 C5.17241379,36.2068966 24.5637931,36.2068966 24.5637931,36.2068966 C24.5637931,36.2068966 24.5637931,40.5172414 24.5637931,40.5172414 C24.5637931,40.5172414 12.0689655,40.5172414 12.0689655,40.5172414 C12.0689655,40.5172414 12.0689655,41.3793103 12.0689655,41.3793103 C12.0689655,41.3793103 24.5637931,41.3793103 24.5637931,41.3793103 C24.5637931,41.3793103 25.4258621,41.3793103 25.4258621,41.3793103 C25.4258621,41.3793103 37.9310345,41.3793103 37.9310345,41.3793103 C37.9310345,41.3793103 37.9310345,40.5172414 37.9310345,40.5172414 C37.9310345,40.5172414 25.4258621,40.5172414 25.4258621,40.5172414 C25.4258621,40.5172414 25.4258621,36.2068966 25.4258621,36.2068966 C25.4258621,36.2068966 44.8275862,36.2068966 44.8275862,36.2068966 C47.684482,36.2068966 50,33.890517 50,31.0344828 C50,31.0344828 50,5.17241379 50,5.17241379 C50,2.31637955 47.684482,0 44.8275862,0 Z M0.862068966,31.0344828 C0.862068966,31.0344828 0.862068966,5.17241379 0.862068966,5.17241379 C0.862068966,2.79568968 2.79568968,0.862068966 5.17241379,0.862068966 C5.17241379,0.862068966 44.8275862,0.862068966 44.8275862,0.862068966 C47.2043103,0.862068966 49.137931,2.79568968 49.137931,5.17241379 C49.137931,5.17241379 49.137931,31.0344828 49.137931,31.0344828 C49.137931,31.0344828 0.862068966,31.0344828 0.862068966,31.0344828 Z" id="Shape"></path>
                </g>
                <g id="Group-9" transform="translate(24.950099, 24.025000)" fill="#000000" fill-opacity="0" fill-rule="nonzero" stroke-linecap="round" stroke-width="4.00000006">
                    <g id="Group" stroke="#4285F4">
                        <path d="M0.0500000007,0.0705600011 C0.0500000007,0.0705600011 0.0500000007,12.8217602 0.0500000007,12.8217602" id="Path"></path>
                    </g>
                    <g id="Group" transform="translate(6.720000, 4.788000)" stroke="#EA4335">
                        <path d="M0.0500000007,0.068880001 C0.0500000007,0.068880001 0.0500000007,3.25668005 0.0500000007,3.25668005" id="Path"></path>
                    </g>
                    <g id="Group" transform="translate(13.440003, 1.596000)" stroke="#FBBC04">
                        <path d="M0.0500000007,0.069720001 C0.0500000007,0.069720001 0.0500000007,9.63312014 0.0500000007,9.63312014" id="Path"></path>
                    </g>
                    <g id="Group" transform="translate(20.160003, 3.192000)" stroke="#34A853">
                        <path d="M0.0500000007,0.069720001 C0.0500000007,0.069720001 0.0500000007,6.4453201 0.0500000007,6.4453201" id="Path"></path>
                    </g>
                </g>
                <g id="Group-8" transform="translate(56.000000, 28.000000)">
                    <rect id="Rectangle" stroke="#FFFFFF" stroke-width="2" fill="#BCC1C5" x="-1" y="-1" width="18" height="40" rx="2"></rect>
                    <rect id="Rectangle" fill="#FFFFFF" x="1.5" y="4" width="13" height="4" rx="2"></rect>
                    <rect id="Rectangle" fill="#FFFFFF" x="1.5" y="10" width="13" height="4" rx="2"></rect>
                    <rect id="Rectangle" stroke="#FFFFFF" stroke-width="2" x="6" y="24" width="4" height="4" rx="2"></rect>
                </g>
            </g>
        </g>
    </g>
</svg>
