<?xml version="1.0" encoding="UTF-8"?>
<svg width="100px" height="100px" viewBox="0 0 100 100" version="1.1" xmlns="http://www.w3.org/2000/svg" xmlns:xlink="http://www.w3.org/1999/xlink">
    <!-- Generator: Sketch 56.3 (81716) - https://sketch.com -->
    <title>icn_set_top_box</title>
    <desc>Created with Sketch.</desc>
    <defs>
        <filter x="-28.8%" y="-28.8%" width="157.5%" height="157.5%" filterUnits="objectBoundingBox" id="filter-1">
            <feOffset dx="0" dy="2" in="SourceAlpha" result="shadowOffsetOuter1"></feOffset>
            <feGaussianBlur stdDeviation="5" in="shadowOffsetOuter1" result="shadowBlurOuter1"></feGaussianBlur>
            <feColorMatrix values="0 0 0 0 0   0 0 0 0 0   0 0 0 0 0  0 0 0 0.5 0" type="matrix" in="shadowBlurOuter1" result="shadowMatrixOuter1"></feColorMatrix>
            <feMerge>
                <feMergeNode in="shadowMatrixOuter1"></feMergeNode>
                <feMergeNode in="SourceGraphic"></feMergeNode>
            </feMerge>
        </filter>
    </defs>
    <g id="Icons" stroke="none" stroke-width="1" fill="none" fill-rule="evenodd">
        <g transform="translate(10.000000, -1392.000000)" id="icn_set_top_box">
            <g filter="url(#filter-1)" transform="translate(0.000000, 1400.000000)">
                <rect id="Rectangle" fill="#FFFFFF" x="0" y="0" width="80" height="80" rx="10"></rect>
                <g id="Group" transform="translate(10.000000, 30.000000)" fill-rule="nonzero">
                    <g transform="translate(1.000000, 0.054001)" fill="#BCC1C5" id="Shape">
                        <path d="M54.375,1.09100008 C55.8220005,1.09100008 57,2.26800013 57,3.71600008 C57,3.71600008 57,12.2839999 57,12.2839999 C57,13.7309999 55.8220005,14.9089999 54.375,14.9089999 C54.375,14.9089999 3.625,14.9089999 3.625,14.9089999 C2.1779995,14.9089999 1,13.7309999 1,12.2839999 C1,12.2839999 1,3.71600008 1,3.71600008 C1,2.26800013 2.1779995,1.09100008 3.625,1.09100008 C3.625,1.09100008 54.375,1.09100008 54.375,1.09100008 Z M54.375,0.0910000801 C54.375,0.0910000801 3.625,0.0910000801 3.625,0.0910000801 C1.62299919,0.0910000801 0,1.71400023 0,3.71600008 C0,3.71600008 0,12.2839999 0,12.2839999 C0,14.2859998 1.62299919,15.9089999 3.625,15.9089999 C3.625,15.9089999 54.375,15.9089999 54.375,15.9089999 C56.3770008,15.9089999 58,14.2859998 58,12.2839999 C58,12.2839999 58,3.71600008 58,3.71600008 C58,1.71400023 56.3770008,0.0910000801 54.375,0.0910000801 Z"></path>
                    </g>
                    <g transform="translate(4.613000, 18.855000)" fill="#BCC1C5" id="Path">
                        <path d="M9.98400021,1.5 C9.98400021,1.5 0.015999794,1.5 0.015999794,1.5 C0.015999794,1.5 0.015999794,0.5 0.015999794,0.5 C0.015999794,0.5 9.98400021,0.5 9.98400021,0.5 C9.98400021,0.5 9.98400021,1.5 9.98400021,1.5 Z"></path>
                    </g>
                    <g transform="translate(45.393002, 18.855000)" fill="#BCC1C5" id="Path">
                        <path d="M9.98400021,1.5 C9.98400021,1.5 0.015999794,1.5 0.015999794,1.5 C0.015999794,1.5 0.015999794,0.5 0.015999794,0.5 C0.015999794,0.5 9.98400021,0.5 9.98400021,0.5 C9.98400021,0.5 9.98400021,1.5 9.98400021,1.5 Z"></path>
                    </g>
                    <g transform="translate(5.666000, 4.087999)" fill="#BCC1C5" id="Path">
                        <path d="M5.88000011,1.5 C5.88000011,1.5 0.119999886,1.5 0.119999886,1.5 C0.119999886,1.5 0.119999886,0.5 0.119999886,0.5 C0.119999886,0.5 5.88000011,0.5 5.88000011,0.5 C5.88000011,0.5 5.88000011,1.5 5.88000011,1.5 Z"></path>
                    </g>
                    <g transform="translate(14.235001, 4.087999)" fill="#BCC1C5" id="Path">
                        <path d="M5.88000011,1.5 C5.88000011,1.5 0.119999886,1.5 0.119999886,1.5 C0.119999886,1.5 0.119999886,0.5 0.119999886,0.5 C0.119999886,0.5 5.88000011,0.5 5.88000011,0.5 C5.88000011,0.5 5.88000011,1.5 5.88000011,1.5 Z"></path>
                    </g>
                    <g transform="translate(50.078999, 3.417000)" fill="#34A852" id="Path">
                        <path d="M4,2 C4,3.10399997 3.10500002,4 2,4 C0.896000028,4 0,3.10399997 0,2 C0,0.896000028 0.896000028,0 2,0 C3.10500002,0 4,0.896000028 4,2 Z"></path>
                    </g>
                    <g transform="translate(7.091000, 9.832001)" fill="#BCC1C5" id="Path">
                        <path d="M0.5,5.80100012 C0.5,5.80100012 0.5,3.824 0.5,3.824 C0.5,1.82299995 2.12300014,0.198999882 4.125,0.198999882 C4.125,0.198999882 25.875,0.198999882 25.875,0.198999882 C27.8769999,0.198999882 29.5,1.82299995 29.5,3.824 C29.5,3.824 29.5,5.80100012 29.5,5.80100012 C29.5,5.80100012 0.5,5.80100012 0.5,5.80100012 Z"></path>
                    </g>
                    <g transform="translate(0.830000, 9.833000)" fill="#BCC1C5" id="Path">
                        <path d="M29.5,0.198999882 C29.5,0.198999882 29.5,2.176 29.5,2.176 C29.5,4.17700005 27.8769999,5.80100012 25.875,5.80100012 C25.875,5.80100012 4.125,5.80100012 4.125,5.80100012 C2.12300014,5.80100012 0.5,4.17700005 0.5,2.176 C0.5,2.176 0.5,0.198999882 0.5,0.198999882 C0.5,0.198999882 29.5,0.198999882 29.5,0.198999882 Z"></path>
                    </g>
                </g>
            </g>
        </g>
    </g>
</svg>