<?xml version="1.0" encoding="UTF-8"?>
<svg width="100px" height="100px" viewBox="0 0 100 100" version="1.1" xmlns="http://www.w3.org/2000/svg" xmlns:xlink="http://www.w3.org/1999/xlink">
    <!-- Generator: Sketch 56.3 (81716) - https://sketch.com -->
    <title>icn_device_generic</title>
    <desc>Created with Sketch.</desc>
    <defs>
        <filter x="-28.8%" y="-28.8%" width="157.5%" height="157.5%" filterUnits="objectBoundingBox" id="filter-1">
            <feOffset dx="0" dy="2" in="SourceAlpha" result="shadowOffsetOuter1"></feOffset>
            <feGaussianBlur stdDeviation="5" in="shadowOffsetOuter1" result="shadowBlurOuter1"></feGaussianBlur>
            <feColorMatrix values="0 0 0 0 0   0 0 0 0 0   0 0 0 0 0  0 0 0 0.5 0" type="matrix" in="shadowBlurOuter1" result="shadowMatrixOuter1"></feColorMatrix>
            <feMerge>
                <feMergeNode in="shadowMatrixOuter1"></feMergeNode>
                <feMergeNode in="SourceGraphic"></feMergeNode>
            </feMerge>
        </filter>
    </defs>
    <g id="Icons" stroke="none" stroke-width="1" fill="none" fill-rule="evenodd">
        <g transform="translate(-690.000000, 8.000000)" id="icn_device_generic">
            <g filter="url(#filter-1)" transform="translate(700.000000, 0.000000)">
                <rect id="Rectangle" fill="#FFFFFF" x="0" y="0" width="80" height="80" rx="10"></rect>
                <g id="Group" transform="translate(8.000000, 8.000000)" fill-rule="nonzero">
                    <g fill="#BCC1C5" id="Shape">
                        <path d="M0,0 C0,0 64,0 64,0 C64,0 64,64 64,64 C64,64 0,64 0,64 C0,64 0,0 0,0 Z M0,64 C0,64 64,64 64,64 C64,64 64,0 64,0 C64,0 0,0 0,0 C0,0 0,64 0,64 Z M51,7 C51,7 13,7 13,7 C9.68600082,7 7,9.68600082 7,13 C7,13 7,51 7,51 C7,54.3129997 9.68600082,57 13,57 C13,57 51,57 51,57 C54.3129997,57 57,54.3129997 57,51 C57,51 57,13 57,13 C57,9.68600082 54.3129997,7 51,7 Z M26,12 C27.1040001,12 28,12.8959999 28,14 C28,15.1040001 27.1040001,16 26,16 C24.8959999,16 24,15.1040001 24,14 C24,12.8959999 24.8959999,12 26,12 Z M22,54 C15.3729992,54 10,48.6270008 10,42 C10,35.3729999 15.3729992,30 22,30 C28.6270001,30 34,35.3729999 34,42 C34,48.6270008 28.6270001,54 22,54 Z M38,28 C36.8959999,28 36,27.1040001 36,26 C36,24.8959999 36.8959999,24 38,24 C39.1040001,24 40,24.8959999 40,26 C40,27.1040001 39.1040001,28 38,28 Z M38,16 C36.8959999,16 36,15.1040001 36,14 C36,12.8959999 36.8959999,12 38,12 C39.1040001,12 40,12.8959999 40,14 C40,15.1040001 39.1040001,16 38,16 Z M50,40 C48.8959999,40 48,39.1040001 48,38 C48,36.8959999 48.8959999,36 50,36 C51.1040001,36 52,36.8959999 52,38 C52,39.1040001 51.1040001,40 50,40 Z M50,28 C48.8959999,28 48,27.1040001 48,26 C48,24.8959999 48.8959999,24 50,24 C51.1040001,24 52,24.8959999 52,26 C52,27.1040001 51.1040001,28 50,28 Z M50,16 C48.8959999,16 48,15.1040001 48,14 C48,12.8959999 48.8959999,12 50,12 C51.1040001,12 52,12.8959999 52,14 C52,15.1040001 51.1040001,16 50,16 Z"></path>
                    </g>
                    <g fill="#34A852" id="Shape">
                        <path d="M0,0 C0,0 64,0 64,0 C64,0 64,64 64,64 C64,64 0,64 0,64 C0,64 0,0 0,0 Z M0,64 C0,64 64,64 64,64 C64,64 64,0 64,0 C64,0 0,0 0,0 C0,0 0,64 0,64 Z M22,40 C20.896,40 20,40.896 20,42 C20,43.104 20.896,44 22,44 C23.104,44 24,43.104 24,42 C24,40.896 23.104,40 22,40 Z"></path>
                    </g>
                    <g fill="#BCC1C5" id="Shape">
                        <path d="M0,0 C0,0 64,0 64,0 C64,0 64,64 64,64 C64,64 0,64 0,64 C0,64 0,0 0,0 Z M0,64 C0,64 64,64 64,64 C64,64 64,0 64,0 C64,0 0,0 0,0 C0,0 0,64 0,64 Z M22,33 C17.0289998,33 13,37.0289998 13,42 C13,46.9710002 17.0289998,51 22,51 C26.9699998,51 31,46.9710002 31,42 C31,37.0289998 26.9699998,33 22,33 Z M22,50 C17.5890002,50 14,46.4109998 14,42 C14,37.5890002 17.5890002,34 22,34 C26.4109998,34 30,37.5890002 30,42 C30,46.4109998 26.4109998,50 22,50 Z"></path>
                    </g>
                </g>
            </g>
        </g>
    </g>
</svg>