<?xml version="1.0" encoding="UTF-8"?>
<svg width="100px" height="100px" viewBox="0 0 100 100" version="1.1" xmlns="http://www.w3.org/2000/svg" xmlns:xlink="http://www.w3.org/1999/xlink">
    <!-- Generator: Sketch 56.3 (81716) - https://sketch.com -->
    <title>icn_dishwasher</title>
    <desc>Created with Sketch.</desc>
    <defs>
        <filter x="-28.8%" y="-28.8%" width="157.5%" height="157.5%" filterUnits="objectBoundingBox" id="filter-1">
            <feOffset dx="0" dy="2" in="SourceAlpha" result="shadowOffsetOuter1"></feOffset>
            <feGaussianBlur stdDeviation="5" in="shadowOffsetOuter1" result="shadowBlurOuter1"></feGaussianBlur>
            <feColorMatrix values="0 0 0 0 0   0 0 0 0 0   0 0 0 0 0  0 0 0 0.5 0" type="matrix" in="shadowBlurOuter1" result="shadowMatrixOuter1"></feColorMatrix>
            <feMerge>
                <feMergeNode in="shadowMatrixOuter1"></feMergeNode>
                <feMergeNode in="SourceGraphic"></feMergeNode>
            </feMerge>
        </filter>
    </defs>
    <g id="Icons" stroke="none" stroke-width="1" fill="none" fill-rule="evenodd">
        <g transform="translate(-790.000000, 8.000000)" id="icn_dishwasher">
            <g filter="url(#filter-1)" transform="translate(800.000000, 0.000000)">
                <rect id="Rectangle" fill="#FFFFFF" x="0" y="0" width="80" height="80" rx="10"></rect>
                <g id="Group" transform="translate(19.000000, 17.000000)" fill-rule="nonzero">
                    <g transform="translate(0.000000, 0.500000)" fill="#BCC1C5" id="Shape">
                        <path d="M36,0.5 C36,0.5 6,0.5 6,0.5 C2.68700027,0.5 0,3.18600082 0,6.5 C0,6.5 0,9.47699928 0,9.47699928 C0,9.47699928 0,13.526 0,13.526 C0,13.526 0,45.5 0,45.5 C0,48.8139992 2.68700027,51.5 6,51.5 C6,51.5 36,51.5 36,51.5 C39.3139992,51.5 42,48.8139992 42,45.5 C42,45.5 42,13.526 42,13.526 C42,13.526 42,9.47699928 42,9.47699928 C42,9.47699928 42,6.5 42,6.5 C42,3.18600082 39.3139992,0.5 36,0.5 Z M39,26.5 C39,26.5 3,26.5 3,26.5 C3,26.5 3,22.5 3,22.5 C3,20.8439999 4.34300041,19.5 6,19.5 C6,19.5 36,19.5 36,19.5 C37.6569996,19.5 39,20.8439999 39,22.5 C39,22.5 39,26.5 39,26.5 Z M36,48.5 C36,48.5 6,48.5 6,48.5 C4.34300041,48.5 3,47.1569996 3,45.5 C3,45.5 3,27.5 3,27.5 C3,27.5 39,27.5 39,27.5 C39,27.5 39,45.5 39,45.5 C39,47.1569996 37.6569996,48.5 36,48.5 Z M13,9.5 C13,9.5 29,9.5 29,9.5 C29,11.7089996 27.2090001,13.5 25,13.5 C25,13.5 17,13.5 17,13.5 C14.7909999,13.5 13,11.7089996 13,9.5 Z M1,9.47699928 C1,9.47699928 1,6.5 1,6.5 C1,3.74399948 3.24300003,1.5 6,1.5 C6,1.5 36,1.5 36,1.5 C38.757,1.5 41,3.74399948 41,6.5 C41,6.5 41,9.47699928 41,9.47699928 C41,9.47699928 1,9.47699928 1,9.47699928 Z"></path>
                    </g>
                    <g transform="translate(4.500000, 5.500000)" fill="#BCC1C5" id="Path">
                        <path d="M0.5,1.5 C0.5,1.5 15.5,1.5 15.5,1.5 C15.5,1.5 15.5,0.5 15.5,0.5 C15.5,0.5 0.5,0.5 0.5,0.5 C0.5,0.5 0.5,1.5 0.5,1.5 Z"></path>
                    </g>
                    <g transform="translate(32.000000, 4.000000)" fill="#BCC1C5" id="Path">
                        <path d="M2,0 C0.896000028,0 0,0.896000028 0,2 C0,3.10399997 0.896000028,4 2,4 C3.10399997,4 4,3.10399997 4,2 C4,0.896000028 3.10399997,0 2,0 Z"></path>
                    </g>
                    <g transform="translate(25.000000, 4.000000)" fill="#BCC1C5" id="Path">
                        <path d="M2,0 C0.896000028,0 0,0.896000028 0,2 C0,3.10399997 0.896000028,4 2,4 C3.10399997,4 4,3.10399997 4,2 C4,0.896000028 3.10399997,0 2,0 Z"></path>
                    </g>
                    <g transform="translate(20.500000, 30.500000)" fill="#BCC1C5" id="Shape">
                        <path d="M8,0.5 C3.8579998,0.5 0.5,3.85699987 0.5,8 C0.5,12.1430001 3.8579998,15.5 8,15.5 C12.1420002,15.5 15.5,12.1430001 15.5,8 C15.5,3.85699987 12.1420002,0.5 8,0.5 Z M8,14.5 C4.41599989,14.5 1.5,11.5840001 1.5,8 C1.5,4.41599989 4.41599989,1.5 8,1.5 C11.5840001,1.5 14.5,4.41599989 14.5,8 C14.5,11.5840001 11.5840001,14.5 8,14.5 Z"></path>
                    </g>
                    <g transform="translate(15.500000, 30.500000)" fill="#BCC1C5" id="Path">
                        <path d="M1.5,8 C1.5,5.30200005 3.154,2.9829998 5.5,2.00199986 C5.5,2.00199986 5.5,0.93599987 5.5,0.93599987 C2.58899999,1.96700001 0.5,4.73600006 0.5,8 C0.5,11.2639999 2.58899999,14.033 5.5,15.0640001 C5.5,15.0640001 5.5,13.9980001 5.5,13.9980001 C3.154,13.0170002 1.5,10.698 1.5,8 Z"></path>
                    </g>
                    <g transform="translate(10.500000, 30.500000)" fill="#BCC1C5" id="Path">
                        <path d="M1.5,8 C1.5,5.30200005 3.154,2.9829998 5.5,2.00199986 C5.5,2.00199986 5.5,0.93599987 5.5,0.93599987 C2.58899999,1.96700001 0.5,4.73600006 0.5,8 C0.5,11.2639999 2.58899999,14.033 5.5,15.0640001 C5.5,15.0640001 5.5,13.9980001 5.5,13.9980001 C3.154,13.0170002 1.5,10.698 1.5,8 Z"></path>
                    </g>
                    <g transform="translate(5.500000, 30.500000)" fill="#BCC1C5" id="Path">
                        <path d="M1.5,8 C1.5,5.30200005 3.154,2.9829998 5.5,2.00199986 C5.5,2.00199986 5.5,0.93599987 5.5,0.93599987 C2.58899999,1.96700001 0.5,4.73600006 0.5,8 C0.5,11.2639999 2.58899999,14.033 5.5,15.0640001 C5.5,15.0640001 5.5,13.9980001 5.5,13.9980001 C3.154,13.0170002 1.5,10.698 1.5,8 Z"></path>
                    </g>
                    <g transform="translate(13.000000, 10.000000)" fill="#4285F4" id="Path">
                        <path d="M12,4 C14.2090001,4 16,2.20900001 16,0 C16,0 0,0 0,0 C0,2.20900001 1.79099989,4 4,4 C4,4 12,4 12,4 Z"></path>
                    </g>
                </g>
            </g>
        </g>
    </g>
</svg>