<?xml version="1.0" encoding="UTF-8"?>
<svg width="100px" height="100px" viewBox="0 0 100 100" version="1.1" xmlns="http://www.w3.org/2000/svg" xmlns:xlink="http://www.w3.org/1999/xlink">
    <!-- Generator: Sketch 56.3 (81716) - https://sketch.com -->
    <title>icn_lock_offline</title>
    <desc>Created with Sketch.</desc>
    <defs>
        <filter x="-28.8%" y="-28.8%" width="157.5%" height="157.5%" filterUnits="objectBoundingBox" id="filter-1">
            <feOffset dx="0" dy="2" in="SourceAlpha" result="shadowOffsetOuter1"></feOffset>
            <feGaussianBlur stdDeviation="5" in="shadowOffsetOuter1" result="shadowBlurOuter1"></feGaussianBlur>
            <feColorMatrix values="0 0 0 0 0   0 0 0 0 0   0 0 0 0 0  0 0 0 0.5 0" type="matrix" in="shadowBlurOuter1" result="shadowMatrixOuter1"></feColorMatrix>
            <feMerge>
                <feMergeNode in="shadowMatrixOuter1"></feMergeNode>
                <feMergeNode in="SourceGraphic"></feMergeNode>
            </feMerge>
        </filter>
    </defs>
    <g id="Icons" stroke="none" stroke-width="1" fill="none" fill-rule="evenodd">
        <g transform="translate(-690.000000, -792.000000)" id="icn_lock_offline">
            <g filter="url(#filter-1)" transform="translate(700.000000, 800.000000)">
                <rect id="Rectangle" fill="#FFFFFF" x="0" y="0" width="80" height="80" rx="10"></rect>
                <g id="Group" transform="translate(21.000000, 11.000000)" fill="#BCC1C5" fill-rule="nonzero">
                    <g id="Shape">
                        <path d="M35,28.78 C35,28.78 35,16 35,16 C35,7.16300011 27.8360004,0 19,0 C10.1639996,0 3,7.16300011 3,16 C3,16 3,20.0279999 3,20.0279999 C3,20.0279999 9,20.0819998 9,20.0819998 C9,20.0819998 9,16 9,16 C9,10.4780006 13.4770002,6 19,6 C24.5229998,6 29,10.4780006 29,16 C29,16 29,22.8660002 29,22.8660002 C26.0929999,21.0609999 22.674,20 19,20 C8.50699997,20 0,28.507 0,39 C0,49.493 8.50699997,58 19,58 C29.4940004,58 38,49.493 38,39 C38,35.2329998 36.8899994,31.7320001 35,28.78 Z M19,5 C12.9349999,5 8,9.93499947 8,16 C8,16 8,19.073 8,19.073 C8,19.073 4,19.0369997 4,19.0369997 C4,19.0369997 4,16 4,16 C4,7.72900009 10.7290001,1 19,1 C27.2709999,1 34,7.72900009 34,16 C34,16 34,27.367 34,27.367 C32.8599997,25.9000001 31.5150003,24.605 30,23.526 C30,23.526 30,16 30,16 C30,9.93499947 25.0650001,5 19,5 Z M19,57 C9.07499981,57 1,48.9249992 1,39 C1,29.075 9.07499981,21 19,21 C28.9250002,21 37,29.075 37,39 C37,48.9249992 28.9250002,57 19,57 Z"></path>
                    </g>
                    <g transform="translate(4.000000, 24.000000)" id="Shape">
                        <path d="M15,0 C6.7159996,0 0,6.7159996 0,15 C0,23.2840004 6.7159996,30 15,30 C23.2840004,30 30,23.2840004 30,15 C30,6.7159996 23.2840004,0 15,0 Z M15,29 C7.28000021,29 1,22.7199998 1,15 C1,7.28000021 7.28000021,1 15,1 C22.7199998,1 29,7.28000021 29,15 C29,22.7199998 22.7199998,29 15,29 Z"></path>
                    </g>
                    <g transform="translate(15.000000, 31.854000)" id="Path">
                        <path d="M8,4.14499998 C8,1.93600011 6.20900011,0.144999981 4,0.144999981 C1.79099989,0.144999981 0,1.93600011 0,4.14499998 C0,5.829 1.04299998,7.26399994 2.51699996,7.85500002 C2.51699996,7.85500002 4,4.14499998 4,4.14499998 C4,4.14499998 5.48300004,7.85500002 5.48300004,7.85500002 C6.95700002,7.2650001 8,5.829 8,4.14499998 Z"></path>
                    </g>
                    <g transform="translate(15.000000, 36.000000)" id="Path">
                        <path d="M2.51699996,3.70899999 C2.51699996,3.70899999 0,10 0,10 C0,10 8,10 8,10 C8,10 5.48399997,3.70899999 5.48399997,3.70899999 C5.48399997,3.70899999 4,0 4,0 C4,0 2.51699996,3.70899999 2.51699996,3.70899999 Z"></path>
                    </g>
                </g>
            </g>
        </g>
    </g>
</svg>