<?xml version="1.0" encoding="UTF-8"?>
<svg width="100px" height="100px" viewBox="0 0 100 100" version="1.1" xmlns="http://www.w3.org/2000/svg" xmlns:xlink="http://www.w3.org/1999/xlink">
    <!-- Generator: Sketch 56.3 (81716) - https://sketch.com -->
    <title>icn_m_device_active</title>
    <desc>Created with Sketch.</desc>
    <defs>
        <filter x="-28.8%" y="-28.8%" width="157.5%" height="157.5%" filterUnits="objectBoundingBox" id="filter-1">
            <feOffset dx="0" dy="2" in="SourceAlpha" result="shadowOffsetOuter1"></feOffset>
            <feGaussianBlur stdDeviation="5" in="shadowOffsetOuter1" result="shadowBlurOuter1"></feGaussianBlur>
            <feColorMatrix values="0 0 0 0 0   0 0 0 0 0   0 0 0 0 0  0 0 0 0.5 0" type="matrix" in="shadowBlurOuter1" result="shadowMatrixOuter1"></feColorMatrix>
            <feMerge>
                <feMergeNode in="shadowMatrixOuter1"></feMergeNode>
                <feMergeNode in="SourceGraphic"></feMergeNode>
            </feMerge>
        </filter>
    </defs>
    <g id="Icons" stroke="none" stroke-width="1" fill="none" fill-rule="evenodd">
        <g transform="translate(-790.000000, -692.000000)" id="icn_m_device_active">
            <g filter="url(#filter-1)" transform="translate(800.000000, 700.000000)">
                <rect id="Rectangle" fill="#FFFFFF" x="0" y="0" width="80" height="80" rx="10"></rect>
                <g id="Group" transform="translate(10.000000, 18.000000)" fill-rule="nonzero">
                    <g transform="translate(0.732199, 0.731697)" fill="#BCC1C5">
                        <g transform="translate(0.067801, 0.067799)" id="Shape">
                            <path d="M52.0572014,1.20010073 C54.8930001,1.20010073 57.2,3.50720067 57.2,6.34290018 C57.2,6.34290018 57.2,36.0571005 57.2,36.0571005 C57.2,38.8929007 54.8930001,41.2000006 52.0572014,41.2000006 C52.0572014,41.2000006 6.34279947,41.2000006 6.34279947,41.2000006 C3.50710149,41.2000006 1.20000002,38.8929007 1.20000002,36.0571005 C1.20000002,36.0571005 1.20000002,6.34290018 1.20000002,6.34290018 C1.20000002,3.50720067 3.50710149,1.20010073 6.34279947,1.20010073 C6.34279947,1.20010073 52.0572014,1.20010073 52.0572014,1.20010073 Z M52.0571014,0.0570999154 C52.0571014,0.0570999154 6.34279947,0.0570999154 6.34279947,0.0570999154 C2.87130131,0.0570999154 0.0571014413,2.87140049 0.0571014413,6.34290018 C0.0571014413,6.34290018 0.0571014413,36.0570999 0.0571014413,36.0570999 C0.0571014413,39.5286001 2.87130131,42.3428 6.34279947,42.3428 C6.34279947,42.3428 52.0571014,42.3428 52.0571014,42.3428 C55.5286019,42.3428 58.3428994,39.5286001 58.3428994,36.0570999 C58.3428994,36.0570999 58.3428994,6.34290018 58.3428994,6.34290018 C58.3428994,2.87140049 55.5286019,0.0570999154 52.0571014,0.0570999154 Z"></path>
                        </g>
                        <g transform="translate(4.067899, 4.067799)" id="Shape">
                            <path d="M47.2,1.20010073 C48.3028007,1.20010073 49.2,2.09730075 49.2,3.20010073 C49.2,3.20010073 49.2,31.2000005 49.2,31.2000005 C49.2,32.3028005 48.3028007,33.2000005 47.2,33.2000005 C47.2,33.2000005 3.20000002,33.2000005 3.20000002,33.2000005 C2.09720004,33.2000005 1.20000002,32.3028005 1.20000002,31.2000005 C1.20000002,31.2000005 1.20000002,3.20010073 1.20000002,3.20010073 C1.20000002,2.09730075 2.09720004,1.20010073 3.20000002,1.20010073 C3.20000002,1.20010073 47.2,1.20010073 47.2,1.20010073 Z M47.2000007,0.0570999154 C47.2000007,0.0570999154 3.20000005,0.0570999154 3.20000005,0.0570999154 C1.46430056,0.0570999154 0.0570999154,1.46430056 0.0570999154,3.20010076 C0.0570999154,3.20010076 0.0570999154,31.2000005 0.0570999154,31.2000005 C0.0570999154,32.9357 1.46430056,34.3427999 3.20000005,34.3427999 C3.20000005,34.3427999 47.2000007,34.3427999 47.2000007,34.3427999 C48.9357002,34.3427999 50.3429008,32.9357 50.3429008,31.2000005 C50.3429008,31.2000005 50.3429008,3.20010076 50.3429008,3.20010076 C50.3429008,1.46430056 48.9357002,0.0570999154 47.2000007,0.0570999154 Z"></path>
                        </g>
                        <g transform="translate(8.067899, 41.796400)" id="Path">
                            <path d="M39.2000006,5.75720014 C39.2000006,5.75720014 3.20000005,5.75720014 3.20000005,5.75720014 C1.46430056,5.75720014 0.0570999154,4.35010011 0.0570999154,2.61430003 C0.0570999154,2.61430003 0.0570999154,0.0427999503 0.0570999154,0.0427999503 C0.0570999154,0.0427999503 42.3429007,0.0427999503 42.3429007,0.0427999503 C42.3429007,0.0427999503 42.3429007,2.61430003 42.3429007,2.61430003 C42.3429007,4.35010011 40.9357001,5.75720014 39.2000006,5.75720014 Z"></path>
                        </g>
                    </g>
                    <g transform="translate(17.950099, 14.324999)" fill="#000000" fill-opacity="0" id="Path" stroke="#4285F4" stroke-linecap="round" stroke-width="4.00000006">
                        <path d="M0.0500000007,0.0840000013 C0.0500000007,0.0840000013 0.0500000007,15.2640002 0.0500000007,15.2640002"></path>
                    </g>
                    <g transform="translate(25.950099, 20.024999)" fill="#000000" fill-opacity="0" id="Path" stroke="#EA4335" stroke-linecap="round" stroke-width="4.00000006">
                        <path d="M0.0500000007,0.0820000012 C0.0500000007,0.0820000012 0.0500000007,3.87700006 0.0500000007,3.87700006"></path>
                    </g>
                    <g transform="translate(33.950103, 16.224999)" fill="#000000" fill-opacity="0" id="Path" stroke="#FBBC04" stroke-linecap="round" stroke-width="4.00000006">
                        <path d="M0.0500000007,0.0830000012 C0.0500000007,0.0830000012 0.0500000007,11.4680002 0.0500000007,11.4680002"></path>
                    </g>
                    <g transform="translate(41.950103, 18.124999)" fill="#000000" fill-opacity="0" id="Path" stroke="#34A853" stroke-linecap="round" stroke-width="4.00000006">
                        <path d="M0.0500000007,0.0830000012 C0.0500000007,0.0830000012 0.0500000007,7.67300011 0.0500000007,7.67300011"></path>
                    </g>
                </g>
            </g>
        </g>
    </g>
</svg>