<?xml version="1.0" encoding="UTF-8"?>
<svg width="100px" height="100px" viewBox="0 0 100 100" version="1.1" xmlns="http://www.w3.org/2000/svg" xmlns:xlink="http://www.w3.org/1999/xlink">
    <!-- Generator: Sketch 56.3 (81716) - https://sketch.com -->
    <title>icn_clock</title>
    <desc>Created with Sketch.</desc>
    <defs>
        <filter x="-28.8%" y="-28.8%" width="157.5%" height="157.5%" filterUnits="objectBoundingBox" id="filter-1">
            <feOffset dx="0" dy="2" in="SourceAlpha" result="shadowOffsetOuter1"></feOffset>
            <feGaussianBlur stdDeviation="5" in="shadowOffsetOuter1" result="shadowBlurOuter1"></feGaussianBlur>
            <feColorMatrix values="0 0 0 0 0   0 0 0 0 0   0 0 0 0 0  0 0 0 0.5 0" type="matrix" in="shadowBlurOuter1" result="shadowMatrixOuter1"></feColorMatrix>
            <feMerge>
                <feMergeNode in="shadowMatrixOuter1"></feMergeNode>
                <feMergeNode in="SourceGraphic"></feMergeNode>
            </feMerge>
        </filter>
    </defs>
    <g id="Icons" stroke="none" stroke-width="1" fill="none" fill-rule="evenodd">
        <g transform="translate(-590.000000, 8.000000)" id="icn_clock">
            <g filter="url(#filter-1)" transform="translate(600.000000, 0.000000)">
                <rect id="Rectangle" fill="#FFFFFF" x="0" y="0" width="80" height="80" rx="10"></rect>
                <g id="Group" transform="translate(14.000000, 10.000000)" fill-rule="nonzero">
                    <g transform="translate(0.000000, 4.129002)" fill="#BCC1C5" id="Shape">
                        <path d="M52,26.8710003 C52,12.5120001 40.3590002,0.87100029 26,0.87100029 C11.6409998,0.87100029 0,12.5120001 0,26.8710003 C0,35.7270002 4.43199921,43.5450001 11.1949997,48.2399998 C11.1949997,48.2399998 8.57099915,52.6130009 8.57099915,52.6130009 C8.57099915,52.6130009 9.42900085,53.1289997 9.42900085,53.1289997 C9.42900085,53.1289997 12.0290003,48.7940006 12.0290003,48.7940006 C16.0649996,51.3710003 20.8559999,52.8710003 26,52.8710003 C31.1440001,52.8710003 35.9350004,51.3710003 39.9709997,48.7940006 C39.9709997,48.7940006 42.5709991,53.1289997 42.5709991,53.1289997 C42.5709991,53.1289997 43.4290009,52.6130009 43.4290009,52.6130009 C43.4290009,52.6130009 40.8050003,48.2399998 40.8050003,48.2399998 C47.5680008,43.5459995 52,35.7270002 52,26.8710003 Z M26,51.8710003 C12.2150002,51.8710003 1,40.6560001 1,26.8710003 C1,13.0860004 12.2150002,1.87100029 26,1.87100029 C39.7849998,1.87100029 51,13.0860004 51,26.8710003 C51,40.6560001 39.7849998,51.8710003 26,51.8710003 Z"></path>
                    </g>
                    <g transform="translate(4.000000, 9.000000)" fill="#EA4335" id="Shape">
                        <path d="M22,0 C9.85000038,0 0,9.85000038 0,22 C0,34.1499996 9.85000038,44 22,44 C34.1499996,44 44,34.1499996 44,22 C44,9.85000038 34.1499996,0 22,0 Z M22,38 C13.1639996,38 6,30.8360004 6,22 C6,13.1639996 13.1639996,6 22,6 C30.8360004,6 38,13.1639996 38,22 C38,30.8360004 30.8360004,38 22,38 Z"></path>
                    </g>
                    <g transform="translate(17.000000, 0.500000)" fill="#BCC1C5" id="Path">
                        <path d="M18,0.5 C18,0.5 0,0.5 0,0.5 C0,0.5 0,1.5 0,1.5 C0,1.5 18,1.5 18,1.5 C18,1.5 18,0.5 18,0.5 Z"></path>
                    </g>
                    <g transform="translate(24.000000, 18.000000)" fill="#BCC1C5" id="Path">
                        <path d="M2,4 C3.10399997,4 4,3.10399997 4,2 C4,0.896000028 3.10399997,0 2,0 C0.896000028,0 0,0.896000028 0,2 C0,3.10399997 0.896000028,4 2,4 Z"></path>
                    </g>
                    <g transform="translate(24.000000, 40.000000)" fill="#BCC1C5" id="Path">
                        <path d="M2,0 C0.896000028,0 0,0.896000028 0,2 C0,3.10399997 0.896000028,4 2,4 C3.10399997,4 4,3.10399997 4,2 C4,0.896000028 3.10399997,0 2,0 Z"></path>
                    </g>
                    <g transform="translate(13.000000, 29.000000)" fill="#BCC1C5" id="Path">
                        <path d="M2,0 C0.896000028,0 0,0.896000028 0,2 C0,3.10399997 0.896000028,4 2,4 C3.10399997,4 4,3.10399997 4,2 C4,0.896000028 3.10399997,0 2,0 Z"></path>
                    </g>
                    <g transform="translate(35.000000, 29.000000)" fill="#BCC1C5" id="Path">
                        <path d="M2,0 C0.896000028,0 0,0.896000028 0,2 C0,3.10399997 0.896000028,4 2,4 C3.10399997,4 4,3.10399997 4,2 C4,0.896000028 3.10399997,0 2,0 Z"></path>
                    </g>
                    <g transform="translate(25.054001, 21.270000)" fill="#EA4335" id="Path">
                        <path d="M9.05299997,0.916000366 C9.05299997,0.916000366 0.239999771,9.73000002 0.239999771,9.73000002 C0.239999771,9.73000002 7.59200001,17.0839996 7.59200001,17.0839996 C7.59200001,17.0839996 8.29900002,16.3769999 8.29900002,16.3769999 C8.29900002,16.3769999 1.65400004,9.73000002 1.65400004,9.73000002 C1.65400004,9.73000002 9.76000023,1.62300014 9.76000023,1.62300014 C9.76000023,1.62300014 9.05299997,0.916000366 9.05299997,0.916000366 Z"></path>
                    </g>
                </g>
            </g>
        </g>
    </g>
</svg>
