<?xml version="1.0" encoding="UTF-8"?>
<svg width="100px" height="100px" viewBox="0 0 100 100" version="1.1" xmlns="http://www.w3.org/2000/svg" xmlns:xlink="http://www.w3.org/1999/xlink">
    <!-- Generator: Sketch 56.3 (81716) - https://sketch.com -->
    <title>icn_nest_thermostat</title>
    <desc>Created with Sketch.</desc>
    <defs>
        <filter x="-28.8%" y="-28.8%" width="157.5%" height="157.5%" filterUnits="objectBoundingBox" id="filter-1">
            <feOffset dx="0" dy="2" in="SourceAlpha" result="shadowOffsetOuter1"></feOffset>
            <feGaussianBlur stdDeviation="5" in="shadowOffsetOuter1" result="shadowBlurOuter1"></feGaussianBlur>
            <feColorMatrix values="0 0 0 0 0   0 0 0 0 0   0 0 0 0 0  0 0 0 0.5 0" type="matrix" in="shadowBlurOuter1" result="shadowMatrixOuter1"></feColorMatrix>
            <feMerge>
                <feMergeNode in="shadowMatrixOuter1"></feMergeNode>
                <feMergeNode in="SourceGraphic"></feMergeNode>
            </feMerge>
        </filter>
    </defs>
    <g id="Icons" stroke="none" stroke-width="1" fill="none" fill-rule="evenodd">
        <g transform="translate(-190.000000, -992.000000)" id="icn_nest_thermostat">
            <g filter="url(#filter-1)" transform="translate(200.000000, 1000.000000)">
                <rect id="Rectangle" fill="#FFFFFF" x="0" y="0" width="80" height="80" rx="10"></rect>
                <g id="Group" transform="translate(7.000000, 7.000000)" fill-rule="nonzero">
                    <g transform="translate(1.000000, 1.000000)" fill="#BCC0C5" id="Shape">
                        <path d="M0,0 C0,0 64,0 64,0 C64,0 64,64 64,64 C64,64 0,64 0,64 C0,64 0,0 0,0 Z M0,64 C0,64 64,64 64,64 C64,64 64,0 64,0 C64,0 0,0 0,0 C0,0 0,64 0,64 Z M32,3 C15.9829998,3 3,15.9829998 3,32 C3,48.0170002 15.9829998,61 32,61 C48.0160007,61 61,48.0170002 61,32 C61,15.9829998 48.0160007,3 32,3 Z M32,60 C16.5609999,60 4,47.4390001 4,32 C4,16.5609999 16.5609999,4 32,4 C47.4390001,4 60,16.5609999 60,32 C60,47.4390001 47.4390001,60 32,60 Z"></path>
                    </g>
                    <g transform="translate(1.000000, 1.000000)" fill="#BCC0C5" id="Shape">
                        <path d="M0,0 C0,0 64,0 64,0 C64,0 64,64 64,64 C64,64 0,64 0,64 C0,64 0,0 0,0 Z M0,64 C0,64 64,64 64,64 C64,64 64,0 64,0 C64,0 0,0 0,0 C0,0 0,64 0,64 Z M32,8 C18.7449999,8 8,18.7460003 8,32 C8,45.2550001 18.7449999,56 32,56 C45.2550001,56 56,45.2550001 56,32 C56,18.7460003 45.2550001,8 32,8 Z M36,40 C36,44.4180002 32.418,48 28,48 C28,43.5819998 31.582,40 36,40 Z M43.3879995,47.184 C43.3879995,47.184 38.5929999,40.79 38.5929999,40.79 C41.2639999,38.7839999 43,35.599 43,32 C43,30.6849999 42.7580004,29.4300001 42.3339996,28.2609999 C42.3339996,28.2609999 32.31,32.413 32.31,32.413 C32.31,32.413 32,32 32,32 C32,32 31.538,31.809 31.538,31.809 C31.538,31.809 35.74,21.6660004 35.74,21.6660004 C34.5710001,21.243 33.3150001,21 32,21 C25.9250002,21 21,25.9250002 21,32 C21,35.599 22.7360001,38.7839999 25.408,40.79 C25.408,40.79 20.6129999,47.184 20.6129999,47.184 C15.9979992,43.717 13,38.2160001 13,32 C13,21.507 21.507,13 32,13 C34.4000001,13 36.6869998,13.4640007 38.8010001,14.2759991 C38.8010001,14.2759991 39.6570001,12.2099991 39.6570001,12.2099991 C39.6570001,12.2099991 40.5799999,12.5930004 40.5799999,12.5930004 C40.5799999,12.5930004 39.7270002,14.6529999 39.7270002,14.6529999 C41.7110004,15.5380001 43.5100002,16.7530003 45.0649996,18.2290001 C45.0649996,18.2290001 46.6470003,16.6470003 46.6470003,16.6470003 C46.6470003,16.6470003 47.3540001,17.3540001 47.3540001,17.3540001 C47.3540001,17.3540001 45.7720003,18.9359999 45.7720003,18.9359999 C47.2469997,20.4910002 48.4629993,22.2889996 49.3470001,24.2740002 C49.3470001,24.2740002 51.4080009,23.4200001 51.4080009,23.4200001 C51.4080009,23.4200001 51.7900009,24.3439999 51.7900009,24.3439999 C51.7900009,24.3439999 49.7250004,25.1999998 49.7250004,25.1999998 C50.5370007,27.3140001 51,29.5999999 51,32 C51,38.2160001 48.0020008,43.717 43.3879995,47.184 Z"></path>
                    </g>
                    <g transform="translate(0.797001, 0.191002)" fill="#4285F4" id="Shape">
                        <path d="M0.202999115,0.808998108 C0.202999115,0.808998108 64.2040005,0.808998108 64.2040005,0.808998108 C64.2040005,0.808998108 64.2040005,64.8089981 64.2040005,64.8089981 C64.2040005,64.8089981 0.202999115,64.8089981 0.202999115,64.8089981 C0.202999115,64.8089981 0.202999115,0.808998108 0.202999115,0.808998108 Z M0.202999115,64.8089981 C0.202999115,64.8089981 64.2040005,64.8089981 64.2040005,64.8089981 C64.2040005,64.8089981 64.2040005,0.808998108 64.2040005,0.808998108 C64.2040005,0.808998108 0.202999115,0.808998108 0.202999115,0.808998108 C0.202999115,0.808998108 0.202999115,64.8089981 0.202999115,64.8089981 Z M42.5369999,29.0700002 C42.96,30.2389998 43.2029999,31.494 43.2029999,32.809 C43.2029999,36.408 41.467,39.592 38.796,41.599 C38.796,41.599 43.591,47.993 43.591,47.993 C48.2049999,44.526 51.204,39.0250001 51.204,32.809 C51.204,30.4089999 50.7399998,28.1230001 49.928,26.0080004 C49.928,26.0080004 42.5369999,29.0700002 42.5369999,29.0700002 Z"></path>
                    </g>
                    <g transform="translate(0.863998, 0.268999)" fill="#4285F4" id="Shape">
                        <path d="M0.136001587,0.7310009 C0.136001587,0.7310009 64.1360016,0.7310009 64.1360016,0.7310009 C64.1360016,0.7310009 64.1360016,64.7310009 64.1360016,64.7310009 C64.1360016,64.7310009 0.136001587,64.7310009 0.136001587,64.7310009 C0.136001587,64.7310009 0.136001587,0.7310009 0.136001587,0.7310009 Z M0.136001587,64.7310009 C0.136001587,64.7310009 64.1360016,64.7310009 64.1360016,64.7310009 C64.1360016,64.7310009 64.1360016,0.7310009 64.1360016,0.7310009 C64.1360016,0.7310009 0.136001587,0.7310009 0.136001587,0.7310009 C0.136001587,0.7310009 0.136001587,64.7310009 0.136001587,64.7310009 Z M39.544,24.6160002 C39.544,24.6160002 45.2010002,18.96 45.2010002,18.96 C43.6459999,17.484 41.847,16.2690001 39.863,15.3839998 C39.863,15.3839998 36.7989998,22.78 36.7989998,22.78 C37.8080001,23.253 38.7309999,23.8740001 39.544,24.6160002 Z"></path>
                    </g>
                    <g transform="translate(0.730999, 0.136000)" fill="#4285F4" id="Shape">
                        <path d="M0.269001007,0.86400032 C0.269001007,0.86400032 64.269001,0.86400032 64.269001,0.86400032 C64.269001,0.86400032 64.269001,64.8640003 64.269001,64.8640003 C64.269001,64.8640003 0.269001007,64.8640003 0.269001007,64.8640003 C0.269001007,64.8640003 0.269001007,0.86400032 0.269001007,0.86400032 Z M0.269001007,64.8640003 C0.269001007,64.8640003 64.269001,64.8640003 64.269001,64.8640003 C64.269001,64.8640003 64.269001,0.86400032 64.269001,0.86400032 C64.269001,0.86400032 0.269001007,0.86400032 0.269001007,0.86400032 C0.269001007,0.86400032 0.269001007,64.8640003 0.269001007,64.8640003 Z M42.221,28.2010002 C42.221,28.2010002 49.6170001,25.137 49.6170001,25.137 C48.7320001,23.152 47.5150001,21.3529999 46.04,19.7989998 C46.04,19.7989998 40.3829999,25.456 40.3829999,25.456 C41.1259999,26.2690001 41.747,27.1919999 42.221,28.2010002 Z"></path>
                    </g>
                    <g transform="translate(0.900000, 0.091999)" fill="#4285F4" id="Shape">
                        <path d="M0.100000381,0.908000946 C0.100000381,0.908000946 64.1000004,0.908000946 64.1000004,0.908000946 C64.1000004,0.908000946 64.1000004,64.9080009 64.1000004,64.9080009 C64.1000004,64.9080009 0.100000381,64.9080009 0.100000381,64.9080009 C0.100000381,64.9080009 0.100000381,0.908000946 0.100000381,0.908000946 Z M0.100000381,64.9080009 C0.100000381,64.9080009 64.1000004,64.9080009 64.1000004,64.9080009 C64.1000004,64.9080009 64.1000004,0.908000946 64.1000004,0.908000946 C64.1000004,0.908000946 0.100000381,0.908000946 0.100000381,0.908000946 C0.100000381,0.908000946 0.100000381,64.9080009 0.100000381,64.9080009 Z M32.1000004,13.9080009 C21.6059999,13.9080009 13.1000004,22.415 13.1000004,32.9080009 C13.1000004,39.1239996 16.0979996,44.625 20.7119999,48.0919991 C20.7119999,48.0919991 25.507,41.698 25.507,41.698 C22.836,39.691 21.1000004,36.507 21.1000004,32.9080009 C21.1000004,26.8330002 26.025,21.9080009 32.1000004,21.9080009 C33.415,21.9080009 34.6700001,22.1499996 35.8389997,22.5740004 C35.8389997,22.5740004 38.8999996,15.1829996 38.8999996,15.1829996 C36.7860003,14.3719997 34.5,13.9080009 32.1000004,13.9080009 Z"></path>
                    </g>
                    <g transform="translate(0.041000, 0.584000)" fill="#BCC0C5" id="Shape">
                        <path d="M0.958999634,0.416000366 C0.958999634,0.416000366 64.9589996,0.416000366 64.9589996,0.416000366 C64.9589996,0.416000366 64.9589996,64.4160004 64.9589996,64.4160004 C64.9589996,64.4160004 0.958999634,64.4160004 0.958999634,64.4160004 C0.958999634,64.4160004 0.958999634,0.416000366 0.958999634,0.416000366 Z M0.958999634,64.4160004 C0.958999634,64.4160004 64.9589996,64.4160004 64.9589996,64.4160004 C64.9589996,64.4160004 64.9589996,0.416000366 64.9589996,0.416000366 C64.9589996,0.416000366 0.958999634,0.416000366 0.958999634,0.416000366 C0.958999634,0.416000366 0.958999634,64.4160004 0.958999634,64.4160004 Z M35.089,30.9920001 C35.089,30.9920001 42.911,27.753 42.911,27.753 C42.437,26.744 41.8169999,25.8210001 41.0739999,25.0079999 C41.0739999,25.0079999 35.089,30.9920001 35.089,30.9920001 Z"></path>
                    </g>
                    <g transform="translate(0.416000, 0.959000)" fill="#BCC0C5" id="Shape">
                        <path d="M0.583999634,0.0410003662 C0.583999634,0.0410003662 64.5839996,0.0410003662 64.5839996,0.0410003662 C64.5839996,0.0410003662 64.5839996,64.0410004 64.5839996,64.0410004 C64.5839996,64.0410004 0.583999634,64.0410004 0.583999634,64.0410004 C0.583999634,64.0410004 0.583999634,0.0410003662 0.583999634,0.0410003662 Z M0.583999634,64.0410004 C0.583999634,64.0410004 64.5839996,64.0410004 64.5839996,64.0410004 C64.5839996,64.0410004 64.5839996,0.0410003662 64.5839996,0.0410003662 C64.5839996,0.0410003662 0.583999634,0.0410003662 0.583999634,0.0410003662 C0.583999634,0.0410003662 0.583999634,64.0410004 0.583999634,64.0410004 Z M34.0079999,29.9100001 C34.0079999,29.9100001 39.9920001,23.9260001 39.9920001,23.9260001 C39.1789999,23.1830001 38.256,22.562 37.247,22.0899999 C37.247,22.0899999 34.0079999,29.9100001 34.0079999,29.9100001 Z"></path>
                    </g>
                    <g transform="translate(0.664001, 0.311001)" fill="#BCC0C5" id="Shape">
                        <path d="M0.335998535,0.688999176 C0.335998535,0.688999176 64.3359985,0.688999176 64.3359985,0.688999176 C64.3359985,0.688999176 64.3359985,64.6889992 64.3359985,64.6889992 C64.3359985,64.6889992 0.335998535,64.6889992 0.335998535,64.6889992 C0.335998535,64.6889992 0.335998535,0.688999176 0.335998535,0.688999176 Z M0.335998535,64.6889992 C0.335998535,64.6889992 64.3359985,64.6889992 64.3359985,64.6889992 C64.3359985,64.6889992 64.3359985,0.688999176 64.3359985,0.688999176 C64.3359985,0.688999176 0.335998535,0.688999176 0.335998535,0.688999176 C0.335998535,0.688999176 0.335998535,64.6889992 0.335998535,64.6889992 Z M52.1260004,25.033 C52.1260004,25.033 51.743,24.109 51.743,24.109 C51.743,24.109 49.6830001,24.962 49.6830001,24.962 C49.6830001,24.962 42.288,28.0250001 42.288,28.0250001 C42.288,28.0250001 34.467,31.2639999 34.467,31.2639999 C34.467,31.2639999 40.451,25.2809999 40.451,25.2809999 C40.451,25.2809999 46.1069999,19.6240001 46.1069999,19.6240001 C46.1069999,19.6240001 47.6890001,18.0419998 47.6890001,18.0419998 C47.6890001,18.0419998 46.9819999,17.335 46.9819999,17.335 C46.9819999,17.335 45.4000001,18.9169998 45.4000001,18.9169998 C45.4000001,18.9169998 39.744,24.574 39.744,24.574 C39.744,24.574 33.7600002,30.5570002 33.7600002,30.5570002 C33.7600002,30.5570002 36.9990001,22.738 36.9990001,22.738 C36.9990001,22.738 40.063,15.342 40.063,15.342 C40.063,15.342 40.916,13.2810001 40.916,13.2810001 C40.916,13.2810001 39.9920001,12.8979998 39.9920001,12.8979998 C39.9920001,12.8979998 39.1370001,14.9650002 39.1370001,14.9650002 C39.1370001,14.9650002 36.0749998,22.355 36.0749998,22.355 C36.0749998,22.355 31.8739996,32.4969997 31.8739996,32.4969997 C31.8739996,32.4969997 32.3360004,32.6890001 32.3360004,32.6890001 C32.3360004,32.6890001 32.6459999,33.1020002 32.6459999,33.1020002 C32.6459999,33.1020002 42.67,28.9499998 42.67,28.9499998 C42.67,28.9499998 50.0609999,25.8870001 50.0609999,25.8870001 C50.0609999,25.8870001 52.1260004,25.033 52.1260004,25.033 Z"></path>
                    </g>
                </g>
            </g>
        </g>
    </g>
</svg>