<?xml version="1.0" encoding="UTF-8"?>
<svg width="100px" height="100px" viewBox="0 0 100 100" version="1.1" xmlns="http://www.w3.org/2000/svg" xmlns:xlink="http://www.w3.org/1999/xlink">
    <!-- Generator: Sketch 56.3 (81716) - https://sketch.com -->
    <title>icn_lightgroup</title>
    <desc>Created with Sketch.</desc>
    <defs>
        <filter x="-28.8%" y="-28.8%" width="157.5%" height="157.5%" filterUnits="objectBoundingBox" id="filter-1">
            <feOffset dx="0" dy="2" in="SourceAlpha" result="shadowOffsetOuter1"></feOffset>
            <feGaussianBlur stdDeviation="5" in="shadowOffsetOuter1" result="shadowBlurOuter1"></feGaussianBlur>
            <feColorMatrix values="0 0 0 0 0   0 0 0 0 0   0 0 0 0 0  0 0 0 0.5 0" type="matrix" in="shadowBlurOuter1" result="shadowMatrixOuter1"></feColorMatrix>
            <feMerge>
                <feMergeNode in="shadowMatrixOuter1"></feMergeNode>
                <feMergeNode in="SourceGraphic"></feMergeNode>
            </feMerge>
        </filter>
    </defs>
    <g id="Icons" stroke="none" stroke-width="1" fill="none" fill-rule="evenodd">
        <g transform="translate(-590.000000, -592.000000)" id="icn_lightgroup">
            <g filter="url(#filter-1)" transform="translate(600.000000, 600.000000)">
                <rect id="Rectangle" fill="#FFFFFF" x="0" y="0" width="80" height="80" rx="10"></rect>
                <g id="Group" transform="translate(7.000000, 7.000000)" fill-rule="nonzero">
                    <g transform="translate(42.360001, 24.110001)" fill="#BCC1C5" id="Path">
                        <path d="M15.9099998,0.890000343 C15.9099998,0.890000343 6.63999999,21.1099997 6.63999999,21.1099997 C6.63999999,21.1099997 0.0900001526,6.80999994 0.0900001526,6.80999994 C0.0900001526,6.80999994 2.63999987,1.10000038 2.63999987,1.10000038 C2.63999987,1.10000038 2.63999987,0.890000343 2.63999987,0.890000343 C2.63999987,0.890000343 15.9099998,0.890000343 15.9099998,0.890000343 Z"></path>
                    </g>
                    <g transform="translate(0.720001, 0.650000)" fill="#BCC1C5" id="Shape">
                        <path d="M0.279998779,0.350000381 C0.279998779,0.350000381 64.2799988,0.350000381 64.2799988,0.350000381 C64.2799988,0.350000381 64.2799988,64.3500004 64.2799988,64.3500004 C64.2799988,64.3500004 0.279998779,64.3500004 0.279998779,64.3500004 C0.279998779,64.3500004 0.279998779,0.350000381 0.279998779,0.350000381 Z M0.279998779,64.3500004 C0.279998779,64.3500004 64.2799988,64.3500004 64.2799988,64.3500004 C64.2799988,64.3500004 64.2799988,0.350000381 64.2799988,0.350000381 C64.2799988,0.350000381 0.279998779,0.350000381 0.279998779,0.350000381 C0.279998779,0.350000381 0.279998779,64.3500004 0.279998779,64.3500004 Z M63.2799997,24.3499999 C63.2799997,24.3499999 54.0699999,45.3500004 54.0699999,45.3500004 C54.0699999,48.5499992 51.48,51.1399994 48.28,51.1399994 C45.0799999,51.1399994 42.4899998,48.5499992 42.4899998,45.3500004 C42.4899998,45.3500004 38.7200003,36.96 38.7200003,36.96 C38.7200003,36.96 41.1800003,31.47 41.1800003,31.47 C41.1800003,31.47 47.55,45.3500004 47.55,45.3500004 C47.55,45.3500004 43.21,45.3500004 43.21,45.3500004 C43.21,48.1499996 45.48,50.4200001 48.28,50.4200001 C51.08,50.4200001 53.3499999,48.1499996 53.3499999,45.3500004 C53.3499999,45.3500004 49.01,45.3500004 49.01,45.3500004 C49.01,45.3500004 58.6399999,24.3499999 58.6399999,24.3499999 C58.6399999,24.3499999 62.29,24.3499999 62.29,24.3499999 C62.29,16.3500004 56.0599999,9.84000015 48.4100001,9.84000015 C45.0300002,9.84000015 41.9399996,11.1100006 39.5299997,13.2099991 C39.3400002,12.9400005 39.1300001,12.6800003 38.9200001,12.4300003 C41.4899998,10.2000008 44.8000002,8.86000061 48.4100001,8.86000061 C56.6100001,8.86000061 63.2799997,15.8100004 63.2799997,24.3499999 Z"></path>
                    </g>
                    <g transform="translate(1.000000, 1.000000)" fill="#BCC1C5" id="Shape">
                        <path d="M0,0 C0,0 64,0 64,0 C64,0 64,64 64,64 C64,64 0,64 0,64 C0,64 0,0 0,0 Z M0,64 C0,64 64,64 64,64 C64,64 64,0 64,0 C64,0 0,0 0,0 C0,0 0,64 0,64 Z M22,3 C10.4020004,3 1,12.4020004 1,24 C1,24 14,53 14,53 C14,57.4179993 17.5819998,61 22,61 C26.4180002,61 30,57.4179993 30,53 C30,53 43,24 43,24 C43,12.4020004 33.5979996,3 22,3 Z M36,24 C36,24 23,53 23,53 C23,53 29,53 29,53 C29,56.8600006 25.8599999,60 22,60 C18.1400001,60 15,56.8600006 15,53 C15,53 21,53 21,53 C21,53 8,24 8,24 C8,24 2,24 2,24 C2,12.9720001 10.9720001,4 22,4 C33.0279999,4 42,12.9720001 42,24 C42,24 36,24 36,24 Z"></path>
                    </g>
                    <g transform="translate(1.000000, 1.000000)" fill="#FABB04" id="Shape">
                        <path d="M0,0 C0,0 64,0 64,0 C64,0 64,64 64,64 C64,64 0,64 0,64 C0,64 0,0 0,0 Z M0,64 C0,64 64,64 64,64 C64,64 64,0 64,0 C64,0 0,0 0,0 C0,0 0,64 0,64 Z M22,10 C14.2680001,10 8,16.268 8,24 C8,24 9,24 9,24 C9,24 35,24 35,24 C35,24 36,24 36,24 C36,16.268 29.7319999,10 22,10 Z"></path>
                    </g>
                    <g transform="translate(1.000000, 0.500000)" fill="#BCC1C5" id="Shape">
                        <path d="M0,0.5 C0,0.5 64,0.5 64,0.5 C64,0.5 64,64.5 64,64.5 C64,64.5 0,64.5 0,64.5 C0,64.5 0,0.5 0,0.5 Z M0,64.5 C0,64.5 64,64.5 64,64.5 C64,64.5 64,0.5 64,0.5 C64,0.5 0,0.5 0,0.5 C0,0.5 0,64.5 0,64.5 Z M35,24.5 C35,24.5 9,24.5 9,24.5 C9,24.5 22,53.5 22,53.5 C22,53.5 35,24.5 35,24.5 Z"></path>
                    </g>
                    <g transform="translate(0.388000, 0.931000)" fill="#FABB04" id="Shape">
                        <path d="M0.611999512,0.0690002441 C0.611999512,0.0690002441 64.6119995,0.0690002441 64.6119995,0.0690002441 C64.6119995,0.0690002441 64.6119995,64.0690002 64.6119995,64.0690002 C64.6119995,64.0690002 0.611999512,64.0690002 0.611999512,64.0690002 C0.611999512,64.0690002 0.611999512,0.0690002441 0.611999512,0.0690002441 Z M0.611999512,64.0690002 C0.611999512,64.0690002 64.6119995,64.0690002 64.6119995,64.0690002 C64.6119995,64.0690002 64.6119995,0.0690002441 64.6119995,0.0690002441 C64.6119995,0.0690002441 0.611999512,0.0690002441 0.611999512,0.0690002441 C0.611999512,0.0690002441 0.611999512,64.0690002 0.611999512,64.0690002 Z M48.74,13.9310002 C46.6139998,13.9310002 44.638,14.5700002 43,15.665 C44.0879998,18.256 44.6919999,21.0940001 44.6919999,24.0689998 C44.6919999,24.0689998 58.2670002,24.0689998 58.2670002,24.0689998 C58.2670002,24.0689998 59,24.0689998 59,24.0689998 C59,18.47 54.4070001,13.9310002 48.74,13.9310002 Z"></path>
                    </g>
                </g>
            </g>
        </g>
    </g>
</svg>