<?xml version="1.0" encoding="UTF-8"?>
<svg width="100px" height="100px" viewBox="0 0 100 100" version="1.1" xmlns="http://www.w3.org/2000/svg" xmlns:xlink="http://www.w3.org/1999/xlink">
    <!-- Generator: Sketch 56.3 (81716) - https://sketch.com -->
    <title>icn_g_assistant_speaker_offline</title>
    <desc>Created with Sketch.</desc>
    <defs>
        <filter x="-28.8%" y="-28.8%" width="157.5%" height="157.5%" filterUnits="objectBoundingBox" id="filter-1">
            <feOffset dx="0" dy="2" in="SourceAlpha" result="shadowOffsetOuter1"></feOffset>
            <feGaussianBlur stdDeviation="5" in="shadowOffsetOuter1" result="shadowBlurOuter1"></feGaussianBlur>
            <feColorMatrix values="0 0 0 0 0   0 0 0 0 0   0 0 0 0 0  0 0 0 0.5 0" type="matrix" in="shadowBlurOuter1" result="shadowMatrixOuter1"></feColorMatrix>
            <feMerge>
                <feMergeNode in="shadowMatrixOuter1"></feMergeNode>
                <feMergeNode in="SourceGraphic"></feMergeNode>
            </feMerge>
        </filter>
    </defs>
    <g id="Icons" stroke="none" stroke-width="1" fill="none" fill-rule="evenodd">
        <g transform="translate(-90.000000, -792.000000)" id="icn_g_assistant_speaker_offline">
            <g filter="url(#filter-1)" transform="translate(100.000000, 800.000000)">
                <rect id="Rectangle" fill="#FFFFFF" x="0" y="0" width="80" height="80" rx="10"></rect>
                <g id="Group" transform="translate(8.000000, 8.000000)" fill="#BCC1C5" fill-rule="nonzero">
                    <g id="Shape">
                        <path d="M0,0 C0,0 64,0 64,0 C64,0 64,64 64,64 C64,64 0,64 0,64 C0,64 0,0 0,0 Z M0,64 C0,64 64,64 64,64 C64,64 64,0 64,0 C64,0 0,0 0,0 C0,0 0,64 0,64 Z M47,3 C47,3 17,3 17,3 C13.6860008,3 11,5.68600082 11,9 C11,9 11,55 11,55 C11,58.3129997 13.6860008,61 17,61 C17,61 47,61 47,61 C50.3129997,61 53,58.3129997 53,55 C53,55 53,9 53,9 C53,5.68600082 50.3129997,3 47,3 Z M52,55 C52,57.757 49.757,60 47,60 C47,60 17,60 17,60 C14.243,60 12,57.757 12,55 C12,55 12,9 12,9 C12,6.24300003 14.243,4 17,4 C17,4 47,4 47,4 C49.757,4 52,6.24300003 52,9 C52,9 52,55 52,55 Z"></path>
                    </g>
                    <g id="Shape">
                        <path d="M0,0 C0,0 64,0 64,0 C64,0 64,64 64,64 C64,64 0,64 0,64 C0,64 0,0 0,0 Z M0,64 C0,64 64,64 64,64 C64,64 64,0 64,0 C64,0 0,0 0,0 C0,0 0,64 0,64 Z M20,53 C18.896,53 18,53.896 18,55 C18,56.104 18.896,57 20,57 C21.104,57 22,56.104 22,55 C22,53.896 21.104,53 20,53 Z"></path>
                    </g>
                    <g id="Shape">
                        <path d="M0,0 C0,0 64,0 64,0 C64,0 64,64 64,64 C64,64 0,64 0,64 C0,64 0,0 0,0 Z M0,64 C0,64 64,64 64,64 C64,64 64,0 64,0 C64,0 0,0 0,0 C0,0 0,64 0,64 Z M28,53 C26.896,53 26,53.896 26,55 C26,56.104 26.896,57 28,57 C29.104,57 30,56.104 30,55 C30,53.896 29.104,53 28,53 Z"></path>
                    </g>
                    <g id="Shape">
                        <path d="M0,0 C0,0 64,0 64,0 C64,0 64,64 64,64 C64,64 0,64 0,64 C0,64 0,0 0,0 Z M0,64 C0,64 64,64 64,64 C64,64 64,0 64,0 C64,0 0,0 0,0 C0,0 0,64 0,64 Z M36,53 C34.896,53 34,53.896 34,55 C34,56.104 34.896,57 36,57 C37.104,57 38,56.104 38,55 C38,53.896 37.104,53 36,53 Z"></path>
                    </g>
                    <g id="Shape">
                        <path d="M0,0 C0,0 64,0 64,0 C64,0 64,64 64,64 C64,64 0,64 0,64 C0,64 0,0 0,0 Z M0,64 C0,64 64,64 64,64 C64,64 64,0 64,0 C64,0 0,0 0,0 C0,0 0,64 0,64 Z M44,53 C42.896,53 42,53.896 42,55 C42,56.104 42.896,57 44,57 C45.104,57 46,56.104 46,55 C46,53.896 45.104,53 44,53 Z"></path>
                    </g>
                    <g id="Shape">
                        <path d="M0,0 C0,0 64,0 64,0 C64,0 64,64 64,64 C64,64 0,64 0,64 C0,64 0,0 0,0 Z M0,64 C0,64 64,64 64,64 C64,64 64,0 64,0 C64,0 0,0 0,0 C0,0 0,64 0,64 Z M32,18 C33.654,18 35,16.654 35,15 C35,13.346 33.654,12 32,12 C30.346,12 29,13.346 29,15 C29,16.654 30.346,18 32,18 Z"></path>
                    </g>
                    <g id="Shape">
                        <path d="M0,0 C0,0 64,0 64,0 C64,0 64,64 64,64 C64,64 0,64 0,64 C0,64 0,0 0,0 Z M0,64 C0,64 64,64 64,64 C64,64 64,0 64,0 C64,0 0,0 0,0 C0,0 0,64 0,64 Z M32,23 C36.4180002,23 40,19.4180002 40,15 C40,10.5819998 36.4180002,7 32,7 C27.5819998,7 24,10.5819998 24,15 C24,19.4180002 27.5819998,23 32,23 Z M32,11 C34.2090001,11 36,12.7909999 36,15 C36,17.2090001 34.2090001,19 32,19 C29.7909999,19 28,17.2090001 28,15 C28,12.7909999 29.7909999,11 32,11 Z"></path>
                    </g>
                    <g id="Shape">
                        <path d="M0,0 C0,0 64,0 64,0 C64,0 64,64 64,64 C64,64 0,64 0,64 C0,64 0,0 0,0 Z M0,64 C0,64 64,64 64,64 C64,64 64,0 64,0 C64,0 0,0 0,0 C0,0 0,64 0,64 Z M32,27 C25.9250002,27 21,31.9250002 21,38 C21,44.0749998 25.9250002,49 32,49 C38.0749998,49 43,44.0749998 43,38 C43,31.9250002 38.0749998,27 32,27 Z M32,43 C29.2379999,43 27,40.7609999 27,38 C27,35.2379999 29.2379999,33 32,33 C34.7609999,33 37,35.2379999 37,38 C37,40.7609999 34.7609999,43 32,43 Z"></path>
                    </g>
                    <g id="Shape">
                        <path d="M0,0 C0,0 64,0 64,0 C64,0 64,64 64,64 C64,64 0,64 0,64 C0,64 0,0 0,0 Z M0,64 C0,64 64,64 64,64 C64,64 64,0 64,0 C64,0 0,0 0,0 C0,0 0,64 0,64 Z M32,34 C29.7939999,34 28,35.7939999 28,38 C28,40.2060001 29.7939999,42 32,42 C34.2060001,42 36,40.2060001 36,38 C36,35.7939999 34.2060001,34 32,34 Z"></path>
                    </g>
                </g>
            </g>
        </g>
    </g>
</svg>