<?xml version="1.0" encoding="UTF-8"?>
<svg width="100px" height="100px" viewBox="0 0 100 100" version="1.1" xmlns="http://www.w3.org/2000/svg" xmlns:xlink="http://www.w3.org/1999/xlink">
    <!-- Generator: Sketch 56.3 (81716) - https://sketch.com -->
    <title>icn_security</title>
    <desc>Created with Sketch.</desc>
    <defs>
        <filter x="-28.8%" y="-28.8%" width="157.5%" height="157.5%" filterUnits="objectBoundingBox" id="filter-1">
            <feOffset dx="0" dy="2" in="SourceAlpha" result="shadowOffsetOuter1"></feOffset>
            <feGaussianBlur stdDeviation="5" in="shadowOffsetOuter1" result="shadowBlurOuter1"></feGaussianBlur>
            <feColorMatrix values="0 0 0 0 0   0 0 0 0 0   0 0 0 0 0  0 0 0 0.5 0" type="matrix" in="shadowBlurOuter1" result="shadowMatrixOuter1"></feColorMatrix>
            <feMerge>
                <feMergeNode in="shadowMatrixOuter1"></feMergeNode>
                <feMergeNode in="SourceGraphic"></feMergeNode>
            </feMerge>
        </filter>
    </defs>
    <g id="Icons" stroke="none" stroke-width="1" fill="none" fill-rule="evenodd">
        <g transform="translate(-890.000000, -992.000000)" id="icn_security">
            <g filter="url(#filter-1)" transform="translate(900.000000, 1000.000000)">
                <rect id="Rectangle" fill="#FFFFFF" x="0" y="0" width="80" height="80" rx="10"></rect>
                <g id="Group" transform="translate(19.000000, 10.000000)" fill-rule="nonzero">
                    <g transform="translate(0.000000, 19.500000)" fill="#BCC1C5" id="Shape">
                        <path d="M41,10.5 C41,13.1690001 40.4500008,15.7950001 39.4319992,18.225 C39.4319992,18.225 21.707,0.5 21.707,0.5 C21.707,0.5 0,0.5 0,0.5 C0,0.5 0,10.5 0,10.5 C0,16.247 2.35499954,21.743 6.5170002,25.7069998 C6.5170002,25.7069998 21,39.5 21,39.5 C21,39.5 35.4829998,25.7069998 35.4829998,25.7069998 C39.6450005,21.743 42,16.247 42,10.5 C42,10.5 42,0.5 42,0.5 C42,0.5 41,0.5 41,0.5 C41,0.5 41,10.5 41,10.5 Z M38.9790001,19.186 C38.0830002,21.0420001 36.9049997,22.756 35.4729996,24.2659998 C35.4729996,24.2659998 21,9.79300022 21,9.79300022 C21,9.79300022 21,1.20700073 21,1.20700073 C21,1.20700073 38.9790001,19.186 38.9790001,19.186 Z M21,11.2069998 C21,11.2069998 34.7840004,24.9910002 34.7840004,24.9910002 C34.7840004,24.9910002 30.3870001,29.1800003 30.3870001,29.1800003 C30.3870001,29.1800003 21,19.793 21,19.793 C21,19.793 21,11.2069998 21,11.2069998 Z M21,21.207 C21,21.207 29.6619997,29.8690004 29.6619997,29.8690004 C29.6619997,29.8690004 21,38.1189995 21,38.1189995 C21,38.1189995 21,21.207 21,21.207 Z"></path>
                    </g>
                    <g transform="translate(0.000000, 0.500000)" fill="#4285F4" id="Path">
                        <path d="M21,0.5 C16.0500002,6.61999989 8.48400021,10.5 0,10.5 C0,10.5 0,16.5 0,16.5 C0,16.5 0,19.5 0,19.5 C0,19.5 21.707,19.5 21.707,19.5 C21.707,19.5 41,19.5 41,19.5 C41,19.5 42,19.5 42,19.5 C42,19.5 42,16.5 42,16.5 C42,16.5 42,10.5 42,10.5 C33.5159998,10.5 25.9499998,6.61999989 21,0.5 Z"></path>
                    </g>
                </g>
            </g>
        </g>
    </g>
</svg>