<?xml version="1.0" encoding="UTF-8"?>
<svg width="100px" height="100px" viewBox="0 0 100 100" version="1.1" xmlns="http://www.w3.org/2000/svg" xmlns:xlink="http://www.w3.org/1999/xlink">
    <!-- Generator: Sketch 56.3 (81716) - https://sketch.com -->
    <title>icn_max_active</title>
    <desc>Created with Sketch.</desc>
    <defs>
        <filter x="-28.8%" y="-28.8%" width="157.5%" height="157.5%" filterUnits="objectBoundingBox" id="filter-1">
            <feOffset dx="0" dy="2" in="SourceAlpha" result="shadowOffsetOuter1"></feOffset>
            <feGaussianBlur stdDeviation="5" in="shadowOffsetOuter1" result="shadowBlurOuter1"></feGaussianBlur>
            <feColorMatrix values="0 0 0 0 0   0 0 0 0 0   0 0 0 0 0  0 0 0 0.5 0" type="matrix" in="shadowBlurOuter1" result="shadowMatrixOuter1"></feColorMatrix>
            <feMerge>
                <feMergeNode in="shadowMatrixOuter1"></feMergeNode>
                <feMergeNode in="SourceGraphic"></feMergeNode>
            </feMerge>
        </filter>
    </defs>
    <g id="Icons" stroke="none" stroke-width="1" fill="none" fill-rule="evenodd">
        <g transform="translate(-890.000000, -692.000000)" id="icn_max_active">
            <g filter="url(#filter-1)" transform="translate(900.000000, 700.000000)">
                <rect id="Rectangle" fill="#FFFFFF" x="0" y="0" width="80" height="80" rx="10"></rect>
                <g id="Group" transform="translate(21.000000, 10.000000)" fill-rule="nonzero">
                    <g transform="translate(8.007000, 57.942997)" fill="#BCC1C5" id="Path">
                        <g transform="translate(0.025000, 0.025000)">
                            <path d="M0,1 C0,1 22,1 22,1 C22,1 22,0 22,0 C22,0 0,0 0,0 C0,0 0,1 0,1 Z"></path>
                        </g>
                    </g>
                    <g transform="translate(0.005999, 0.944000)" fill="#BCC1C5" id="Shape">
                        <g transform="translate(0.025000, 0.025000)">
                            <path d="M28,0 C28,0 10,0 10,0 C4.47709968,0 0,4.47700049 0,10 C0,10 0,44 0,44 C0,49.5229011 4.47709968,54 10,54 C10,54 28,54 28,54 C33.5229009,54 38,49.5229011 38,44 C38,44 38,10 38,10 C38,4.47700049 33.5229009,0 28,0 Z M37,44 C37,48.9626014 32.9626012,53 28,53 C28,53 10,53 10,53 C5.03739937,53 1.00000001,48.9626014 1.00000001,44 C1.00000001,44 1.00000001,10 1.00000001,10 C1.00000001,5.03739937 5.03739937,1.00000001 10,1.00000001 C10,1.00000001 28,1.00000001 28,1.00000001 C32.9626012,1.00000001 37,5.03739937 37,10 C37,10 37,44 37,44 Z"></path>
                        </g>
                    </g>
                    <g transform="translate(31.000102, 24.075000)" fill="#000000" fill-opacity="0" id="Path" stroke="#34A853" stroke-linecap="round" stroke-width="4.00000006">
                        <path d="M0.0500000007,0.0830000012 C0.0500000007,0.0830000012 0.0500000007,7.67300011 0.0500000007,7.67300011"></path>
                    </g>
                    <g transform="translate(23.000102, 22.175000)" fill="#000000" fill-opacity="0" id="Path" stroke="#FBBC04" stroke-linecap="round" stroke-width="4.00000006">
                        <path d="M0.0500000007,0.0830000012 C0.0500000007,0.0830000012 0.0500000007,11.4680002 0.0500000007,11.4680002"></path>
                    </g>
                    <g transform="translate(15.000102, 25.975000)" fill="#000000" fill-opacity="0" id="Path" stroke="#EA4335" stroke-linecap="round" stroke-width="4.00000006">
                        <path d="M0.0500000007,0.0820000012 C0.0500000007,0.0820000012 0.0500000007,3.87700006 0.0500000007,3.87700006"></path>
                    </g>
                    <g transform="translate(7.000102, 20.275000)" fill="#000000" fill-opacity="0" id="Path" stroke="#4285F4" stroke-linecap="round" stroke-width="4.00000006">
                        <path d="M0.0500000007,0.0840000013 C0.0500000007,0.0840000013 0.0500000007,15.2640002 0.0500000007,15.2640002"></path>
                    </g>
                </g>
            </g>
        </g>
    </g>
</svg>