<?xml version="1.0" encoding="UTF-8"?>
<svg width="100px" height="100px" viewBox="0 0 100 100" version="1.1" xmlns="http://www.w3.org/2000/svg" xmlns:xlink="http://www.w3.org/1999/xlink">
    <!-- Generator: Sketch 56.3 (81716) - https://sketch.com -->
    <title>icn_generic_tv</title>
    <desc>Created with Sketch.</desc>
    <defs>
        <filter x="-28.8%" y="-28.8%" width="157.5%" height="157.5%" filterUnits="objectBoundingBox" id="filter-1">
            <feOffset dx="0" dy="2" in="SourceAlpha" result="shadowOffsetOuter1"></feOffset>
            <feGaussianBlur stdDeviation="5" in="shadowOffsetOuter1" result="shadowBlurOuter1"></feGaussianBlur>
            <feColorMatrix values="0 0 0 0 0   0 0 0 0 0   0 0 0 0 0  0 0 0 0.5 0" type="matrix" in="shadowBlurOuter1" result="shadowMatrixOuter1"></feColorMatrix>
            <feMerge>
                <feMergeNode in="shadowMatrixOuter1"></feMergeNode>
                <feMergeNode in="SourceGraphic"></feMergeNode>
            </feMerge>
        </filter>
    </defs>
    <g id="Icons" stroke="none" stroke-width="1" fill="none" fill-rule="evenodd">
        <g transform="translate(-190.000000, -592.000000)" id="icn_generic_tv">
            <g filter="url(#filter-1)" transform="translate(200.000000, 600.000000)">
                <rect id="Rectangle" fill="#FFFFFF" x="0" y="0" width="80" height="80" rx="10"></rect>
                <g id="Group" transform="translate(11.000000, 19.000000)" fill-rule="nonzero">
                    <g fill="#BCC1C5" id="Shape">
                        <path d="M52,1 C54.757,1 57,3.24300003 57,6 C57,6 57,36 57,36 C57,38.757 54.757,41 52,41 C52,41 6,41 6,41 C3.24300003,41 1,38.757 1,36 C1,36 1,6 1,6 C1,3.24300003 3.24300003,1 6,1 C6,1 52,1 52,1 Z M52,0 C52,0 6,0 6,0 C2.68600082,0 0,2.68700027 0,6 C0,6 0,36 0,36 C0,39.3139992 2.68600082,42 6,42 C6,42 52,42 52,42 C55.3129997,42 58,39.3139992 58,36 C58,36 58,6 58,6 C58,2.68700027 55.3129997,0 52,0 Z"></path>
                    </g>
                    <g transform="translate(27.993999, 40.500000)" fill="#BCC1C5" id="Path">
                        <path d="M1.5,7.5 C1.5,7.5 0.5,7.5 0.5,7.5 C0.5,7.5 0.5,0.5 0.5,0.5 C0.5,0.5 1.5,0.5 1.5,0.5 C1.5,0.5 1.5,7.5 1.5,7.5 Z"></path>
                    </g>
                    <g transform="translate(14.000000, 46.500000)" fill="#BCC1C5" id="Path">
                        <path d="M30,0.5 C30,0.5 0,0.5 0,0.5 C0,0.5 0,1.5 0,1.5 C0,1.5 30,1.5 30,1.5 C30,1.5 30,0.5 30,0.5 Z"></path>
                    </g>
                    <g transform="translate(0.000000, 36.000000)" fill="#BCC1C5" id="Path">
                        <path d="M0,0 C0,3.31400001 2.68600082,6 6,6 C6,6 52,6 52,6 C55.3129997,6 58,3.31400001 58,0 C58,0 0,0 0,0 Z"></path>
                    </g>
                    <g transform="translate(23.625000, 9.523001)" fill="#EA4335" id="Path">
                        <path d="M0,18 C0,18 0,0 0,0 C0,0 14,9 14,9 C14,9 0,18 0,18 Z"></path>
                    </g>
                </g>
            </g>
        </g>
    </g>
</svg>
