<?xml version="1.0" encoding="UTF-8"?>
<svg width="100px" height="100px" viewBox="0 0 100 100" version="1.1" xmlns="http://www.w3.org/2000/svg" xmlns:xlink="http://www.w3.org/1999/xlink">
    <!-- Generator: Sketch 56.3 (81716) - https://sketch.com -->
    <title>icn_home</title>
    <desc>Created with Sketch.</desc>
    <defs>
        <filter x="-28.8%" y="-28.8%" width="157.5%" height="157.5%" filterUnits="objectBoundingBox" id="filter-1">
            <feOffset dx="0" dy="2" in="SourceAlpha" result="shadowOffsetOuter1"></feOffset>
            <feGaussianBlur stdDeviation="5" in="shadowOffsetOuter1" result="shadowBlurOuter1"></feGaussianBlur>
            <feColorMatrix values="0 0 0 0 0   0 0 0 0 0   0 0 0 0 0  0 0 0 0.5 0" type="matrix" in="shadowBlurOuter1" result="shadowMatrixOuter1"></feColorMatrix>
            <feMerge>
                <feMergeNode in="shadowMatrixOuter1"></feMergeNode>
                <feMergeNode in="SourceGraphic"></feMergeNode>
            </feMerge>
        </filter>
    </defs>
    <g id="Icons" stroke="none" stroke-width="1" fill="none" fill-rule="evenodd">
        <g transform="translate(-290.000000, -592.000000)" id="icn_home">
            <g filter="url(#filter-1)" transform="translate(300.000000, 600.000000)">
                <rect id="Rectangle" fill="#FFFFFF" x="0" y="0" width="80" height="80" rx="10"></rect>
                <g id="Group" transform="translate(7.000000, 6.000000)" fill-rule="nonzero">
                    <g transform="translate(21.000000, 61.500000)" fill="#BCC1C5" id="Path">
                        <path d="M0,1.5 C0,1.5 24,1.5 24,1.5 C24,1.5 24,0.5 24,0.5 C24,0.5 0,0.5 0,0.5 C0,0.5 0,1.5 0,1.5 Z"></path>
                    </g>
                    <g transform="translate(0.999001, 2.000000)" fill="#BCC1C5" id="Shape">
                        <path d="M0.000999450684,0 C0.000999450684,0 64.0009995,0 64.0009995,0 C64.0009995,0 64.0009995,64 64.0009995,64 C64.0009995,64 0.000999450684,64 0.000999450684,64 C0.000999450684,64 0.000999450684,0 0.000999450684,0 Z M0.000999450684,64 C0.000999450684,64 64.0009995,64 64.0009995,64 C64.0009995,64 64.0009995,0 64.0009995,0 C64.0009995,0 0.000999450684,0 0.000999450684,0 C0.000999450684,0 0.000999450684,64 0.000999450684,64 Z M50.3959999,44 C50.3959999,44 49.9449997,38 49.9449997,38 C49.9449997,38 47.0010004,12 47.0010004,12 C47.0010004,6.95299911 40.4119997,3 32.001,3 C23.5900002,3 17.0010004,6.95299911 17.0010004,12 C17.0010004,12 14.0529995,38 14.0529995,38 C14.0529995,38 13.6049995,44 13.6049995,44 C13.5499992,44.9919996 13.5179996,46.0820007 13.5179996,47.3050003 C13.5179996,51.4650002 15.7910004,54.6019993 18.3199997,57 C18.3199997,57 45.6800003,57 45.6800003,57 C48.2089996,54.6019993 50.4820004,51.4650002 50.4820004,47.3050003 C50.4820004,46.0820007 50.4500008,44.9919996 50.3959999,44 Z M32.0010004,4 C39.7329998,4 46.0010004,7.58200073 46.0010004,12 C46.0010004,16.4180002 39.7329998,20 32.0010004,20 C24.2690001,20 18.0010004,16.4180002 18.0010004,12 C18.0010004,7.58200073 24.2690001,4 32.0010004,4 Z M17.6949997,14.7559996 C19.5930004,18.4139996 25.1989999,21 32.001,21 C38.803,21 44.4090004,18.4139996 46.3070002,14.7559996 C46.3070002,14.7559996 48.8269997,37 48.8269997,37 C48.8269997,37 15.1739998,37 15.1739998,37 C15.1739998,37 17.6949997,14.7559996 17.6949997,14.7559996 Z"></path>
                    </g>
                    <g transform="translate(1.000000, 4.000000)" fill="#4285F4" id="Shape">
                        <path d="M0,0 C0,0 64,0 64,0 C64,0 64,64 64,64 C64,64 0,64 0,64 C0,64 0,0 0,0 Z M0,64 C0,64 64,64 64,64 C64,64 64,0 64,0 C64,0 0,0 0,0 C0,0 0,64 0,64 Z M30,7 C30,8.10399997 30.896,9 32,9 C33.104,9 34,8.10399997 34,7 C34,5.89600003 33.104,5 32,5 C30.896,5 30,5.89600003 30,7 Z"></path>
                    </g>
                    <g transform="translate(1.000000, 0.000000)" fill="#FABB04" id="Shape">
                        <path d="M0,0 C0,0 64,0 64,0 C64,0 64,64 64,64 C64,64 0,64 0,64 C0,64 0,0 0,0 Z M0,64 C0,64 64,64 64,64 C64,64 64,0 64,0 C64,0 0,0 0,0 C0,0 0,64 0,64 Z M34,17 C34,15.896 33.104,15 32,15 C30.896,15 30,15.896 30,17 C30,18.104 30.896,19 32,19 C33.104,19 34,18.104 34,17 Z"></path>
                    </g>
                    <g transform="translate(2.000000, 2.000000)" fill="#EA4335" id="Shape">
                        <path d="M0,0 C0,0 64,0 64,0 C64,0 64,64 64,64 C64,64 0,64 0,64 C0,64 0,0 0,0 Z M0,64 C0,64 64,64 64,64 C64,64 64,0 64,0 C64,0 0,0 0,0 C0,0 0,64 0,64 Z M37,14 C38.104,14 39,13.104 39,12 C39,10.896 38.104,10 37,10 C35.896,10 35,10.896 35,12 C35,13.104 35.896,14 37,14 Z"></path>
                    </g>
                    <g transform="translate(0.000000, 2.000000)" fill="#34A852" id="Shape">
                        <path d="M0,0 C0,0 64,0 64,0 C64,0 64,64 64,64 C64,64 0,64 0,64 C0,64 0,0 0,0 Z M0,64 C0,64 64,64 64,64 C64,64 64,0 64,0 C64,0 0,0 0,0 C0,0 0,64 0,64 Z M27,14 C28.104,14 29,13.104 29,12 C29,10.896 28.104,10 27,10 C25.896,10 25,10.896 25,12 C25,13.104 25.896,14 27,14 Z"></path>
                    </g>
                </g>
            </g>
        </g>
    </g>
</svg>
