<?xml version="1.0" encoding="UTF-8"?>
<svg width="100px" height="100px" viewBox="0 0 100 100" version="1.1" xmlns="http://www.w3.org/2000/svg" xmlns:xlink="http://www.w3.org/1999/xlink">
    <!-- Generator: Sketch 56.3 (81716) - https://sketch.com -->
    <title>icn_speaker</title>
    <desc>Created with Sketch.</desc>
    <defs>
        <filter x="-28.8%" y="-28.8%" width="157.5%" height="157.5%" filterUnits="objectBoundingBox" id="filter-1">
            <feOffset dx="0" dy="2" in="SourceAlpha" result="shadowOffsetOuter1"></feOffset>
            <feGaussianBlur stdDeviation="5" in="shadowOffsetOuter1" result="shadowBlurOuter1"></feGaussianBlur>
            <feColorMatrix values="0 0 0 0 0   0 0 0 0 0   0 0 0 0 0  0 0 0 0.5 0" type="matrix" in="shadowBlurOuter1" result="shadowMatrixOuter1"></feColorMatrix>
            <feMerge>
                <feMergeNode in="shadowMatrixOuter1"></feMergeNode>
                <feMergeNode in="SourceGraphic"></feMergeNode>
            </feMerge>
        </filter>
    </defs>
    <g id="Icons" stroke="none" stroke-width="1" fill="none" fill-rule="evenodd">
        <g transform="translate(-90.000000, -1392.000000)" id="icn_speaker">
            <g filter="url(#filter-1)" transform="translate(100.000000, 1400.000000)">
                <rect id="Rectangle" fill="#FFFFFF" x="0" y="0" width="80" height="80" rx="10"></rect>
                <g id="Group" transform="translate(8.000000, 8.000000)" fill-rule="nonzero">
                    <g fill="#BCC1C5" id="Shape">
                        <path d="M0,0 C0,0 64,0 64,0 C64,0 64,64 64,64 C64,64 0,64 0,64 C0,64 0,0 0,0 Z M0,64 C0,64 64,64 64,64 C64,64 64,0 64,0 C64,0 0,0 0,0 C0,0 0,64 0,64 Z M32,23 C36.4180002,23 40,19.4180002 40,15 C40,10.5819998 36.4180002,7 32,7 C27.5819998,7 24,10.5819998 24,15 C24,19.4180002 27.5819998,23 32,23 Z M32,11 C34.2090001,11 36,12.7909999 36,15 C36,17.2090001 34.2090001,19 32,19 C29.7909999,19 28,17.2090001 28,15 C28,12.7909999 29.7909999,11 32,11 Z"></path>
                    </g>
                    <g fill="#BCC1C5" id="Shape">
                        <path d="M0,0 C0,0 64,0 64,0 C64,0 64,64 64,64 C64,64 0,64 0,64 C0,64 0,0 0,0 Z M0,64 C0,64 64,64 64,64 C64,64 64,0 64,0 C64,0 0,0 0,0 C0,0 0,64 0,64 Z M32,18 C33.654,18 35,16.654 35,15 C35,13.346 33.654,12 32,12 C30.346,12 29,13.346 29,15 C29,16.654 30.346,18 32,18 Z"></path>
                    </g>
                    <g fill="#BCC1C5" id="Shape">
                        <path d="M0,0 C0,0 64,0 64,0 C64,0 64,64 64,64 C64,64 0,64 0,64 C0,64 0,0 0,0 Z M0,64 C0,64 64,64 64,64 C64,64 64,0 64,0 C64,0 0,0 0,0 C0,0 0,64 0,64 Z M47,3 C47,3 17,3 17,3 C13.6860008,3 11,5.68600082 11,9 C11,9 11,55 11,55 C11,58.3129997 13.6860008,61 17,61 C17,61 47,61 47,61 C50.3129997,61 53,58.3129997 53,55 C53,55 53,9 53,9 C53,5.68600082 50.3129997,3 47,3 Z M12,55 C12,55 12,9 12,9 C12,6.24300003 14.243,4 17,4 C17,4 47,4 47,4 C49.757,4 52,6.24300003 52,9 C52,9 52,55 52,55 C52,55 12,55 12,55 Z"></path>
                    </g>
                    <g fill="#4285F4" id="Shape">
                        <path d="M0,0 C0,0 64,0 64,0 C64,0 64,64 64,64 C64,64 0,64 0,64 C0,64 0,0 0,0 Z M0,64 C0,64 64,64 64,64 C64,64 64,0 64,0 C64,0 0,0 0,0 C0,0 0,64 0,64 Z M32,27 C25.3730001,27 20,32.3730001 20,39 C20,45.6269999 25.3730001,51 32,51 C38.6269999,51 44,45.6269999 44,39 C44,32.3730001 38.6269999,27 32,27 Z M32,44 C29.2379999,44 27,41.7620001 27,39 C27,36.2379999 29.2379999,34 32,34 C34.7609999,34 37,36.2379999 37,39 C37,41.7620001 34.7609999,44 32,44 Z"></path>
                    </g>
                    <g fill="#4285F4" id="Shape">
                        <path d="M0,0 C0,0 64,0 64,0 C64,0 64,64 64,64 C64,64 0,64 0,64 C0,64 0,0 0,0 Z M0,64 C0,64 64,64 64,64 C64,64 64,0 64,0 C64,0 0,0 0,0 C0,0 0,64 0,64 Z M32,35 C29.7939999,35 28,36.7950001 28,39 C28,41.2049999 29.7939999,43 32,43 C34.2060001,43 36,41.2049999 36,39 C36,36.7950001 34.2060001,35 32,35 Z"></path>
                    </g>
                </g>
            </g>
        </g>
    </g>
</svg>
