<?xml version="1.0" encoding="UTF-8"?>
<svg width="100px" height="100px" viewBox="0 0 100 100" version="1.1" xmlns="http://www.w3.org/2000/svg" xmlns:xlink="http://www.w3.org/1999/xlink">
    <!-- Generator: Sketch 56.3 (81716) - https://sketch.com -->
    <title>icn_remote</title>
    <desc>Created with Sketch.</desc>
    <defs>
        <filter x="-28.8%" y="-28.8%" width="157.5%" height="157.5%" filterUnits="objectBoundingBox" id="filter-1">
            <feOffset dx="0" dy="2" in="SourceAlpha" result="shadowOffsetOuter1"></feOffset>
            <feGaussianBlur stdDeviation="5" in="shadowOffsetOuter1" result="shadowBlurOuter1"></feGaussianBlur>
            <feColorMatrix values="0 0 0 0 0   0 0 0 0 0   0 0 0 0 0  0 0 0 0.5 0" type="matrix" in="shadowBlurOuter1" result="shadowMatrixOuter1"></feColorMatrix>
            <feMerge>
                <feMergeNode in="shadowMatrixOuter1"></feMergeNode>
                <feMergeNode in="SourceGraphic"></feMergeNode>
            </feMerge>
        </filter>
    </defs>
    <g id="Icons" stroke="none" stroke-width="1" fill="none" fill-rule="evenodd">
        <g transform="translate(-590.000000, -992.000000)" id="icn_remote">
            <g filter="url(#filter-1)" transform="translate(600.000000, 1000.000000)">
                <rect id="Rectangle" fill="#FFFFFF" x="0" y="0" width="80" height="80" rx="10"></rect>
                <g id="Group" transform="translate(28.000000, 10.000000)" fill-rule="nonzero">
                    <g transform="translate(13.558998, 37.097000)" fill="#BCC1C5" id="Path">
                        <path d="M0.440999985,1.50099999 C0.440999985,1.50099999 3.55900002,1.50099999 3.55900002,1.50099999 C3.55900002,1.50099999 3.55900002,0.499000013 3.55900002,0.499000013 C3.55900002,0.499000013 0.440999985,0.499000013 0.440999985,0.499000013 C0.440999985,0.499000013 0.440999985,1.50099999 0.440999985,1.50099999 Z"></path>
                    </g>
                    <g transform="translate(6.441000, 37.097000)" fill="#BCC1C5" id="Path">
                        <path d="M0.440999985,1.50099999 C0.440999985,1.50099999 3.55900002,1.50099999 3.55900002,1.50099999 C3.55900002,1.50099999 3.55900002,0.499000013 3.55900002,0.499000013 C3.55900002,0.499000013 0.440999985,0.499000013 0.440999985,0.499000013 C0.440999985,0.499000013 0.440999985,1.50099999 0.440999985,1.50099999 Z"></path>
                    </g>
                    <g transform="translate(11.000000, 32.539001)" fill="#BCC1C5" id="Path">
                        <path d="M0.5,3.55900002 C0.5,3.55900002 1.5,3.55900002 1.5,3.55900002 C1.5,3.55900002 1.5,0.440999985 1.5,0.440999985 C1.5,0.440999985 0.5,0.440999985 0.5,0.440999985 C0.5,0.440999985 0.5,3.55900002 0.5,3.55900002 Z"></path>
                    </g>
                    <g transform="translate(11.000000, 39.657001)" fill="#BCC1C5" id="Path">
                        <path d="M0.5,3.55900002 C0.5,3.55900002 1.5,3.55900002 1.5,3.55900002 C1.5,3.55900002 1.5,0.440999985 1.5,0.440999985 C1.5,0.440999985 0.5,0.440999985 0.5,0.440999985 C0.5,0.440999985 0.5,3.55900002 0.5,3.55900002 Z"></path>
                    </g>
                    <g transform="translate(3.461000, 8.804000)" fill="#EA4335" id="Path">
                        <path d="M2,4 C2,4 2,4 2,4 C0.899999976,4 0,3.10000002 0,2 C0,0.899999976 0.899999976,0 2,0 C3.10000002,0 4,0.899999976 4,2 C4,3.10000002 3.10000002,4 2,4 Z"></path>
                    </g>
                    <g transform="translate(10.000000, 8.804000)" fill="#BCC1C5" id="Path">
                        <path d="M2,4 C2,4 2,4 2,4 C0.899999976,4 0,3.10000002 0,2 C0,0.899999976 0.899999976,0 2,0 C3.10000002,0 4,0.899999976 4,2 C4,3.10000002 3.10000002,4 2,4 Z"></path>
                    </g>
                    <g transform="translate(16.539001, 8.804000)" fill="#BCC1C5" id="Path">
                        <path d="M2,4 C2,4 2,4 2,4 C0.899999976,4 0,3.10000002 0,2 C0,0.899999976 0.899999976,0 2,0 C3.10099995,0 4,0.899999976 4,2 C4,3.10000002 3.10099995,4 2,4 Z"></path>
                    </g>
                    <g transform="translate(3.461000, 47.471001)" fill="#BCC1C5" id="Path">
                        <path d="M2,4 C2,4 2,4 2,4 C0.899999976,4 0,3.10000002 0,2 C0,0.899000049 0.899999976,0 2,0 C3.10000002,0 4,0.899000049 4,2 C4,3.10000002 3.10000002,4 2,4 Z"></path>
                    </g>
                    <g transform="translate(10.000000, 47.471001)" fill="#BCC1C5" id="Path">
                        <path d="M2,4 C2,4 2,4 2,4 C0.899999976,4 0,3.10000002 0,2 C0,0.899000049 0.899999976,0 2,0 C3.10000002,0 4,0.899000049 4,2 C4,3.10000002 3.10000002,4 2,4 Z"></path>
                    </g>
                    <g transform="translate(16.539001, 47.471001)" fill="#BCC1C5" id="Path">
                        <path d="M2,4 C2,4 2,4 2,4 C0.899999976,4 0,3.10000002 0,2 C0,0.899000049 0.899999976,0 2,0 C3.10099995,0 4,0.899000049 4,2 C4,3.10000002 3.10099995,4 2,4 Z"></path>
                    </g>
                    <g fill="#BCC1C5" id="Shape">
                        <path d="M17.402,1 C20.2989998,1 22.6569996,3.35700035 22.6569996,6.25499916 C22.6569996,6.25499916 22.6569996,51.7450008 22.6569996,51.7450008 C22.6569996,54.6429996 20.2989998,57 17.402,57 C17.402,57 6.59800005,57 6.59800005,57 C3.69999981,57 1.34300041,54.6429996 1.34300041,51.7450008 C1.34300041,51.7450008 1.34300041,6.25499916 1.34300041,6.25499916 C1.34300041,3.35700035 3.69999981,1 6.59800005,1 C6.59800005,1 17.402,1 17.402,1 Z M17.402,0 C17.402,0 6.59800005,0 6.59800005,0 C3.14299965,0 0.343000412,2.79999924 0.343000412,6.25499916 C0.343000412,6.25499916 0.343000412,51.7450008 0.343000412,51.7450008 C0.343000412,55.1989994 3.14299965,58 6.59800005,58 C6.59800005,58 17.402,58 17.402,58 C20.8559999,58 23.6569996,55.1989994 23.6569996,51.7450008 C23.6569996,51.7450008 23.6569996,6.25499916 23.6569996,6.25499916 C23.6569996,2.79999924 20.8559999,0 17.402,0 Z"></path>
                    </g>
                    <g transform="translate(9.000000, 4.971000)" fill="#BCC1C5" id="Path">
                        <path d="M5.84299994,1.5 C5.84299994,1.5 0.157000065,1.5 0.157000065,1.5 C0.157000065,1.5 0.157000065,0.5 0.157000065,0.5 C0.157000065,0.5 5.84299994,0.5 5.84299994,0.5 C5.84299994,0.5 5.84299994,1.5 5.84299994,1.5 Z"></path>
                    </g>
                    <g transform="translate(2.951000, 14.980000)" fill="#BCC1C5" id="Path">
                        <path d="M17.4799995,0.833000183 C17.4799995,0.833000183 0.520000458,0.833000183 0.520000458,0.833000183 C0.520000458,0.833000183 0.520000458,13.1669998 0.520000458,13.1669998 C0.520000458,13.1669998 17.4799995,13.1669998 17.4799995,13.1669998 C17.4799995,13.1669998 17.4799995,0.833000183 17.4799995,0.833000183 Z"></path>
                    </g>
                </g>
            </g>
        </g>
    </g>
</svg>
