<?xml version="1.0" encoding="UTF-8"?>
<svg width="100px" height="100px" viewBox="0 0 100 100" version="1.1" xmlns="http://www.w3.org/2000/svg" xmlns:xlink="http://www.w3.org/1999/xlink">
    <!-- Generator: Sketch 56.3 (81716) - https://sketch.com -->
    <title>icn_chromecast</title>
    <desc>Created with Sketch.</desc>
    <defs>
        <filter x="-28.8%" y="-28.8%" width="157.5%" height="157.5%" filterUnits="objectBoundingBox" id="filter-1">
            <feOffset dx="0" dy="2" in="SourceAlpha" result="shadowOffsetOuter1"></feOffset>
            <feGaussianBlur stdDeviation="5" in="shadowOffsetOuter1" result="shadowBlurOuter1"></feGaussianBlur>
            <feColorMatrix values="0 0 0 0 0   0 0 0 0 0   0 0 0 0 0  0 0 0 0.5 0" type="matrix" in="shadowBlurOuter1" result="shadowMatrixOuter1"></feColorMatrix>
            <feMerge>
                <feMergeNode in="shadowMatrixOuter1"></feMergeNode>
                <feMergeNode in="SourceGraphic"></feMergeNode>
            </feMerge>
        </filter>
    </defs>
    <g id="Icons" stroke="none" stroke-width="1" fill="none" fill-rule="evenodd">
        <g transform="translate(-390.000000, 8.000000)" id="icn_chromecast">
            <g filter="url(#filter-1)" transform="translate(400.000000, 0.000000)">
                <rect id="Rectangle" fill="#FFFFFF" x="0" y="0" width="80" height="80" rx="10"></rect>
                <g id="Group" transform="translate(7.000000, 7.000000)" fill-rule="nonzero">
                    <g transform="translate(1.000000, 1.000000)" fill="#BCC1C5" id="Shape">
                        <path d="M0,0 C0,0 64,0 64,0 C64,0 64,64 64,64 C64,64 0,64 0,64 C0,64 0,0 0,0 Z M0,64 C0,64 64,64 64,64 C64,64 64,0 64,0 C64,0 0,0 0,0 C0,0 0,64 0,64 Z M55,11 C55,11 9,11 9,11 C5.68600082,11 3,13.6860008 3,17 C3,17 3,47 3,47 C3,50.3129997 5.68600082,53 9,53 C9,53 31.494,53 31.494,53 C31.494,53 31.494,58 31.494,58 C31.494,58 17,58 17,58 C17,58 17,59 17,59 C17,59 31.494,59 31.494,59 C31.494,59 32.494,59 32.494,59 C32.494,59 47,59 47,59 C47,59 47,58 47,58 C47,58 32.494,58 32.494,58 C32.494,58 32.494,53 32.494,53 C32.494,53 55,53 55,53 C58.3129997,53 61,50.3129997 61,47 C61,47 61,17 61,17 C61,13.6860008 58.3129997,11 55,11 Z M32.5,47 C32.5,47 31.5,47 31.5,47 C31.5,47 23.5,47 23.5,47 C23.5,47 22.5,47 22.5,47 C22.5,47 14.5,47 14.5,47 C14.5,47 13.5,47 13.5,47 C13.5,47 4,47 4,47 C4,47 4,37.5 4,37.5 C4,37.5 4,36.5 4,36.5 C4,36.5 4,28.5 4,28.5 C4,28.5 4,27.5 4,27.5 C4,27.5 4,19.5 4,19.5 C4,19.5 4,18.5 4,18.5 C4,18.5 4,17 4,17 C4,14.243 6.24300003,12 9,12 C9,12 55,12 55,12 C57.757,12 60,14.243 60,17 C60,17 60,47 60,47 C60,47 32.5,47 32.5,47 Z"></path>
                    </g>
                    <g transform="translate(0.250000, 0.750000)" fill="#4285F4" id="Shape">
                        <path d="M0.75,0.25 C0.75,0.25 64.75,0.25 64.75,0.25 C64.75,0.25 64.75,64.25 64.75,64.25 C64.75,64.25 0.75,64.25 0.75,64.25 C0.75,64.25 0.75,0.25 0.75,0.25 Z M0.75,64.25 C0.75,64.25 64.75,64.25 64.75,64.25 C64.75,64.25 64.75,0.25 64.75,0.25 C64.75,0.25 0.75,0.25 0.75,0.25 C0.75,0.25 0.75,64.25 0.75,64.25 Z M4.75,18.75 C4.75,18.75 4.75,19.75 4.75,19.75 C19.914,19.75 32.25,32.086 32.25,47.25 C32.25,47.25 33.25,47.25 33.25,47.25 C33.25,31.535 20.465,18.75 4.75,18.75 Z"></path>
                    </g>
                    <g transform="translate(0.750000, 0.250000)" fill="#4285F4" id="Shape">
                        <path d="M0.25,0.75 C0.25,0.75 64.25,0.75 64.25,0.75 C64.25,0.75 64.25,64.75 64.25,64.75 C64.25,64.75 0.25,64.75 0.25,64.75 C0.25,64.75 0.25,0.75 0.25,0.75 Z M0.25,64.75 C0.25,64.75 64.25,64.75 64.25,64.75 C64.25,64.75 64.25,0.75 64.25,0.75 C64.25,0.75 0.25,0.75 0.25,0.75 C0.25,0.75 0.25,64.75 0.25,64.75 Z M4.25,28.25 C4.25,28.25 4.25,29.25 4.25,29.25 C14.451,29.25 22.75,37.549 22.75,47.75 C22.75,47.75 23.75,47.75 23.75,47.75 C23.75,36.998 15.002,28.25 4.25,28.25 Z"></path>
                    </g>
                    <g transform="translate(0.250000, 0.750000)" fill="#4285F4" id="Shape">
                        <path d="M0.75,0.25 C0.75,0.25 64.75,0.25 64.75,0.25 C64.75,0.25 64.75,64.25 64.75,64.25 C64.75,64.25 0.75,64.25 0.75,64.25 C0.75,64.25 0.75,0.25 0.75,0.25 Z M0.75,64.25 C0.75,64.25 64.75,64.25 64.75,64.25 C64.75,64.25 64.75,0.25 64.75,0.25 C64.75,0.25 0.75,0.25 0.75,0.25 C0.75,0.25 0.75,64.25 0.75,64.25 Z M4.75,36.75 C4.75,36.75 4.75,37.75 4.75,37.75 C9.988,37.75 14.25,42.012 14.25,47.25 C14.25,47.25 15.25,47.25 15.25,47.25 C15.25,41.46 10.54,36.75 4.75,36.75 Z"></path>
                    </g>
                </g>
            </g>
        </g>
    </g>
</svg>
