<?xml version="1.0" encoding="UTF-8"?>
<svg width="100px" height="100px" viewBox="0 0 100 100" version="1.1" xmlns="http://www.w3.org/2000/svg" xmlns:xlink="http://www.w3.org/1999/xlink">
    <!-- Generator: Sketch 56.3 (81716) - https://sketch.com -->
    <title>icn_sd_assistant_offline</title>
    <desc>Created with Sketch.</desc>
    <defs>
        <filter x="-28.8%" y="-28.8%" width="157.5%" height="157.5%" filterUnits="objectBoundingBox" id="filter-1">
            <feOffset dx="0" dy="2" in="SourceAlpha" result="shadowOffsetOuter1"></feOffset>
            <feGaussianBlur stdDeviation="5" in="shadowOffsetOuter1" result="shadowBlurOuter1"></feGaussianBlur>
            <feColorMatrix values="0 0 0 0 0   0 0 0 0 0   0 0 0 0 0  0 0 0 0.5 0" type="matrix" in="shadowBlurOuter1" result="shadowMatrixOuter1"></feColorMatrix>
            <feMerge>
                <feMergeNode in="shadowMatrixOuter1"></feMergeNode>
                <feMergeNode in="SourceGraphic"></feMergeNode>
            </feMerge>
        </filter>
    </defs>
    <g id="Icons" stroke="none" stroke-width="1" fill="none" fill-rule="evenodd">
        <g transform="translate(-790.000000, -1192.000000)" id="icn_sd_assistant_offline">
            <g filter="url(#filter-1)" transform="translate(800.000000, 1200.000000)">
                <rect id="Rectangle" fill="#FFFFFF" x="0" y="0" width="80" height="80" rx="10"></rect>
                <g id="Group" transform="translate(10.000000, 18.000000)" fill="#BCC1C5" fill-rule="nonzero">
                    <g transform="translate(50.500000, 20.000000)" id="Path">
                        <path d="M0.5,4 C0.5,4 7.5,4 7.5,4 C7.5,4 7.5,0 7.5,0 C7.5,0 0.5,0 0.5,0 C0.5,0 0.5,4 0.5,4 Z"></path>
                    </g>
                    <g transform="translate(2.000000, 25.000000)" id="Path">
                        <path d="M8,0 C8,0 0,0 0,0 C0,0 0,4 0,4 C0,4 8,4 8,4 C8,4 8,0 8,0 Z"></path>
                    </g>
                    <g transform="translate(50.500000, 25.000000)" id="Path">
                        <path d="M0.5,4 C0.5,4 7.5,4 7.5,4 C7.5,4 7.5,0 7.5,0 C7.5,0 0.5,0 0.5,0 C0.5,0 0.5,4 0.5,4 Z"></path>
                    </g>
                    <g transform="translate(2.000000, 15.000000)" id="Path">
                        <path d="M8,0 C8,0 0,0 0,0 C0,0 0,4 0,4 C0,4 8,4 8,4 C8,4 8,0 8,0 Z"></path>
                    </g>
                    <g transform="translate(2.000000, 10.000000)" id="Path">
                        <path d="M8,1 C8,1 49,1 49,1 C49,1 49,4 49,4 C49,4 56,4 56,4 C56,4 56,0 56,0 C56,0 0,0 0,0 C0,0 0,4 0,4 C0,4 8,4 8,4 C8,4 8,1 8,1 Z"></path>
                    </g>
                    <g transform="translate(2.000000, 30.000000)" id="Path">
                        <path d="M56,4 C56,4 56,0 56,0 C56,0 49,0 49,0 C49,0 49,3 49,3 C49,3 8,3 8,3 C8,3 8,0 8,0 C8,0 0,0 0,0 C0,0 0,4 0,4 C0,4 56,4 56,4 Z"></path>
                    </g>
                    <g transform="translate(2.000000, 20.000000)" id="Path">
                        <path d="M8,0 C8,0 0,0 0,0 C0,0 0,4 0,4 C0,4 8,4 8,4 C8,4 8,0 8,0 Z"></path>
                    </g>
                    <g transform="translate(50.500000, 15.000000)" id="Path">
                        <path d="M0.5,4 C0.5,4 7.5,4 7.5,4 C7.5,4 7.5,0 7.5,0 C7.5,0 0.5,0 0.5,0 C0.5,0 0.5,4 0.5,4 Z"></path>
                    </g>
                    <g transform="translate(1.000000, 0.500000)" id="Path">
                        <path d="M52,0.5 C52,0.5 6,0.5 6,0.5 C2.68700027,0.5 0,3.18700004 0,6.5 C0,6.5 0,9.5 0,9.5 C0,9.5 0,13.5 0,13.5 C0,13.5 1,13.5 1,13.5 C1,13.5 1,9.5 1,9.5 C1,9.5 1,6.5 1,6.5 C1,3.74300003 3.24300003,1.5 6,1.5 C6,1.5 52,1.5 52,1.5 C54.757,1.5 57,3.74300003 57,6.5 C57,6.5 57,9.5 57,9.5 C57,9.5 57,13.5 57,13.5 C57,13.5 58,13.5 58,13.5 C58,13.5 58,6.5 58,6.5 C58,3.18700004 55.3139992,0.5 52,0.5 Z"></path>
                    </g>
                    <g transform="translate(1.000000, 29.500000)" id="Path">
                        <path d="M57,4.5 C57,4.5 57,7.5 57,7.5 C57,10.257 54.757,12.5 52,12.5 C52,12.5 6,12.5 6,12.5 C3.24300003,12.5 1,10.257 1,7.5 C1,7.5 1,4.5 1,4.5 C1,4.5 1,0.5 1,0.5 C1,0.5 0,0.5 0,0.5 C0,0.5 0,4.5 0,4.5 C0,4.5 0,7.5 0,7.5 C0,10.813 2.68700027,13.5 6,13.5 C6,13.5 52,13.5 52,13.5 C55.3139992,13.5 58,10.813 58,7.5 C58,7.5 58,0.5 58,0.5 C58,0.5 57,0.5 57,0.5 C57,0.5 57,4.5 57,4.5 Z"></path>
                    </g>
                    <g transform="translate(57.500000, 20.000000)" id="Path">
                        <path d="M0.5,4 C0.5,4 1.5,4 1.5,4 C1.5,4 1.5,0 1.5,0 C1.5,0 0.5,0 0.5,0 C0.5,0 0.5,4 0.5,4 Z"></path>
                    </g>
                    <g transform="translate(57.500000, 15.000000)" id="Path">
                        <path d="M0.5,4 C0.5,4 1.5,4 1.5,4 C1.5,4 1.5,0 1.5,0 C1.5,0 0.5,0 0.5,0 C0.5,0 0.5,4 0.5,4 Z"></path>
                    </g>
                    <g transform="translate(57.500000, 25.000000)" id="Path">
                        <path d="M0.5,4 C0.5,4 1.5,4 1.5,4 C1.5,4 1.5,0 1.5,0 C1.5,0 0.5,0 0.5,0 C0.5,0 0.5,4 0.5,4 Z"></path>
                    </g>
                    <g transform="translate(0.500000, 20.000000)" id="Path">
                        <path d="M1.5,0 C1.5,0 0.5,0 0.5,0 C0.5,0 0.5,4 0.5,4 C0.5,4 1.5,4 1.5,4 C1.5,4 1.5,0 1.5,0 Z"></path>
                    </g>
                    <g transform="translate(0.500000, 25.000000)" id="Path">
                        <path d="M1.5,0 C1.5,0 0.5,0 0.5,0 C0.5,0 0.5,4 0.5,4 C0.5,4 1.5,4 1.5,4 C1.5,4 1.5,0 1.5,0 Z"></path>
                    </g>
                    <g transform="translate(0.500000, 15.000000)" id="Path">
                        <path d="M1.5,0 C1.5,0 0.5,0 0.5,0 C0.5,0 0.5,4 0.5,4 C0.5,4 1.5,4 1.5,4 C1.5,4 1.5,0 1.5,0 Z"></path>
                    </g>
                    <g transform="translate(16.000000, 20.000000)" id="Path">
                        <path d="M4,2 C4,0.896000028 3.10399997,0 2,0 C0.896000028,0 0,0.896000028 0,2 C0,3.10399997 0.896000028,4 2,4 C3.10399997,4 4,3.10399997 4,2 Z"></path>
                    </g>
                    <g transform="translate(24.091999, 20.000000)" id="Path">
                        <path d="M4,2 C4,0.896000028 3.10399997,0 2,0 C0.896000028,0 0,0.896000028 0,2 C0,3.10399997 0.896000028,4 2,4 C3.10399997,4 4,3.10399997 4,2 Z"></path>
                    </g>
                    <g transform="translate(32.091999, 20.000000)" id="Path">
                        <path d="M0,2 C0,3.10399997 0.896000028,4 2,4 C3.10399997,4 4,3.10399997 4,2 C4,0.896000028 3.10399997,0 2,0 C0.896000028,0 0,0.896000028 0,2 Z"></path>
                    </g>
                    <g transform="translate(40.000000, 20.000000)" id="Path">
                        <path d="M0,2 C0,3.10399997 0.896000028,4 2,4 C3.10399997,4 4,3.10399997 4,2 C4,0.896000028 3.10399997,0 2,0 C0.896000028,0 0,0.896000028 0,2 Z"></path>
                    </g>
                </g>
            </g>
        </g>
    </g>
</svg>
