<?xml version="1.0" encoding="UTF-8"?>
<svg width="100px" height="100px" viewBox="0 0 100 100" version="1.1" xmlns="http://www.w3.org/2000/svg" xmlns:xlink="http://www.w3.org/1999/xlink">
    <!-- Generator: Sketch 56.3 (81716) - https://sketch.com -->
    <title>icn_light_offline</title>
    <desc>Created with Sketch.</desc>
    <defs>
        <filter x="-28.8%" y="-28.8%" width="157.5%" height="157.5%" filterUnits="objectBoundingBox" id="filter-1">
            <feOffset dx="0" dy="2" in="SourceAlpha" result="shadowOffsetOuter1"></feOffset>
            <feGaussianBlur stdDeviation="5" in="shadowOffsetOuter1" result="shadowBlurOuter1"></feGaussianBlur>
            <feColorMatrix values="0 0 0 0 0   0 0 0 0 0   0 0 0 0 0  0 0 0 0.5 0" type="matrix" in="shadowBlurOuter1" result="shadowMatrixOuter1"></feColorMatrix>
            <feMerge>
                <feMergeNode in="shadowMatrixOuter1"></feMergeNode>
                <feMergeNode in="SourceGraphic"></feMergeNode>
            </feMerge>
        </filter>
    </defs>
    <g id="Icons" stroke="none" stroke-width="1" fill="none" fill-rule="evenodd">
        <g transform="translate(-490.000000, -792.000000)" id="icn_light_offline">
            <g filter="url(#filter-1)" transform="translate(500.000000, 800.000000)">
                <rect id="Rectangle" fill="#FFFFFF" x="0" y="0" width="80" height="80" rx="10"></rect>
                <g id="Group" transform="translate(19.000000, 11.000000)" fill="#BCC1C5" fill-rule="nonzero">
                    <g id="Shape">
                        <path d="M21,0 C9.40200043,0 0,9.40200043 0,21 C0,21 13,50 13,50 C13,54.4179993 16.5819998,58 21,58 C25.4180002,58 29,54.4179993 29,50 C29,50 42,21 42,21 C42,9.40200043 32.5979996,0 21,0 Z M22.448,49 C22.448,49 35,21 35,21 C35,21 40.9039993,21 40.9039993,21 C40.9039993,21 28.3520002,49 28.3520002,49 C28.3520002,49 22.448,49 22.448,49 Z M34,21 C34,21 21.448,49 21.448,49 C21.448,49 20.552,49 20.552,49 C20.552,49 8,21 8,21 C8,21 34,21 34,21 Z M21,1 C31.6899996,1 40.4249992,9.43799973 40.9510002,20 C40.9510002,20 34.9490004,20 34.9490004,20 C34.4350004,12.7369995 28.395,7 21,7 C13.605,7 7.56499958,12.7369995 7.05000019,20 C7.05000019,20 1.04899979,20 1.04899979,20 C1.57500076,9.43799973 10.3100004,1 21,1 Z M1.09600067,21 C1.09600067,21 7,21 7,21 C7,21 19.552,49 19.552,49 C19.552,49 13.6469998,49 13.6469998,49 C13.6469998,49 1.09600067,21 1.09600067,21 Z M21,57 C17.1400001,57 14,53.8600006 14,50 C14,50 20,50 20,50 C20,50 21,50 21,50 C21,50 22,50 22,50 C22,50 28,50 28,50 C28,53.8600006 24.8599999,57 21,57 Z"></path>
                    </g>
                </g>
            </g>
        </g>
    </g>
</svg>
