<?xml version="1.0" encoding="UTF-8"?>
<svg width="100px" height="100px" viewBox="0 0 100 100" version="1.1" xmlns="http://www.w3.org/2000/svg" xmlns:xlink="http://www.w3.org/1999/xlink">
    <!-- Generator: Sketch 56.3 (81716) - https://sketch.com -->
    <title>icn_fan_active</title>
    <desc>Created with Sketch.</desc>
    <defs>
        <filter x="-28.8%" y="-28.8%" width="157.5%" height="157.5%" filterUnits="objectBoundingBox" id="filter-1">
            <feOffset dx="0" dy="2" in="SourceAlpha" result="shadowOffsetOuter1"></feOffset>
            <feGaussianBlur stdDeviation="5" in="shadowOffsetOuter1" result="shadowBlurOuter1"></feGaussianBlur>
            <feColorMatrix values="0 0 0 0 0   0 0 0 0 0   0 0 0 0 0  0 0 0 0.5 0" type="matrix" in="shadowBlurOuter1" result="shadowMatrixOuter1"></feColorMatrix>
            <feMerge>
                <feMergeNode in="shadowMatrixOuter1"></feMergeNode>
                <feMergeNode in="SourceGraphic"></feMergeNode>
            </feMerge>
        </filter>
    </defs>
    <g id="Icons" stroke="none" stroke-width="1" fill="none" fill-rule="evenodd">
        <g transform="translate(10.000000, -692.000000)" id="icn_fan_active">
            <g filter="url(#filter-1)" transform="translate(0.000000, 700.000000)">
                <rect id="Rectangle" fill="#D6FDFA" x="0" y="0" width="80" height="80" rx="10"></rect>
                <g id="Group" transform="translate(15.000000, 15.000000)" fill-rule="nonzero">
                    <g transform="translate(24.000999, 1.000000)" fill="#4285F4" id="Path">
                        <path d="M24.9820004,15.725 C25.0010004,15.329 24.9879999,14.94 24.9759998,14.55 C24.9689999,14.299 24.9580002,14.049 24.9390001,13.801 C24.9180002,13.538 24.8870001,13.279 24.8529997,13.02 C24.8190002,12.7679999 24.7840004,12.516 24.7379999,12.2679999 C24.6929998,12.027 24.6389999,11.789 24.5830002,11.552 C24.5220003,11.293 24.4589996,11.036 24.3850002,10.783 C24.3219995,10.5689998 24.25,10.3590002 24.1780005,10.1490002 C24.0869999,9.88100004 23.9940004,9.61600018 23.8879995,9.35599995 C23.8129997,9.17199993 23.7299995,8.99499989 23.6490002,8.81500006 C23.5229998,8.53900003 23.3959999,8.26599979 23.2550001,8 C23.1750002,7.84800005 23.0860004,7.70200014 23.0010004,7.55200005 C22.8400002,7.27299976 22.677,6.99499989 22.4989996,6.72599983 C22.4160004,6.60200024 22.3269997,6.4829998 22.2399998,6.36200047 C22.0430002,6.08199978 21.8430004,5.80599976 21.6280003,5.54199982 C21.5450001,5.44200039 21.4569998,5.34599972 21.3719997,5.24699974 C21.1400003,4.97700024 20.9029999,4.70800018 20.651,4.45400047 C20.5700002,4.37199974 20.4819999,4.29599953 20.3990002,4.21500015 C20.1329999,3.95899963 19.8639998,3.70699978 19.5809999,3.47099972 C19.4959998,3.40100002 19.4050002,3.33699989 19.3189998,3.26799965 C19.027,3.03600025 18.7319999,2.80799961 18.4229999,2.59799957 C18.3280001,2.5340004 18.2280002,2.47700024 18.131,2.41399956 C17.822,2.2130003 17.5089998,2.01599979 17.184,1.8380003 C17.073,1.77799988 16.9560001,1.72700024 16.842,1.66800022 C16.5239999,1.50399971 16.2030001,1.34200001 15.872,1.19999981 C15.7320001,1.14099979 15.586,1.09399986 15.444,1.03800011 C15.1300001,0.914999962 14.8150001,0.791000366 14.4910001,0.68999958 C14.306,0.630999565 14.114,0.590000153 13.925,0.538999557 C13.635,0.460000038 13.347,0.375 13.049,0.31400013 C12.783,0.258000374 12.508,0.227000237 12.237,0.18599987 C12.008,0.152000427 11.783,0.104999542 11.55,0.0799999237 C11.04,0.0290002823 10.523,0 9.9989996,0 C9.9989996,0 9.9989996,18 9.9989996,18 C9.9989996,20.2199998 8.79099989,22.1529999 6.9989996,23.191 C6.98000002,23.2019997 6.96199989,23.2139997 6.94299984,23.2250004 C6.97599983,23.4790001 6.9989996,23.7370005 6.9989996,24 C6.9989996,27.3140001 4.31299973,30 0.998999596,30 C0.998999596,30 1.80799961,30 1.80799961,30 C1.80799961,30 9.57500005,30 9.57500005,30 C17.652,30 24.6020002,23.7930002 24.9820004,15.725 Z"></path>
                    </g>
                    <g transform="translate(23.000000, 23.000000)" fill="#4285F4" id="Path">
                        <path d="M2,4 C3.10399997,4 4,3.10399997 4,2 C4,0.896000028 3.10399997,0 2,0 C0.896000028,0 0,0.896000028 0,2 C0,3.10399997 0.896000028,4 2,4 Z"></path>
                    </g>
                    <g fill="#BCC1C5" id="Shape">
                        <path d="M34,0 C34,0 16,0 16,0 C7.16399956,0 0,7.16300011 0,16 C0,16 0,34 0,34 C0,42.8369999 7.16399956,50 16,50 C16,50 34,50 34,50 C42.8360004,50 50,42.8369999 50,34 C50,34 50,16 50,16 C50,7.16300011 42.8360004,0 34,0 Z M1.0170002,33.2749996 C0.999000549,33.6709995 1.01099968,34.0609999 1.02300072,34.4499998 C1.0189991,34.2989998 1,34.1520004 1,34 C1,34 1,16 1,16 C1,16 19,16 19,16 C21.22,16 23.153,17.2080002 24.191,19 C24.191,19 16.4239998,19 16.4239998,19 C8.34700012,19 1.39699936,25.207 1.0170002,33.2749996 Z M25,20 C27.757,20 30,22.243 30,25 C30,27.757 27.757,30 25,30 C22.243,30 20,27.757 20,25 C20,22.243 22.243,20 25,20 Z M34,49 C34,49 16,49 16,49 C16,49 16,31 16,31 C16,28.78 17.2080002,26.848 19,25.81 C19,25.81 19,33.5760002 19,33.5760002 C19,41.6529999 25.207,48.6040001 33.2749996,48.9820004 C33.6709995,49.0020008 34.0609999,48.9880009 34.4499998,48.9780006 C34.2989998,48.9810009 34.1520004,49 34,49 Z M49,34 C49,34 31,34 31,34 C28.78,34 26.847,32.7919998 25.809,31 C25.809,31 25,31 25,31 C28.313,31 31,28.313 31,25 C31,24.736 30.9770002,24.479 30.9439998,24.225 C30.9629998,24.214 30.9809999,24.201 31,24.19 C31,24.19 31,16.4239998 31,16.4239998 C31,8.34700012 24.793,1.39599991 16.7250004,1.01799965 C16.3290005,0.997999191 15.9390001,1.01199913 15.5500002,1.02199936 C15.7010002,1.0189991 15.8479996,1 16,1 C16,1 34,1 34,1 C34.5240002,1 35.0410004,1.02799988 35.5509996,1.07999992 C35.7840004,1.10400009 36.0089998,1.15099907 36.2379999,1.18600082 C36.5089998,1.22699928 36.7840004,1.25799942 37.0500002,1.31299973 C37.3479996,1.375 37.6359997,1.45999908 37.9259996,1.53899956 C38.1149998,1.59000015 38.3070002,1.63100052 38.4919996,1.68899918 C38.816,1.79100037 39.1309996,1.91500092 39.4449997,2.03800011 C39.5869999,2.09399986 39.7329998,2.14100075 39.8730001,2.1989994 C40.2040005,2.34199905 40.5240002,2.50399971 40.8430004,2.66799927 C40.9569998,2.72699928 41.0739994,2.77700043 41.1849995,2.83799934 C41.5100002,3.01600075 41.823,3.21299934 42.132,3.41399956 C42.2290001,3.47699928 42.3290005,3.53300095 42.4239998,3.59799957 C42.7320004,3.80800056 43.0279999,4.03499985 43.3199997,4.26799965 C43.4060001,4.33699989 43.4969997,4.39999962 43.5820007,4.47100067 C43.8649998,4.70700073 44.1340008,4.95899963 44.3999996,5.21500015 C44.4829998,5.29599953 44.5709991,5.37199974 44.6520004,5.45400047 C44.9039993,5.70800018 45.1410007,5.97699928 45.3729992,6.24699974 C45.4580002,6.34600067 45.5459995,6.44099998 45.6280003,6.54199982 C45.8439999,6.80599976 46.0440006,7.08200073 46.2409992,7.36100006 C46.3279991,7.48200035 46.4169998,7.60199928 46.5,7.72599983 C46.6779995,7.99399948 46.8409996,8.27199936 47.0020008,8.55200005 C47.0869999,8.70100021 47.1760006,8.84799957 47.2560005,9 C47.3969994,9.26599979 47.5240002,9.53899956 47.6490002,9.81400013 C47.7299995,9.99400043 47.8139992,10.1719999 47.8889999,10.3549995 C47.9950008,10.6149998 48.0879993,10.8809996 48.1790009,11.1479998 C48.2509995,11.3579998 48.323,11.5679998 48.3859997,11.7819996 C48.4599991,12.0349998 48.5230007,12.2930002 48.5839996,12.552 C48.6399994,12.7889996 48.6940002,13.026 48.7390003,13.2679996 C48.7849998,13.5159998 48.8199997,13.7679996 48.8540001,14.0200005 C48.8880005,14.2779999 48.9179993,14.5380001 48.9389992,14.8009996 C48.9589996,15.0489998 48.9699993,15.2989998 48.9769993,15.5500002 C48.9810009,15.7010002 49,15.8479996 49,16 C49,16 49,34 49,34 Z"></path>
                    </g>
                </g>
            </g>
        </g>
    </g>
</svg>
