<?xml version="1.0" encoding="UTF-8"?>
<svg width="100px" height="100px" viewBox="0 0 100 100" version="1.1" xmlns="http://www.w3.org/2000/svg" xmlns:xlink="http://www.w3.org/1999/xlink">
    <!-- Generator: Sketch 56.3 (81716) - https://sketch.com -->
    <title>icn_thermostat</title>
    <desc>Created with Sketch.</desc>
    <defs>
        <filter x="-28.8%" y="-28.8%" width="157.5%" height="157.5%" filterUnits="objectBoundingBox" id="filter-1">
            <feOffset dx="0" dy="2" in="SourceAlpha" result="shadowOffsetOuter1"></feOffset>
            <feGaussianBlur stdDeviation="5" in="shadowOffsetOuter1" result="shadowBlurOuter1"></feGaussianBlur>
            <feColorMatrix values="0 0 0 0 0   0 0 0 0 0   0 0 0 0 0  0 0 0 0.5 0" type="matrix" in="shadowBlurOuter1" result="shadowMatrixOuter1"></feColorMatrix>
            <feMerge>
                <feMergeNode in="shadowMatrixOuter1"></feMergeNode>
                <feMergeNode in="SourceGraphic"></feMergeNode>
            </feMerge>
        </filter>
    </defs>
    <g id="Icons" stroke="none" stroke-width="1" fill="none" fill-rule="evenodd">
        <g transform="translate(-290.000000, -1392.000000)" id="icn_thermostat">
            <g filter="url(#filter-1)" transform="translate(300.000000, 1400.000000)">
                <rect id="Rectangle" fill="#FFFFFF" x="0" y="0" width="80" height="80" rx="10"></rect>
                <g id="Group" transform="translate(7.000000, 7.000000)" fill-rule="nonzero">
                    <g transform="translate(1.000000, 1.000000)" fill="#BCC1C5" id="Shape">
                        <path d="M0,0 C0,0 64,0 64,0 C64,0 64,64 64,64 C64,64 0,64 0,64 C0,64 0,0 0,0 Z M0,64 C0,64 64,64 64,64 C64,64 64,0 64,0 C64,0 0,0 0,0 C0,0 0,64 0,64 Z M51,7 C51,7 13,7 13,7 C9.68600082,7 7,9.68700027 7,13 C7,13 7,51 7,51 C7,54.3129997 9.68600082,57 13,57 C13,57 51,57 51,57 C54.3129997,57 57,54.3129997 57,51 C57,51 57,13 57,13 C57,9.68700027 54.3129997,7 51,7 Z M56,51 C56,53.757 53.757,56 51,56 C51,56 13,56 13,56 C10.243,56 8,53.757 8,51 C8,51 8,13 8,13 C8,10.243 10.243,8 13,8 C13,8 51,8 51,8 C53.757,8 56,10.243 56,13 C56,13 56,51 56,51 Z"></path>
                    </g>
                    <g transform="translate(0.396000, 0.606998)" fill="#EA4335" id="Shape">
                        <path d="M0.604000092,0.393001556 C0.604000092,0.393001556 64.6040001,0.393001556 64.6040001,0.393001556 C64.6040001,0.393001556 64.6040001,64.3930016 64.6040001,64.3930016 C64.6040001,64.3930016 0.604000092,64.3930016 0.604000092,64.3930016 C0.604000092,64.3930016 0.604000092,0.393001556 0.604000092,0.393001556 Z M0.604000092,64.3930016 C0.604000092,64.3930016 64.6040001,64.3930016 64.6040001,64.3930016 C64.6040001,64.3930016 64.6040001,0.393001556 64.6040001,0.393001556 C64.6040001,0.393001556 0.604000092,0.393001556 0.604000092,0.393001556 C0.604000092,0.393001556 0.604000092,64.3930016 0.604000092,64.3930016 Z M44.786,27.8889999 C45.306,29.2930002 45.604,30.8070002 45.604,32.3930001 C45.604,36.646 43.553,40.4100001 40.3959999,42.7820001 C40.3959999,42.7820001 45.191,49.1739998 45.191,49.1739998 C50.29,45.3430004 53.6040001,39.263 53.6040001,32.3930001 C53.6040001,29.7220001 53.086,27.177 52.177,24.8260002 C52.177,24.8260002 44.786,27.8889999 44.786,27.8889999 Z"></path>
                    </g>
                    <g transform="translate(0.953999, 0.636999)" fill="#EA4335" id="Shape">
                        <path d="M0.0460014343,0.36300087 C0.0460014343,0.36300087 64.0460014,0.36300087 64.0460014,0.36300087 C64.0460014,0.36300087 64.0460014,64.3630009 64.0460014,64.3630009 C64.0460014,64.3630009 0.0460014343,64.3630009 0.0460014343,64.3630009 C0.0460014343,64.3630009 0.0460014343,0.36300087 0.0460014343,0.36300087 Z M0.0460014343,64.3630009 C0.0460014343,64.3630009 64.0460014,64.3630009 64.0460014,64.3630009 C64.0460014,64.3630009 64.0460014,0.36300087 64.0460014,0.36300087 C64.0460014,0.36300087 0.0460014343,0.36300087 0.0460014343,0.36300087 C0.0460014343,0.36300087 0.0460014343,64.3630009 0.0460014343,64.3630009 Z M40.868,22.8330002 C40.868,22.8330002 46.5250001,17.178 46.5250001,17.178 C44.7850001,15.5190001 42.766,14.154 40.539,13.1669998 C40.539,13.1669998 37.4749999,20.562 37.4749999,20.562 C38.727,21.1389999 39.869,21.9070001 40.868,22.8330002 Z"></path>
                    </g>
                    <g transform="translate(0.362999, 0.046000)" fill="#EA4335" id="Shape">
                        <path d="M0.637001038,0.954000473 C0.637001038,0.954000473 64.637001,0.954000473 64.637001,0.954000473 C64.637001,0.954000473 64.637001,64.9540005 64.637001,64.9540005 C64.637001,64.9540005 0.637001038,64.9540005 0.637001038,64.9540005 C0.637001038,64.9540005 0.637001038,0.954000473 0.637001038,0.954000473 Z M0.637001038,64.9540005 C0.637001038,64.9540005 64.637001,64.9540005 64.637001,64.9540005 C64.637001,64.9540005 64.637001,0.954000473 64.637001,0.954000473 C64.637001,0.954000473 0.637001038,0.954000473 0.637001038,0.954000473 C0.637001038,0.954000473 0.637001038,64.9540005 0.637001038,64.9540005 Z M44.438,27.5250001 C44.438,27.5250001 51.8340001,24.462 51.8340001,24.462 C50.846,22.234 49.4820001,20.214 47.823,18.4749999 C47.823,18.4749999 42.1659999,24.132 42.1659999,24.132 C43.092,25.132 43.8610001,26.273 44.438,27.5250001 Z"></path>
                    </g>
                    <g transform="translate(0.783001, 0.409000)" fill="#EA4335" id="Shape">
                        <path d="M0.216999054,0.590999603 C0.216999054,0.590999603 64.2169991,0.590999603 64.2169991,0.590999603 C64.2169991,0.590999603 64.2169991,64.5909996 64.2169991,64.5909996 C64.2169991,64.5909996 0.216999054,64.5909996 0.216999054,64.5909996 C0.216999054,64.5909996 0.216999054,0.590999603 0.216999054,0.590999603 Z M0.216999054,64.5909996 C0.216999054,64.5909996 64.2169991,64.5909996 64.2169991,64.5909996 C64.2169991,64.5909996 64.2169991,0.590999603 64.2169991,0.590999603 C64.2169991,0.590999603 0.216999054,0.590999603 0.216999054,0.590999603 C0.216999054,0.590999603 0.216999054,64.5909996 0.216999054,64.5909996 Z M32.217,11.5910001 C32.217,11.5910001 32.217,19.5910001 32.217,19.5910001 C33.803,19.5910001 35.316,19.8900001 36.721,20.4089999 C36.721,20.4089999 39.783,13.0190001 39.783,13.0190001 C37.433,12.1099999 34.888,11.5910001 32.217,11.5910001 Z"></path>
                    </g>
                    <g transform="translate(0.500000, 0.889999)" fill="#BCC1C5" id="Shape">
                        <path d="M0.5,0.108999252 C0.5,0.108999252 64.5,0.108999252 64.5,0.108999252 C64.5,0.108999252 64.5,64.1089993 64.5,64.1089993 C64.5,64.1089993 0.5,64.1089993 0.5,64.1089993 C0.5,64.1089993 0.5,0.108999252 0.5,0.108999252 Z M0.5,64.1089993 C0.5,64.1089993 64.5,64.1089993 64.5,64.1089993 C64.5,64.1089993 64.5,0.108999252 64.5,0.108999252 C64.5,0.108999252 0.5,0.108999252 0.5,0.108999252 C0.5,0.108999252 0.5,64.1089993 0.5,64.1089993 Z M11.5,32.1089993 C11.5,38.9790001 14.8130002,45.0600004 19.914,48.8910007 C19.914,48.8910007 24.7079999,42.4989996 24.7079999,42.4989996 C21.551,40.1269999 19.5,36.362 19.5,32.1089993 C19.5,24.9289999 25.3199999,19.1089993 32.5,19.1089993 C32.5,19.1089993 32.5,11.1089993 32.5,11.1089993 C20.902,11.1089993 11.5,20.5109997 11.5,32.1089993 Z"></path>
                    </g>
                    <g transform="translate(1.000000, 1.000000)" fill="#BCC1C5" id="Shape">
                        <path d="M0,0 C0,0 64,0 64,0 C64,0 64,64 64,64 C64,64 0,64 0,64 C0,64 0,0 0,0 Z M0,64 C0,64 64,64 64,64 C64,64 64,0 64,0 C64,0 0,0 0,0 C0,0 0,64 0,64 Z M37.994,26.7129998 C37.7719998,26.4629998 37.5370002,26.2280002 37.2870002,26.006 C36.7540002,25.5359998 36.1589999,25.138 35.5150001,24.822 C35.2160001,24.6760001 34.9089999,24.5469999 34.5910001,24.4380002 C33.777,24.158 32.908,24 32,24 C27.5819998,24 24,27.5819998 24,32 C24,36.4180002 27.5819998,40 32,40 C36.4180002,40 40,36.4180002 40,32 C40,31.092 39.8410001,30.223 39.5619998,29.408 C39.454,29.092 39.3249998,28.783 39.178,28.4849999 C38.862,27.8410001 38.4640002,27.2459998 37.994,26.7129998 Z M39,32 C39,35.859 35.8599999,39 32,39 C28.1400001,39 25,35.859 25,32 C25,28.141 28.1400001,25 32,25 C32.772,25 33.513,25.131 34.2079999,25.362 C34.527,25.4689999 34.8340001,25.5999999 35.131,25.7480001 C35.654,26.0120001 36.1389999,26.336 36.5770001,26.7160001 C36.5770001,26.7160001 33.424,29.869 33.424,29.869 C33.424,29.869 31.646,31.646 31.646,31.646 C31.646,31.646 32,32 32,32 C32,32 32.354,32.354 32.354,32.354 C32.354,32.354 34.131,30.576 34.131,30.576 C34.131,30.576 37.2839999,27.4229999 37.2839999,27.4229999 C37.664,27.8610001 37.9889998,28.346 38.2519999,28.869 C38.401,29.1659999 38.5310001,29.473 38.6370001,29.7920001 C38.869,30.487 39,31.229 39,32 Z"></path>
                    </g>
                </g>
            </g>
        </g>
    </g>
</svg>
