<?xml version="1.0" encoding="UTF-8"?>
<svg width="100px" height="100px" viewBox="0 0 100 100" version="1.1" xmlns="http://www.w3.org/2000/svg" xmlns:xlink="http://www.w3.org/1999/xlink">
    <!-- Generator: Sketch 56.3 (81716) - https://sketch.com -->
    <title>icn_camera</title>
    <desc>Created with Sketch.</desc>
    <defs>
        <filter x="-28.8%" y="-28.8%" width="157.5%" height="157.5%" filterUnits="objectBoundingBox" id="filter-1">
            <feOffset dx="0" dy="2" in="SourceAlpha" result="shadowOffsetOuter1"></feOffset>
            <feGaussianBlur stdDeviation="5" in="shadowOffsetOuter1" result="shadowBlurOuter1"></feGaussianBlur>
            <feColorMatrix values="0 0 0 0 0   0 0 0 0 0   0 0 0 0 0  0 0 0 0.5 0" type="matrix" in="shadowBlurOuter1" result="shadowMatrixOuter1"></feColorMatrix>
            <feMerge>
                <feMergeNode in="shadowMatrixOuter1"></feMergeNode>
                <feMergeNode in="SourceGraphic"></feMergeNode>
            </feMerge>
        </filter>
    </defs>
    <g id="Icons" stroke="none" stroke-width="1" fill="none" fill-rule="evenodd">
        <g transform="translate(-290.000000, 8.000000)" id="icn_camera">
            <g filter="url(#filter-1)" transform="translate(300.000000, 0.000000)">
                <rect id="Rectangle" fill="#FFFFFF" x="0" y="0" width="80" height="80" rx="10"></rect>
                <g id="Group" transform="translate(8.000000, 8.000000)" fill-rule="nonzero">
                    <g fill="#BCC1C5" id="Shape">
                        <path d="M0,0 C0,0 64,0 64,0 C64,0 64,64 64,64 C64,64 0,64 0,64 C0,64 0,0 0,0 Z M0,64 C0,64 64,64 64,64 C64,64 64,0 64,0 C64,0 0,0 0,0 C0,0 0,64 0,64 Z M32,10 C33.104,10 34,9.10399997 34,8 C34,6.89600003 33.104,6 32,6 C30.896,6 30,6.89600003 30,8 C30,9.10399997 30.896,10 32,10 Z"></path>
                    </g>
                    <g fill="#4285F4" id="Shape">
                        <path d="M0,0 C0,0 64,0 64,0 C64,0 64,64 64,64 C64,64 0,64 0,64 C0,64 0,0 0,0 Z M0,64 C0,64 64,64 64,64 C64,64 64,0 64,0 C64,0 0,0 0,0 C0,0 0,64 0,64 Z M36,24 C36,21.7939999 34.2060001,20 32,20 C29.7939999,20 28,21.7939999 28,24 C28,26.2060001 29.7939999,28 32,28 C34.2060001,28 36,26.2060001 36,24 Z"></path>
                    </g>
                    <g fill="#4285F4" id="Shape">
                        <path d="M0,0 C0,0 64,0 64,0 C64,0 64,64 64,64 C64,64 0,64 0,64 C0,64 0,0 0,0 Z M0,64 C0,64 64,64 64,64 C64,64 64,0 64,0 C64,0 0,0 0,0 C0,0 0,64 0,64 Z M43,24 C43,17.9250002 38.0749998,13 32,13 C25.9250002,13 21,17.9250002 21,24 C21,30.0749998 25.9250002,35 32,35 C38.0749998,35 43,30.0749998 43,24 Z M27,24 C27,21.2390001 29.2379999,19 32,19 C34.7609999,19 37,21.2390001 37,24 C37,26.7609999 34.7609999,29 32,29 C29.2379999,29 27,26.7609999 27,24 Z"></path>
                    </g>
                    <g fill="#BCC1C5" id="Shape">
                        <path d="M0,0 C0,0 64,0 64,0 C64,0 64,64 64,64 C64,64 0,64 0,64 C0,64 0,0 0,0 Z M0,64 C0,64 64,64 64,64 C64,64 64,0 64,0 C64,0 0,0 0,0 C0,0 0,64 0,64 Z M35,44.7620001 C45.1730003,43.3030005 53,34.5769999 53,24 C53,12.4020004 43.5979996,3 32,3 C20.4020004,3 11,12.4020004 11,24 C11,34.5769999 18.8269997,43.3030005 29,44.7620001 C29,44.7620001 29,53.9839993 29,53.9839993 C29,53.9839993 15,53.9839993 15,53.9839993 C15,53.9839993 15,55 15,55 C15,58.3139992 17.6859999,61 21,61 C21,61 43,61 43,61 C46.3140001,61 49,58.3139992 49,55 C49,55 49,53.9839993 49,53.9839993 C49,53.9839993 35,53.9839993 35,53.9839993 C35,53.9839993 35,44.7620001 35,44.7620001 Z M31.5,44.9750004 C31.668,44.9790001 31.831,45 32,45 C32.169,45 32.332,44.9790001 32.5,44.9750004 C32.5,44.9750004 32.5,51 32.5,51 C32.5,51 31.5,51 31.5,51 C31.5,51 31.5,44.9750004 31.5,44.9750004 Z M33,44.9720001 C33,44.9720001 32.556,44.9720001 32.556,44.9720001 C32.722,44.9680004 32.886,44.9549999 33.051,44.9469995 C33.051,44.9469995 33,44.9720001 33,44.9720001 Z M12,24 C12,12.9720001 20.9720001,4 32,4 C43.0279999,4 52,12.9720001 52,24 C52,35.0280001 43.0279999,44 32,44 C20.9720001,44 12,35.0280001 12,24 Z M31.444,44.9720001 C31.444,44.9720001 31,44.9720001 31,44.9720001 C31,44.9720001 30.948,44.9469995 30.948,44.9469995 C31.114,44.9549999 31.278,44.9680004 31.444,44.9720001 Z"></path>
                    </g>
                </g>
            </g>
        </g>
    </g>
</svg>
