<?xml version="1.0" encoding="UTF-8"?>
<svg width="100px" height="100px" viewBox="0 0 100 100" version="1.1" xmlns="http://www.w3.org/2000/svg" xmlns:xlink="http://www.w3.org/1999/xlink">
    <!-- Generator: Sketch 56.3 (81716) - https://sketch.com -->
    <title>icn_light_active</title>
    <desc>Created with Sketch.</desc>
    <defs>
        <filter x="-28.8%" y="-28.8%" width="157.5%" height="157.5%" filterUnits="objectBoundingBox" id="filter-1">
            <feOffset dx="0" dy="2" in="SourceAlpha" result="shadowOffsetOuter1"></feOffset>
            <feGaussianBlur stdDeviation="5" in="shadowOffsetOuter1" result="shadowBlurOuter1"></feGaussianBlur>
            <feColorMatrix values="0 0 0 0 0   0 0 0 0 0   0 0 0 0 0  0 0 0 0.5 0" type="matrix" in="shadowBlurOuter1" result="shadowMatrixOuter1"></feColorMatrix>
            <feMerge>
                <feMergeNode in="shadowMatrixOuter1"></feMergeNode>
                <feMergeNode in="SourceGraphic"></feMergeNode>
            </feMerge>
        </filter>
    </defs>
    <g id="Icons" stroke="none" stroke-width="1" fill="none" fill-rule="evenodd">
        <g transform="translate(-490.000000, -692.000000)" id="icn_light_active">
            <g filter="url(#filter-1)" transform="translate(500.000000, 700.000000)">
                <rect id="Rectangle" fill="#FFF9B8" x="0" y="0" width="80" height="80" rx="10"></rect>
                <g id="Group" transform="translate(19.000000, 11.000000)" fill-rule="nonzero">
                    <g transform="translate(13.000000, 50.000000)" fill="#BCC1C6" id="Path">
                        <path d="M0,0 C0,4.41800001 3.58199978,8 8,8 C12.4180002,8 16,4.41800001 16,0 C16,0 0,0 0,0 Z"></path>
                    </g>
                    <g transform="translate(8.000000, 20.500000)" fill="#FBBC03" id="Path">
                        <path d="M0,0.5 C0,0.5 13,29.5 13,29.5 C13,29.5 26,0.5 26,0.5 C26,0.5 0,0.5 0,0.5 Z"></path>
                    </g>
                    <g fill="#FBBC03" id="Path">
                        <path d="M21,0 C9.40200043,0 0,9.40200043 0,21 C0,21 13,50 13,50 C13,50 20,50 20,50 C20,50 7,21 7,21 C7,13.2679996 13.2680001,7 21,7 C28.7319999,7 35,13.2679996 35,21 C35,21 22,50 22,50 C22,50 29,50 29,50 C29,50 42,21 42,21 C42,9.40200043 32.5979996,0 21,0 Z"></path>
                    </g>
                </g>
            </g>
        </g>
    </g>
</svg>
