<?xml version="1.0" encoding="UTF-8"?>
<svg width="100px" height="100px" viewBox="0 0 100 100" version="1.1" xmlns="http://www.w3.org/2000/svg" xmlns:xlink="http://www.w3.org/1999/xlink">
    <!-- Generator: Sketch 56.3 (81716) - https://sketch.com -->
    <title>icn_chromecast_active</title>
    <desc>Created with Sketch.</desc>
    <defs>
        <filter x="-28.8%" y="-28.8%" width="157.5%" height="157.5%" filterUnits="objectBoundingBox" id="filter-1">
            <feMerge>
                <feMergeNode in="SourceGraphic"></feMergeNode>
            </feMerge>
        </filter>
        <path d="M42.1230017,0.0363006597 C42.1230017,0.0363006597 0.0683998118,0.0453002936 0.0683998118,0.0453002936 C0.0683998118,0.0453002936 0.0683998118,34.8461004 0.0683998118,34.8461004 C0.0683998118,34.8461004 42.1230017,34.8371007 42.1230017,34.8371007 C42.1230017,34.8371007 42.1230017,0.0363006597 42.1230017,0.0363006597" id="path-2"></path>
    </defs>
    <g id="Icons" stroke="none" stroke-width="1" fill="none" fill-rule="evenodd">
        <g transform="translate(-390.000000, -92.000000)" id="icn_chromecast_active">
            <g filter="url(#filter-1)" transform="translate(400.000000, 100.000000)">
                <rect id="Rectangle" fill="#FFFFFF" x="0" y="0" width="80" height="80" rx="10"></rect>
                <g id="Group" transform="translate(10.000000, 18.000000)">
                    <g id="Clipped" transform="translate(1.000000, 5.000000)">
                        <g id="Group" transform="translate(0.599999, 0.000000)">
                            <g id="Clipped">
                                <mask id="mask-3" fill="white">
                                    <use xlink:href="#path-2"></use>
                                </mask>
                                <g id="Path"></g>
                                <g id="Group" mask="url(#mask-3)">
                                    <g transform="translate(-1.400000, 1.900000)">
                                        <g transform="translate(0.732636, 18.148282)">
                                            <g transform="translate(0.010100, 0.080600)" fill="#4285F4" fill-rule="nonzero" id="Path">
                                                <path d="M0.0149002077,0.155500033 C0.0149002077,0.155500033 0.0149002077,1.45550005 0.0149002077,1.45550005 C6.41490009,0.0555000313 12.6150003,4.7555001 11.8150003,12.9555002 C11.8150003,12.9555002 12.8150003,12.2555002 12.8150003,12.2555002 C13.3851,2.90390019 6.00630011,-0.555599984 0.0149002077,0.155500033 Z"></path>
                                            </g>
                                        </g>
                                        <g transform="translate(0.911896, 8.966260)">
                                            <g transform="translate(0.025000, 0.075000)" fill="#4285F4" fill-rule="nonzero" id="Path">
                                                <path d="M0,0.0500000007 C0,0.0500000007 0,1.05000002 0,1.05000002 C12.1000002,-0.0500000007 21.5,9.25000014 20.9000003,21.3500003 C20.9000003,21.3500003 21.9000003,21.3500003 21.9000003,21.3500003 C22.4000003,9.15000014 14,-0.550000008 0,0.0500000007 Z"></path>
                                            </g>
                                        </g>
                                        <g transform="translate(0.011923, 0.066232)">
                                            <g transform="translate(0.075000, 0.075000)" fill="#4285F4" fill-rule="nonzero" id="Path">
                                                <path d="M0.350000005,0.150000002 C0.350000005,0.150000002 0.0500000007,1.15000002 0.0500000007,1.15000002 C17.8365002,-0.990499893 32.8500005,14.4500002 30.55,31.9500005 C30.55,31.9500005 31.6500005,30.8500005 31.6500005,30.8500005 C33.3500005,16.2500002 20.8500003,-1.75000003 0.350000005,0.150000002 Z"></path>
                                            </g>
                                        </g>
                                    </g>
                                </g>
                            </g>
                        </g>
                    </g>
                    <g transform="translate(0.975000, 0.975000)" fill="#BCC1C5" fill-rule="nonzero" id="Shape">
                        <g transform="translate(0.025000, 0.025000)">
                            <path d="M52,0 C52,0 6,0 6,0 C2.6863007,0 0,2.6863007 0,6 C0,6 0,36 0,36 C0,39.3136999 2.6863007,42 6,42 C6,42 28.4941004,42 28.4941004,42 C28.4941004,42 28.4941004,47 28.4941004,47 C28.4941004,47 14,47 14,47 C14,47 14,48 14,48 C14,48 28.4941004,48 28.4941004,48 C28.4941004,48 29.4941004,48 29.4941004,48 C29.4941004,48 44,48 44,48 C44,48 44,47 44,47 C44,47 29.4941004,47 29.4941004,47 C29.4941004,47 29.4941004,42 29.4941004,42 C29.4941004,42 52,42 52,42 C55.3137002,42 58,39.3136999 58,36 C58,36 58,6 58,6 C58,2.6863007 55.3137002,0 52,0 Z M29.5,36 C29.5,36 28.5,36 28.5,36 C28.5,36 20.5,36 20.5,36 C20.5,36 19.5,36 19.5,36 C19.5,36 11.5,36 11.5,36 C11.5,36 10.5,36 10.5,36 C10.5,36 1.00000001,36 1.00000001,36 C1.00000001,36 1.00000001,26.5 1.00000001,26.5 C1.00000001,26.5 1.00000001,25.5 1.00000001,25.5 C1.00000001,25.5 1.00000001,17.5 1.00000001,17.5 C1.00000001,17.5 1.00000001,16.5 1.00000001,16.5 C1.00000001,16.5 1.00000001,8.50000001 1.00000001,8.50000001 C1.00000001,8.50000001 1.00000001,7.50000001 1.00000001,7.50000001 C1.00000001,7.50000001 1.00000001,6.00000001 1.00000001,6.00000001 C1.00000001,3.24290013 3.24310002,1.00000001 6.00000001,1.00000001 C6.00000001,1.00000001 52,1.00000001 52,1.00000001 C54.7569008,1.00000001 57,3.24290013 57,6.00000001 C57,6.00000001 57,36 57,36 C57,36 29.5,36 29.5,36 Z"></path>
                        </g>
                    </g>
                    <g id="Clipped" transform="translate(0.000000, 36.000000)" fill="#4285F4" fill-rule="nonzero">
                        <g id="Group" transform="translate(0.975000, 0.824999)">
                            <g transform="translate(0.025000, 0.075000)" id="Shape">
                                <path d="M0,0.0500000007 C0,3.41890004 2.6863007,6.15000009 6,6.15000009 C6,6.15000009 52,6.15000009 52,6.15000009 C55.3137002,6.15000009 58,3.41890004 58,0.0500000007 C58,0.0500000007 0,0.0500000007 0,0.0500000007 Z M29.5,0.0500000007 C29.5,0.0500000007 28.5,0.0500000007 28.5,0.0500000007 C28.5,0.0500000007 20.5,0.0500000007 20.5,0.0500000007 C20.5,0.0500000007 19.5,0.0500000007 19.5,0.0500000007 C19.5,0.0500000007 11.5,0.0500000007 11.5,0.0500000007 C11.5,0.0500000007 10.5,0.0500000007 10.5,0.0500000007 C10.5,0.0500000007 1.00000001,0.0500000007 1.00000001,0.0500000007 C1.00000001,0.0500000007 57,0.0500000007 57,0.0500000007 C57,0.0500000007 29.5,0.0500000007 29.5,0.0500000007 Z"></path>
                            </g>
                        </g>
                    </g>
                </g>
            </g>
        </g>
    </g>
</svg>
