<?xml version="1.0" encoding="UTF-8"?>
<svg width="100px" height="100px" viewBox="0 0 100 100" version="1.1" xmlns="http://www.w3.org/2000/svg" xmlns:xlink="http://www.w3.org/1999/xlink">
    <!-- Generator: Sketch 56.3 (81716) - https://sketch.com -->
    <title>icn_oven</title>
    <desc>Created with Sketch.</desc>
    <defs>
        <filter x="-28.8%" y="-28.8%" width="157.5%" height="157.5%" filterUnits="objectBoundingBox" id="filter-1">
            <feOffset dx="0" dy="2" in="SourceAlpha" result="shadowOffsetOuter1"></feOffset>
            <feGaussianBlur stdDeviation="5" in="shadowOffsetOuter1" result="shadowBlurOuter1"></feGaussianBlur>
            <feColorMatrix values="0 0 0 0 0   0 0 0 0 0   0 0 0 0 0  0 0 0 0.5 0" type="matrix" in="shadowBlurOuter1" result="shadowMatrixOuter1"></feColorMatrix>
            <feMerge>
                <feMergeNode in="shadowMatrixOuter1"></feMergeNode>
                <feMergeNode in="SourceGraphic"></feMergeNode>
            </feMerge>
        </filter>
    </defs>
    <g id="Icons" stroke="none" stroke-width="1" fill="none" fill-rule="evenodd">
        <g transform="translate(-390.000000, -992.000000)" id="icn_oven">
            <g filter="url(#filter-1)" transform="translate(400.000000, 1000.000000)">
                <rect id="Rectangle" fill="#FFFFFF" x="0" y="0" width="80" height="80" rx="10"></rect>
                <g id="Group" transform="translate(19.000000, 17.000000)" fill-rule="nonzero">
                    <g transform="translate(0.000000, 13.000000)" fill="#BCC1C5" id="Shape">
                        <path d="M0,32 C0,35.3129997 2.68700027,38 6,38 C6,38 36,38 36,38 C39.3139992,38 42,35.3129997 42,32 C42,32 42,0 42,0 C42,0 0,0 0,0 C0,0 0,32 0,32 Z M36,29 C36,29 6,29 6,29 C4.34300041,29 3,27.6560001 3,26 C3,26 3,21 3,21 C3,21 39,21 39,21 C39,21 39,26 39,26 C39,27.6560001 37.6569996,29 36,29 Z M39,20 C39,20 3,20 3,20 C3,20 3,2.93600082 3,2.93600082 C3,2.93600082 39,2.93600082 39,2.93600082 C39,2.93600082 39,20 39,20 Z"></path>
                    </g>
                    <g fill="#BCC1C5" id="Shape">
                        <path d="M36,0 C36,0 6,0 6,0 C2.68700027,0 0,2.68700004 0,6 C0,6 0,9 0,9 C0,9 0,11.0029998 0,11.0029998 C0,11.0029998 0,12 0,12 C0,12 42,12 42,12 C42,12 42,11.0029998 42,11.0029998 C42,11.0029998 42,9 42,9 C42,9 42,6 42,6 C42,2.68700004 39.3139992,0 36,0 Z M37,9 C37,9 26,9 26,9 C26,9 26,6 26,6 C26,5.44800001 26.4489999,5 27,5 C27,5 36,5 36,5 C36.552,5 37,5.44800001 37,6 C37,6 37,9 37,9 Z M38,9 C38,9 38,6 38,6 C38,4.89600003 37.1040001,4 36,4 C36,4 27,4 27,4 C25.8959999,4 25,4.89600003 25,6 C25,6 25,9 25,9 C25,9 1,9 1,9 C1,9 1,6 1,6 C1,3.24300003 3.24300003,1 6,1 C6,1 36,1 36,1 C38.757,1 41,3.24300003 41,6 C41,6 41,9 41,9 C41,9 38,9 38,9 Z"></path>
                    </g>
                    <g transform="translate(4.000000, 3.000000)" fill="#EA4335" id="Path">
                        <path d="M2,0 C0.896000028,0 0,0.896000028 0,2 C0,3.10399997 0.896000028,4 2,4 C3.10399997,4 4,3.10399997 4,2 C4,0.896000028 3.10399997,0 2,0 Z"></path>
                    </g>
                    <g transform="translate(11.000000, 3.000000)" fill="#EA4335" id="Path">
                        <path d="M2,0 C0.896000028,0 0,0.896000028 0,2 C0,3.10399997 0.896000028,4 2,4 C3.10399997,4 4,3.10399997 4,2 C4,0.896000028 3.10399997,0 2,0 Z"></path>
                    </g>
                    <g transform="translate(18.000000, 3.000000)" fill="#EA4335" id="Path">
                        <path d="M2,0 C0.896000028,0 0,0.896000028 0,2 C0,3.10399997 0.896000028,4 2,4 C3.10399997,4 4,3.10399997 4,2 C4,0.896000028 3.10399997,0 2,0 Z"></path>
                    </g>
                    <g transform="translate(7.000000, 21.500000)" fill="#BCC1C5" id="Path">
                        <path d="M28,0.5 C28,0.5 0,0.5 0,0.5 C0,0.5 0,1.5 0,1.5 C0,1.5 28,1.5 28,1.5 C28,1.5 28,0.5 28,0.5 Z"></path>
                    </g>
                </g>
            </g>
        </g>
    </g>
</svg>
