<?xml version="1.0" encoding="UTF-8"?>
<svg width="100px" height="100px" viewBox="0 0 100 100" version="1.1" xmlns="http://www.w3.org/2000/svg" xmlns:xlink="http://www.w3.org/1999/xlink">
    <!-- Generator: Sketch 56.3 (81716) - https://sketch.com -->
    <title>icn_scenes</title>
    <desc>Created with Sketch.</desc>
    <defs>
        <filter x="-28.8%" y="-28.8%" width="157.5%" height="157.5%" filterUnits="objectBoundingBox" id="filter-1">
            <feOffset dx="0" dy="2" in="SourceAlpha" result="shadowOffsetOuter1"></feOffset>
            <feGaussianBlur stdDeviation="5" in="shadowOffsetOuter1" result="shadowBlurOuter1"></feGaussianBlur>
            <feColorMatrix values="0 0 0 0 0   0 0 0 0 0   0 0 0 0 0  0 0 0 0.5 0" type="matrix" in="shadowBlurOuter1" result="shadowMatrixOuter1"></feColorMatrix>
            <feMerge>
                <feMergeNode in="shadowMatrixOuter1"></feMergeNode>
                <feMergeNode in="SourceGraphic"></feMergeNode>
            </feMerge>
        </filter>
    </defs>
    <g id="Icons" stroke="none" stroke-width="1" fill="none" fill-rule="evenodd">
        <g transform="translate(-690.000000, -992.000000)" id="icn_scenes">
            <g filter="url(#filter-1)" transform="translate(700.000000, 1000.000000)">
                <rect id="Rectangle" fill="#FFFFFF" x="0" y="0" width="80" height="80" rx="10"></rect>
                <g id="Group" transform="translate(16.000000, 16.000000)" fill-rule="nonzero">
                    <g transform="translate(14.813000, 0.813000)" fill="#DFE0E4" id="Path">
                        <path d="M10,0.187000275 C10,0.187000275 19.8129997,10 19.8129997,10 C19.8129997,10 10,19.8129997 10,19.8129997 C10,19.8129997 0.187000275,10 0.187000275,10 C0.187000275,10 10,0.187000275 10,0.187000275 Z"></path>
                    </g>
                    <g transform="translate(24.710999, 0.813000)" fill="#CED1D4" id="Path">
                        <path d="M0.0850000381,19.7959995 C0.0850000381,19.7959995 0.102000237,19.8129997 0.102000237,19.8129997 C0.102000237,19.8129997 9.91499996,10 9.91499996,10 C9.91499996,10 0.102000237,0.187000275 0.102000237,0.187000275 C0.102000237,0.187000275 0.0850000381,0.204000473 0.0850000381,0.204000473 C0.0850000381,0.204000473 0.0850000381,19.7959995 0.0850000381,19.7959995 Z"></path>
                    </g>
                    <g transform="translate(14.813000, 27.813000)" fill="#4FC26D" id="Path">
                        <path d="M10,0.187000275 C10,0.187000275 19.8129997,10 19.8129997,10 C19.8129997,10 10,19.8129997 10,19.8129997 C10,19.8129997 0.187000275,10 0.187000275,10 C0.187000275,10 10,0.187000275 10,0.187000275 Z"></path>
                    </g>
                    <g transform="translate(24.710999, 27.813000)" fill="#41B55F" id="Path">
                        <path d="M0.0850000381,19.7950001 C0.0850000381,19.7950001 0.102000237,19.8129997 0.102000237,19.8129997 C0.102000237,19.8129997 9.91499996,9.999 9.91499996,9.999 C9.91499996,9.999 0.102000237,0.187000275 0.102000237,0.187000275 C0.102000237,0.187000275 0.0850000381,0.203000069 0.0850000381,0.203000069 C0.0850000381,0.203000069 0.0850000381,19.7950001 0.0850000381,19.7950001 Z"></path>
                    </g>
                    <g transform="translate(28.812000, 13.813000)" fill="#DFE0E4" id="Path">
                        <path d="M10,0.187000275 C10,0.187000275 19.8129997,10 19.8129997,10 C19.8129997,10 10,19.8129997 10,19.8129997 C10,19.8129997 0.187000275,10 0.187000275,10 C0.187000275,10 10,0.187000275 10,0.187000275 Z"></path>
                    </g>
                    <g transform="translate(38.710999, 13.813000)" fill="#CED1D4" id="Path">
                        <path d="M0.0850000381,19.7950001 C0.0850000381,19.7950001 0.102000237,19.8129997 0.102000237,19.8129997 C0.102000237,19.8129997 9.91499996,10 9.91499996,10 C9.91499996,10 0.102000237,0.187000275 0.102000237,0.187000275 C0.102000237,0.187000275 0.0850000381,0.204000473 0.0850000381,0.204000473 C0.0850000381,0.204000473 0.0850000381,19.7950001 0.0850000381,19.7950001 Z"></path>
                    </g>
                    <g transform="translate(0.813000, 13.813000)" fill="#DFE0E4" id="Path">
                        <path d="M10,0.187000275 C10,0.187000275 19.8129997,10 19.8129997,10 C19.8129997,10 10,19.8129997 10,19.8129997 C10,19.8129997 0.187000275,10 0.187000275,10 C0.187000275,10 10,0.187000275 10,0.187000275 Z"></path>
                    </g>
                    <g transform="translate(10.711000, 13.813000)" fill="#CED1D4" id="Path">
                        <path d="M0.0850000381,19.7950001 C0.0850000381,19.7950001 0.102000237,19.8129997 0.102000237,19.8129997 C0.102000237,19.8129997 9.91499996,10 9.91499996,10 C9.91499996,10 0.102000237,0.187000275 0.102000237,0.187000275 C0.102000237,0.187000275 0.0850000381,0.204000473 0.0850000381,0.204000473 C0.0850000381,0.204000473 0.0850000381,19.7950001 0.0850000381,19.7950001 Z"></path>
                    </g>
                </g>
            </g>
        </g>
    </g>
</svg>
