<?xml version="1.0" encoding="UTF-8"?>
<svg width="100px" height="100px" viewBox="0 0 100 100" version="1.1" xmlns="http://www.w3.org/2000/svg" xmlns:xlink="http://www.w3.org/1999/xlink">
    <!-- Generator: Sketch 56.3 (81716) - https://sketch.com -->
    <title>icn_lock</title>
    <desc>Created with Sketch.</desc>
    <defs>
        <filter x="-28.8%" y="-28.8%" width="157.5%" height="157.5%" filterUnits="objectBoundingBox" id="filter-1">
            <feOffset dx="0" dy="2" in="SourceAlpha" result="shadowOffsetOuter1"></feOffset>
            <feGaussianBlur stdDeviation="5" in="shadowOffsetOuter1" result="shadowBlurOuter1"></feGaussianBlur>
            <feColorMatrix values="0 0 0 0 0   0 0 0 0 0   0 0 0 0 0  0 0 0 0.5 0" type="matrix" in="shadowBlurOuter1" result="shadowMatrixOuter1"></feColorMatrix>
            <feMerge>
                <feMergeNode in="shadowMatrixOuter1"></feMergeNode>
                <feMergeNode in="SourceGraphic"></feMergeNode>
            </feMerge>
        </filter>
    </defs>
    <g id="Icons" stroke="none" stroke-width="1" fill="none" fill-rule="evenodd">
        <g transform="translate(-690.000000, -592.000000)" id="icn_lock">
            <g filter="url(#filter-1)" transform="translate(700.000000, 600.000000)">
                <rect id="Rectangle" fill="#FFFFFF" x="0" y="0" width="80" height="80" rx="10"></rect>
                <g id="Group" transform="translate(21.000000, 11.000000)" fill-rule="nonzero">
                    <g fill="#BCC1C5" id="Shape">
                        <path d="M35,28.779 C35,28.779 35,16 35,16 C35,7.16399956 27.8369999,0 19,0 C10.1639996,0 3,7.16399956 3,16 C3,16 3,20.0279999 3,20.0279999 C3,20.0279999 9,20.0819998 9,20.0819998 C9,20.0819998 9,16 9,16 C9,10.4769993 13.4770002,6 19,6 C24.5229998,6 29,10.4769993 29,16 C29,16 29,22.8660002 29,22.8660002 C26.0929999,21.0609999 22.674,20 19,20 C8.50699997,20 0,28.507 0,39 C0,49.493 8.50699997,58 19,58 C29.4940004,58 38,49.493 38,39 C38,35.2340002 36.8899994,31.7320001 35,28.779 Z M19,5 C12.9349999,5 8,9.93499947 8,16 C8,16 8,19.073 8,19.073 C8,19.073 4,19.0369997 4,19.0369997 C4,19.0369997 4,16 4,16 C4,7.72900009 10.7290001,1 19,1 C27.2709999,1 34,7.72900009 34,16 C34,16 34,27.367 34,27.367 C32.8599997,25.9000001 31.5150003,24.605 30,23.527 C30,23.527 30,16 30,16 C30,9.93499947 25.0650001,5 19,5 Z M19,54 C10.7159996,54 4,47.2840004 4,39 C4,30.716 10.7159996,24 19,24 C27.2840004,24 34,30.716 34,39 C34,47.2840004 27.2840004,54 19,54 Z"></path>
                    </g>
                    <g transform="translate(5.000000, 25.000000)" fill="#BCC1C5" id="Shape">
                        <path d="M14,0 C6.28000021,0 0,6.28000021 0,14 C0,21.7199998 6.28000021,28 14,28 C21.7199998,28 28,21.7199998 28,14 C28,6.28000021 21.7199998,0 14,0 Z M18,21 C18,21 10,21 10,21 C10,21 12.517,14.709 12.517,14.709 C11.043,14.119 10,12.684 10,11 C10,8.79099989 11.7909999,7 14,7 C16.2090001,7 18,8.79099989 18,11 C18,12.684 16.957,14.119 15.483,14.709 C15.483,14.709 18,21 18,21 Z"></path>
                    </g>
                    <g transform="translate(4.000000, 24.000000)" fill="#4285F4" id="Shape">
                        <path d="M15,0 C6.7159996,0 0,6.7159996 0,15 C0,23.2840004 6.7159996,30 15,30 C23.2840004,30 30,23.2840004 30,15 C30,6.7159996 23.2840004,0 15,0 Z M15,29 C7.28000021,29 1,22.7199998 1,15 C1,7.28000021 7.28000021,1 15,1 C22.7199998,1 29,7.28000021 29,15 C29,22.7199998 22.7199998,29 15,29 Z"></path>
                    </g>
                </g>
            </g>
        </g>
    </g>
</svg>
