<?xml version="1.0" encoding="UTF-8"?>
<svg width="100px" height="100px" viewBox="0 0 100 100" version="1.1" xmlns="http://www.w3.org/2000/svg" xmlns:xlink="http://www.w3.org/1999/xlink">
    <!-- Generator: Sketch 56.3 (81716) - https://sketch.com -->
    <title>icn_lightgroup_offline</title>
    <desc>Created with Sketch.</desc>
    <defs>
        <filter x="-28.8%" y="-28.8%" width="157.5%" height="157.5%" filterUnits="objectBoundingBox" id="filter-1">
            <feOffset dx="0" dy="2" in="SourceAlpha" result="shadowOffsetOuter1"></feOffset>
            <feGaussianBlur stdDeviation="5" in="shadowOffsetOuter1" result="shadowBlurOuter1"></feGaussianBlur>
            <feColorMatrix values="0 0 0 0 0   0 0 0 0 0   0 0 0 0 0  0 0 0 0.5 0" type="matrix" in="shadowBlurOuter1" result="shadowMatrixOuter1"></feColorMatrix>
            <feMerge>
                <feMergeNode in="shadowMatrixOuter1"></feMergeNode>
                <feMergeNode in="SourceGraphic"></feMergeNode>
            </feMerge>
        </filter>
    </defs>
    <g id="Icons" stroke="none" stroke-width="1" fill="none" fill-rule="evenodd">
        <g transform="translate(-590.000000, -792.000000)" id="icn_lightgroup_offline">
            <g filter="url(#filter-1)" transform="translate(600.000000, 800.000000)">
                <rect id="Rectangle" fill="#FFFFFF" x="0" y="0" width="80" height="80" rx="10"></rect>
                <g id="Group" transform="translate(9.000000, 11.000000)" fill="#BCC1C5" fill-rule="nonzero">
                    <g transform="translate(52.000000, 20.500000)" id="Path">
                        <path d="M0,21.5 C0,21.5 9,0.5 9,0.5 C9,0.5 10,0.5 10,0.5 C10,0.5 1,21.5 1,21.5 C1,21.5 0,21.5 0,21.5 Z"></path>
                    </g>
                    <g transform="translate(41.000000, 40.500000)" id="Path">
                        <path d="M0,1.5 C0,1.5 12,1.5 12,1.5 C12,1.5 12,0.5 12,0.5 C12,0.5 0,0.5 0,0.5 C0,0.5 0,1.5 0,1.5 Z"></path>
                    </g>
                    <g transform="translate(39.466000, 26.320999)" id="Path">
                        <path d="M0.467000008,1.52099991 C0.467000008,1.52099991 6.53399992,15.678 6.53399992,15.678 C6.53399992,15.678 7.53399992,15.678 7.53399992,15.678 C7.53399992,15.678 1.00500011,0.322000027 1.00500011,0.322000027 C1.00500011,0.322000027 0.467000008,1.52099991 0.467000008,1.52099991 Z"></path>
                    </g>
                    <g transform="translate(40.651001, 10.500000)" id="Path">
                        <path d="M0.652000427,2.3210001 C2.26900005,1.17300034 4.23099995,0.5 6.34800005,0.5 C11.464,0.5 15.6810002,4.4289999 16.2789998,9.5 C16.2789998,9.5 20.3479996,9.5 20.3479996,9.5 C20.3479996,9.5 21.3479996,10.5 21.3479996,10.5 C21.3479996,10.5 16.348,10.5 16.348,10.5 C16.348,10.5 7.34800005,31.5 7.34800005,31.5 C7.34800005,31.5 6.34800005,31.5 6.34800005,31.5 C6.34800005,31.5 15.277,10.5 15.277,10.5 C15.277,10.5 14.348,10.5 14.348,10.5 C14.348,10.5 2.34799957,10.5 2.34799957,10.5 C2.2840004,7.60599995 1.68700027,4.84599972 0.652000427,2.3210001 Z"></path>
                    </g>
                    <g id="Path">
                        <path d="M21,1 C10.1070004,1 1.24699974,9.91100001 1,21 C1,21 1,22 1,22 C1,22 0,21 0,21 C0.260000229,9.35699999 9.56200027,0 21,0 C32.4379997,0 41.7399998,9.35699999 42,21 C42,21 41,22 41,22 C41,22 41,21 41,21 C40.7530003,9.91100001 31.8929996,1 21,1 Z"></path>
                    </g>
                    <g transform="translate(7.000000, 7.000000)" id="Path">
                        <path d="M28,14 C28,6.26800001 21.7319999,0 14,0 C6.26800013,0 0,6.26800001 0,14 C0,14 28,14 28,14 Z"></path>
                    </g>
                    <g transform="translate(0.000000, 19.500000)" id="Path">
                        <path d="M1,0.5 C1,0.5 41,0.5 41,0.5 C41,0.5 42,1.5 42,1.5 C42,1.5 0,1.5 0,1.5 C0,1.5 1,0.5 1,0.5 Z"></path>
                    </g>
                    <g transform="translate(7.000000, 20.000000)" id="Path">
                        <path d="M1,0 C1,0 0,1 0,1 C0,1 13,30 13,30 C13,30 14,30 14,30 C14,30 15,30 15,30 C15,30 28,1 28,1 C28,1 27,0 27,0 C27,0 27,1 27,1 C27,1 14,30 14,30 C14,30 1,1 1,1 C1,1 1,0 1,0 Z"></path>
                    </g>
                    <g transform="translate(36.666000, 6.000000)" id="Path">
                        <path d="M1.42599964,2.99900007 C3.91699982,1.11499977 6.99900007,0 10.3340001,0 C18.5040002,0 25.1490002,6.68400002 25.3339996,15 C25.3339996,15 24.3339996,16 24.3339996,16 C24.3339996,16 24.3339996,14.9920001 24.3339996,14.9920001 C24.1560001,7.23400003 17.9569998,1 10.3340001,1 C7.20300007,1 4.31200027,2.05299997 1.97900009,3.82999992 C1.97900009,3.82999992 1.99300003,3.85300016 1.99300003,3.85300016 C1.72900009,4.05699992 1.47099972,4.26999998 1.22099972,4.49300003 C1.04300022,4.20700002 0.857999802,3.92500019 0.666000366,3.64900017 C0.916999817,3.42999983 1.17500019,3.21999979 1.43999958,3.01900005 C1.43500042,3.01200008 1.43099976,3.00500011 1.42599964,2.99900007 Z"></path>
                    </g>
                    <g transform="translate(36.688000, 32.202000)" id="Path">
                        <path d="M0.687999964,1.34299994 C0.687999964,1.34299994 4.31099999,9.79799986 4.31099999,9.79799986 C4.31099999,9.79799986 5.31100011,9.79799986 5.31100011,9.79799986 C5.31100011,9.79799986 1.199,0.202000141 1.199,0.202000141 C1.199,0.202000141 0.687999964,1.34299994 0.687999964,1.34299994 Z"></path>
                    </g>
                    <g transform="translate(41.000000, 40.500000)" id="Path">
                        <path d="M1,0.5 C1,0.5 1,1.5 1,1.5 C1,4.26199999 3.23799992,6.5 6,6.5 C8.76200008,6.5 11,4.26199999 11,1.5 C11,1.5 11,0.5 11,0.5 C11,0.5 12,1.5 12,1.5 C12,4.81300002 9.31299996,7.5 6,7.5 C2.68700004,7.5 0,4.81300002 0,1.5 C0,1.5 1,0.5 1,0.5 Z"></path>
                    </g>
                    <g transform="translate(13.000000, 48.500000)" id="Path">
                        <path d="M0,0.5 C0,0.5 16,0.5 16,0.5 C16,0.5 16,1.5 16,1.5 C16,1.5 0,1.5 0,1.5 C0,1.5 0,0.5 0,0.5 Z"></path>
                    </g>
                    <g transform="translate(13.000000, 48.750000)" id="Path">
                        <path d="M8,9.25 C12.4180002,9.25 16,5.66799998 16,1.25 C16,1.25 15,0.75 15,0.75 C15,0.75 15,1.25 15,1.25 C15,5.116 11.8659999,8.25 8,8.25 C4.13400006,8.25 1,5.116 1,1.25 C1,1.25 1,0.75 1,0.75 C1,0.75 0,1.25 0,1.25 C0,5.66799998 3.58199978,9.25 8,9.25 Z"></path>
                    </g>
                    <g transform="translate(28.000000, 20.500000)" id="Path">
                        <path d="M13,0.5 C13,0.5 14,0.5 14,0.5 C14,0.5 1,29.5 1,29.5 C1,29.5 0,29.5 0,29.5 C0,29.5 13,0.5 13,0.5 Z"></path>
                    </g>
                    <g transform="translate(0.000000, 20.500000)" id="Path">
                        <path d="M1,0.5 C1,0.5 0,0.5 0,0.5 C0,0.5 13,29.5 13,29.5 C13,29.5 14,29.5 14,29.5 C14,29.5 1,0.5 1,0.5 Z"></path>
                    </g>
                </g>
            </g>
        </g>
    </g>
</svg>
