<?xml version="1.0" encoding="UTF-8"?>
<svg width="100px" height="100px" viewBox="0 0 100 100" version="1.1" xmlns="http://www.w3.org/2000/svg" xmlns:xlink="http://www.w3.org/1999/xlink">
    <!-- Generator: Sketch 56.3 (81716) - https://sketch.com -->
    <title>icn_g_assistant_speaker_active</title>
    <desc>Created with Sketch.</desc>
    <defs>
        <filter x="-28.8%" y="-28.8%" width="157.5%" height="157.5%" filterUnits="objectBoundingBox" id="filter-1">
            <feOffset dx="0" dy="2" in="SourceAlpha" result="shadowOffsetOuter1"></feOffset>
            <feGaussianBlur stdDeviation="5" in="shadowOffsetOuter1" result="shadowBlurOuter1"></feGaussianBlur>
            <feColorMatrix values="0 0 0 0 0   0 0 0 0 0   0 0 0 0 0  0 0 0 0.5 0" type="matrix" in="shadowBlurOuter1" result="shadowMatrixOuter1"></feColorMatrix>
            <feMerge>
                <feMergeNode in="shadowMatrixOuter1"></feMergeNode>
                <feMergeNode in="SourceGraphic"></feMergeNode>
            </feMerge>
        </filter>
    </defs>
    <g id="Icons" stroke="none" stroke-width="1" fill="none" fill-rule="evenodd">
        <g transform="translate(-90.000000, -692.000000)" id="icn_g_assistant_speaker_active">
            <g filter="url(#filter-1)" transform="translate(100.000000, 700.000000)">
                <rect id="Rectangle" fill="#FFFFFF" x="0" y="0" width="80" height="80" rx="10"></rect>
                <g id="Group-2" transform="translate(27.950099, 60.324999)" fill="#000000" fill-opacity="0" fill-rule="nonzero" stroke-linecap="round" stroke-width="4.00000006">
                    <g id="Group" transform="translate(0.000000, -0.000000)" stroke="#4285F4">
                        <path d="M0.0500000007,0.0840000013 C0.0500000007,0.0840000013 0.0500000007,15.2640002 0.0500000007,15.2640002" id="Path"></path>
                    </g>
                    <g id="Group" transform="translate(8.000000, 5.700000)" stroke="#EA4335">
                        <path d="M0.0500000007,0.0820000012 C0.0500000007,0.0820000012 0.0500000007,3.87700006 0.0500000007,3.87700006" id="Path"></path>
                    </g>
                    <g id="Group" transform="translate(16.000004, 1.900000)" stroke="#FBBC04">
                        <path d="M0.0500000007,0.0830000012 C0.0500000007,0.0830000012 0.0500000007,11.4680002 0.0500000007,11.4680002" id="Path"></path>
                    </g>
                    <g id="Group" transform="translate(24.000004, 3.800000)" stroke="#34A853">
                        <path d="M0.0500000007,0.0830000012 C0.0500000007,0.0830000012 0.0500000007,7.67300011 0.0500000007,7.67300011" id="Path"></path>
                    </g>
                </g>
                <rect id="Rectangle" fill="#FFFFFF" x="16" y="68" width="48" height="10" rx="5"></rect>
                <g id="Group" transform="translate(8.000000, 8.000000)" fill="#BCC1C5" fill-rule="nonzero">
                    <g transform="translate(10.975000, 2.975000)" id="Shape">
                        <g transform="translate(0.025000, 0.025000)">
                            <path d="M36,0 C36,0 6,0 6,0 C2.6863007,0 0,2.6863007 0,6 C0,6 0,52 0,52 C0,55.3137002 2.6863007,58 6,58 C6,58 36,58 36,58 C39.3136999,58 42,55.3137002 42,52 C42,52 42,6 42,6 C42,2.6863007 39.3136999,0 36,0 Z M41,52 C41,54.7570015 38.7570013,57 36,57 C36,57 6.00000001,57 6.00000001,57 C3.24290013,57 1.00000001,54.7570015 1.00000001,52 C1.00000001,52 1.00000001,6.00000001 1.00000001,6.00000001 C1.00000001,3.24289861 3.24290013,1.00000001 6.00000001,1.00000001 C6.00000001,1.00000001 36,1.00000001 36,1.00000001 C38.7570013,1.00000001 41,3.24289861 41,6.00000001 C41,6.00000001 41,52 41,52 Z"></path>
                        </g>
                    </g>
                    <g id="Shape">
                        <path d="M0,0 C0,0 64,0 64,0 C64,0 64,64 64,64 C64,64 0,64 0,64 C0,64 0,0 0,0 Z M0,64 C0,64 64,64 64,64 C64,64 64,0 64,0 C64,0 0,0 0,0 C0,0 0,64 0,64 Z M32,18 C33.654,18 35,16.654 35,15 C35,13.346 33.654,12 32,12 C30.346,12 29,13.346 29,15 C29,16.654 30.346,18 32,18 Z"></path>
                    </g>
                    <g id="Shape">
                        <path d="M0,0 C0,0 64,0 64,0 C64,0 64,64 64,64 C64,64 0,64 0,64 C0,64 0,0 0,0 Z M0,64 C0,64 64,64 64,64 C64,64 64,0 64,0 C64,0 0,0 0,0 C0,0 0,64 0,64 Z M32,23 C36.4180002,23 40,19.4180002 40,15 C40,10.5819998 36.4180002,7 32,7 C27.5819998,7 24,10.5819998 24,15 C24,19.4180002 27.5819998,23 32,23 Z M32,11 C34.2090001,11 36,12.7909999 36,15 C36,17.2090001 34.2090001,19 32,19 C29.7909999,19 28,17.2090001 28,15 C28,12.7909999 29.7909999,11 32,11 Z"></path>
                    </g>
                    <g id="Shape">
                        <path d="M0,0 C0,0 64,0 64,0 C64,0 64,64 64,64 C64,64 0,64 0,64 C0,64 0,0 0,0 Z M0,64 C0,64 64,64 64,64 C64,64 64,0 64,0 C64,0 0,0 0,0 C0,0 0,64 0,64 Z M32,27 C25.9250002,27 21,31.9250002 21,38 C21,44.0749998 25.9250002,49 32,49 C38.0749998,49 43,44.0749998 43,38 C43,31.9250002 38.0749998,27 32,27 Z M32,43 C29.2379999,43 27,40.7609999 27,38 C27,35.2379999 29.2379999,33 32,33 C34.7609999,33 37,35.2379999 37,38 C37,40.7609999 34.7609999,43 32,43 Z"></path>
                    </g>
                    <g id="Shape">
                        <path d="M0,0 C0,0 64,0 64,0 C64,0 64,64 64,64 C64,64 0,64 0,64 C0,64 0,0 0,0 Z M0,64 C0,64 64,64 64,64 C64,64 64,0 64,0 C64,0 0,0 0,0 C0,0 0,64 0,64 Z M32,34 C29.7939999,34 28,35.7939999 28,38 C28,40.2060001 29.7939999,42 32,42 C34.2060001,42 36,40.2060001 36,38 C36,35.7939999 34.2060001,34 32,34 Z"></path>
                    </g>
                </g>
            </g>
        </g>
    </g>
</svg>
