<?xml version="1.0" encoding="UTF-8"?>
<svg width="100px" height="100px" viewBox="0 0 100 100" version="1.1" xmlns="http://www.w3.org/2000/svg" xmlns:xlink="http://www.w3.org/1999/xlink">
    <!-- Generator: Sketch 56.3 (81716) - https://sketch.com -->
    <title>icn_wash_machine</title>
    <desc>Created with Sketch.</desc>
    <defs>
        <filter x="-28.8%" y="-28.8%" width="157.5%" height="157.5%" filterUnits="objectBoundingBox" id="filter-1">
            <feOffset dx="0" dy="2" in="SourceAlpha" result="shadowOffsetOuter1"></feOffset>
            <feGaussianBlur stdDeviation="5" in="shadowOffsetOuter1" result="shadowBlurOuter1"></feGaussianBlur>
            <feColorMatrix values="0 0 0 0 0   0 0 0 0 0   0 0 0 0 0  0 0 0 0.5 0" type="matrix" in="shadowBlurOuter1" result="shadowMatrixOuter1"></feColorMatrix>
            <feMerge>
                <feMergeNode in="shadowMatrixOuter1"></feMergeNode>
                <feMergeNode in="SourceGraphic"></feMergeNode>
            </feMerge>
        </filter>
    </defs>
    <g id="Icons" stroke="none" stroke-width="1" fill="none" fill-rule="evenodd">
        <g transform="translate(-490.000000, -1392.000000)" id="icn_wash_machine">
            <g filter="url(#filter-1)" transform="translate(500.000000, 1400.000000)">
                <rect id="Rectangle" fill="#FFFFFF" x="0" y="0" width="80" height="80" rx="10"></rect>
                <g id="Group" transform="translate(19.000000, 14.000000)" fill-rule="nonzero">
                    <g transform="translate(0.000000, 0.500000)" fill="#BCC1C5" id="Shape">
                        <path d="M36,0.5 C36,0.5 6,0.5 6,0.5 C2.68700027,0.5 0,3.18700027 0,6.5 C0,6.5 0,9.50200081 0,9.50200081 C0,9.50200081 0,13.5249996 0,13.5249996 C0,13.5249996 0,45.5 0,45.5 C0,48.8139992 2.68700027,51.5 6,51.5 C6,51.5 36,51.5 36,51.5 C39.3139992,51.5 42,48.8139992 42,45.5 C42,45.5 42,13.5249996 42,13.5249996 C42,13.5249996 42,9.50200081 42,9.50200081 C42,9.50200081 42,6.5 42,6.5 C42,3.18700027 39.3139992,0.5 36,0.5 Z M1,6.5 C1,3.74300003 3.24300003,1.5 6,1.5 C6,1.5 14,1.5 14,1.5 C14,1.5 14,9.50200081 14,9.50200081 C14,9.50200081 1,9.50200081 1,9.50200081 C1,9.50200081 1,6.5 1,6.5 Z M39,30.5 C39,40.441 30.941,48.5 21,48.5 C11.059,48.5 3,40.441 3,30.5 C3,20.559 11.059,12.5 21,12.5 C30.941,12.5 39,20.559 39,30.5 Z M15,9.50200081 C15,9.50200081 15,1.5 15,1.5 C15,1.5 36,1.5 36,1.5 C38.757,1.5 41,3.74300003 41,6.5 C41,6.5 41,9.50200081 41,9.50200081 C41,9.50200081 15,9.50200081 15,9.50200081 Z"></path>
                    </g>
                    <g transform="translate(17.500000, 5.500000)" fill="#BCC1C5" id="Path">
                        <path d="M0.5,1.5 C0.5,1.5 11.5,1.5 11.5,1.5 C11.5,1.5 11.5,0.5 11.5,0.5 C11.5,0.5 0.5,0.5 0.5,0.5 C0.5,0.5 0.5,1.5 0.5,1.5 Z"></path>
                    </g>
                    <g transform="translate(32.000000, 4.000000)" fill="#BCC1C5" id="Path">
                        <path d="M2,0 C0.896000028,0 0,0.896000028 0,2 C0,3.10399997 0.896000028,4 2,4 C3.10399997,4 4,3.10399997 4,2 C4,0.896000028 3.10399997,0 2,0 Z"></path>
                    </g>
                    <g transform="translate(20.000000, 30.000000)" fill="#BCC1C5" id="Path">
                        <path d="M0,1 C0,1.55299997 0.448000014,2 1,2 C1.55199999,2 2,1.55299997 2,1 C2,0.447000027 1.55199999,0 1,0 C0.448000014,0 0,0.447000027 0,1 Z"></path>
                    </g>
                    <g transform="translate(17.000000, 27.000000)" fill="#BCC1C5" id="Shape">
                        <path d="M0,4 C0,6.20900011 1.79099989,8 4,8 C6.20900011,8 8,6.20900011 8,4 C8,1.79099989 6.20900011,0 4,0 C1.79099989,0 0,1.79099989 0,4 Z M7,4 C7,5.65400004 5.65400004,7 4,7 C2.34599996,7 1,5.65400004 1,4 C1,2.34599996 2.34599996,1 4,1 C5.65400004,1 7,2.34599996 7,4 Z"></path>
                    </g>
                    <g transform="translate(6.000000, 16.000000)" fill="#BCC1C5" id="Shape">
                        <path d="M0,15 C0,23.2840004 6.7159996,30 15,30 C23.2840004,30 30,23.2840004 30,15 C30,6.7159996 23.2840004,0 15,0 C6.7159996,0 0,6.7159996 0,15 Z M17.0339999,1.16499996 C17.4089999,9.1960001 21.6300001,16.215 27.9040003,20.427 C27.441,21.5240002 26.8310003,22.5409999 26.1169996,23.4759998 C19.3499999,20.2069998 11.2079999,20.0900002 4.10499954,23.7709999 C3.27900028,22.7480001 2.59200001,21.6090002 2.07800007,20.3790002 C8.30999994,16.165 12.5,9.17399979 12.878,1.17800045 C13.572,1.07199955 14.277,1 15,1 C15.692,1 16.368,1.06700039 17.0339999,1.16499996 Z M11.848,1.37100029 C11.4300001,8.62300014 7.704,15.25 1.7159996,19.3920002 C1.25699997,18.0079999 1,16.535 1,15 C1,8.36499977 5.64400005,2.80700016 11.848,1.37100029 Z M15,29 C10.9790001,29 7.35699987,27.2849998 4.80200005,24.5609999 C11.28,21.2919998 18.872,21.191 25.448,24.2860003 C22.882,27.1700001 19.1550002,29 15,29 Z M29,15 C29,16.553 28.7349997,18.0420001 28.2670002,19.4390001 C22.2319999,15.297 18.477,8.63800001 18.0639999,1.34799957 C24.3129997,2.75 29,8.33400011 29,15 Z"></path>
                    </g>
                </g>
            </g>
        </g>
    </g>
</svg>
