<?xml version="1.0" encoding="UTF-8"?>
<svg width="100px" height="100px" viewBox="0 0 100 100" version="1.1" xmlns="http://www.w3.org/2000/svg" xmlns:xlink="http://www.w3.org/1999/xlink">
    <!-- Generator: Sketch 56.3 (81716) - https://sketch.com -->
    <title>icn_air_purifier_active</title>
    <desc>Created with Sketch.</desc>
    <defs>
        <filter x="-28.8%" y="-28.8%" width="157.5%" height="157.5%" filterUnits="objectBoundingBox" id="filter-1">
            <feOffset dx="0" dy="2" in="SourceAlpha" result="shadowOffsetOuter1"></feOffset>
            <feGaussianBlur stdDeviation="5" in="shadowOffsetOuter1" result="shadowBlurOuter1"></feGaussianBlur>
            <feColorMatrix values="0 0 0 0 0   0 0 0 0 0   0 0 0 0 0  0 0 0 0.5 0" type="matrix" in="shadowBlurOuter1" result="shadowMatrixOuter1"></feColorMatrix>
            <feMerge>
                <feMergeNode in="shadowMatrixOuter1"></feMergeNode>
                <feMergeNode in="SourceGraphic"></feMergeNode>
            </feMerge>
        </filter>
    </defs>
    <g id="Icons" stroke="none" stroke-width="1" fill="none" fill-rule="evenodd">
        <g transform="translate(10.000000, -92.000000)" id="icn_air_purifier_active">
            <g filter="url(#filter-1)" transform="translate(0.000000, 100.000000)">
                <rect id="Rectangle" fill="#D6FDFA" x="0" y="0" width="80" height="80" rx="10"></rect>
                <g id="Group" transform="translate(22.000000, 10.000000)" fill-rule="nonzero">
                    <g transform="translate(6.000000, 57.500000)" fill="#BCC1C5" id="Path">
                        <path d="M0,1.5 C0,1.5 24,1.5 24,1.5 C24,1.5 24,0.5 24,0.5 C24,0.5 0,0.5 0,0.5 C0,0.5 0,1.5 0,1.5 Z"></path>
                    </g>
                    <g transform="translate(5.000000, 47.000000)" fill="#4285F4" id="Path">
                        <path d="M2,4 C3.10399997,4 4,3.10399997 4,2 C4,0.896000028 3.10399997,0 2,0 C0.896000028,0 0,0.896000028 0,2 C0,3.10399997 0.896000028,4 2,4 Z"></path>
                    </g>
                    <g transform="translate(1.000000, 0.500000)" fill="#BCC1C5" id="Shape">
                        <path d="M24.9640002,9.5 C24.9640002,9.5 25,9.5 25,9.5 C25,9.5 34,9.5 34,9.5 C34,9.5 34,4.5 34,4.5 C34,4.5 34,0.5 34,0.5 C34,0.5 0,0.5 0,0.5 C0,0.5 0,4.5 0,4.5 C0,4.5 0,9.5 0,9.5 C0,9.5 24.9640002,9.5 24.9640002,9.5 Z M1,1.5 C1,1.5 33,1.5 33,1.5 C33,1.5 33,4.5 33,4.5 C33,4.5 1,4.5 1,4.5 C1,4.5 1,1.5 1,1.5 Z"></path>
                    </g>
                    <g transform="translate(1.000000, 29.000000)" fill="#BCC1C5" id="Shape">
                        <path d="M0,0 C0,0 0,5 0,5 C0,5 0,20 0,20 C0,23.3129997 2.68700027,26 6,26 C6,26 28,26 28,26 C31.3129997,26 34,23.3129997 34,20 C34,20 34,5 34,5 C34,5 34,0 34,0 C34,0 0,0 0,0 Z M33,20 C33,22.757 30.757,25 28,25 C28,25 6,25 6,25 C3.24300003,25 1,22.757 1,20 C1,20 1,5 1,5 C1,5 33,5 33,5 C33,5 33,20 33,20 Z"></path>
                    </g>
                    <g transform="translate(1.000000, 10.500000)" fill="#BCC1C5" id="Path">
                        <path d="M25,0.5 C25,0.5 24.9640002,0.5 24.9640002,0.5 C24.9640002,0.5 0,0.5 0,0.5 C0,0.5 0,5.5 0,5.5 C0,5.5 17,5.5 17,5.5 C17,5.5 17,6.5 17,6.5 C17,6.5 0,6.5 0,6.5 C0,6.5 0,11.5 0,11.5 C0,11.5 9,11.5 9,11.5 C9,11.5 9,12.5 9,12.5 C9,12.5 0,12.5 0,12.5 C0,12.5 0,17.5 0,17.5 C0,17.5 34,17.5 34,17.5 C34,17.5 34,12.5 34,12.5 C34,12.5 9.02600002,12.5 9.02600002,12.5 C9.02600002,12.5 9.02600002,11.5 9.02600002,11.5 C9.02600002,11.5 34,11.5 34,11.5 C34,11.5 34,6.5 34,6.5 C34,6.5 17.026,6.5 17.026,6.5 C17.026,6.5 17.026,5.5 17.026,5.5 C17.026,5.5 34,5.5 34,5.5 C34,5.5 34,0.5 34,0.5 C34,0.5 25,0.5 25,0.5 Z"></path>
                    </g>
                    <g transform="translate(18.013000, 15.500000)" fill="#4285F4" id="Path">
                        <path d="M0.0129995346,0.5 C0.0129995346,0.5 0.0129995346,1.5 0.0129995346,1.5 C0.0129995346,1.5 16.987,1.5 16.987,1.5 C16.987,1.5 17.987,1.5 17.987,1.5 C19.299,1.5 20.5700002,1.97000003 21.5669999,2.824 C21.5669999,2.824 25.1960001,5.93599999 25.1960001,5.93599999 C26.3730001,6.94400001 27.875,7.5 29.4259996,7.5 C29.4259996,7.5 31.9870005,7.5 31.9870005,7.5 C31.9870005,7.5 31.9870005,6.5 31.9870005,6.5 C31.9870005,6.5 29.4259996,6.5 29.4259996,6.5 C28.1140003,6.5 26.8430004,6.02999997 25.8459997,5.176 C25.8459997,5.176 22.217,2.06400001 22.217,2.06400001 C21.039,1.05599999 19.5369999,0.5 17.987,0.5 C17.987,0.5 16.987,0.5 16.987,0.5 C16.987,0.5 0.0129995346,0.5 0.0129995346,0.5 Z"></path>
                    </g>
                    <g transform="translate(10.013000, 21.500000)" fill="#4285F4" id="Path">
                        <path d="M0.0130004883,0.5 C0.0130004883,0.5 0.0130004883,1.5 0.0130004883,1.5 C0.0130004883,1.5 24.987,1.5 24.987,1.5 C24.987,1.5 25.987,1.5 25.987,1.5 C27.2989998,1.5 28.5699997,1.97000003 29.5670004,2.824 C29.5670004,2.824 33.1960001,5.93599999 33.1960001,5.93599999 C34.3730001,6.94400001 35.875,7.5 37.4260006,7.5 C37.4260006,7.5 39.9869995,7.5 39.9869995,7.5 C39.9869995,7.5 39.9869995,6.5 39.9869995,6.5 C39.9869995,6.5 37.4260006,6.5 37.4260006,6.5 C36.1140003,6.5 34.8430004,6.02999997 33.8459997,5.176 C33.8459997,5.176 30.217,2.06400001 30.217,2.06400001 C29.0389996,1.05599999 27.5370002,0.5 25.987,0.5 C25.987,0.5 24.987,0.5 24.987,0.5 C24.987,0.5 0.0130004883,0.5 0.0130004883,0.5 Z"></path>
                    </g>
                    <g transform="translate(0.500000, 27.500000)" fill="#4285F4" id="Path">
                        <path d="M0.5,0.5 C0.5,0.5 0.5,1.5 0.5,1.5 C0.5,1.5 34.5,1.5 34.5,1.5 C34.5,1.5 35.5,1.5 35.5,1.5 C36.8129997,1.5 38.0830002,1.97000003 39.0799999,2.824 C39.0799999,2.824 42.7089996,5.93599999 42.7089996,5.93599999 C43.8869991,6.94400001 45.3889999,7.5 46.9389992,7.5 C46.9389992,7.5 49.5,7.5 49.5,7.5 C49.5,7.5 49.5,6.5 49.5,6.5 C49.5,6.5 46.9389992,6.5 46.9389992,6.5 C45.6270008,6.5 44.3560009,6.02999997 43.3589993,5.176 C43.3589993,5.176 39.7299995,2.06400001 39.7299995,2.06400001 C38.5530005,1.05599999 37.0509996,0.5 35.5,0.5 C35.5,0.5 34.5,0.5 34.5,0.5 C34.5,0.5 0.5,0.5 0.5,0.5 Z"></path>
                    </g>
                    <g transform="translate(24.981998, 9.500000)" fill="#4285F4" id="Path">
                        <path d="M1.01799965,0.5 C1.01799965,0.5 0.982000351,0.5 0.982000351,0.5 C0.982000351,0.5 0.982000351,1.5 0.982000351,1.5 C0.982000351,1.5 1.01799965,1.5 1.01799965,1.5 C1.01799965,1.5 10.0179999,1.5 10.0179999,1.5 C10.0179999,1.5 11.018,1.5 11.018,1.5 C12.331,1.5 13.601,1.97000003 14.598,2.824 C14.598,2.824 18.2270002,5.93599999 18.2270002,5.93599999 C19.4050002,6.94400001 20.9070001,7.5 22.4569998,7.5 C22.4569998,7.5 25.0179996,7.5 25.0179996,7.5 C25.0179996,7.5 25.0179996,6.5 25.0179996,6.5 C25.0179996,6.5 22.4569998,6.5 22.4569998,6.5 C21.1450005,6.5 19.8740001,6.02999997 18.8769999,5.176 C18.8769999,5.176 15.2479999,2.06400001 15.2479999,2.06400001 C14.071,1.05599999 12.569,0.5 11.018,0.5 C11.018,0.5 10.0179999,0.5 10.0179999,0.5 C10.0179999,0.5 1.01799965,0.5 1.01799965,0.5 Z"></path>
                    </g>
                </g>
            </g>
        </g>
    </g>
</svg>
