<?xml version="1.0" encoding="UTF-8"?>
<svg width="100px" height="100px" viewBox="0 0 100 100" version="1.1" xmlns="http://www.w3.org/2000/svg" xmlns:xlink="http://www.w3.org/1999/xlink">
    <!-- Generator: Sketch 56.3 (81716) - https://sketch.com -->
    <title>icn_kettle</title>
    <desc>Created with Sketch.</desc>
    <defs>
        <filter x="-28.8%" y="-28.8%" width="157.5%" height="157.5%" filterUnits="objectBoundingBox" id="filter-1">
            <feOffset dx="0" dy="2" in="SourceAlpha" result="shadowOffsetOuter1"></feOffset>
            <feGaussianBlur stdDeviation="5" in="shadowOffsetOuter1" result="shadowBlurOuter1"></feGaussianBlur>
            <feColorMatrix values="0 0 0 0 0   0 0 0 0 0   0 0 0 0 0  0 0 0 0.5 0" type="matrix" in="shadowBlurOuter1" result="shadowMatrixOuter1"></feColorMatrix>
            <feMerge>
                <feMergeNode in="shadowMatrixOuter1"></feMergeNode>
                <feMergeNode in="SourceGraphic"></feMergeNode>
            </feMerge>
        </filter>
    </defs>
    <g id="Icons" stroke="none" stroke-width="1" fill="none" fill-rule="evenodd">
        <g transform="translate(-390.000000, -592.000000)" id="icn_kettle">
            <g filter="url(#filter-1)" transform="translate(400.000000, 600.000000)">
                <rect id="Rectangle" fill="#FFFFFF" x="0" y="0" width="80" height="80" rx="10"></rect>
                <g id="Group" transform="translate(15.000000, 13.000000)" fill-rule="nonzero">
                    <g transform="translate(2.000000, 50.000000)" fill="#BCC1C5" id="Path">
                        <path d="M6,6 C6,6 40,6 40,6 C43.3129997,6 46,3.31299999 46,0 C46,0 0,0 0,0 C0,3.31299999 2.68700027,6 6,6 Z"></path>
                    </g>
                    <g transform="translate(2.000000, 40.500000)" fill="#4285F4" id="Path">
                        <path d="M3.99200058,0.5 C3.99200058,0.5 2.94000053,0.5 2.94000053,0.5 C2.94000053,0.5 0,9.5 0,9.5 C0,9.5 46,9.5 46,9.5 C46,9.5 43.0599995,0.5 43.0599995,0.5 C43.0599995,0.5 42.0079994,0.5 42.0079994,0.5 C42.0079994,0.5 3.99200058,0.5 3.99200058,0.5 Z"></path>
                    </g>
                    <g transform="translate(0.000000, 3.500000)" fill="#BCC1C5" id="Shape">
                        <path d="M51.1749992,8.5 C46.8209991,8.5 42.8509998,10.7089996 40.5550003,14.408 C40.5550003,14.408 38.5959997,17.564 38.5959997,17.564 C38.5860004,17.581 38.573,17.595 38.5629997,17.6109999 C38.5629997,17.6109999 35.5869999,8.5 35.5869999,8.5 C35.5869999,8.5 35.5839996,8.49300003 35.5839996,8.49300003 C35.5839996,8.49300003 35.573,8.49300003 35.573,8.49300003 C34.2639999,3.88199997 30.0309999,0.5 25,0.5 C19.9689999,0.5 15.7360001,3.88199997 14.427,8.49300003 C14.427,8.49300003 14.4160004,8.49300003 14.4160004,8.49300003 C14.4160004,8.49300003 14.4139996,8.5 14.4139996,8.5 C14.4139996,8.5 13.0430002,12.697 13.0430002,12.697 C12.3800001,12.572 11.6990004,12.5 11,12.5 C4.92499924,12.5 0,17.425 0,23.5 C0,27.8809996 2.56699944,31.651 6.27300072,33.4209995 C6.27300072,33.4209995 4.94000053,37.5 4.94000053,37.5 C4.94000053,37.5 5.99200058,37.5 5.99200058,37.5 C5.99200058,37.5 8.66799927,29.3109999 8.66799927,29.3109999 C8.66799927,29.3109999 15.1389999,9.5 15.1389999,9.5 C15.1389999,9.5 34.8610001,9.5 34.8610001,9.5 C34.8610001,9.5 37.842,18.624 37.842,18.624 C35.6730003,21.381 32.3930001,23 28.825,23 C28.825,23 27,23 27,23 C27,23 27,24 27,24 C27,24 28.825,24 28.825,24 C32.4819999,24 35.8540001,22.427 38.2049999,19.736 C38.2049999,19.736 41.3330002,29.3109999 41.3330002,29.3109999 C41.3330002,29.3109999 44.0079994,37.5 44.0079994,37.5 C44.0079994,37.5 45.0599995,37.5 45.0599995,37.5 C45.0599995,37.5 42.283,29 42.283,29 C42.283,29 38.948,18.791 38.948,18.791 C39.1149998,18.559 39.2930002,18.338 39.4460001,18.092 C39.4460001,18.092 41.4049997,14.9359999 41.4049997,14.9359999 C43.5170002,11.5310001 47.1700001,9.5 51.1749992,9.5 C51.1749992,9.5 54,9.5 54,9.5 C54,9.5 54,8.5 54,8.5 C54,8.5 51.1749992,8.5 51.1749992,8.5 Z M7.71699905,29 C7.71699905,29 6.58699989,32.46 6.58699989,32.46 C3.28300095,30.8249998 1,27.4289999 1,23.5 C1,17.9859999 5.48600006,13.5 11,13.5 C11.5909996,13.5 12.1660004,13.5619998 12.7279997,13.6599998 C12.7279997,13.6599998 7.71699905,29 7.71699905,29 Z"></path>
                    </g>
                    <g transform="translate(23.000000, 0.000000)" fill="#BCC1C5" id="Path">
                        <path d="M4,2 C4,0.896000028 3.10399997,0 2,0 C0.896000028,0 0,0.896000028 0,2 C0,3.10399997 0.896000028,4 2,4 C3.10399997,4 4,3.10399997 4,2 Z"></path>
                    </g>
                </g>
            </g>
        </g>
    </g>
</svg>
