<?xml version="1.0" encoding="UTF-8"?>
<svg width="100px" height="100px" viewBox="0 0 100 100" version="1.1" xmlns="http://www.w3.org/2000/svg" xmlns:xlink="http://www.w3.org/1999/xlink">
    <!-- Generator: Sketch 56.3 (81716) - https://sketch.com -->
    <title>icn_chromecast_audio_offline</title>
    <desc>Created with Sketch.</desc>
    <defs>
        <filter x="-28.8%" y="-28.8%" width="157.5%" height="157.5%" filterUnits="objectBoundingBox" id="filter-1">
            <feOffset dx="0" dy="2" in="SourceAlpha" result="shadowOffsetOuter1"></feOffset>
            <feGaussianBlur stdDeviation="5" in="shadowOffsetOuter1" result="shadowBlurOuter1"></feGaussianBlur>
            <feColorMatrix values="0 0 0 0 0   0 0 0 0 0   0 0 0 0 0  0 0 0 0.5 0" type="matrix" in="shadowBlurOuter1" result="shadowMatrixOuter1"></feColorMatrix>
            <feMerge>
                <feMergeNode in="shadowMatrixOuter1"></feMergeNode>
                <feMergeNode in="SourceGraphic"></feMergeNode>
            </feMerge>
        </filter>
    </defs>
    <g id="Icons" stroke="none" stroke-width="1" fill="none" fill-rule="evenodd">
        <g transform="translate(-490.000000, -92.000000)" id="icn_chromecast_audio_offline">
            <g filter="url(#filter-1)" transform="translate(500.000000, 100.000000)">
                <rect id="Rectangle" fill="#FFFFFF" x="0" y="0" width="80" height="80" rx="10"></rect>
                <g id="Group" transform="translate(19.000000, 11.000000)" fill="#BCC1C5" fill-rule="nonzero">
                    <g transform="translate(27.127998, 44.807999)" id="Path">
                        <path d="M0.139999986,1.41000009 C0.576999992,3.27200001 0.824000001,5.20599997 0.859999999,7.19099998 C0.859999999,7.19099998 1.86000001,7.19099998 1.86000001,7.19099998 C1.82200003,4.995 1.537,2.85899997 1.027,0.809000015 C0.740999997,1.023 0.44599998,1.22300005 0.139999986,1.41000009 Z"></path>
                    </g>
                    <g transform="translate(0.063000, 23.851999)" id="Path">
                        <path d="M13.0630002,3.10699999 C9.39599991,1.287 5.28400004,0.235999942 0.936999798,0.161000013 C0.936999798,0.161000013 0.936999798,1.16100001 0.936999798,1.16100001 C4.99499989,1.23400003 8.84200001,2.184 12.2919998,3.83899999 C12.5380001,3.58399999 12.796,3.34000003 13.0630002,3.10699999 Z"></path>
                    </g>
                    <g transform="translate(0.025000, 32.556999)" id="Path">
                        <path d="M8.9749999,3.44299996 C8.9749999,3.10599995 8.99799991,2.77499998 9.0250001,2.44499999 C6.58099997,1.24599999 3.85800004,0.542999983 0.974999905,0.468000054 C0.974999905,0.468000054 0.974999905,1.46800005 0.974999905,1.46800005 C3.85500002,1.546 6.57099998,2.278 8.97900009,3.53100002 C8.97900009,3.50199997 8.9749999,3.472 8.9749999,3.44299996 Z"></path>
                    </g>
                    <g transform="translate(18.160000, 46.848000)" id="Path">
                        <path d="M0.185000002,0.84800005 C0.557000011,2.227 0.775000006,3.66500002 0.814999998,5.15199995 C0.814999998,5.15199995 1.815,5.15199995 1.815,5.15199995 C1.77899998,3.73699999 1.58899999,2.36299998 1.266,1.03600001 C0.899999999,0.989000082 0.539000005,0.927999973 0.185000002,0.84800005 Z"></path>
                    </g>
                    <g transform="translate(0.987000, 42.013000)" id="Path">
                        <path d="M0.0120000839,0.0120000839 C0.0120000839,0.0120000839 0.0120000839,1.01200008 0.0120000839,1.01200008 C4.851,1.26600003 8.73399997,5.149 8.98799992,9.98799992 C8.98799992,9.98799992 9.98799992,9.98799992 9.98799992,9.98799992 C9.73199987,4.59799999 5.40200001,0.268000126 0.0120000839,0.0120000839 Z"></path>
                    </g>
                    <g transform="translate(13.000000, 4.000000)" id="Shape">
                        <path d="M8,0 C3.58199978,0 0,3.58199978 0,8 C0,12.4180002 3.58199978,16 8,16 C12.4180002,16 16,12.4180002 16,8 C16,3.58199978 12.4180002,0 8,0 Z M8,12 C5.79099989,12 4,10.2090001 4,8 C4,5.79099989 5.79099989,4 8,4 C10.2090001,4 12,5.79099989 12,8 C12,10.2090001 10.2090001,12 8,12 Z"></path>
                    </g>
                    <g transform="translate(18.000000, 9.000000)" id="Path">
                        <path d="M3,0 C1.34599996,0 0,1.34599996 0,3 C0,4.65400004 1.34599996,6 3,6 C4.65400004,6 6,4.65400004 6,3 C6,1.34599996 4.65400004,0 3,0 Z"></path>
                    </g>
                    <g id="Shape">
                        <path d="M36,0 C36,0 6,0 6,0 C2.68600082,0 0,2.68700027 0,6 C0,6 0,52 0,52 C0,55.3129997 2.68600082,58 6,58 C6,58 36,58 36,58 C39.3129997,58 42,55.3129997 42,52 C42,52 42,6 42,6 C42,2.68700027 39.3129997,0 36,0 Z M28.987,52 C28.987,52 27.987,52 27.987,52 C27.987,52 19.974,52 19.974,52 C19.974,52 18.974,52 18.974,52 C18.974,52 10.974,52 10.974,52 C10.974,52 9.97399998,52 9.97399998,52 C9.97399998,52 1,52 1,52 C1,52 1,43.0249996 1,43.0249996 C1,43.0249996 1,42.0249996 1,42.0249996 C1,42.0249996 1,34.0250001 1,34.0250001 C1,34.0250001 1,33.0250001 1,33.0250001 C1,33.0250001 1,25.013 1,25.013 C1,25.013 1,24.013 1,24.013 C1,24.013 1,6 1,6 C1,3.24300003 3.24300003,1 6,1 C6,1 36,1 36,1 C38.757,1 41,3.24300003 41,6 C41,6 41,52 41,52 C41,52 28.987,52 28.987,52 Z"></path>
                    </g>
                    <g transform="translate(17.000000, 32.000000)" id="Path">
                        <path d="M0,4 C0,6.20499992 1.79399991,8 4,8 C6.20600009,8 8,6.20499992 8,4 C8,1.79500008 6.20600009,0 4,0 C1.79399991,0 0,1.79500008 0,4 Z"></path>
                    </g>
                    <g transform="translate(9.000000, 24.000000)" id="Shape">
                        <path d="M3.35499954,3.68999958 C1.49800014,5.62200022 0.284000397,8.171 0.0500001907,11.002 C0.0229997635,11.332 0,11.663 0,12 C0,12.029 0.00399971008,12.059 0.00399971008,12.088 C0.045999527,17.7620001 4.0250001,22.4919996 9.34500003,23.6949997 C9.69899988,23.7749996 10.0599999,23.8369999 10.425,23.8850002 C10.942,23.9530001 11.465,24 12,24 C14.3,24 16.4419999,23.342 18.2680001,22.2189999 C18.573,22.0310001 18.868,21.8310003 19.1550002,21.6169996 C22.0900002,19.4299998 24,15.9419999 24,12 C24,5.37300014 18.6269999,0 12,0 C8.98300004,0 6.23400021,1.12100029 4.12599993,2.95899963 C3.85900021,3.19200039 3.60099983,3.43500042 3.35499954,3.68999958 Z M12,7 C14.7609999,7 17,9.23799992 17,12 C17,14.7620001 14.7609999,17 12,17 C9.23900008,17 7,14.7620001 7,12 C7,9.23799992 9.23900008,7 12,7 Z"></path>
                    </g>
                </g>
            </g>
        </g>
    </g>
</svg>
