<?xml version="1.0" encoding="UTF-8"?>
<svg width="100px" height="100px" viewBox="0 0 100 100" version="1.1" xmlns="http://www.w3.org/2000/svg" xmlns:xlink="http://www.w3.org/1999/xlink">
    <!-- Generator: Sketch 56.3 (81716) - https://sketch.com -->
    <title>icn_playstation</title>
    <desc>Created with Sketch.</desc>
    <defs>
        <filter x="-28.8%" y="-28.8%" width="157.5%" height="157.5%" filterUnits="objectBoundingBox" id="filter-1">
            <feOffset dx="0" dy="2" in="SourceAlpha" result="shadowOffsetOuter1"></feOffset>
            <feGaussianBlur stdDeviation="5" in="shadowOffsetOuter1" result="shadowBlurOuter1"></feGaussianBlur>
            <feColorMatrix values="0 0 0 0 0   0 0 0 0 0   0 0 0 0 0  0 0 0 0.5 0" type="matrix" in="shadowBlurOuter1" result="shadowMatrixOuter1"></feColorMatrix>
            <feMerge>
                <feMergeNode in="shadowMatrixOuter1"></feMergeNode>
                <feMergeNode in="SourceGraphic"></feMergeNode>
            </feMerge>
        </filter>
    </defs>
    <g id="Page-1" stroke="none" stroke-width="1" fill="none" fill-rule="evenodd">
        <g id="icn_playstation" filter="url(#filter-1)" transform="translate(10.000000, 8.000000)">
            <rect id="Rectangle" fill="#FFFFFF" x="0" y="0" width="80" height="80" rx="10"></rect>
            <g id="PlayStation_logo" transform="translate(7.000000, 14.000000)" fill="#BCC1C5">
                <path d="M66.4041542,39.7988215 C65.095387,41.4592106 61.8889091,42.6436721 61.8889091,42.6436721 C61.8889091,42.6436721 38.0358632,51.2593275 38.0358632,51.2593275 C38.0358632,51.2593275 38.0358632,44.9054741 38.0358632,44.9054741 C38.0358632,44.9054741 55.5900834,38.6158913 55.5900834,38.6158913 C57.5821491,37.8981769 57.8880345,36.883579 56.2688171,36.3510302 C54.6526417,35.8169501 51.7261798,35.9699839 49.7325914,36.6907607 C49.7325914,36.6907607 38.0358632,40.8333151 38.0358632,40.8333151 C38.0358632,40.8333151 38.0358632,34.2391994 38.0358632,34.2391994 C38.0358632,34.2391994 38.7100321,34.0096522 38.7100321,34.0096522 C38.7100321,34.0096522 42.0899994,32.8068276 46.8426513,32.2773399 C51.5953031,31.7509122 57.4147472,32.3492645 61.9832607,34.0907593 C67.1315847,35.7266625 67.7113987,38.1384358 66.4041542,39.7988215 Z M40.3064256,28.9795175 C40.3064256,28.9795175 40.3064256,12.7306655 40.3064256,12.7306655 C40.3064256,10.8223672 39.9564047,9.06556894 38.1758729,8.56821714 C36.8123214,8.12901708 35.9661858,9.40223634 35.9661858,11.3090045 C35.9661858,11.3090045 35.9661858,52 35.9661858,52 C35.9661858,52 25.0532007,48.517011 25.0532007,48.517011 C25.0532007,48.517011 25.0532007,0 25.0532007,0 C29.693236,0.866157847 36.4531676,2.91371472 40.0872814,4.14561686 C49.3293089,7.33631501 52.4627399,11.3074763 52.4627399,20.2552099 C52.4627399,28.9764571 47.1089695,32.2819305 40.3064256,28.9795175 L40.3064256,28.9795175 Z M5.02906203,44.2413185 C-0.256226712,42.7446749 -1.13583997,39.6258989 1.27320464,37.8293127 C3.49963101,36.1704548 7.28592457,34.9217195 7.28592457,34.9217195 C7.28592457,34.9217195 22.9333003,29.3268983 22.9333003,29.3268983 C22.9333003,29.3268983 22.9333003,35.705239 22.9333003,35.705239 C22.9333003,35.705239 11.6733381,39.7575057 11.6733381,39.7575057 C9.68431649,40.4752201 9.37843002,41.4913493 10.9946054,42.0238981 C12.6123025,42.5564435 15.5402888,42.4049444 17.5323541,41.6856988 C17.5323541,41.6856988 22.9333003,39.7146553 22.9333003,39.7146553 C22.9333003,39.7146553 22.9333003,45.4211897 22.9333003,45.4211897 C22.5908921,45.4824012 22.2089139,45.5436126 21.855851,45.6032962 C16.4533821,46.4908776 10.6993719,46.120543 5.02906203,44.2413185 L5.02906203,44.2413185 Z" id="path-1"></path>
            </g>
        </g>
    </g>
</svg>
