<?xml version="1.0" encoding="UTF-8"?>
<svg width="100px" height="100px" viewBox="0 0 100 100" version="1.1" xmlns="http://www.w3.org/2000/svg" xmlns:xlink="http://www.w3.org/1999/xlink">
    <!-- Generator: Sketch 56.3 (81716) - https://sketch.com -->
    <title>icn_vacuum</title>
    <desc>Created with Sketch.</desc>
    <defs>
        <filter x="-28.8%" y="-28.8%" width="157.5%" height="157.5%" filterUnits="objectBoundingBox" id="filter-1">
            <feOffset dx="0" dy="2" in="SourceAlpha" result="shadowOffsetOuter1"></feOffset>
            <feGaussianBlur stdDeviation="5" in="shadowOffsetOuter1" result="shadowBlurOuter1"></feGaussianBlur>
            <feColorMatrix values="0 0 0 0 0   0 0 0 0 0   0 0 0 0 0  0 0 0 0.5 0" type="matrix" in="shadowBlurOuter1" result="shadowMatrixOuter1"></feColorMatrix>
            <feMerge>
                <feMergeNode in="shadowMatrixOuter1"></feMergeNode>
                <feMergeNode in="SourceGraphic"></feMergeNode>
            </feMerge>
        </filter>
    </defs>
    <g id="Icons" stroke="none" stroke-width="1" fill="none" fill-rule="evenodd">
        <g transform="translate(-390.000000, -1392.000000)" id="icn_vacuum">
            <g filter="url(#filter-1)" transform="translate(400.000000, 1400.000000)">
                <rect id="Rectangle" fill="#FFFFFF" x="0" y="0" width="80" height="80" rx="10"></rect>
                <g id="Group" transform="translate(25.000000, 11.000000)" fill-rule="nonzero">
                    <g transform="translate(7.111000, 44.111000)" fill="#BCC1C5" id="Path">
                        <path d="M0.110999942,0.110999942 C0.110999942,0.110999942 0.110999942,0.110999942 0.110999942,0.110999942 C0.110999942,0.110999942 3.88900006,3.88900006 3.88900006,3.88900006 C3.88900006,3.88900006 0.110999942,0.110999942 0.110999942,0.110999942 Z"></path>
                    </g>
                    <g transform="translate(11.500000, 48.500000)" fill="#BCC1C5" id="Path">
                        <path d="M0.5,0.5 C0.5,0.5 0.5,0.5 0.5,0.5 C0.5,0.5 3.5,3.5 3.5,3.5 C3.5,3.5 0.5,0.5 0.5,0.5 Z"></path>
                    </g>
                    <g transform="translate(16.472000, 48.528000)" fill="#BCC1C5" id="Path">
                        <path d="M0.47299999,1.528 C0.47299999,1.528 1.52700001,0.472000003 1.52700001,0.472000003 C1.52700001,0.472000003 0.47299999,1.528 0.47299999,1.528 Z"></path>
                    </g>
                    <g transform="translate(18.500000, 39.356998)" fill="#BCC1C5" id="Path">
                        <path d="M4.27799988,4.86500001 C4.27799988,4.86500001 0.5,8.64300001 0.5,8.64300001 C0.5,8.64300001 4.27799988,4.86500001 4.27799988,4.86500001 C4.90199995,4.2420001 5.44000006,3.53700018 5.9000001,2.77899981 C8.45200002,8.727 13.3840001,13.4229999 19.5,15.6430001 C19.5,15.6430001 19.5,14.573 19.5,14.573 C13.5469999,12.3000002 8.80799997,7.565 6.51200008,1.62400007 C6.69899988,1.21400023 6.86999989,0.793000221 7.00500011,0.356999874 C6.4690001,2.07999992 5.52199984,3.62099981 4.27799988,4.86500001 Z"></path>
                    </g>
                    <g transform="translate(4.000000, 7.465000)" fill="#BCC1C5" id="Shape">
                        <path d="M7,23.5349998 C7,23.5349998 8,23.5349998 8,23.5349998 C8,23.5349998 14,23.5349998 14,23.5349998 C14,23.5349998 15,23.5349998 15,23.5349998 C15,23.5349998 22,23.5349998 22,23.5349998 C22,23.5349998 22,16.5349998 22,16.5349998 C22,13.498 20.7690001,10.748 18.7779999,8.75699997 C16.8979998,6.87699986 14.3369999,5.6880002 11.5,5.55999994 C11.5,5.55999994 11.5,0.465000153 11.5,0.465000153 C11.339,0.505999565 11.174,0.534999847 11,0.534999847 C10.826,0.534999847 10.661,0.505999565 10.5,0.465000153 C10.5,0.465000153 10.5,5.55999994 10.5,5.55999994 C7.66300011,5.6880002 5.10200024,6.87699986 3.22200012,8.75699997 C1.23099995,10.748 0,13.498 0,16.5349998 C0,16.5349998 0,23.5349998 0,23.5349998 C0,23.5349998 7,23.5349998 7,23.5349998 Z M1,16.5349998 C1,13.864 2.04100037,11.352 3.9289999,9.46399999 C5.81799984,7.57499981 8.329,6.53499985 11,6.53499985 C13.671,6.53499985 16.1830001,7.57499981 18.0710001,9.46399999 C19.96,11.352 21,13.864 21,16.5349998 C21,16.5349998 21,18.9720001 21,18.9720001 C20.4510002,17.77 19.7010002,16.6799998 18.7779999,15.757 C16.7880001,13.766 14.0380001,12.5349998 11,12.5349998 C7.96199989,12.5349998 5.21199989,13.766 3.22200012,15.757 C2.29899979,16.6799998 1.54899979,17.77 1,18.9720001 C1,18.9720001 1,16.5349998 1,16.5349998 Z"></path>
                    </g>
                    <g transform="translate(0.000000, 52.000000)" fill="#BCC1C5" id="Path">
                        <path d="M6,0 C2.68700027,0 0,2.68700001 0,6 C0,6 30,6 30,6 C30,2.68700001 27.3140001,0 24,0 C24,0 15,0 15,0 C15,0 6,0 6,0 Z"></path>
                    </g>
                    <g transform="translate(13.000000, 0.000000)" fill="#34A852" id="Path">
                        <path d="M2.5,7.93000007 C3.36099994,7.70600009 4,6.93099999 4,6 C4,6 4,2 4,2 C4,0.895999908 3.10399997,0 2,0 C0.896000028,0 0,0.895999908 0,2 C0,2 0,6 0,6 C0,6.93099999 0.639000058,7.70600009 1.5,7.93000007 C1.66100001,7.97099996 1.82600001,8 2,8 C2.17399999,8 2.33899999,7.97099996 2.5,7.93000007 Z"></path>
                    </g>
                    <g transform="translate(18.500000, 30.500000)" fill="#34A852" id="Path">
                        <path d="M0.5,0.5 C0.5,0.5 0.5,17.5 0.5,17.5 C0.5,17.5 4.278,13.7220001 4.278,13.7220001 C5.52199996,12.4779999 6.47000003,10.938 7.00500011,9.215 C7.11299992,8.87 7.20300007,8.51899999 7.27699995,8.16000003 C7.4230001,7.44400001 7.5,6.70300007 7.5,5.94300008 C7.5,5.94300008 7.5,0.5 7.5,0.5 C7.5,0.5 0.5,0.5 0.5,0.5 Z"></path>
                    </g>
                    <g transform="translate(12.000000, 30.500000)" fill="#34A852" id="Path">
                        <path d="M6,0.5 C6,0.5 0,0.5 0,0.5 C0,0.5 0,18.5 0,18.5 C0,18.5 3,21.5 3,21.5 C3,21.5 4.94500005,19.5559998 4.94500005,19.5559998 C4.94500005,19.5559998 6,18.5 6,18.5 C6,18.5 6,0.5 6,0.5 Z"></path>
                    </g>
                    <g transform="translate(3.500000, 30.500000)" fill="#34A852" id="Path">
                        <path d="M7.5,0.5 C7.5,0.5 0.5,0.5 0.5,0.5 C0.5,0.5 0.5,5.94300008 0.5,5.94300008 C0.5,5.94300008 0.5,6.94300008 0.5,6.94300008 C0.5,8.981 1.73099995,11.7309999 3.722,13.7220001 C3.722,13.7220001 7.5,17.5 7.5,17.5 C7.5,17.5 7.5,0.5 7.5,0.5 Z"></path>
                    </g>
                </g>
            </g>
        </g>
    </g>
</svg>
