<svg width="1021" height="794" xmlns="http://www.w3.org/2000/svg" xmlns:xlink="http://www.w3.org/1999/xlink" overflow="hidden"><defs><clipPath id="clip0"><path d="M0 0 1021 0 1021 794 0 794Z" fill-rule="evenodd" clip-rule="evenodd"/></clipPath><linearGradient x1="68.9952" y1="0" x2="68.9952" y2="37" gradientUnits="userSpaceOnUse" spreadMethod="reflect" id="fill1"><stop offset="0" stop-color="#C5E0B4"/><stop offset="0.27" stop-color="#C5E0B4"/><stop offset="1" stop-color="#FFFFFF" stop-opacity="0"/></linearGradient></defs><g clip-path="url(#clip0)"><path d="M0 37 22.1382 0 115.852 0 137.99 37Z" fill="url(#fill1)" fill-rule="evenodd" transform="matrix(-1.00007 -8.74289e-08 8.74228e-08 -1 286 380)"/><rect x="0" y="0" width="913.936" height="709" stroke="#7E7E7E" stroke-width="5.99958" stroke-miterlimit="8" fill="none" transform="matrix(1.00007 0 -0 1 53 42)"/><path d="M0 0 0.000105031 127.356" stroke="#7E7E7E" stroke-width="3.99968" stroke-miterlimit="8" fill="none" fill-rule="evenodd" transform="matrix(1.00007 0 -0 1 185 42)"/><path d="M0 0-25.2358-0.000105031" stroke="#7E7E7E" stroke-width="3.99968" stroke-miterlimit="8" fill="none" fill-rule="evenodd" transform="matrix(1.00007 8.74289e-08 8.74228e-08 -1 78.2376 170)"/><path d="M0 0-334.365-0.000105031" stroke="#7E7E7E" stroke-width="3.99968" stroke-miterlimit="8" fill="none" fill-rule="evenodd" transform="matrix(1.00007 8.74289e-08 8.74228e-08 -1 497.389 170)"/><path d="M0 0 0.000105031 34.0143" stroke="#7E7E7E" stroke-width="3.99968" stroke-miterlimit="8" fill="none" fill-rule="evenodd" transform="matrix(1.00007 0 -0 1 495 170)"/><path d="M0 0 0.000105031 140.559" stroke="#7E7E7E" stroke-width="3.99968" stroke-miterlimit="8" fill="none" fill-rule="evenodd" transform="matrix(1.00007 0 -0 1 425 170)"/><path d="M0 0-72.4481-0.000105031" stroke="#7E7E7E" stroke-width="3.99968" stroke-miterlimit="8" fill="none" fill-rule="evenodd" transform="matrix(1.00007 8.74289e-08 8.74228e-08 -1 495.453 310)"/><path d="M0 0-0.000105031-28.0118" stroke="#7E7E7E" stroke-width="3.99968" stroke-miterlimit="8" fill="none" fill-rule="evenodd" transform="matrix(-1.00007 -0 -0 1 495 322.012)"/><path d="M0 0-441.911-0.000105031" stroke="#7E7E7E" stroke-width="3.99968" stroke-miterlimit="8" fill="none" fill-rule="evenodd" transform="matrix(1.00007 8.74289e-08 8.74228e-08 -1 494.942 415)"/><path d="M0 0-0.000105031-34.5145" stroke="#7E7E7E" stroke-width="3.99968" stroke-miterlimit="8" fill="none" fill-rule="evenodd" transform="matrix(-1.00007 -0 -0 1 495 432.515)"/><path d="M0 0-0.000105031-20.0081" stroke="#7E7E7E" stroke-width="3.99968" stroke-miterlimit="8" fill="none" fill-rule="evenodd" transform="matrix(-1.00007 -0 -0 1 495 544.008)"/><path d="M0 0 115.548 0.000105031" stroke="#7E7E7E" stroke-width="3.99968" stroke-miterlimit="8" fill="none" fill-rule="evenodd" transform="matrix(1.00007 0 -0 1 396 544)"/><path d="M0 0 0.000105031 207.132" stroke="#7E7E7E" stroke-width="3.99968" stroke-miterlimit="8" fill="none" fill-rule="evenodd" transform="matrix(1.00007 0 -0 1 396 542)"/><path d="M0 0-0.000105031-297.17" stroke="#7E7E7E" stroke-width="3.99968" stroke-miterlimit="8" fill="none" fill-rule="evenodd" transform="matrix(-1.00007 -0 -0 1 619 749.17)"/><path d="M0 0 16.0064 0.000105031" stroke="#7E7E7E" stroke-width="3.99968" stroke-miterlimit="8" fill="none" fill-rule="evenodd" transform="matrix(1.00007 0 -0 1 603 544)"/><path d="M0 0-0.000105031-320.937" stroke="#7E7E7E" stroke-width="3.99968" stroke-miterlimit="8" fill="none" fill-rule="evenodd" transform="matrix(-1.00007 -0 -0 1 619 362.937)"/><rect x="0" y="0" width="91.9935" height="30" stroke="#A6A6A6" stroke-width="2.99979" stroke-miterlimit="8" fill="#C5E0B4" transform="matrix(1.00007 0 -0 1 171.5 381.5)"/></g></svg>