<svg width="1021" height="794" xmlns="http://www.w3.org/2000/svg" xmlns:xlink="http://www.w3.org/1999/xlink"
     overflow="hidden">
    <defs>
        <clipPath id="clip0">
            <path d="M0 0 1021 0 1021 794 0 794Z" fill-rule="evenodd" clip-rule="evenodd"/>
        </clipPath>
        <linearGradient x1="206.986" y1="139" x2="0" y2="139" gradientUnits="userSpaceOnUse" spreadMethod="reflect"
                        id="fill1">
            <stop offset="0" stop-color="#FFF2CC"/>
            <stop offset="0.27" stop-color="#FFF2CC"/>
            <stop offset="1" stop-color="#FFFFFF" stop-opacity="0"/>
        </linearGradient>
    </defs>
    <g clip-path="url(#clip0)">
        <path d="M206.986 38.8812 206.986 104.007 0 278 0 0 161.313 0 206.986 38.8812Z" fill="url(#fill1)"
              fill-rule="evenodd" transform="matrix(1.00007 0 -0 1 704 45)"/>
        <path d="M0 0-0.000105031-146.133" stroke="#DADADA" stroke-width="2.99979" stroke-miterlimit="8" fill="none"
              fill-rule="evenodd" transform="matrix(-1.00007 -0 -0 1 700.5 280.633)"/>
        <path d="M0 1.25919C-1.52169e-16 0.563757 0.563756 -1.52169e-16 1.25918 -1.52169e-16L151.73 0C152.426 -1.52169e-16 152.989 0.563757 152.989 1.25919L152.989 14.7408C152.989 15.4362 152.426 16 151.73 16L1.25918 16C0.563756 16 1.52169e-16 15.4362 1.52169e-16 14.7408Z"
              stroke="#DADADA" stroke-width="2.99979" stroke-miterlimit="8" fill="none" fill-rule="evenodd"
              transform="matrix(1.00007 0 -0 1 624.5 47.5)"/>
        <rect x="0" y="0" width="82.9942" height="109" stroke="#DADADA" stroke-width="2.99979" stroke-miterlimit="8"
              fill="none" transform="matrix(1.00007 0 -0 1 739.5 161.5)"/>
        <rect x="0" y="0" width="37.9974" height="38" stroke="#DADADA" stroke-width="2.99979" stroke-miterlimit="8"
              fill="none" transform="matrix(1.00007 0 -0 1 787.5 52.5)"/>
        <rect x="0" y="0" width="37.9974" height="30" stroke="#DADADA" stroke-width="2.99979" stroke-miterlimit="8"
              fill="none" transform="matrix(1.00007 0 -0 1 914.5 49.5)"/>
        <rect x="0" y="0" width="37.9974" height="30" stroke="#DADADA" stroke-width="2.99979" stroke-miterlimit="8"
              fill="none" transform="matrix(1.00007 0 -0 1 914.5 352.5)"/>
        <rect x="0" y="0" width="43.9969" height="65" stroke="#DADADA" stroke-width="2.99979" stroke-miterlimit="8"
              fill="none" transform="matrix(1.00007 0 -0 1 911.5 281.5)"/>
        <rect x="0" y="0" width="43.9969" height="131" stroke="#DADADA" stroke-width="2.99979" stroke-miterlimit="8"
              fill="none" transform="matrix(1.00007 0 -0 1 911.5 150.5)"/>
        <rect x="0" y="0" width="43.9969" height="65" stroke="#DADADA" stroke-width="2.99979" stroke-miterlimit="8"
              fill="#FFF2CC" transform="matrix(1.00007 0 -0 1 911.5 85.5)"/>
        <path d="M2.99973 0 116 0 119 2.99979 119 5.99958 119 5.99958 0 5.99958 0 5.99958 0 2.99979Z" stroke="#DADADA"
              stroke-width="2.99979" stroke-miterlimit="8" fill="none" fill-rule="evenodd"
              transform="matrix(-4.37114e-08 1 -1.00007 -4.37144e-08 929.5 156.5)"/>
        <path d="M0 0 6.906 2.0063" stroke="#DADADA" stroke-width="2.99979" stroke-miterlimit="8" fill="none"
              fill-rule="evenodd" transform="matrix(1.00007 0 -0 1 916.5 173.5)"/>
        <path d="M0 0-15.5907-4.49648" stroke="#DADADA" stroke-width="2.99979" stroke-miterlimit="8" fill="none"
              fill-rule="evenodd" transform="matrix(-1.00007 -0 -0 1 929.5 175.997)"/>
        <path d="M0 0-6.906-2.0063" stroke="#DADADA" stroke-width="2.99979" stroke-miterlimit="8" fill="none"
              fill-rule="evenodd" transform="matrix(-1.00007 -0 -0 1 916.5 258.506)"/>
        <path d="M0 0 15.5907 4.49648" stroke="#DADADA" stroke-width="2.99979" stroke-miterlimit="8" fill="none"
              fill-rule="evenodd" transform="matrix(1.00007 0 -0 1 929.5 255.5)"/>
        <rect x="0" y="0" width="913.936" height="709" stroke="#7E7E7E" stroke-width="5.99958" stroke-miterlimit="8"
              fill="none" transform="matrix(1.00007 0 -0 1 53 42)"/>
        <path d="M0 0 0.000105031 127.356" stroke="#7E7E7E" stroke-width="3.99968" stroke-miterlimit="8" fill="none"
              fill-rule="evenodd" transform="matrix(1.00007 0 -0 1 185 42)"/>
        <path d="M0 0-25.2358-0.000105031" stroke="#7E7E7E" stroke-width="3.99968" stroke-miterlimit="8" fill="none"
              fill-rule="evenodd" transform="matrix(1.00007 8.74289e-08 8.74228e-08 -1 78.2376 170)"/>
        <path d="M0 0-334.365-0.000105031" stroke="#7E7E7E" stroke-width="3.99968" stroke-miterlimit="8" fill="none"
              fill-rule="evenodd" transform="matrix(1.00007 8.74289e-08 8.74228e-08 -1 497.389 170)"/>
        <path d="M0 0 0.000105031 34.0143" stroke="#7E7E7E" stroke-width="3.99968" stroke-miterlimit="8" fill="none"
              fill-rule="evenodd" transform="matrix(1.00007 0 -0 1 495 170)"/>
        <path d="M0 0 0.000105031 140.559" stroke="#7E7E7E" stroke-width="3.99968" stroke-miterlimit="8" fill="none"
              fill-rule="evenodd" transform="matrix(1.00007 0 -0 1 425 170)"/>
        <path d="M0 0-72.4481-0.000105031" stroke="#7E7E7E" stroke-width="3.99968" stroke-miterlimit="8" fill="none"
              fill-rule="evenodd" transform="matrix(1.00007 8.74289e-08 8.74228e-08 -1 495.453 310)"/>
        <path d="M0 0-0.000105031-28.0118" stroke="#7E7E7E" stroke-width="3.99968" stroke-miterlimit="8" fill="none"
              fill-rule="evenodd" transform="matrix(-1.00007 -0 -0 1 495 322.012)"/>
        <path d="M0 0-441.911-0.000105031" stroke="#7E7E7E" stroke-width="3.99968" stroke-miterlimit="8" fill="none"
              fill-rule="evenodd" transform="matrix(1.00007 8.74289e-08 8.74228e-08 -1 494.942 415)"/>
        <path d="M0 0-0.000105031-34.5145" stroke="#7E7E7E" stroke-width="3.99968" stroke-miterlimit="8" fill="none"
              fill-rule="evenodd" transform="matrix(-1.00007 -0 -0 1 495 432.515)"/>
        <path d="M0 0-0.000105031-20.0081" stroke="#7E7E7E" stroke-width="3.99968" stroke-miterlimit="8" fill="none"
              fill-rule="evenodd" transform="matrix(-1.00007 -0 -0 1 495 544.008)"/>
        <path d="M0 0 115.548 0.000105031" stroke="#7E7E7E" stroke-width="3.99968" stroke-miterlimit="8" fill="none"
              fill-rule="evenodd" transform="matrix(1.00007 0 -0 1 396 544)"/>
        <path d="M0 0 0.000105031 207.132" stroke="#7E7E7E" stroke-width="3.99968" stroke-miterlimit="8" fill="none"
              fill-rule="evenodd" transform="matrix(1.00007 0 -0 1 396 542)"/>
        <path d="M0 0-0.000105031-297.17" stroke="#7E7E7E" stroke-width="3.99968" stroke-miterlimit="8" fill="none"
              fill-rule="evenodd" transform="matrix(-1.00007 -0 -0 1 619 749.17)"/>
        <path d="M0 0 16.0064 0.000105031" stroke="#7E7E7E" stroke-width="3.99968" stroke-miterlimit="8" fill="none"
              fill-rule="evenodd" transform="matrix(1.00007 0 -0 1 603 544)"/>
        <path d="M0 0-0.000105031-320.937" stroke="#7E7E7E" stroke-width="3.99968" stroke-miterlimit="8" fill="none"
              fill-rule="evenodd" transform="matrix(-1.00007 -0 -0 1 619 362.937)"/>
        <path d="M0 0-126.764 0C-130.755 2.13235e-15-133.991-3.23534-133.991-7.22633L-133.991-71 0-71Z" stroke="#DADADA"
              stroke-width="2.99979" stroke-miterlimit="8" fill="none" fill-rule="evenodd"
              transform="matrix(-1.00007 -0 -0 1 640.5 134.5)"/>
    </g>
</svg>