<svg width="400" height="222" viewBox="0 0 400 222" fill="none" xmlns="http://www.w3.org/2000/svg">
<rect width="400" height="222" fill="white"/>
<path d="M194 87.5H194.5V118.5H163.5V118C163.5 101.155 177.155 87.5 194 87.5Z" stroke="black"/>
<line x1="164" y1="118.5" x2="194" y2="118.5" stroke="white"/>
<path d="M103.5 124V123.5H134.5V154.5H134C117.155 154.5 103.5 140.845 103.5 124Z" stroke="black"/>
<line x1="134.5" y1="154" x2="134.5" y2="124" stroke="white"/>
<path d="M56 87.5H55.5V118.5H86.5V118C86.5 101.155 72.8447 87.5 56 87.5Z" stroke="black"/>
<line y1="-0.5" x2="30" y2="-0.5" transform="matrix(-1 0 0 1 86 119)" stroke="white"/>
<path d="M210 87.5H209.5V118.5H240.5V118C240.5 101.155 226.845 87.5 210 87.5Z" stroke="black"/>
<line y1="-0.5" x2="30" y2="-0.5" transform="matrix(-1 0 0 1 240 119)" stroke="white"/>
<path d="M306.5 126V125.5H275.5V156.5H276C292.845 156.5 306.5 142.845 306.5 126Z" stroke="black"/>
<line y1="-0.5" x2="30" y2="-0.5" transform="matrix(0 -1 -1 0 275 156)" stroke="white"/>
<path d="M26.5 40.5V64.495C39.6339 64.2321 50.2321 53.6339 50.495 40.5H26.5Z" stroke="black"/>
<line y1="-0.5" x2="23" y2="-0.5" transform="matrix(0 -1 -1 0 26 64)" stroke="white"/>
<path d="M26.5 88.5L26.5 64.505C39.6339 64.7679 50.2321 75.3661 50.495 88.5H26.5Z" stroke="black"/>
<line x1="26.5" y1="65" x2="26.5" y2="88" stroke="white"/>
<rect x="-0.5" y="0.5" width="33" height="10" transform="matrix(-1 0 0 1 168 168)" fill="#ABABAB" stroke="#5F5F5F"/>
<path d="M168.5 211.5V180.007L151.769 211.5H168.5ZM150.637 211.5L167.869 179.063L135.5 193.777V211.5H150.637ZM135.5 192.678L166.692 178.5H135.5V192.678Z" fill="#ABABAB" stroke="#5F5F5F"/>
<rect x="-0.5" y="0.5" width="12" height="33" transform="matrix(-1 0 0 1 180 178)" fill="#ABABAB" stroke="#5F5F5F"/>
<rect x="-0.5" y="0.5" width="12" height="33" transform="matrix(-1 0 0 1 192 178)" fill="#ABABAB" stroke="#5F5F5F"/>
<rect x="-0.5" y="0.5" width="12" height="33" transform="matrix(-1 0 0 1 204 178)" fill="#ABABAB" stroke="#5F5F5F"/>
<rect x="373" y="8" width="20" height="205" stroke="black" stroke-width="2"/>
<rect x="372.5" y="153.5" width="21" height="30" fill="#ABABAB" stroke="#5F5F5F"/>
<rect x="372.5" y="55.5" width="21" height="30" fill="#ABABAB" stroke="#5F5F5F"/>
<path d="M271 6L149 6" stroke="black" stroke-width="3"/>
<path d="M26 6H71V18.5H149.5V4.5" stroke="black" stroke-width="3"/>
<line x1="269.5" y1="5.99997" x2="269.5" y2="22" stroke="black" stroke-width="3"/>
<line x1="335" y1="20.5" x2="268" y2="20.5" stroke="black" stroke-width="3"/>
<line x1="335.5" y1="22" x2="335.5" y2="5.99997" stroke="black" stroke-width="3"/>
<line x1="394" y1="7.49997" x2="336" y2="7.49997" stroke="black" stroke-width="3"/>
<line x1="393.5" y1="5.99997" x2="393.5" y2="56" stroke="black" stroke-width="3"/>
<line x1="393.5" y1="85" x2="393.5" y2="153" stroke="black" stroke-width="3"/>
<line x1="393.5" y1="184" x2="393.5" y2="214.5" stroke="black" stroke-width="3"/>
<line x1="27.9993" y1="213" x2="393.001" y2="213" stroke="black" stroke-width="3"/>
<line x1="27.5" y1="214" x2="27.5" y2="88" stroke="black" stroke-width="3"/>
<line x1="27.5" y1="40" x2="27.5" y2="5.99997" stroke="black" stroke-width="3"/>
<line x1="393.5" y1="38" x2="393.5" y2="83" stroke="black"/>
<line x1="393.5" y1="142" x2="393.5" y2="187" stroke="black"/>
<rect x="169.5" y="173.5" width="106" height="4" fill="#ABABAB" stroke="#5F5F5F"/>
<line x1="373" y1="118" x2="240" y2="118" stroke="black" stroke-width="2"/>
<line x1="276" y1="156" x2="276" y2="214" stroke="black" stroke-width="2"/>
<line x1="276" y1="125" x2="276" y2="117" stroke="black" stroke-width="2"/>
<line x1="134" y1="214" x2="134" y2="154" stroke="black" stroke-width="2"/>
<line x1="134" y1="123" x2="134" y2="119" stroke="black" stroke-width="2"/>
<line x1="100" y1="153" x2="100" y2="119" stroke="black" stroke-width="2"/>
<line x1="101" y1="154" x2="27" y2="154" stroke="black" stroke-width="2"/>
<line x1="164" y1="118" x2="86" y2="118" stroke="black" stroke-width="2"/>
<line x1="28" y1="118" x2="56" y2="118" stroke="black" stroke-width="2"/>
<line x1="209" y1="118" x2="195" y2="118" stroke="black" stroke-width="2"/>
<line x1="202" y1="119" x2="202" y2="6" stroke="black" stroke-width="2"/>
<line x1="372" y1="198" x2="276" y2="198" stroke="black" stroke-width="2"/>
<rect x="242" y="86" width="53" height="29" fill="#ABABAB"/>
<path d="M280 86L280 83.4359H281.5C282 81.8974 282 80.2619 282 78.8205C282 77.2821 282 75.2308 281.5 73.6923H280L279.5 71.1282L281 67.0256C280 66.5128 276 66 271 66" stroke="black"/>
<path d="M262 86L262 83.4359H260.5C260 81.8974 260 80.2619 260 78.8205C260 77.2821 260 75.2308 260.5 73.6923H262L262.5 71.1282L261 67.0256C262 66.5128 266 66 271 66" stroke="black"/>
<rect x="311" y="42" width="59" height="73" fill="#ABABAB"/>
<rect x="313.25" y="98.5643" width="26.5" height="14.1" fill="#ABABAB" stroke="#5F5F5F" stroke-width="0.5"/>
<rect x="341.25" y="98.5643" width="26.5" height="14.1" fill="#ABABAB" stroke="#5F5F5F" stroke-width="0.5"/>
<rect x="204" y="31" width="28" height="53" fill="#ABABAB"/>
<rect x="204" y="9" width="23" height="20" fill="#ABABAB"/>
<rect x="270" y="23" width="46" height="10" fill="#ABABAB"/>
<rect x="341" y="15" width="28" height="16" fill="#ABABAB"/>
<rect x="343" y="23" width="24" height="3" fill="#5F5F5F"/>
<rect x="243" y="104" width="8" height="10" fill="black"/>
<rect x="286" y="104" width="8" height="10" fill="black"/>
<path d="M350 191V197H367.122V191H364.122C364.122 191 366.619 185.5 366.619 180C366.619 173 361.58 172 358.557 172C355.534 172 350.496 173 350.496 180C350.496 185.5 353.015 191 353.015 191H350Z" stroke="black"/>
<rect x="311.5" y="119.5" width="36" height="36" fill="#ABABAB" stroke="#5F5F5F"/>
<rect x="277.5" y="165.5" width="16" height="26" fill="#ABABAB" stroke="#5F5F5F"/>
<rect x="88" y="21" width="61" height="74" fill="#ABABAB"/>
<rect x="90.3178" y="23.3643" width="27.4153" height="14.3" fill="#ABABAB" stroke="#5F5F5F" stroke-width="0.5"/>
<rect x="119.267" y="23.3643" width="27.4153" height="14.3" fill="#ABABAB" stroke="#5F5F5F" stroke-width="0.5"/>
<rect x="71" y="21" width="16" height="16" fill="#ABABAB"/>
<rect x="152" y="11" width="47" height="22" fill="#ABABAB"/>
<rect x="30" y="92" width="24" height="24" fill="#ABABAB"/>
<ellipse cx="50.6621" cy="95.7123" rx="1" ry="3.25" transform="rotate(-45 50.6621 95.7123)" fill="#D9D9D9"/>
<path d="M53.3137 98.364L47.6569 92.7071L42.7071 99.0711L46.9497 103.314L53.3137 98.364Z" fill="#5F5F5F"/>
<circle cx="36.5" cy="97.5" r="3.25" fill="#ABABAB" stroke="#5F5F5F" stroke-width="0.5"/>
<path d="M37.0185 97.5C37.9259 98.0185 37.9259 98.0185 38.8333 97.5C37.9259 96.9815 37.9259 96.9815 37.0185 97.5Z" fill="#FAFF00"/>
<path d="M34.1667 97.5C35.0741 98.0185 35.0741 98.0185 35.9815 97.5C35.0741 96.9815 35.0741 96.9815 34.1667 97.5Z" fill="#FAFF00"/>
<path d="M36.5 95.1667C35.9815 96.0741 35.9815 96.0741 36.5 96.9815C37.0185 96.0741 37.0185 96.0741 36.5 95.1667Z" fill="#FAFF00"/>
<path d="M36.5 98.0185C35.9815 98.9259 35.9815 98.9259 36.5 99.8333C37.0185 98.9259 37.0185 98.9259 36.5 98.0185Z" fill="#FAFF00"/>
<path d="M34.8501 95.8501C35.1251 96.8584 35.1251 96.8584 36.1334 97.1333C35.8584 96.1251 35.8584 96.1251 34.8501 95.8501Z" fill="#FAFF00"/>
<path d="M36.8666 97.8666C37.1416 98.8749 37.1416 98.8749 38.1499 99.1499C37.8749 98.1416 37.8749 98.1416 36.8666 97.8666Z" fill="#FAFF00"/>
<path d="M38.1499 95.8501C37.1416 96.1251 37.1416 96.1251 36.8666 97.1334C37.8749 96.8584 37.8749 96.8584 38.1499 95.8501Z" fill="#FAFF00"/>
<path d="M36.1333 97.8666C35.1251 98.1416 35.1251 98.1416 34.8501 99.1499C35.8584 98.8749 35.8584 98.8749 36.1333 97.8666Z" fill="#FAFF00"/>
<circle cx="36.5" cy="97.5" r="0.518519" fill="#5F5F5F"/>
<circle cx="48" cy="110" r="3.75" fill="#ABABAB" stroke="#5F5F5F" stroke-width="0.5"/>
<path d="M48.5926 110C49.6296 110.593 49.6296 110.593 50.6667 110C49.6296 109.407 49.6296 109.407 48.5926 110Z" fill="#FAFF00"/>
<path d="M45.3333 110C46.3704 110.593 46.3704 110.593 47.4074 110C46.3704 109.407 46.3704 109.407 45.3333 110Z" fill="#FAFF00"/>
<path d="M48 107.333C47.4074 108.37 47.4074 108.37 48 109.407C48.5926 108.37 48.5926 108.37 48 107.333Z" fill="#FAFF00"/>
<path d="M48 110.593C47.4074 111.63 47.4074 111.63 48 112.667C48.5926 111.63 48.5926 111.63 48 110.593Z" fill="#FAFF00"/>
<path d="M46.1144 108.114C46.4287 109.267 46.4287 109.267 47.581 109.581C47.2667 108.429 47.2667 108.429 46.1144 108.114Z" fill="#FAFF00"/>
<path d="M48.419 110.419C48.7333 111.571 48.7333 111.571 49.8856 111.886C49.5713 110.733 49.5713 110.733 48.419 110.419Z" fill="#FAFF00"/>
<path d="M49.8856 108.114C48.7333 108.429 48.7333 108.429 48.419 109.581C49.5713 109.267 49.5713 109.267 49.8856 108.114Z" fill="#FAFF00"/>
<path d="M47.581 110.419C46.4286 110.733 46.4286 110.733 46.1144 111.886C47.2667 111.571 47.2667 111.571 47.581 110.419Z" fill="#FAFF00"/>
<circle cx="48" cy="110" r="0.592593" fill="#5F5F5F"/>
<circle cx="36" cy="110" r="4.75" fill="#ABABAB" stroke="#5F5F5F" stroke-width="0.5"/>
<path d="M36.7407 110C38.037 110.741 38.037 110.741 39.3333 110C38.037 109.259 38.037 109.259 36.7407 110Z" fill="#FAFF00"/>
<path d="M32.6667 110C33.963 110.741 33.963 110.741 35.2593 110C33.963 109.259 33.963 109.259 32.6667 110Z" fill="#FAFF00"/>
<path d="M36 106.667C35.2593 107.963 35.2593 107.963 36 109.259C36.7407 107.963 36.7407 107.963 36 106.667Z" fill="#FAFF00"/>
<path d="M36 110.741C35.2593 112.037 35.2593 112.037 36 113.333C36.7407 112.037 36.7407 112.037 36 110.741Z" fill="#FAFF00"/>
<path d="M33.643 107.643C34.0358 109.083 34.0358 109.083 35.4762 109.476C35.0834 108.036 35.0834 108.036 33.643 107.643Z" fill="#FAFF00"/>
<path d="M36.5238 110.524C36.9166 111.964 36.9166 111.964 38.357 112.357C37.9642 110.917 37.9642 110.917 36.5238 110.524Z" fill="#FAFF00"/>
<path d="M38.357 107.643C36.9166 108.036 36.9166 108.036 36.5238 109.476C37.9642 109.083 37.9642 109.083 38.357 107.643Z" fill="#FAFF00"/>
<path d="M35.4762 110.524C34.0358 110.917 34.0358 110.917 33.643 112.357C35.0834 111.964 35.0834 111.964 35.4762 110.524Z" fill="#FAFF00"/>
<circle cx="36" cy="110" r="0.740741" fill="#5F5F5F"/>
<circle cx="76.5" cy="26.5" r="4.5" fill="#ABABAB" stroke="#5F5F5F"/>
<rect x="93" y="115" width="55" height="2" fill="#5F5F5F"/>
<line x1="97" y1="114.5" x2="144" y2="114.5" stroke="#5F5F5F"/>
<line x1="200.5" y1="28.5" x2="200.5" y2="7.5" stroke="#5F5F5F"/>
<line x1="155" y1="8" x2="200" y2="8" stroke="#5F5F5F"/>
</svg>
