<svg width="400" height="222" viewBox="0 0 400 222" fill="none" xmlns="http://www.w3.org/2000/svg">
<rect width="400" height="222" fill="white"/>
<line x1="393" y1="118" x2="240" y2="118" stroke="black" stroke-width="2"/>
<line x1="276" y1="156" x2="276" y2="214" stroke="black" stroke-width="2"/>
<line x1="276" y1="125" x2="276" y2="117" stroke="black" stroke-width="2"/>
<line x1="134" y1="214" x2="134" y2="172" stroke="black" stroke-width="2"/>
<line x1="93" y1="171" x2="135" y2="171" stroke="black" stroke-width="2"/>
<line x1="28" y1="171" x2="62" y2="171" stroke="black" stroke-width="2"/>
<line x1="159" y1="129" x2="29" y2="129" stroke="black" stroke-width="2"/>
<line x1="203" y1="129" x2="190" y2="129" stroke="black" stroke-width="2"/>
<line x1="209" y1="118" x2="202" y2="118" stroke="black" stroke-width="2"/>
<line x1="202" y1="128" x2="202" y2="6" stroke="black" stroke-width="2"/>
<path d="M271 6L26 6" stroke="black" stroke-width="3"/>
<line x1="269.5" y1="6" x2="269.5" y2="22" stroke="black" stroke-width="3"/>
<line x1="335" y1="20.5" x2="268" y2="20.5" stroke="black" stroke-width="3"/>
<line x1="335.5" y1="22" x2="335.5" y2="6" stroke="black" stroke-width="3"/>
<line x1="394" y1="7.5" x2="336" y2="7.5" stroke="black" stroke-width="3"/>
<line x1="393.5" y1="6" x2="393.5" y2="28" stroke="black" stroke-width="3"/>
<line x1="393.5" y1="66" x2="393.5" y2="131" stroke="black" stroke-width="3"/>
<line x1="393.5" y1="175" x2="393.5" y2="214.5" stroke="black" stroke-width="3"/>
<line x1="27.9993" y1="213" x2="393.001" y2="213" stroke="black" stroke-width="3"/>
<line x1="27.5" y1="214.5" x2="27.5" y2="166" stroke="black" stroke-width="3"/>
<line x1="27.5" y1="136" x2="27.5" y2="89" stroke="black" stroke-width="3"/>
<line x1="27.5" y1="40" x2="27.5" y2="6" stroke="black" stroke-width="3"/>
<line x1="393.5" y1="26" x2="393.5" y2="71" stroke="black"/>
<line x1="393.5" y1="131" x2="393.5" y2="176" stroke="black"/>
<path d="M189 98.5H189.5V129.5H158.5V129C158.5 112.155 172.155 98.5 189 98.5Z" stroke="black"/>
<line x1="159" y1="129.5" x2="189" y2="129.5" stroke="white"/>
<path d="M63 140.5H62.5V171.5H93.5V171C93.5 154.155 79.8447 140.5 63 140.5Z" stroke="black"/>
<line y1="-0.5" x2="30" y2="-0.5" transform="matrix(-1 0 0 1 93 172)" stroke="white"/>
<path d="M57.5 166V166.5H26.5L26.5 135.5H27C43.8447 135.5 57.5 149.155 57.5 166Z" stroke="black"/>
<line x1="26.5" y1="136" x2="26.5" y2="166" stroke="white"/>
<path d="M210 87.5H209.5V118.5H240.5V118C240.5 101.155 226.845 87.5 210 87.5Z" stroke="black"/>
<line y1="-0.5" x2="30" y2="-0.5" transform="matrix(-1 0 0 1 240 119)" stroke="white"/>
<path d="M306.5 126V125.5H275.5V156.5H276C292.845 156.5 306.5 142.845 306.5 126Z" stroke="black"/>
<line y1="-0.5" x2="30" y2="-0.5" transform="matrix(0 -1 -1 0 275 156)" stroke="white"/>
<path d="M28.5 40.5V64.495C15.3661 64.2321 4.76792 53.6339 4.505 40.5H28.5Z" stroke="black"/>
<line x1="28.5" y1="64" x2="28.5" y2="41" stroke="white"/>
<path d="M28.5 88.5L28.5 64.505C15.3661 64.7679 4.76792 75.3661 4.505 88.5H28.5Z" stroke="black"/>
<line x1="28.5" y1="65" x2="28.5" y2="88" stroke="white"/>
<line x1="177" y1="72.5" x2="201" y2="72.5" stroke="#ABABAB"/>
<line x1="177" y1="92.5" x2="201" y2="92.5" stroke="#ABABAB"/>
<line x1="176.5" y1="93" x2="176.5" y2="32" stroke="#ABABAB"/>
<circle cx="137" cy="23" r="3.75" stroke="black" stroke-width="0.5"/>
<circle cx="146" cy="23" r="1.75" stroke="black" stroke-width="0.5"/>
<circle cx="146" cy="15" r="2.75" stroke="black" stroke-width="0.5"/>
<line x1="29" y1="31.5" x2="177" y2="31.5" stroke="#ABABAB"/>
<rect x="86.25" y="9.75" width="17.5" height="18.5" fill="#E2E2E2" stroke="#5F5F5F" stroke-width="0.5"/>
<rect x="77.25" y="9.75" width="6.5" height="18.5" fill="#E2E2E2" stroke="#5F5F5F" stroke-width="0.5"/>
<rect x="75.5" y="8" width="30" height="22.5" stroke="#5F5F5F"/>
<rect x="131.5" y="10.5" width="20" height="18" stroke="#5F5F5F"/>
<circle cx="137" cy="15" r="2.75" stroke="black" stroke-width="0.5"/>
<rect x="187.772" y="9.7848" width="20" height="13" transform="rotate(55 187.772 9.7848)" stroke="#5F5F5F"/>
<rect x="92" y="78" width="35" height="50" fill="#ABABAB"/>
<line x1="89" y1="97.5" x2="92" y2="97.5" stroke="black"/>
<path d="M87.8571 81L90 82.3571C90 82.3571 87.1429 86.4286 87.1429 90.5C87.1429 94.5714 90 98.6429 90 98.6429L87.8571 100C87.8571 100 85 95.9286 85 90.5C85 85.75 87.8571 81 87.8571 81Z" stroke="black"/>
<line x1="89" y1="84.5" x2="92" y2="84.5" stroke="black"/>
<line x1="89" y1="118.5" x2="92" y2="118.5" stroke="black"/>
<path d="M87.8571 102L90 103.357C90 103.357 87.1429 107.429 87.1429 111.5C87.1429 115.571 90 119.643 90 119.643L87.8571 121C87.8571 121 85 116.929 85 111.5C85 106.75 87.8571 102 87.8571 102Z" stroke="black"/>
<line x1="89" y1="105.5" x2="92" y2="105.5" stroke="black"/>
<line y1="-0.5" x2="3" y2="-0.5" transform="matrix(-1 0 0 1 130 120)" stroke="black"/>
<path d="M131.143 103L129 104.357C129 104.357 131.857 108.429 131.857 112.5C131.857 116.571 129 120.643 129 120.643L131.143 122C131.143 122 134 117.929 134 112.5C134 107.75 131.143 103 131.143 103Z" stroke="black"/>
<line y1="-0.5" x2="3" y2="-0.5" transform="matrix(-1 0 0 1 130 107)" stroke="black"/>
<line y1="-0.5" x2="3" y2="-0.5" transform="matrix(-1 0 0 1 130 98)" stroke="black"/>
<path d="M131.143 81L129 82.3571C129 82.3571 131.857 86.4286 131.857 90.5C131.857 94.5714 129 98.6429 129 98.6429L131.143 100C131.143 100 134 95.9286 134 90.5C134 85.75 131.143 81 131.143 81Z" stroke="black"/>
<line y1="-0.5" x2="3" y2="-0.5" transform="matrix(-1 0 0 1 130 85)" stroke="black"/>
<circle cx="37.5" cy="119.5" r="6" fill="#ABABAB" stroke="#5F5F5F"/>
<path d="M37 184.603H31V201.726H37V198.726C37 198.726 42.5 201.222 48 201.222C55 201.222 56 196.184 56 193.161C56 190.138 55 185.099 48 185.099C42.5 185.099 37 187.619 37 187.619V184.603Z" stroke="black"/>
<line x1="37" y1="185.099" x2="37" y2="202.23" stroke="black"/>
<rect x="65.5" y="195.676" width="23" height="15.324" fill="#ABABAB" stroke="#5F5F5F"/>
<path d="M94.5 172.5H132.5V211H94.5V172.5Z" fill="#ABABAB" stroke="#5F5F5F"/>
<rect x="332.5" y="58.5" width="29" height="57" fill="#ABABAB" stroke="#5F5F5F"/>
<circle cx="383.5" cy="16.5" r="6" fill="#ABABAB" stroke="#5F5F5F"/>
<rect x="206" y="10" width="50" height="34" fill="#ABABAB"/>
<rect x="275" y="24" width="55" height="13" fill="#ABABAB"/>
<rect x="273" y="28" width="59" height="3" fill="#5F5F5F"/>
<rect x="263" y="24" width="9" height="13" fill="black"/>
<rect x="333" y="24" width="9" height="13" fill="black"/>
<rect x="344" y="12" width="18" height="19" fill="#ABABAB"/>
<line x1="345.158" y1="25.5257" x2="354.158" y2="28.5257" stroke="black"/>
<rect x="347.803" y="22.3926" width="4" height="3" transform="rotate(-14 347.803 22.3926)" fill="#046307"/>
<rect x="249" y="95" width="21" height="21" fill="#ABABAB"/>
<rect x="296" y="52" width="25" height="25" fill="#ABABAB"/>
<rect x="370" y="95" width="21" height="21" fill="#ABABAB"/>
<rect x="272.5" y="87.5" width="60" height="28" fill="#ABABAB" stroke="#5F5F5F"/>
<line x1="203.5" y1="18" x2="203.5" y2="84" stroke="#5F5F5F"/>
<rect x="333.5" y="135.3" width="57" height="75" fill="#ABABAB" stroke="#5F5F5F"/>
<rect x="278" y="183.8" width="50" height="27" fill="#ABABAB"/>
<path d="M312 183.8L312 181.236H313.5C314 179.697 314 178.062 314 176.621C314 175.082 314 173.031 313.5 171.492H312L311.5 168.928L313 164.826C312 164.313 308 163.8 303 163.8" stroke="black"/>
<path d="M294 183.8L294 181.236H292.5C292 179.697 292 178.062 292 176.621C292 175.082 292 173.031 292.5 171.492H294L294.5 168.928L293 164.826C294 164.313 298 163.8 303 163.8" stroke="black"/>
<rect x="335.25" y="195.25" width="26.5" height="13.5" fill="#ABABAB" stroke="#5F5F5F" stroke-width="0.5"/>
<rect x="362.25" y="195.25" width="26.5" height="13.5" fill="#ABABAB" stroke="#5F5F5F" stroke-width="0.5"/>
<rect x="241.5" y="168" width="33" height="10" fill="#ABABAB" stroke="#5F5F5F"/>
<path d="M241.5 211V179.507L258.231 211H241.5ZM259.363 211L242.131 178.563L274.5 193.277V211H259.363ZM274.5 192.178L243.308 178H274.5V192.178Z" fill="#ABABAB" stroke="#5F5F5F"/>
<rect x="229.5" y="178" width="12" height="33" fill="#ABABAB" stroke="#5F5F5F"/>
<rect x="217.5" y="178" width="12" height="33" fill="#ABABAB" stroke="#5F5F5F"/>
<rect x="205.5" y="178" width="12" height="33" fill="#ABABAB" stroke="#5F5F5F"/>
</svg>
