<svg width="1021" height="794" xmlns="http://www.w3.org/2000/svg" xmlns:xlink="http://www.w3.org/1999/xlink" overflow="hidden"><defs><clipPath id="clip0"><path d="M0 0 1021 0 1021 794 0 794Z" fill-rule="evenodd" clip-rule="evenodd"/></clipPath></defs><g clip-path="url(#clip0)"><rect x="0" y="0" width="133.991" height="104" fill="#FFF2CC" transform="matrix(1.00007 0 -0 1 362 310)"/><rect x="0" y="0" width="131.991" height="130" fill="#FFF2CC" transform="matrix(1.00007 0 -0 1 53 42)"/><rect x="0" y="0" width="371.974" height="243" fill="#FFF2CC" transform="matrix(1.00007 0 -0 1 53 170)"/><rect x="0" y="0" width="51.9963" height="44" stroke="#A6A6A6" stroke-width="2.99979" stroke-miterlimit="8" fill="none" transform="matrix(1.00007 0 -0 1 61.5 49.5)"/><path d="M0 14.5C-3.69183e-15 6.49187 6.49142 0 14.499 0 22.5066-3.69209e-15 28.998 6.49187 28.998 14.5 28.998 22.5081 22.5066 29 14.499 29 6.49142 29-5.53775e-15 22.5081 0 14.5Z" stroke="#A6A6A6" stroke-width="2.99979" stroke-miterlimit="8" fill="none" fill-rule="evenodd" transform="matrix(1.00007 0 -0 1 244.5 297.5)"/><rect x="0" y="0" width="163.989" height="87" stroke="#A6A6A6" stroke-width="2.99979" stroke-miterlimit="8" fill="none" transform="matrix(1.00007 0 -0 1 254.5 176.5)"/><rect x="0" y="0" width="54.9961" height="55" stroke="#A6A6A6" stroke-width="2.99979" stroke-miterlimit="8" fill="none" transform="matrix(1.00007 0 -0 1 193.5 176.5)"/><path d="M0 0-0.000105031-52.9356" stroke="#A6A6A6" stroke-width="2.99979" stroke-miterlimit="8" fill="none" fill-rule="evenodd" transform="matrix(-1.00007 -0 -0 1 388.5 236.436)"/><path d="M0 0-24.4694-0.000105031" stroke="#A6A6A6" stroke-width="2.99979" stroke-miterlimit="8" fill="none" fill-rule="evenodd" transform="matrix(1.00007 8.74289e-08 8.74228e-08 -1 412.971 184.5)"/><path d="M0 0-0.000105031-52.9356" stroke="#A6A6A6" stroke-width="2.99979" stroke-miterlimit="8" fill="none" fill-rule="evenodd" transform="matrix(-1.00007 -0 -0 1 413.5 236.436)"/><path d="M0 0-13.9008-4.35732" stroke="#A6A6A6" stroke-width="2.99979" stroke-miterlimit="8" fill="none" fill-rule="evenodd" transform="matrix(-1.00007 -0 -0 1 400.5 238.857)"/><path d="M0 0 13.9008 4.35732" stroke="#A6A6A6" stroke-width="2.99979" stroke-miterlimit="8" fill="none" fill-rule="evenodd" transform="matrix(-1.00007 -8.74289e-08 8.74228e-08 -1 401.402 238.857)"/><path d="M0 0-68.2068-0.000105031" stroke="#A6A6A6" stroke-width="2.99979" stroke-miterlimit="8" fill="none" fill-rule="evenodd" transform="matrix(1.00007 8.74289e-08 8.74228e-08 -1 380.712 195.5)"/><path d="M0 0-1.929-7.00294" stroke="#A6A6A6" stroke-width="2.99979" stroke-miterlimit="8" fill="none" fill-rule="evenodd" transform="matrix(1.00007 8.74289e-08 8.74228e-08 -1 316.429 187.5)"/><path d="M0 0 1.929 7.00294" stroke="#A6A6A6" stroke-width="2.99979" stroke-miterlimit="8" fill="none" fill-rule="evenodd" transform="matrix(1.00007 0 -0 1 377.5 187.5)"/><path d="M0 0-64.279-0.000105031" stroke="#A6A6A6" stroke-width="2.99979" stroke-miterlimit="8" fill="none" fill-rule="evenodd" transform="matrix(1.00007 8.74289e-08 8.74228e-08 -1 378.784 188.5)"/><path d="M0 0-53.0633-0.000105032" stroke="#A6A6A6" stroke-width="3.00129" stroke-miterlimit="8" fill="none" fill-rule="evenodd" transform="matrix(0.934239 -0.356794 -0.356776 -0.93419 310.444 194.794)"/><path d="M0 0-1.5007-5.44811" stroke="#A6A6A6" stroke-width="3.00129" stroke-miterlimit="8" fill="none" fill-rule="evenodd" transform="matrix(0.934239 -0.356794 -0.356776 -0.93419 261.098 207.391)"/><path d="M0 0 1.5007 5.44811" stroke="#A6A6A6" stroke-width="3.00129" stroke-miterlimit="8" fill="none" fill-rule="evenodd" transform="matrix(0.934239 -0.356794 0.356776 0.93419 306.027 190.232)"/><path d="M0 0-50.0075-0.000105032" stroke="#A6A6A6" stroke-width="3.00129" stroke-miterlimit="8" fill="none" fill-rule="evenodd" transform="matrix(0.934239 -0.356794 -0.356776 -0.93419 307.143 190.431)"/><rect x="0" y="0" width="91.9935" height="30" stroke="#A6A6A6" stroke-width="2.99979" stroke-miterlimit="8" fill="none" transform="matrix(1.00007 0 -0 1 171.5 381.5)"/><rect x="0" y="0" width="164" height="86.9939" stroke="#A6A6A6" stroke-width="2.99979" stroke-miterlimit="8" fill="none" transform="matrix(-4.37114e-08 1 -1.00007 -4.37144e-08 145.5 247.5)"/><rect x="0" y="0" width="913.936" height="709" stroke="#7E7E7E" stroke-width="5.99958" stroke-miterlimit="8" fill="none" transform="matrix(1.00007 0 -0 1 53 42)"/><path d="M0 0 0.000105031 127.356" stroke="#7E7E7E" stroke-width="3.99968" stroke-miterlimit="8" fill="none" fill-rule="evenodd" transform="matrix(1.00007 0 -0 1 185 42)"/><path d="M0 0-25.2358-0.000105031" stroke="#7E7E7E" stroke-width="3.99968" stroke-miterlimit="8" fill="none" fill-rule="evenodd" transform="matrix(1.00007 8.74289e-08 8.74228e-08 -1 78.2376 170)"/><path d="M0 0-334.365-0.000105031" stroke="#7E7E7E" stroke-width="3.99968" stroke-miterlimit="8" fill="none" fill-rule="evenodd" transform="matrix(1.00007 8.74289e-08 8.74228e-08 -1 497.389 170)"/><path d="M0 0 0.000105031 34.0143" stroke="#7E7E7E" stroke-width="3.99968" stroke-miterlimit="8" fill="none" fill-rule="evenodd" transform="matrix(1.00007 0 -0 1 495 170)"/><path d="M0 0 0.000105031 140.559" stroke="#7E7E7E" stroke-width="3.99968" stroke-miterlimit="8" fill="none" fill-rule="evenodd" transform="matrix(1.00007 0 -0 1 425 170)"/><path d="M0 0-72.4481-0.000105031" stroke="#7E7E7E" stroke-width="3.99968" stroke-miterlimit="8" fill="none" fill-rule="evenodd" transform="matrix(1.00007 8.74289e-08 8.74228e-08 -1 495.453 310)"/><path d="M0 0-0.000105031-28.0118" stroke="#7E7E7E" stroke-width="3.99968" stroke-miterlimit="8" fill="none" fill-rule="evenodd" transform="matrix(-1.00007 -0 -0 1 495 322.012)"/><path d="M0 0-441.911-0.000105031" stroke="#7E7E7E" stroke-width="3.99968" stroke-miterlimit="8" fill="none" fill-rule="evenodd" transform="matrix(1.00007 8.74289e-08 8.74228e-08 -1 494.942 415)"/><path d="M0 0-0.000105031-34.5145" stroke="#7E7E7E" stroke-width="3.99968" stroke-miterlimit="8" fill="none" fill-rule="evenodd" transform="matrix(-1.00007 -0 -0 1 495 432.515)"/><path d="M0 0-0.000105031-20.0081" stroke="#7E7E7E" stroke-width="3.99968" stroke-miterlimit="8" fill="none" fill-rule="evenodd" transform="matrix(-1.00007 -0 -0 1 495 544.008)"/><path d="M0 0 115.548 0.000105031" stroke="#7E7E7E" stroke-width="3.99968" stroke-miterlimit="8" fill="none" fill-rule="evenodd" transform="matrix(1.00007 0 -0 1 396 544)"/><path d="M0 0 0.000105031 207.132" stroke="#7E7E7E" stroke-width="3.99968" stroke-miterlimit="8" fill="none" fill-rule="evenodd" transform="matrix(1.00007 0 -0 1 396 542)"/><path d="M0 0-0.000105031-297.17" stroke="#7E7E7E" stroke-width="3.99968" stroke-miterlimit="8" fill="none" fill-rule="evenodd" transform="matrix(-1.00007 -0 -0 1 619 749.17)"/><path d="M0 0 16.0064 0.000105031" stroke="#7E7E7E" stroke-width="3.99968" stroke-miterlimit="8" fill="none" fill-rule="evenodd" transform="matrix(1.00007 0 -0 1 603 544)"/><path d="M0 0-0.000105031-320.937" stroke="#7E7E7E" stroke-width="3.99968" stroke-miterlimit="8" fill="none" fill-rule="evenodd" transform="matrix(-1.00007 -0 -0 1 619 362.937)"/></g></svg>