<svg width="1021" height="794" xmlns="http://www.w3.org/2000/svg" xmlns:xlink="http://www.w3.org/1999/xlink"
     overflow="hidden">
    <defs>
        <clipPath id="clip0">
            <path d="M0 0 1021 0 1021 794 0 794Z" fill-rule="evenodd" clip-rule="evenodd"/>
        </clipPath>
        <linearGradient x1="155.989" y1="231" x2="0" y2="231" gradientUnits="userSpaceOnUse" spreadMethod="reflect"
                        id="fill1">
            <stop offset="0" stop-color="#B4C7E7"/>
            <stop offset="0.27" stop-color="#B4C7E7"/>
            <stop offset="1" stop-color="#FFFFFF" stop-opacity="0"/>
        </linearGradient>
    </defs>
    <g clip-path="url(#clip0)">
        <path d="M155.989 38.9736 155.989 302.858 0 462 0 0 115.192 0 155.989 38.9736Z" fill="url(#fill1)"
              fill-rule="evenodd" transform="matrix(1.00007 0 -0 1 808 45)"/>
        <rect x="0" y="0" width="124.991" height="82" stroke="#DADADA" stroke-width="2.99979" stroke-miterlimit="8"
              fill="none" transform="matrix(1.00007 0 -0 1 836.5 426.5)"/>
        <path d="M-27.4931-5.70885C-41.9515 1.91009-59.086 1.90257-73.5381-5.72906L-70.7819-11.264C-58.0643-4.49399-42.968-4.48732-30.2448-11.2461Z"
              stroke="#DADADA" stroke-width="2.99979" stroke-miterlimit="8" fill="none" fill-rule="evenodd"
              transform="matrix(1.00007 8.74289e-08 8.74228e-08 -1 921.5 410.5)"/>
        <path d="M0 0 0.000105031 6.28747" stroke="#DADADA" stroke-width="2.99979" stroke-miterlimit="8" fill="none"
              fill-rule="evenodd" transform="matrix(1.00007 0 -0 1 851.5 421.5)"/>
        <path d="M0 0 0.000105031 6.28747" stroke="#DADADA" stroke-width="2.99979" stroke-miterlimit="8" fill="none"
              fill-rule="evenodd" transform="matrix(1.00007 0 -0 1 890.5 421.5)"/>
        <path d="M-27.669-5.56272C-42.0319 1.86113-59.0053 1.85379-73.3621-5.58247L-70.6063-11.1167C-57.9835-4.54298-43.0484-4.5365-30.4203-11.0992Z"
              stroke="#DADADA" stroke-width="2.99979" stroke-miterlimit="8" fill="none" fill-rule="evenodd"
              transform="matrix(1.00007 8.74289e-08 8.74228e-08 -1 984.5 410.5)"/>
        <path d="M0 0 0.000105031 6.28747" stroke="#DADADA" stroke-width="2.99979" stroke-miterlimit="8" fill="none"
              fill-rule="evenodd" transform="matrix(1.00007 0 -0 1 914.5 421.5)"/>
        <path d="M0 0 0.000105031 6.28747" stroke="#DADADA" stroke-width="2.99979" stroke-miterlimit="8" fill="none"
              fill-rule="evenodd" transform="matrix(1.00007 0 -0 1 953.5 421.5)"/>
        <path d="M27.4931 5.70885C41.9515-1.91009 59.086-1.90257 73.5381 5.72906L70.7819 11.264C58.0643 4.49399 42.968 4.48732 30.2448 11.2461Z"
              stroke="#DADADA" stroke-width="2.99979" stroke-miterlimit="8" fill="none" fill-rule="evenodd"
              transform="matrix(-1.00007 -8.74289e-08 8.74228e-08 -1 921.5 524.5)"/>
        <path d="M0 0-0.000105031-6.28747" stroke="#DADADA" stroke-width="2.99979" stroke-miterlimit="8" fill="none"
              fill-rule="evenodd" transform="matrix(-1.00007 -0 -0 1 851.5 513.787)"/>
        <path d="M0 0-0.000105031-6.28747" stroke="#DADADA" stroke-width="2.99979" stroke-miterlimit="8" fill="none"
              fill-rule="evenodd" transform="matrix(-1.00007 -0 -0 1 890.5 513.787)"/>
        <path d="M27.4931 5.70885C41.9515-1.91009 59.086-1.90257 73.5381 5.72906L70.7819 11.264C58.0643 4.49399 42.968 4.48732 30.2448 11.2461Z"
              stroke="#DADADA" stroke-width="2.99979" stroke-miterlimit="8" fill="none" fill-rule="evenodd"
              transform="matrix(-1.00007 -8.74289e-08 8.74228e-08 -1 984.5 524.5)"/>
        <path d="M0 0-0.000105031-6.28747" stroke="#DADADA" stroke-width="2.99979" stroke-miterlimit="8" fill="none"
              fill-rule="evenodd" transform="matrix(-1.00007 -0 -0 1 914.5 513.787)"/>
        <path d="M0 0-0.000105031-6.28747" stroke="#DADADA" stroke-width="2.99979" stroke-miterlimit="8" fill="none"
              fill-rule="evenodd" transform="matrix(-1.00007 -0 -0 1 953.5 513.787)"/>
        <rect x="0" y="0" width="82.9942" height="109" stroke="#DADADA" stroke-width="2.99979" stroke-miterlimit="8"
              fill="none" transform="matrix(1.00007 0 -0 1 739.5 161.5)"/>
        <rect x="0" y="0" width="37.9974" height="38" stroke="#DADADA" stroke-width="2.99979" stroke-miterlimit="8"
              fill="none" transform="matrix(1.00007 0 -0 1 787.5 52.5)"/>
        <rect x="0" y="0" width="37.9974" height="30" stroke="#DADADA" stroke-width="2.99979" stroke-miterlimit="8"
              fill="none" transform="matrix(1.00007 0 -0 1 914.5 49.5)"/>
        <rect x="0" y="0" width="37.9974" height="30" stroke="#DADADA" stroke-width="2.99979" stroke-miterlimit="8"
              fill="none" transform="matrix(1.00007 0 -0 1 914.5 352.5)"/>
        <rect x="0" y="0" width="43.9969" height="65" stroke="#DADADA" stroke-width="2.99979" stroke-miterlimit="8"
              fill="none" transform="matrix(1.00007 0 -0 1 911.5 281.5)"/>
        <rect x="0" y="0" width="43.9969" height="131" stroke="#DADADA" stroke-width="2.99979" stroke-miterlimit="8"
              fill="none" transform="matrix(1.00007 0 -0 1 911.5 150.5)"/>
        <rect x="0" y="0" width="43.9969" height="65" stroke="#DADADA" stroke-width="2.99979" stroke-miterlimit="8"
              fill="none" transform="matrix(1.00007 0 -0 1 911.5 85.5)"/>
        <path d="M2.99973 0 116 0 119 2.99979 119 5.99958 119 5.99958 0 5.99958 0 5.99958 0 2.99979Z" stroke="#DADADA"
              stroke-width="2.99979" stroke-miterlimit="8" fill="none" fill-rule="evenodd"
              transform="matrix(-4.37114e-08 1 -1.00007 -4.37144e-08 929.5 156.5)"/>
        <path d="M0 0 6.906 2.0063" stroke="#DADADA" stroke-width="2.99979" stroke-miterlimit="8" fill="none"
              fill-rule="evenodd" transform="matrix(1.00007 0 -0 1 916.5 173.5)"/>
        <path d="M0 0-15.5907-4.49648" stroke="#DADADA" stroke-width="2.99979" stroke-miterlimit="8" fill="none"
              fill-rule="evenodd" transform="matrix(-1.00007 -0 -0 1 929.5 175.997)"/>
        <path d="M0 0-6.906-2.0063" stroke="#DADADA" stroke-width="2.99979" stroke-miterlimit="8" fill="none"
              fill-rule="evenodd" transform="matrix(-1.00007 -0 -0 1 916.5 258.506)"/>
        <path d="M0 0 15.5907 4.49648" stroke="#DADADA" stroke-width="2.99979" stroke-miterlimit="8" fill="none"
              fill-rule="evenodd" transform="matrix(1.00007 0 -0 1 929.5 255.5)"/>
        <rect x="0" y="0" width="913.936" height="709" stroke="#7E7E7E" stroke-width="5.99958" stroke-miterlimit="8"
              fill="none" transform="matrix(1.00007 0 -0 1 53 42)"/>
        <path d="M0 0 0.000105031 127.356" stroke="#7E7E7E" stroke-width="3.99968" stroke-miterlimit="8" fill="none"
              fill-rule="evenodd" transform="matrix(1.00007 0 -0 1 185 42)"/>
        <path d="M0 0-25.2358-0.000105031" stroke="#7E7E7E" stroke-width="3.99968" stroke-miterlimit="8" fill="none"
              fill-rule="evenodd" transform="matrix(1.00007 8.74289e-08 8.74228e-08 -1 78.2376 170)"/>
        <path d="M0 0-334.365-0.000105031" stroke="#7E7E7E" stroke-width="3.99968" stroke-miterlimit="8" fill="none"
              fill-rule="evenodd" transform="matrix(1.00007 8.74289e-08 8.74228e-08 -1 497.389 170)"/>
        <path d="M0 0 0.000105031 34.0143" stroke="#7E7E7E" stroke-width="3.99968" stroke-miterlimit="8" fill="none"
              fill-rule="evenodd" transform="matrix(1.00007 0 -0 1 495 170)"/>
        <path d="M0 0 0.000105031 140.559" stroke="#7E7E7E" stroke-width="3.99968" stroke-miterlimit="8" fill="none"
              fill-rule="evenodd" transform="matrix(1.00007 0 -0 1 425 170)"/>
        <path d="M0 0-72.4481-0.000105031" stroke="#7E7E7E" stroke-width="3.99968" stroke-miterlimit="8" fill="none"
              fill-rule="evenodd" transform="matrix(1.00007 8.74289e-08 8.74228e-08 -1 495.453 310)"/>
        <path d="M0 0-0.000105031-28.0118" stroke="#7E7E7E" stroke-width="3.99968" stroke-miterlimit="8" fill="none"
              fill-rule="evenodd" transform="matrix(-1.00007 -0 -0 1 495 322.012)"/>
        <path d="M0 0-441.911-0.000105031" stroke="#7E7E7E" stroke-width="3.99968" stroke-miterlimit="8" fill="none"
              fill-rule="evenodd" transform="matrix(1.00007 8.74289e-08 8.74228e-08 -1 494.942 415)"/>
        <path d="M0 0-0.000105031-34.5145" stroke="#7E7E7E" stroke-width="3.99968" stroke-miterlimit="8" fill="none"
              fill-rule="evenodd" transform="matrix(-1.00007 -0 -0 1 495 432.515)"/>
        <path d="M0 0-0.000105031-20.0081" stroke="#7E7E7E" stroke-width="3.99968" stroke-miterlimit="8" fill="none"
              fill-rule="evenodd" transform="matrix(-1.00007 -0 -0 1 495 544.008)"/>
        <path d="M0 0 115.548 0.000105031" stroke="#7E7E7E" stroke-width="3.99968" stroke-miterlimit="8" fill="none"
              fill-rule="evenodd" transform="matrix(1.00007 0 -0 1 396 544)"/>
        <path d="M0 0 0.000105031 207.132" stroke="#7E7E7E" stroke-width="3.99968" stroke-miterlimit="8" fill="none"
              fill-rule="evenodd" transform="matrix(1.00007 0 -0 1 396 542)"/>
        <path d="M0 0-0.000105031-297.17" stroke="#7E7E7E" stroke-width="3.99968" stroke-miterlimit="8" fill="none"
              fill-rule="evenodd" transform="matrix(-1.00007 -0 -0 1 619 749.17)"/>
        <path d="M0 0 16.0064 0.000105031" stroke="#7E7E7E" stroke-width="3.99968" stroke-miterlimit="8" fill="none"
              fill-rule="evenodd" transform="matrix(1.00007 0 -0 1 603 544)"/>
        <path d="M0 0-0.000105031-320.937" stroke="#7E7E7E" stroke-width="3.99968" stroke-miterlimit="8" fill="none"
              fill-rule="evenodd" transform="matrix(-1.00007 -0 -0 1 619 362.937)"/>
    </g>
</svg>